<svg id="SvgjsSvg1006" width="961" height="744.609375" xmlns="http://www.w3.org/2000/svg" version="1.1" xmlns:xlink="http://www.w3.org/1999/xlink" xmlns:svgjs="http://svgjs.com/svgjs"><defs id="SvgjsDefs1007"><marker id="SvgjsMarker1118" markerWidth="16" markerHeight="12" refX="16" refY="6" viewBox="0 0 16 12" orient="auto" markerUnits="userSpaceOnUse" stroke-dasharray="0,0"><path id="SvgjsPath1119" d="M0,2 L14,6 L0,11 L0,2" fill="#6666ff" stroke="#6666ff" stroke-width="2"></path></marker><marker id="SvgjsMarker1122" markerWidth="16" markerHeight="12" refX="16" refY="6" viewBox="0 0 16 12" orient="auto" markerUnits="userSpaceOnUse" stroke-dasharray="0,0"><path id="SvgjsPath1123" d="M0,2 L14,6 L0,11 L0,2" fill="#6666ff" stroke="#6666ff" stroke-width="2"></path></marker><marker id="SvgjsMarker1126" markerWidth="16" markerHeight="12" refX="16" refY="6" viewBox="0 0 16 12" orient="auto" markerUnits="userSpaceOnUse" stroke-dasharray="0,0"><path id="SvgjsPath1127" d="M0,2 L14,6 L0,11 L0,2" fill="#6666ff" stroke="#6666ff" stroke-width="2"></path></marker><marker id="SvgjsMarker1130" markerWidth="14" markerHeight="12" refX="16" refY="6" viewBox="0 0 14 12" orient="auto" markerUnits="userSpaceOnUse" stroke-dasharray="0,0"><path id="SvgjsPath1131" d="M1,1 L14,6 L1,11L1,1" fill="#ffffff" stroke="#323232" stroke-width="2"></path></marker><marker id="SvgjsMarker1134" markerWidth="14" markerHeight="12" refX="16" refY="6" viewBox="0 0 14 12" orient="auto" markerUnits="userSpaceOnUse" stroke-dasharray="0,0"><path id="SvgjsPath1135" d="M1,1 L14,6 L1,11L1,1" fill="#ffffff" stroke="#323232" stroke-width="2"></path></marker><marker id="SvgjsMarker1138" markerWidth="14" markerHeight="12" refX="16" refY="6" viewBox="0 0 14 12" orient="auto" markerUnits="userSpaceOnUse" stroke-dasharray="0,0"><path id="SvgjsPath1139" d="M1,1 L14,6 L1,11L1,1" fill="#ffffff" stroke="#323232" stroke-width="2"></path></marker><marker id="SvgjsMarker1142" markerWidth="14" markerHeight="12" refX="16" refY="6" viewBox="0 0 14 12" orient="auto" markerUnits="userSpaceOnUse" stroke-dasharray="0,0"><path id="SvgjsPath1143" d="M1,1 L14,6 L1,11L1,1" fill="#ffffff" stroke="#323232" stroke-width="2"></path></marker><marker id="SvgjsMarker1146" markerWidth="14" markerHeight="12" refX="16" refY="6" viewBox="0 0 14 12" orient="auto" markerUnits="userSpaceOnUse" stroke-dasharray="0,0"><path id="SvgjsPath1147" d="M1,1 L14,6 L1,11L1,1" fill="#ffffff" stroke="#323232" stroke-width="2"></path></marker><marker id="SvgjsMarker1150" markerWidth="14" markerHeight="12" refX="16" refY="6" viewBox="0 0 14 12" orient="auto" markerUnits="userSpaceOnUse" stroke-dasharray="0,0"><path id="SvgjsPath1151" d="M1,1 L14,6 L1,11L1,1" fill="#ffffff" stroke="#323232" stroke-width="2"></path></marker></defs><g id="SvgjsG1008" transform="translate(552,25.00937271118164)"><path id="SvgjsPath1009" d="M 0 0L 384 0L 384 191L 0 191Z" stroke="rgba(50,50,50,1)" stroke-width="2" fill-opacity="1" fill="#cce5ff"></path><g id="SvgjsG1010"><text id="SvgjsText1011" font-family="微软雅黑" text-anchor="middle" font-size="13px" width="364px" fill="#323232" font-weight="400" align="middle" anchor="middle" family="微软雅黑" size="13px" weight="400" font-style="" opacity="1" y="85.55" transform="rotate(0)"></text></g></g><g id="SvgjsG1012" transform="translate(547.5999908447266,25.00937271118164)"><path id="SvgjsPath1013" d="M 0 0L 169 0L 169 35L 0 35Z" stroke="none" fill="none"></path><g id="SvgjsG1014"><text id="SvgjsText1015" font-family="微软雅黑" text-anchor="middle" font-size="15px" width="169px" fill="#323232" font-weight="700" align="middle" anchor="middle" family="微软雅黑" size="15px" weight="700" font-style="" opacity="1" y="5.75" transform="rotate(0)"><tspan id="SvgjsTspan1016" dy="18" x="84.5"><tspan id="SvgjsTspan1017" style="text-decoration:;">Kudu Tablet Server</tspan></tspan></text></g></g><g id="SvgjsG1018" transform="translate(562,85.50937271118164)"><path id="SvgjsPath1019" d="M 0 4Q 0 0 4 0L 96 0Q 100 0 100 4L 100 66Q 100 70 96 70L 4 70Q 0 70 0 66Z" stroke="rgba(50,50,50,1)" stroke-width="2" fill-opacity="1" fill="#ffff99"></path><g id="SvgjsG1020"><text id="SvgjsText1021" font-family="微软雅黑" text-anchor="middle" font-size="13px" width="80px" fill="#323232" font-weight="400" align="middle" anchor="middle" family="微软雅黑" size="13px" weight="400" font-style="" opacity="1" y="25.05" transform="rotate(0)"><tspan id="SvgjsTspan1022" dy="16" x="50"><tspan id="SvgjsTspan1023" style="text-decoration:;">TabletA</tspan></tspan></text></g></g><g id="SvgjsG1024" transform="translate(688,85.50937271118164)"><path id="SvgjsPath1025" d="M 0 4Q 0 0 4 0L 96 0Q 100 0 100 4L 100 66Q 100 70 96 70L 4 70Q 0 70 0 66Z" stroke-dasharray="10,6,3,6" stroke="rgba(50,50,50,1)" stroke-width="2" fill-opacity="1" fill="#ff9999"></path><g id="SvgjsG1026"><text id="SvgjsText1027" font-family="微软雅黑" text-anchor="middle" font-size="13px" width="80px" fill="#323232" font-weight="400" align="middle" anchor="middle" family="微软雅黑" size="13px" weight="400" font-style="" opacity="1" y="25.05" transform="rotate(0)"><tspan id="SvgjsTspan1028" dy="16" x="50"><tspan id="SvgjsTspan1029" style="text-decoration:;">TabletB</tspan></tspan></text></g></g><g id="SvgjsG1030" transform="translate(816,85.50937271118164)"><path id="SvgjsPath1031" d="M 0 4Q 0 0 4 0L 96 0Q 100 0 100 4L 100 66Q 100 70 96 70L 4 70Q 0 70 0 66Z" stroke-dasharray="3,4" stroke="rgba(50,50,50,1)" stroke-width="2" fill-opacity="1" fill="#66b2ff"></path><g id="SvgjsG1032"><text id="SvgjsText1033" font-family="微软雅黑" text-anchor="middle" font-size="13px" width="80px" fill="#323232" font-weight="400" align="middle" anchor="middle" family="微软雅黑" size="13px" weight="400" font-style="" opacity="1" y="25.05" transform="rotate(0)"><tspan id="SvgjsTspan1034" dy="16" x="50"><tspan id="SvgjsTspan1035" style="text-decoration:;">TabletC</tspan></tspan></text></g></g><g id="SvgjsG1036" transform="translate(552,277.00937271118164)"><path id="SvgjsPath1037" d="M 0 0L 384 0L 384 191L 0 191Z" stroke="rgba(50,50,50,1)" stroke-width="2" fill-opacity="1" fill="#cce5ff"></path><g id="SvgjsG1038"><text id="SvgjsText1039" font-family="微软雅黑" text-anchor="middle" font-size="13px" width="364px" fill="#323232" font-weight="400" align="middle" anchor="middle" family="微软雅黑" size="13px" weight="400" font-style="" opacity="1" y="85.55" transform="rotate(0)"></text></g></g><g id="SvgjsG1040" transform="translate(548.5,280.00937271118164)"><path id="SvgjsPath1041" d="M 0 0L 169 0L 169 35L 0 35Z" stroke="none" fill="none"></path><g id="SvgjsG1042"><text id="SvgjsText1043" font-family="微软雅黑" text-anchor="middle" font-size="15px" width="169px" fill="#323232" font-weight="700" align="middle" anchor="middle" family="微软雅黑" size="15px" weight="700" font-style="" opacity="1" y="5.75" transform="rotate(0)"><tspan id="SvgjsTspan1044" dy="18" x="84.5"><tspan id="SvgjsTspan1045" style="text-decoration:;">Kudu Tablet Server</tspan></tspan></text></g></g><g id="SvgjsG1046" transform="translate(562,340.50937271118164)"><path id="SvgjsPath1047" d="M 0 4Q 0 0 4 0L 96 0Q 100 0 100 4L 100 66Q 100 70 96 70L 4 70Q 0 70 0 66Z" stroke="rgba(50,50,50,1)" stroke-width="2" fill-opacity="1" fill="#ff6666"></path><g id="SvgjsG1048"><text id="SvgjsText1049" font-family="微软雅黑" text-anchor="middle" font-size="13px" width="80px" fill="#323232" font-weight="400" align="middle" anchor="middle" family="微软雅黑" size="13px" weight="400" font-style="" opacity="1" y="25.05" transform="rotate(0)"><tspan id="SvgjsTspan1050" dy="16" x="50"><tspan id="SvgjsTspan1051" style="text-decoration:;">TabletB</tspan></tspan></text></g></g><g id="SvgjsG1052" transform="translate(688,340.50937271118164)"><path id="SvgjsPath1053" d="M 0 4Q 0 0 4 0L 96 0Q 100 0 100 4L 100 66Q 100 70 96 70L 4 70Q 0 70 0 66Z" stroke-dasharray="10,6" stroke="rgba(50,50,50,1)" stroke-width="2" fill-opacity="1" fill="#ffffcc"></path><g id="SvgjsG1054"><text id="SvgjsText1055" font-family="微软雅黑" text-anchor="middle" font-size="13px" width="80px" fill="#323232" font-weight="400" align="middle" anchor="middle" family="微软雅黑" size="13px" weight="400" font-style="" opacity="1" y="25.05" transform="rotate(0)"><tspan id="SvgjsTspan1056" dy="16" x="50"><tspan id="SvgjsTspan1057" style="text-decoration:;">TabletA</tspan></tspan></text></g></g><g id="SvgjsG1058" transform="translate(816,340.50937271118164)"><path id="SvgjsPath1059" d="M 0 4Q 0 0 4 0L 96 0Q 100 0 100 4L 100 66Q 100 70 96 70L 4 70Q 0 70 0 66Z" stroke-dasharray="3,4" stroke="rgba(50,50,50,1)" stroke-width="2" fill-opacity="1" fill="#66b2ff"></path><g id="SvgjsG1060"><text id="SvgjsText1061" font-family="微软雅黑" text-anchor="middle" font-size="13px" width="80px" fill="#323232" font-weight="400" align="middle" anchor="middle" family="微软雅黑" size="13px" weight="400" font-style="" opacity="1" y="25.05" transform="rotate(0)"><tspan id="SvgjsTspan1062" dy="16" x="50"><tspan id="SvgjsTspan1063" style="text-decoration:;">TabletC</tspan></tspan></text></g></g><g id="SvgjsG1064" transform="translate(552,528.609375)"><path id="SvgjsPath1065" d="M 0 0L 384 0L 384 191L 0 191Z" stroke="rgba(50,50,50,1)" stroke-width="2" fill-opacity="1" fill="#cce5ff"></path><g id="SvgjsG1066"><text id="SvgjsText1067" font-family="微软雅黑" text-anchor="middle" font-size="13px" width="364px" fill="#323232" font-weight="400" align="middle" anchor="middle" family="微软雅黑" size="13px" weight="400" font-style="" opacity="1" y="85.55" transform="rotate(0)"></text></g></g><g id="SvgjsG1068" transform="translate(548.5,528.609375)"><path id="SvgjsPath1069" d="M 0 0L 169 0L 169 35L 0 35Z" stroke="none" fill="none"></path><g id="SvgjsG1070"><text id="SvgjsText1071" font-family="微软雅黑" text-anchor="middle" font-size="15px" width="169px" fill="#323232" font-weight="700" align="middle" anchor="middle" family="微软雅黑" size="15px" weight="700" font-style="" opacity="1" y="5.75" transform="rotate(0)"><tspan id="SvgjsTspan1072" dy="18" x="84.5"><tspan id="SvgjsTspan1073" style="text-decoration:;">Kudu Tablet Server</tspan></tspan></text></g></g><g id="SvgjsG1074" transform="translate(562,589.109375)"><path id="SvgjsPath1075" d="M 0 4Q 0 0 4 0L 96 0Q 100 0 100 4L 100 66Q 100 70 96 70L 4 70Q 0 70 0 66Z" stroke="rgba(50,50,50,1)" stroke-width="2" fill-opacity="1" fill="#3399ff"></path><g id="SvgjsG1076"><text id="SvgjsText1077" font-family="微软雅黑" text-anchor="middle" font-size="13px" width="80px" fill="#323232" font-weight="400" align="middle" anchor="middle" family="微软雅黑" size="13px" weight="400" font-style="" opacity="1" y="25.05" transform="rotate(0)"><tspan id="SvgjsTspan1078" dy="16" x="50"><tspan id="SvgjsTspan1079" style="text-decoration:;">TabletC</tspan></tspan></text></g></g><g id="SvgjsG1080" transform="translate(688,589.109375)"><path id="SvgjsPath1081" d="M 0 4Q 0 0 4 0L 96 0Q 100 0 100 4L 100 66Q 100 70 96 70L 4 70Q 0 70 0 66Z" stroke-dasharray="10,6" stroke="rgba(50,50,50,1)" stroke-width="2" fill-opacity="1" fill="#ffffcc"></path><g id="SvgjsG1082"><text id="SvgjsText1083" font-family="微软雅黑" text-anchor="middle" font-size="13px" width="80px" fill="#323232" font-weight="400" align="middle" anchor="middle" family="微软雅黑" size="13px" weight="400" font-style="" opacity="1" y="25.05" transform="rotate(0)"><tspan id="SvgjsTspan1084" dy="16" x="50"><tspan id="SvgjsTspan1085" style="text-decoration:;">TabletA</tspan></tspan></text></g></g><g id="SvgjsG1086" transform="translate(816,589.109375)"><path id="SvgjsPath1087" d="M 0 4Q 0 0 4 0L 96 0Q 100 0 100 4L 100 66Q 100 70 96 70L 4 70Q 0 70 0 66Z" stroke-dasharray="10,6,3,6" stroke="rgba(50,50,50,1)" stroke-width="2" fill-opacity="1" fill="#ff9999"></path><g id="SvgjsG1088"><text id="SvgjsText1089" font-family="微软雅黑" text-anchor="middle" font-size="13px" width="80px" fill="#323232" font-weight="400" align="middle" anchor="middle" family="微软雅黑" size="13px" weight="400" font-style="" opacity="1" y="25.05" transform="rotate(0)"><tspan id="SvgjsTspan1090" dy="16" x="50"><tspan id="SvgjsTspan1091" style="text-decoration:;">TabletB</tspan></tspan></text></g></g><g id="SvgjsG1092" transform="translate(25,280.00937271118164)"><path id="SvgjsPath1093" d="M 0 4Q 0 0 4 0L 300 0Q 304 0 304 4L 304 173Q 304 177 300 177L 4 177Q 0 177 0 173Z" stroke="rgba(50,50,50,1)" stroke-width="2" fill-opacity="1" fill="#ff6666"></path><g id="SvgjsG1094"><text id="SvgjsText1095" font-family="微软雅黑" text-anchor="middle" font-size="17px" width="284px" fill="#323232" font-weight="700" align="middle" anchor="middle" family="微软雅黑" size="17px" weight="700" font-style="" opacity="1" y="64.95" transform="rotate(0)"><tspan id="SvgjsTspan1096" dy="21" x="152"><tspan id="SvgjsTspan1097" style="text-decoration:;">Kudu Master </tspan></tspan><tspan id="SvgjsTspan1098" dy="21" x="152"><tspan id="SvgjsTspan1099" style="text-decoration:;">Leader</tspan></tspan></text></g></g><g id="SvgjsG1100" transform="translate(25,524.6093788146973)"><path id="SvgjsPath1101" d="M 0 4Q 0 0 4 0L 300 0Q 304 0 304 4L 304 173Q 304 177 300 177L 4 177Q 0 177 0 173Z" stroke-dasharray="10,6" stroke="rgba(50,50,50,1)" stroke-width="2" fill-opacity="1" fill="#ccffff"></path><g id="SvgjsG1102"><text id="SvgjsText1103" font-family="微软雅黑" text-anchor="middle" font-size="17px" width="284px" fill="#323232" font-weight="700" align="middle" anchor="middle" family="微软雅黑" size="17px" weight="700" font-style="" opacity="1" y="64.95" transform="rotate(0)"><tspan id="SvgjsTspan1104" dy="21" x="152"><tspan id="SvgjsTspan1105" style="text-decoration:;">Kudu Master </tspan></tspan><tspan id="SvgjsTspan1106" dy="21" x="152"><tspan id="SvgjsTspan1107" style="text-decoration:;">Follower</tspan></tspan></text></g></g><g id="SvgjsG1108" transform="translate(25,39.00937271118164)"><path id="SvgjsPath1109" d="M 0 4Q 0 0 4 0L 300 0Q 304 0 304 4L 304 173Q 304 177 300 177L 4 177Q 0 177 0 173Z" stroke-dasharray="10,6" stroke="rgba(50,50,50,1)" stroke-width="2" fill-opacity="1" fill="#ccffff"></path><g id="SvgjsG1110"><text id="SvgjsText1111" font-family="微软雅黑" text-anchor="middle" font-size="17px" width="284px" fill="#323232" font-weight="700" align="middle" anchor="middle" family="微软雅黑" size="17px" weight="700" font-style="" opacity="1" y="64.95" transform="rotate(0)"><tspan id="SvgjsTspan1112" dy="21" x="152"><tspan id="SvgjsTspan1113" style="text-decoration:;">Kudu Master </tspan></tspan><tspan id="SvgjsTspan1114" dy="21" x="152"><tspan id="SvgjsTspan1115" style="text-decoration:;">Follower</tspan></tspan></text></g></g><g id="SvgjsG1116"><path id="SvgjsPath1117" d="M329 368.50937271118164L552 120.50937271118164" stroke="#6666ff" stroke-width="2" fill="none" marker-end="url(#SvgjsMarker1118)"></path></g><g id="SvgjsG1120"><path id="SvgjsPath1121" d="M329 368.50937271118164L552 372.50937271118164" stroke="#6666ff" stroke-width="2" fill="none" marker-end="url(#SvgjsMarker1122)"></path></g><g id="SvgjsG1124"><path id="SvgjsPath1125" d="M329 368.50937271118164L552 624.109375" stroke="#6666ff" stroke-width="2" fill="none" marker-end="url(#SvgjsMarker1126)"></path></g><g id="SvgjsG1128"><path id="SvgjsPath1129" d="M329 613.1093788146973L552 624.109375" stroke-dasharray="3,3" stroke="#323232" stroke-width="2" fill="none" marker-end="url(#SvgjsMarker1130)"></path></g><g id="SvgjsG1132"><path id="SvgjsPath1133" d="M329 613.1093788146973L552 372.50937271118164" stroke-dasharray="3,3" stroke="#323232" stroke-width="2" fill="none" marker-end="url(#SvgjsMarker1134)"></path></g><g id="SvgjsG1136"><path id="SvgjsPath1137" d="M329 613.1093788146973L552 120.50937271118164" stroke-dasharray="3,3" stroke="#323232" stroke-width="2" fill="none" marker-end="url(#SvgjsMarker1138)"></path></g><g id="SvgjsG1140"><path id="SvgjsPath1141" d="M329 127.50937271118164L552 120.50937271118164" stroke-dasharray="3,3" stroke="#323232" stroke-width="2" fill="none" marker-end="url(#SvgjsMarker1142)"></path></g><g id="SvgjsG1144"><path id="SvgjsPath1145" d="M329 127.50937271118164L552 372.50937271118164" stroke-dasharray="3,3" stroke="#323232" stroke-width="2" fill="none" marker-end="url(#SvgjsMarker1146)"></path></g><g id="SvgjsG1148"><path id="SvgjsPath1149" d="M329 127.50937271118164L552 624.109375" stroke-dasharray="3,3" stroke="#323232" stroke-width="2" fill="none" marker-end="url(#SvgjsMarker1150)"></path></g><g id="SvgjsG1152" transform="translate(536,49.50937271118164)"><path id="SvgjsPath1153" d="M 0 0L 257.1999816894531 0L 257.1999816894531 27.70000457763672L 0 27.70000457763672Z" stroke="none" fill="none"></path><g id="SvgjsG1154"><text id="SvgjsText1155" font-family="微软雅黑" text-anchor="middle" font-size="13px" width="258px" fill="#323232" font-weight="400" align="middle" anchor="middle" family="微软雅黑" size="13px" weight="400" font-style="italic" opacity="1" y="3.900002288818359" transform="rotate(0)"><tspan id="SvgjsTspan1156" dy="16" x="129"><tspan id="SvgjsTspan1157" style="text-decoration:;">负责数据存储，并提供数据读写服务</tspan></tspan></text></g></g><g id="SvgjsG1158" transform="translate(530.8000183105469,551.5093727111816)"><path id="SvgjsPath1159" d="M 0 0L 257.1999816894531 0L 257.1999816894531 27.70000457763672L 0 27.70000457763672Z" stroke="none" fill="none"></path><g id="SvgjsG1160"><text id="SvgjsText1161" font-family="微软雅黑" text-anchor="middle" font-size="13px" width="258px" fill="#323232" font-weight="400" align="middle" anchor="middle" family="微软雅黑" size="13px" weight="400" font-style="italic" opacity="1" y="3.900002288818359" transform="rotate(0)"><tspan id="SvgjsTspan1162" dy="16" x="129"><tspan id="SvgjsTspan1163" style="text-decoration:;">负责数据存储，并提供数据读写服务</tspan></tspan></text></g></g><g id="SvgjsG1164" transform="translate(530.8000183105469,301.50937271118164)"><path id="SvgjsPath1165" d="M 0 0L 257.1999816894531 0L 257.1999816894531 27.70000457763672L 0 27.70000457763672Z" stroke="none" fill="none"></path><g id="SvgjsG1166"><text id="SvgjsText1167" font-family="微软雅黑" text-anchor="middle" font-size="13px" width="258px" fill="#323232" font-weight="400" align="middle" anchor="middle" family="微软雅黑" size="13px" weight="400" font-style="italic" opacity="1" y="3.900002288818359" transform="rotate(0)"><tspan id="SvgjsTspan1168" dy="16" x="129"><tspan id="SvgjsTspan1169" style="text-decoration:;">负责数据存储，并提供数据读写服务</tspan></tspan></text></g></g><g id="SvgjsG1170" transform="translate(75.40000915527344,407.2093811035156)"><path id="SvgjsPath1171" d="M 0 0L 203.19998168945312 0L 203.19998168945312 35L 0 35Z" stroke="none" fill="none"></path><g id="SvgjsG1172"><text id="SvgjsText1173" font-family="微软雅黑" text-anchor="middle" font-size="13px" width="204px" fill="#323232" font-weight="400" align="middle" anchor="middle" family="微软雅黑" size="13px" weight="400" font-style="italic" opacity="1" y="7.55" transform="rotate(0)"><tspan id="SvgjsTspan1174" dy="16" x="102"><tspan id="SvgjsTspan1175" style="text-decoration:;">负责集群管理、元数据管理等功能</tspan></tspan></text></g></g><g id="SvgjsG1176" transform="translate(552,119.609375)"><path id="SvgjsPath1177" d="M 0 0L 120 0L 120 40L 0 40Z" stroke="none" fill="none"></path><g id="SvgjsG1178"><text id="SvgjsText1179" font-family="微软雅黑" text-anchor="middle" font-size="12px" width="120px" fill="#323232" font-weight="400" align="middle" anchor="middle" family="微软雅黑" size="12px" weight="400" font-style="italic" opacity="1" y="10.7" transform="rotate(0)"><tspan id="SvgjsTspan1180" dy="15" x="60"><tspan id="SvgjsTspan1181" style="text-decoration:;">leader</tspan></tspan></text></g></g><g id="SvgjsG1182" transform="translate(552,619.109375)"><path id="SvgjsPath1183" d="M 0 0L 120 0L 120 40L 0 40Z" stroke="none" fill="none"></path><g id="SvgjsG1184"><text id="SvgjsText1185" font-family="微软雅黑" text-anchor="middle" font-size="12px" width="120px" fill="#323232" font-weight="400" align="middle" anchor="middle" family="微软雅黑" size="12px" weight="400" font-style="italic" opacity="1" y="10.7" transform="rotate(0)"><tspan id="SvgjsTspan1186" dy="15" x="60"><tspan id="SvgjsTspan1187" style="text-decoration:;">leader</tspan></tspan></text></g></g><g id="SvgjsG1188" transform="translate(552,373.609375)"><path id="SvgjsPath1189" d="M 0 0L 120 0L 120 40L 0 40Z" stroke="none" fill="none"></path><g id="SvgjsG1190"><text id="SvgjsText1191" font-family="微软雅黑" text-anchor="middle" font-size="12px" width="120px" fill="#323232" font-weight="400" align="middle" anchor="middle" family="微软雅黑" size="12px" weight="400" font-style="italic" opacity="1" y="10.7" transform="rotate(0)"><tspan id="SvgjsTspan1192" dy="15" x="60"><tspan id="SvgjsTspan1193" style="text-decoration:;">leader</tspan></tspan></text></g></g><g id="SvgjsG1194" transform="translate(678,119.609375)"><path id="SvgjsPath1195" d="M 0 0L 120 0L 120 40L 0 40Z" stroke="none" fill="none"></path><g id="SvgjsG1196"><text id="SvgjsText1197" font-family="微软雅黑" text-anchor="middle" font-size="12px" width="120px" fill="#323232" font-weight="400" align="middle" anchor="middle" family="微软雅黑" size="12px" weight="400" font-style="italic" opacity="1" y="10.7" transform="rotate(0)"><tspan id="SvgjsTspan1198" dy="15" x="60"><tspan id="SvgjsTspan1199" style="text-decoration:;">follower</tspan></tspan></text></g></g><g id="SvgjsG1200" transform="translate(806,119.609375)"><path id="SvgjsPath1201" d="M 0 0L 120 0L 120 40L 0 40Z" stroke="none" fill="none"></path><g id="SvgjsG1202"><text id="SvgjsText1203" font-family="微软雅黑" text-anchor="middle" font-size="12px" width="120px" fill="#323232" font-weight="400" align="middle" anchor="middle" family="微软雅黑" size="12px" weight="400" font-style="italic" opacity="1" y="10.7" transform="rotate(0)"><tspan id="SvgjsTspan1204" dy="15" x="60"><tspan id="SvgjsTspan1205" style="text-decoration:;">follower</tspan></tspan></text></g></g><g id="SvgjsG1206" transform="translate(678,373.609375)"><path id="SvgjsPath1207" d="M 0 0L 120 0L 120 40L 0 40Z" stroke="none" fill="none"></path><g id="SvgjsG1208"><text id="SvgjsText1209" font-family="微软雅黑" text-anchor="middle" font-size="12px" width="120px" fill="#323232" font-weight="400" align="middle" anchor="middle" family="微软雅黑" size="12px" weight="400" font-style="italic" opacity="1" y="10.7" transform="rotate(0)"><tspan id="SvgjsTspan1210" dy="15" x="60"><tspan id="SvgjsTspan1211" style="text-decoration:;">follower</tspan></tspan></text></g></g><g id="SvgjsG1212" transform="translate(809,373.609375)"><path id="SvgjsPath1213" d="M 0 0L 120 0L 120 40L 0 40Z" stroke="none" fill="none"></path><g id="SvgjsG1214"><text id="SvgjsText1215" font-family="微软雅黑" text-anchor="middle" font-size="12px" width="120px" fill="#323232" font-weight="400" align="middle" anchor="middle" family="微软雅黑" size="12px" weight="400" font-style="italic" opacity="1" y="10.7" transform="rotate(0)"><tspan id="SvgjsTspan1216" dy="15" x="60"><tspan id="SvgjsTspan1217" style="text-decoration:;">follower</tspan></tspan></text></g></g><g id="SvgjsG1218" transform="translate(678,619.109375)"><path id="SvgjsPath1219" d="M 0 0L 120 0L 120 40L 0 40Z" stroke="none" fill="none"></path><g id="SvgjsG1220"><text id="SvgjsText1221" font-family="微软雅黑" text-anchor="middle" font-size="12px" width="120px" fill="#323232" font-weight="400" align="middle" anchor="middle" family="微软雅黑" size="12px" weight="400" font-style="italic" opacity="1" y="10.7" transform="rotate(0)"><tspan id="SvgjsTspan1222" dy="15" x="60"><tspan id="SvgjsTspan1223" style="text-decoration:;">follower</tspan></tspan></text></g></g><g id="SvgjsG1224" transform="translate(806,619.109375)"><path id="SvgjsPath1225" d="M 0 0L 120 0L 120 40L 0 40Z" stroke="none" fill="none"></path><g id="SvgjsG1226"><text id="SvgjsText1227" font-family="微软雅黑" text-anchor="middle" font-size="12px" width="120px" fill="#323232" font-weight="400" align="middle" anchor="middle" family="微软雅黑" size="12px" weight="400" font-style="italic" opacity="1" y="10.7" transform="rotate(0)"><tspan id="SvgjsTspan1228" dy="15" x="60"><tspan id="SvgjsTspan1229" style="text-decoration:;">follower</tspan></tspan></text></g></g></svg>