<svg id="SvgjsSvg1192" width="890" height="614" xmlns="http://www.w3.org/2000/svg" version="1.1" xmlns:xlink="http://www.w3.org/1999/xlink" xmlns:svgjs="http://svgjs.com/svgjs"><defs id="SvgjsDefs1193"><marker id="SvgjsMarker1234" markerWidth="16" markerHeight="12" refX="16" refY="6" viewBox="0 0 16 12" orient="auto" markerUnits="userSpaceOnUse" stroke-dasharray="0,0"><path id="SvgjsPath1235" d="M0,2 L14,6 L0,11 L0,2" fill="#323232" stroke="#323232" stroke-width="2"></path></marker><marker id="SvgjsMarker1238" markerWidth="16" markerHeight="12" refX="16" refY="6" viewBox="0 0 16 12" orient="auto" markerUnits="userSpaceOnUse" stroke-dasharray="0,0"><path id="SvgjsPath1239" d="M0,2 L14,6 L0,11 L0,2" fill="#323232" stroke="#323232" stroke-width="2"></path></marker><marker id="SvgjsMarker1242" markerWidth="16" markerHeight="12" refX="16" refY="6" viewBox="0 0 16 12" orient="auto" markerUnits="userSpaceOnUse" stroke-dasharray="0,0"><path id="SvgjsPath1243" d="M0,2 L14,6 L0,11 L0,2" fill="#323232" stroke="#323232" stroke-width="2"></path></marker><marker id="SvgjsMarker1246" markerWidth="16" markerHeight="12" refX="16" refY="6" viewBox="0 0 16 12" orient="auto" markerUnits="userSpaceOnUse" stroke-dasharray="0,0"><path id="SvgjsPath1247" d="M0,2 L14,6 L0,11 L0,2" fill="#323232" stroke="#323232" stroke-width="2"></path></marker></defs><g id="SvgjsG1194" transform="translate(25.012481689453125,25)"><path id="SvgjsPath1195" d="M 0 4Q 0 0 4 0L 835.4000091552734 0Q 839.4000091552734 0 839.4000091552734 4L 839.4000091552734 560Q 839.4000091552734 564 835.4000091552734 564L 4 564Q 0 564 0 560Z" stroke="rgba(50,50,50,1)" stroke-width="2" fill-opacity="1" fill="#ffffff"></path><g id="SvgjsG1196"><text id="SvgjsText1197" font-family="微软雅黑" text-anchor="middle" font-size="13px" width="820px" fill="#323232" font-weight="400" align="middle" anchor="middle" family="微软雅黑" size="13px" weight="400" font-style="" opacity="1" y="272.05" transform="rotate(0)"></text></g></g><g id="SvgjsG1198" transform="translate(123.76248168945312,215.5999984741211)"><path id="SvgjsPath1199" d="M 0 4Q 0 0 4 0L 96 0Q 100 0 100 4L 100 66Q 100 70 96 70L 4 70Q 0 70 0 66Z" stroke="rgba(50,50,50,1)" stroke-width="2" fill-opacity="1" fill="#66ffb3"></path><g id="SvgjsG1200"><text id="SvgjsText1201" font-family="微软雅黑" text-anchor="middle" font-size="13px" width="80px" fill="#323232" font-weight="400" align="middle" anchor="middle" family="微软雅黑" size="13px" weight="400" font-style="" opacity="1" y="25.05" transform="rotate(0)"><tspan id="SvgjsTspan1202" dy="16" x="50"><tspan id="SvgjsTspan1203" style="text-decoration:;">Client</tspan></tspan></text></g></g><g id="SvgjsG1204" transform="translate(123.76248168945312,310.5999984741211)"><path id="SvgjsPath1205" d="M 0 4Q 0 0 4 0L 96 0Q 100 0 100 4L 100 66Q 100 70 96 70L 4 70Q 0 70 0 66Z" stroke="rgba(50,50,50,1)" stroke-width="2" fill-opacity="1" fill="#66ffb3"></path><g id="SvgjsG1206"><text id="SvgjsText1207" font-family="微软雅黑" text-anchor="middle" font-size="13px" width="80px" fill="#323232" font-weight="400" align="middle" anchor="middle" family="微软雅黑" size="13px" weight="400" font-style="" opacity="1" y="25.05" transform="rotate(0)"><tspan id="SvgjsTspan1208" dy="16" x="50"><tspan id="SvgjsTspan1209" style="text-decoration:;">Client</tspan></tspan></text></g></g><g id="SvgjsG1210" transform="translate(123.76248168945312,405.5999984741211)"><path id="SvgjsPath1211" d="M 0 4Q 0 0 4 0L 96 0Q 100 0 100 4L 100 66Q 100 70 96 70L 4 70Q 0 70 0 66Z" stroke="rgba(50,50,50,1)" stroke-width="2" fill-opacity="1" fill="#66ffb3"></path><g id="SvgjsG1212"><text id="SvgjsText1213" font-family="微软雅黑" text-anchor="middle" font-size="13px" width="80px" fill="#323232" font-weight="400" align="middle" anchor="middle" family="微软雅黑" size="13px" weight="400" font-style="" opacity="1" y="25.05" transform="rotate(0)"><tspan id="SvgjsTspan1214" dy="16" x="50"><tspan id="SvgjsTspan1215" style="text-decoration:;">Client</tspan></tspan></text></g></g><g id="SvgjsG1216" transform="translate(617.7624816894531,170.0999984741211)"><path id="SvgjsPath1217" d="M 0 4Q 0 0 4 0L 162 0Q 166 0 166 4L 166 347Q 166 351 162 351L 4 351Q 0 351 0 347Z" stroke="rgba(50,50,50,1)" stroke-width="2" fill-opacity="1" fill="#00ffff"></path><g id="SvgjsG1218"><text id="SvgjsText1219" font-family="微软雅黑" text-anchor="middle" font-size="18px" width="146px" fill="#323232" font-weight="700" align="middle" anchor="middle" family="微软雅黑" size="18px" weight="700" font-style="" opacity="1" y="161.8" transform="rotate(0)"><tspan id="SvgjsTspan1220" dy="22" x="83"><tspan id="SvgjsTspan1221" style="text-decoration:;">YARN集群</tspan></tspan></text></g></g><g id="SvgjsG1222" transform="translate(371.7624816894531,257)"><path id="SvgjsPath1223" d="M 0 4Q 0 0 4 0L 127.40000915527344 0Q 131.40000915527344 0 131.40000915527344 4L 131.40000915527344 173.1999969482422Q 131.40000915527344 177.1999969482422 127.40000915527344 177.1999969482422L 4 177.1999969482422Q 0 177.1999969482422 0 173.1999969482422Z" stroke="rgba(50,50,50,1)" stroke-width="2" fill-opacity="1" fill="#ffff99"></path><g id="SvgjsG1224"><text id="SvgjsText1225" font-family="微软雅黑" text-anchor="middle" font-size="17px" width="112px" fill="#323232" font-weight="700" align="middle" anchor="middle" family="微软雅黑" size="17px" weight="700" font-style="" opacity="1" y="55.0499984741211" transform="rotate(0)"><tspan id="SvgjsTspan1226" dy="21" x="66"><tspan id="SvgjsTspan1227" style="text-decoration:;">Flink Yarn</tspan></tspan><tspan id="SvgjsTspan1228" dy="21" x="66"><tspan id="SvgjsTspan1229" style="text-decoration:;"> </tspan></tspan><tspan id="SvgjsTspan1230" dy="21" x="66"><tspan id="SvgjsTspan1231" style="text-decoration:;font-size: inherit;"> Session</tspan></tspan></text></g></g><g id="SvgjsG1232"><path id="SvgjsPath1233" d="M223.76248168945312 250.5999984741211L371.7624816894531 345.5999984741211" stroke="#323232" stroke-width="2" fill="none" marker-end="url(#SvgjsMarker1234)"></path></g><g id="SvgjsG1236"><path id="SvgjsPath1237" d="M223.76248168945312 345.5999984741211L371.7624816894531 345.5999984741211" stroke="#323232" stroke-width="2" fill="none" marker-end="url(#SvgjsMarker1238)"></path></g><g id="SvgjsG1240"><path id="SvgjsPath1241" d="M223.76248168945312 440.5999984741211L371.7624816894531 345.5999984741211" stroke="#323232" stroke-width="2" fill="none" marker-end="url(#SvgjsMarker1242)"></path></g><g id="SvgjsG1244"><path id="SvgjsPath1245" d="M503.16249084472656 345.5999984741211L617.7624816894531 345.5999984741211" stroke="#323232" stroke-width="2" fill="none" marker-end="url(#SvgjsMarker1246)"></path></g><g id="SvgjsG1248" transform="translate(97.26248168945312,84.5999984741211)"><path id="SvgjsPath1249" d="M 0 0L 209 0L 225 16L 225 69L 0 69L 0 0Z" stroke="none" fill-opacity="1" fill="#ffffaa"></path><path id="SvgjsPath1250" d="M 209 0L 209 16L 225 16Z" stroke="none" fill-opacity="1" fill="#cdcdcd"></path><path id="SvgjsPath1251" d="M 0 0L 209 0L 225 16L 225 69L 0 69L 0 0Z" stroke="none" fill="none"></path><g id="SvgjsG1252"><text id="SvgjsText1253" font-family="微软雅黑" text-anchor="middle" font-size="17px" width="205px" fill="#323232" font-weight="700" align="middle" anchor="middle" family="微软雅黑" size="17px" weight="700" font-style="" opacity="1" y="21.45" transform="rotate(0)"><tspan id="SvgjsTspan1254" dy="21" x="112.5"><tspan id="SvgjsTspan1255" style="text-decoration:;">Session 会话模式</tspan></tspan></text></g></g></svg>