<svg id="SvgjsSvg1412" width="1186" height="708" xmlns="http://www.w3.org/2000/svg" version="1.1" xmlns:xlink="http://www.w3.org/1999/xlink" xmlns:svgjs="http://svgjs.com/svgjs"><defs id="SvgjsDefs1413"><marker id="SvgjsMarker1590" markerWidth="16" markerHeight="12" refX="16" refY="6" viewBox="0 0 16 12" orient="auto" markerUnits="userSpaceOnUse" stroke-dasharray="0,0"><path id="SvgjsPath1591" d="M0,2 L14,6 L0,11 L0,2" fill="#323232" stroke="#323232" stroke-width="2"></path></marker><marker id="SvgjsMarker1594" markerWidth="16" markerHeight="12" refX="16" refY="6" viewBox="0 0 16 12" orient="auto" markerUnits="userSpaceOnUse" stroke-dasharray="0,0"><path id="SvgjsPath1595" d="M0,2 L14,6 L0,11 L0,2" fill="#323232" stroke="#323232" stroke-width="2"></path></marker><marker id="SvgjsMarker1598" markerWidth="16" markerHeight="12" refX="16" refY="6" viewBox="0 0 16 12" orient="auto" markerUnits="userSpaceOnUse" stroke-dasharray="0,0"><path id="SvgjsPath1599" d="M0,2 L14,6 L0,11 L0,2" fill="#323232" stroke="#323232" stroke-width="2"></path></marker><marker id="SvgjsMarker1776" markerWidth="16" markerHeight="12" refX="16" refY="6" viewBox="0 0 16 12" orient="auto" markerUnits="userSpaceOnUse" stroke-dasharray="0,0"><path id="SvgjsPath1777" d="M0,2 L14,6 L0,11 L0,2" fill="#323232" stroke="#323232" stroke-width="2"></path></marker><marker id="SvgjsMarker1780" markerWidth="16" markerHeight="12" refX="16" refY="6" viewBox="0 0 16 12" orient="auto" markerUnits="userSpaceOnUse" stroke-dasharray="0,0"><path id="SvgjsPath1781" d="M0,2 L14,6 L0,11 L0,2" fill="#323232" stroke="#323232" stroke-width="2"></path></marker><marker id="SvgjsMarker1784" markerWidth="16" markerHeight="12" refX="16" refY="6" viewBox="0 0 16 12" orient="auto" markerUnits="userSpaceOnUse" stroke-dasharray="0,0"><path id="SvgjsPath1785" d="M0,2 L14,6 L0,11 L0,2" fill="#323232" stroke="#323232" stroke-width="2"></path></marker></defs><g id="SvgjsG1414" transform="translate(216.125,28)"><path id="SvgjsPath1415" d="M 0 4Q 0 0 4 0L 253.5 0Q 257.5 0 257.5 4L 257.5 275Q 257.5 279 253.5 279L 4 279Q 0 279 0 275Z" stroke="rgba(50,50,50,1)" stroke-width="2" fill-opacity="1" fill="#e6ffcc"></path><g id="SvgjsG1416"><text id="SvgjsText1417" font-family="微软雅黑" text-anchor="middle" font-size="13px" width="238px" fill="#323232" font-weight="400" align="middle" anchor="middle" family="微软雅黑" size="13px" weight="400" font-style="" opacity="1" y="129.55" transform="rotate(0)"></text></g></g><g id="SvgjsG1418" transform="translate(229,92)"><path id="SvgjsPath1419" d="M 0 4Q 0 0 4 0L 66 0Q 70 0 70 4L 70 169Q 70 173 66 173L 4 173Q 0 173 0 169Z" stroke="rgba(50,50,50,1)" stroke-width="2" fill-opacity="1" fill="#e5ccff"></path><g id="SvgjsG1420"><text id="SvgjsText1421" font-family="微软雅黑" text-anchor="middle" font-size="13px" width="50px" fill="#323232" font-weight="400" align="middle" anchor="middle" family="微软雅黑" size="13px" weight="400" font-style="" opacity="1" y="76.55" transform="rotate(0)"></text></g></g><g id="SvgjsG1422" transform="translate(233.75,177)"><path id="SvgjsPath1423" d="M 0 4Q 0 0 4 0L 56.5 0Q 60.5 0 60.5 4L 60.5 73Q 60.5 77 56.5 77L 4 77Q 0 77 0 73Z" stroke="rgba(50,50,50,1)" stroke-width="2" fill-opacity="1" fill="#99ccff"></path><g id="SvgjsG1424"><text id="SvgjsText1425" font-family="微软雅黑" text-anchor="middle" font-size="13px" width="41px" fill="#323232" font-weight="400" align="middle" anchor="middle" family="微软雅黑" size="13px" weight="400" font-style="" opacity="1" y="28.55" transform="rotate(0)"></text></g></g><g id="SvgjsG1426" transform="translate(311,92)"><path id="SvgjsPath1427" d="M 0 4Q 0 0 4 0L 66 0Q 70 0 70 4L 70 169Q 70 173 66 173L 4 173Q 0 173 0 169Z" stroke="rgba(50,50,50,1)" stroke-width="2" fill-opacity="1" fill="#e5ccff"></path><g id="SvgjsG1428"><text id="SvgjsText1429" font-family="微软雅黑" text-anchor="middle" font-size="13px" width="50px" fill="#323232" font-weight="400" align="middle" anchor="middle" family="微软雅黑" size="13px" weight="400" font-style="" opacity="1" y="76.55" transform="rotate(0)"></text></g></g><g id="SvgjsG1430" transform="translate(316.875,177)"><path id="SvgjsPath1431" d="M 0 4Q 0 0 4 0L 56.5 0Q 60.5 0 60.5 4L 60.5 73Q 60.5 77 56.5 77L 4 77Q 0 77 0 73Z" stroke="rgba(50,50,50,1)" stroke-width="2" fill-opacity="1" fill="#99ccff"></path><g id="SvgjsG1432"><text id="SvgjsText1433" font-family="微软雅黑" text-anchor="middle" font-size="13px" width="41px" fill="#323232" font-weight="400" align="middle" anchor="middle" family="微软雅黑" size="13px" weight="400" font-style="" opacity="1" y="28.55" transform="rotate(0)"></text></g></g><g id="SvgjsG1434" transform="translate(393,92)"><path id="SvgjsPath1435" d="M 0 4Q 0 0 4 0L 66 0Q 70 0 70 4L 70 169Q 70 173 66 173L 4 173Q 0 173 0 169Z" stroke="rgba(50,50,50,1)" stroke-width="2" fill-opacity="1" fill="#e5ccff"></path><g id="SvgjsG1436"><text id="SvgjsText1437" font-family="微软雅黑" text-anchor="middle" font-size="13px" width="50px" fill="#323232" font-weight="400" align="middle" anchor="middle" family="微软雅黑" size="13px" weight="400" font-style="" opacity="1" y="76.55" transform="rotate(0)"></text></g></g><g id="SvgjsG1438" transform="translate(397.75,177)"><path id="SvgjsPath1439" d="M 0 4Q 0 0 4 0L 56.5 0Q 60.5 0 60.5 4L 60.5 73Q 60.5 77 56.5 77L 4 77Q 0 77 0 73Z" stroke="rgba(50,50,50,1)" stroke-width="2" fill-opacity="1" fill="#99ccff"></path><g id="SvgjsG1440"><text id="SvgjsText1441" font-family="微软雅黑" text-anchor="middle" font-size="13px" width="41px" fill="#323232" font-weight="400" align="middle" anchor="middle" family="微软雅黑" size="13px" weight="400" font-style="" opacity="1" y="28.55" transform="rotate(0)"></text></g></g><g id="SvgjsG1442" transform="translate(204,92)"><path id="SvgjsPath1443" d="M 0 0L 120 0L 120 40L 0 40Z" stroke="none" fill="none"></path><g id="SvgjsG1444"><text id="SvgjsText1445" font-family="微软雅黑" text-anchor="middle" font-size="17px" width="120px" fill="#323232" font-weight="700" align="middle" anchor="middle" family="微软雅黑" size="17px" weight="700" font-style="" opacity="1" y="6.95" transform="rotate(0)"><tspan id="SvgjsTspan1446" dy="21" x="60"><tspan id="SvgjsTspan1447" style="text-decoration:;">Slot</tspan></tspan></text></g></g><g id="SvgjsG1448" transform="translate(280,92)"><path id="SvgjsPath1449" d="M 0 0L 120 0L 120 40L 0 40Z" stroke="none" fill="none"></path><g id="SvgjsG1450"><text id="SvgjsText1451" font-family="微软雅黑" text-anchor="middle" font-size="17px" width="120px" fill="#323232" font-weight="700" align="middle" anchor="middle" family="微软雅黑" size="17px" weight="700" font-style="" opacity="1" y="6.95" transform="rotate(0)"><tspan id="SvgjsTspan1452" dy="21" x="60"><tspan id="SvgjsTspan1453" style="text-decoration:;">Slot</tspan></tspan></text></g></g><g id="SvgjsG1454" transform="translate(368,92)"><path id="SvgjsPath1455" d="M 0 0L 120 0L 120 40L 0 40Z" stroke="none" fill="none"></path><g id="SvgjsG1456"><text id="SvgjsText1457" font-family="微软雅黑" text-anchor="middle" font-size="17px" width="120px" fill="#323232" font-weight="700" align="middle" anchor="middle" family="微软雅黑" size="17px" weight="700" font-style="" opacity="1" y="6.95" transform="rotate(0)"><tspan id="SvgjsTspan1458" dy="21" x="60"><tspan id="SvgjsTspan1459" style="text-decoration:;">Slot</tspan></tspan></text></g></g><g id="SvgjsG1460" transform="translate(240.875,180)"><path id="SvgjsPath1461" d="M 0 21.5C 0 -7.166666666666667 46.25 -7.166666666666667 46.25 21.5C 46.25 50.166666666666664 0 50.166666666666664 0 21.5Z" stroke="rgba(50,50,50,1)" stroke-width="2" fill-opacity="1" fill="#99ff99"></path><g id="SvgjsG1462"><text id="SvgjsText1463" font-family="微软雅黑" text-anchor="middle" font-size="13px" width="27px" fill="#323232" font-weight="400" align="middle" anchor="middle" family="微软雅黑" size="13px" weight="400" font-style="" opacity="1" y="3.55" transform="rotate(0)"><tspan id="SvgjsTspan1464" dy="16" x="23.5"><tspan id="SvgjsTspan1465" style="text-decoration:;">共享</tspan></tspan><tspan id="SvgjsTspan1466" dy="16" x="23.5"><tspan id="SvgjsTspan1467" style="text-decoration:;">变量</tspan></tspan></text></g></g><g id="SvgjsG1468" transform="translate(223,25)"><path id="SvgjsPath1469" d="M 0 0L 120 0L 120 40L 0 40Z" stroke="none" fill="none"></path><g id="SvgjsG1470"><text id="SvgjsText1471" font-family="微软雅黑" text-anchor="middle" font-size="16px" width="120px" fill="#323232" font-weight="700" align="middle" anchor="middle" family="微软雅黑" size="16px" weight="700" font-style="" opacity="1" y="7.6" transform="rotate(0)"><tspan id="SvgjsTspan1472" dy="20" x="60"><tspan id="SvgjsTspan1473" style="text-decoration:;">Task Manager</tspan></tspan></text></g></g><g id="SvgjsG1474" transform="translate(321.75,180)"><path id="SvgjsPath1475" d="M 0 21.5C 0 -7.166666666666667 46.25 -7.166666666666667 46.25 21.5C 46.25 50.166666666666664 0 50.166666666666664 0 21.5Z" stroke="rgba(50,50,50,1)" stroke-width="2" fill-opacity="1" fill="#99ff99"></path><g id="SvgjsG1476"><text id="SvgjsText1477" font-family="微软雅黑" text-anchor="middle" font-size="13px" width="27px" fill="#323232" font-weight="400" align="middle" anchor="middle" family="微软雅黑" size="13px" weight="400" font-style="" opacity="1" y="3.55" transform="rotate(0)"><tspan id="SvgjsTspan1478" dy="16" x="23.5"><tspan id="SvgjsTspan1479" style="text-decoration:;">共享</tspan></tspan><tspan id="SvgjsTspan1480" dy="16" x="23.5"><tspan id="SvgjsTspan1481" style="text-decoration:;">变量</tspan></tspan></text></g></g><g id="SvgjsG1482" transform="translate(404.875,177)"><path id="SvgjsPath1483" d="M 0 21.5C 0 -7.166666666666667 46.25 -7.166666666666667 46.25 21.5C 46.25 50.166666666666664 0 50.166666666666664 0 21.5Z" stroke="rgba(50,50,50,1)" stroke-width="2" fill-opacity="1" fill="#99ff99"></path><g id="SvgjsG1484"><text id="SvgjsText1485" font-family="微软雅黑" text-anchor="middle" font-size="13px" width="27px" fill="#323232" font-weight="400" align="middle" anchor="middle" family="微软雅黑" size="13px" weight="400" font-style="" opacity="1" y="3.55" transform="rotate(0)"><tspan id="SvgjsTspan1486" dy="16" x="23.5"><tspan id="SvgjsTspan1487" style="text-decoration:;">共享</tspan></tspan><tspan id="SvgjsTspan1488" dy="16" x="23.5"><tspan id="SvgjsTspan1489" style="text-decoration:;">变量</tspan></tspan></text></g></g><g id="SvgjsG1490" transform="translate(201.75,220)"><path id="SvgjsPath1491" d="M 0 0L 120 0L 120 40L 0 40Z" stroke="none" fill="none"></path><g id="SvgjsG1492"><text id="SvgjsText1493" font-family="微软雅黑" text-anchor="middle" font-size="15px" width="120px" fill="#323232" font-weight="700" align="middle" anchor="middle" family="微软雅黑" size="15px" weight="700" font-style="" opacity="1" y="8.25" transform="rotate(0)"><tspan id="SvgjsTspan1494" dy="18" x="60"><tspan id="SvgjsTspan1495" style="text-decoration:;">Task</tspan></tspan></text></g></g><g id="SvgjsG1496" transform="translate(284.875,220)"><path id="SvgjsPath1497" d="M 0 0L 120 0L 120 40L 0 40Z" stroke="none" fill="none"></path><g id="SvgjsG1498"><text id="SvgjsText1499" font-family="微软雅黑" text-anchor="middle" font-size="15px" width="120px" fill="#323232" font-weight="700" align="middle" anchor="middle" family="微软雅黑" size="15px" weight="700" font-style="" opacity="1" y="8.25" transform="rotate(0)"><tspan id="SvgjsTspan1500" dy="18" x="60"><tspan id="SvgjsTspan1501" style="text-decoration:;">Task</tspan></tspan></text></g></g><g id="SvgjsG1502" transform="translate(368,220)"><path id="SvgjsPath1503" d="M 0 0L 120 0L 120 40L 0 40Z" stroke="none" fill="none"></path><g id="SvgjsG1504"><text id="SvgjsText1505" font-family="微软雅黑" text-anchor="middle" font-size="15px" width="120px" fill="#323232" font-weight="700" align="middle" anchor="middle" family="微软雅黑" size="15px" weight="700" font-style="" opacity="1" y="8.25" transform="rotate(0)"><tspan id="SvgjsTspan1506" dy="18" x="60"><tspan id="SvgjsTspan1507" style="text-decoration:;">Task</tspan></tspan></text></g></g><g id="SvgjsG1508" transform="translate(667,28)"><path id="SvgjsPath1509" d="M 0 4Q 0 0 4 0L 251 0Q 255 0 255 4L 255 275Q 255 279 251 279L 4 279Q 0 279 0 275Z" stroke="rgba(50,50,50,1)" stroke-width="2" fill-opacity="1" fill="#e6ffcc"></path><g id="SvgjsG1510"><text id="SvgjsText1511" font-family="微软雅黑" text-anchor="middle" font-size="13px" width="235px" fill="#323232" font-weight="400" align="middle" anchor="middle" family="微软雅黑" size="13px" weight="400" font-style="" opacity="1" y="129.55" transform="rotate(0)"></text></g></g><g id="SvgjsG1512" transform="translate(681,92)"><path id="SvgjsPath1513" d="M 0 4Q 0 0 4 0L 66 0Q 70 0 70 4L 70 123Q 70 127 66 127L 4 127Q 0 127 0 123Z" stroke="rgba(50,50,50,1)" stroke-width="2" fill-opacity="1" fill="#e5ccff"></path><g id="SvgjsG1514"><text id="SvgjsText1515" font-family="微软雅黑" text-anchor="middle" font-size="13px" width="50px" fill="#323232" font-weight="400" align="middle" anchor="middle" family="微软雅黑" size="13px" weight="400" font-style="" opacity="1" y="53.55" transform="rotate(0)"></text></g></g><g id="SvgjsG1516" transform="translate(685.75,129)"><path id="SvgjsPath1517" d="M 0 4Q 0 0 4 0L 56.5 0Q 60.5 0 60.5 4L 60.5 73Q 60.5 77 56.5 77L 4 77Q 0 77 0 73Z" stroke="rgba(50,50,50,1)" stroke-width="2" fill-opacity="1" fill="#99ccff"></path><g id="SvgjsG1518"><text id="SvgjsText1519" font-family="微软雅黑" text-anchor="middle" font-size="13px" width="41px" fill="#323232" font-weight="400" align="middle" anchor="middle" family="微软雅黑" size="13px" weight="400" font-style="" opacity="1" y="28.55" transform="rotate(0)"></text></g></g><g id="SvgjsG1520" transform="translate(763,92)"><path id="SvgjsPath1521" d="M 0 4Q 0 0 4 0L 66 0Q 70 0 70 4L 70 123Q 70 127 66 127L 4 127Q 0 127 0 123Z" stroke="rgba(50,50,50,1)" stroke-width="2" fill-opacity="1" fill="#e5ccff"></path><g id="SvgjsG1522"><text id="SvgjsText1523" font-family="微软雅黑" text-anchor="middle" font-size="13px" width="50px" fill="#323232" font-weight="400" align="middle" anchor="middle" family="微软雅黑" size="13px" weight="400" font-style="" opacity="1" y="53.55" transform="rotate(0)"></text></g></g><g id="SvgjsG1524" transform="translate(767.75,132)"><path id="SvgjsPath1525" d="M 0 4Q 0 0 4 0L 56.5 0Q 60.5 0 60.5 4L 60.5 73Q 60.5 77 56.5 77L 4 77Q 0 77 0 73Z" stroke="rgba(50,50,50,1)" stroke-width="2" fill-opacity="1" fill="#99ccff"></path><g id="SvgjsG1526"><text id="SvgjsText1527" font-family="微软雅黑" text-anchor="middle" font-size="13px" width="41px" fill="#323232" font-weight="400" align="middle" anchor="middle" family="微软雅黑" size="13px" weight="400" font-style="" opacity="1" y="28.55" transform="rotate(0)"></text></g></g><g id="SvgjsG1528" transform="translate(845,92)"><path id="SvgjsPath1529" d="M 0 4Q 0 0 4 0L 66 0Q 70 0 70 4L 70 123Q 70 127 66 127L 4 127Q 0 127 0 123Z" stroke="rgba(50,50,50,1)" stroke-width="2" fill-opacity="1" fill="#e5ccff"></path><g id="SvgjsG1530"><text id="SvgjsText1531" font-family="微软雅黑" text-anchor="middle" font-size="13px" width="50px" fill="#323232" font-weight="400" align="middle" anchor="middle" family="微软雅黑" size="13px" weight="400" font-style="" opacity="1" y="53.55" transform="rotate(0)"></text></g></g><g id="SvgjsG1532" transform="translate(849.75,132)"><path id="SvgjsPath1533" d="M 0 4Q 0 0 4 0L 56.5 0Q 60.5 0 60.5 4L 60.5 73Q 60.5 77 56.5 77L 4 77Q 0 77 0 73Z" stroke="rgba(50,50,50,1)" stroke-width="2" fill-opacity="1" fill="#99ccff"></path><g id="SvgjsG1534"><text id="SvgjsText1535" font-family="微软雅黑" text-anchor="middle" font-size="13px" width="41px" fill="#323232" font-weight="400" align="middle" anchor="middle" family="微软雅黑" size="13px" weight="400" font-style="" opacity="1" y="28.55" transform="rotate(0)"></text></g></g><g id="SvgjsG1536" transform="translate(656,92)"><path id="SvgjsPath1537" d="M 0 0L 120 0L 120 40L 0 40Z" stroke="none" fill="none"></path><g id="SvgjsG1538"><text id="SvgjsText1539" font-family="微软雅黑" text-anchor="middle" font-size="17px" width="120px" fill="#323232" font-weight="700" align="middle" anchor="middle" family="微软雅黑" size="17px" weight="700" font-style="" opacity="1" y="6.95" transform="rotate(0)"><tspan id="SvgjsTspan1540" dy="21" x="60"><tspan id="SvgjsTspan1541" style="text-decoration:;">Slot</tspan></tspan></text></g></g><g id="SvgjsG1542" transform="translate(732,92)"><path id="SvgjsPath1543" d="M 0 0L 120 0L 120 40L 0 40Z" stroke="none" fill="none"></path><g id="SvgjsG1544"><text id="SvgjsText1545" font-family="微软雅黑" text-anchor="middle" font-size="17px" width="120px" fill="#323232" font-weight="700" align="middle" anchor="middle" family="微软雅黑" size="17px" weight="700" font-style="" opacity="1" y="6.95" transform="rotate(0)"><tspan id="SvgjsTspan1546" dy="21" x="60"><tspan id="SvgjsTspan1547" style="text-decoration:;">Slot</tspan></tspan></text></g></g><g id="SvgjsG1548" transform="translate(820,92)"><path id="SvgjsPath1549" d="M 0 0L 120 0L 120 40L 0 40Z" stroke="none" fill="none"></path><g id="SvgjsG1550"><text id="SvgjsText1551" font-family="微软雅黑" text-anchor="middle" font-size="17px" width="120px" fill="#323232" font-weight="700" align="middle" anchor="middle" family="微软雅黑" size="17px" weight="700" font-style="" opacity="1" y="6.95" transform="rotate(0)"><tspan id="SvgjsTspan1552" dy="21" x="60"><tspan id="SvgjsTspan1553" style="text-decoration:;">Slot</tspan></tspan></text></g></g><g id="SvgjsG1554" transform="translate(675,25)"><path id="SvgjsPath1555" d="M 0 0L 120 0L 120 40L 0 40Z" stroke="none" fill="none"></path><g id="SvgjsG1556"><text id="SvgjsText1557" font-family="微软雅黑" text-anchor="middle" font-size="16px" width="120px" fill="#323232" font-weight="700" align="middle" anchor="middle" family="微软雅黑" size="16px" weight="700" font-style="" opacity="1" y="7.6" transform="rotate(0)"><tspan id="SvgjsTspan1558" dy="20" x="60"><tspan id="SvgjsTspan1559" style="text-decoration:;">Task Manager</tspan></tspan></text></g></g><g id="SvgjsG1560" transform="translate(656,147.5)"><path id="SvgjsPath1561" d="M 0 0L 120 0L 120 40L 0 40Z" stroke="none" fill="none"></path><g id="SvgjsG1562"><text id="SvgjsText1563" font-family="微软雅黑" text-anchor="middle" font-size="15px" width="120px" fill="#323232" font-weight="700" align="middle" anchor="middle" family="微软雅黑" size="15px" weight="700" font-style="" opacity="1" y="8.25" transform="rotate(0)"><tspan id="SvgjsTspan1564" dy="18" x="60"><tspan id="SvgjsTspan1565" style="text-decoration:;">Task</tspan></tspan></text></g></g><g id="SvgjsG1566" transform="translate(738,147.5)"><path id="SvgjsPath1567" d="M 0 0L 120 0L 120 40L 0 40Z" stroke="none" fill="none"></path><g id="SvgjsG1568"><text id="SvgjsText1569" font-family="微软雅黑" text-anchor="middle" font-size="15px" width="120px" fill="#323232" font-weight="700" align="middle" anchor="middle" family="微软雅黑" size="15px" weight="700" font-style="" opacity="1" y="8.25" transform="rotate(0)"><tspan id="SvgjsTspan1570" dy="18" x="60"><tspan id="SvgjsTspan1571" style="text-decoration:;">Task</tspan></tspan></text></g></g><g id="SvgjsG1572" transform="translate(820,147.5)"><path id="SvgjsPath1573" d="M 0 0L 120 0L 120 40L 0 40Z" stroke="none" fill="none"></path><g id="SvgjsG1574"><text id="SvgjsText1575" font-family="微软雅黑" text-anchor="middle" font-size="15px" width="120px" fill="#323232" font-weight="700" align="middle" anchor="middle" family="微软雅黑" size="15px" weight="700" font-style="" opacity="1" y="8.25" transform="rotate(0)"><tspan id="SvgjsTspan1576" dy="18" x="60"><tspan id="SvgjsTspan1577" style="text-decoration:;">Task</tspan></tspan></text></g></g><g id="SvgjsG1578" transform="translate(681,250)"><path id="SvgjsPath1579" d="M 0 4Q 0 0 4 0L 230 0Q 234 0 234 4L 234 41Q 234 45 230 45L 4 45Q 0 45 0 41Z" stroke="rgba(50,50,50,1)" stroke-width="2" fill-opacity="1" fill="#99ff99"></path><g id="SvgjsG1580"><text id="SvgjsText1581" font-family="微软雅黑" text-anchor="middle" font-size="13px" width="214px" fill="#323232" font-weight="400" align="middle" anchor="middle" family="微软雅黑" size="13px" weight="400" font-style="" opacity="1" y="12.55" transform="rotate(0)"></text></g></g><g id="SvgjsG1582" transform="translate(738,250)"><path id="SvgjsPath1583" d="M 0 0L 120 0L 120 40L 0 40Z" stroke="none" fill="none"></path><g id="SvgjsG1584"><text id="SvgjsText1585" font-family="微软雅黑" text-anchor="middle" font-size="15px" width="120px" fill="#323232" font-weight="700" align="middle" anchor="middle" family="微软雅黑" size="15px" weight="700" font-style="" opacity="1" y="8.25" transform="rotate(0)"><tspan id="SvgjsTspan1586" dy="18" x="60"><tspan id="SvgjsTspan1587" style="text-decoration:;">Broadcast(广播)</tspan></tspan></text></g></g><g id="SvgjsG1588"><path id="SvgjsPath1589" d="M716 206C 716 243.2236483972219 798 212.7763516027781 798 250" stroke="#323232" stroke-width="2" fill="none" marker-end="url(#SvgjsMarker1590)"></path></g><g id="SvgjsG1592"><path id="SvgjsPath1593" d="M798 209C 798 225.39999999999998 798 233.60000000000002 798 250" stroke="#323232" stroke-width="2" fill="none" marker-end="url(#SvgjsMarker1594)"></path></g><g id="SvgjsG1596"><path id="SvgjsPath1597" d="M880 209C 880 245.67151483099656 798 213.32848516900344 798 250" stroke="#323232" stroke-width="2" fill="none" marker-end="url(#SvgjsMarker1598)"></path></g><g id="SvgjsG1600" transform="translate(216.125,404)"><path id="SvgjsPath1601" d="M 0 4Q 0 0 4 0L 253.5 0Q 257.5 0 257.5 4L 257.5 275Q 257.5 279 253.5 279L 4 279Q 0 279 0 275Z" stroke="rgba(50,50,50,1)" stroke-width="2" fill-opacity="1" fill="#e6ffcc"></path><g id="SvgjsG1602"><text id="SvgjsText1603" font-family="微软雅黑" text-anchor="middle" font-size="13px" width="238px" fill="#323232" font-weight="400" align="middle" anchor="middle" family="微软雅黑" size="13px" weight="400" font-style="" opacity="1" y="129.55" transform="rotate(0)"></text></g></g><g id="SvgjsG1604" transform="translate(229,468)"><path id="SvgjsPath1605" d="M 0 4Q 0 0 4 0L 66 0Q 70 0 70 4L 70 169Q 70 173 66 173L 4 173Q 0 173 0 169Z" stroke="rgba(50,50,50,1)" stroke-width="2" fill-opacity="1" fill="#e5ccff"></path><g id="SvgjsG1606"><text id="SvgjsText1607" font-family="微软雅黑" text-anchor="middle" font-size="13px" width="50px" fill="#323232" font-weight="400" align="middle" anchor="middle" family="微软雅黑" size="13px" weight="400" font-style="" opacity="1" y="76.55" transform="rotate(0)"></text></g></g><g id="SvgjsG1608" transform="translate(233.75,553)"><path id="SvgjsPath1609" d="M 0 4Q 0 0 4 0L 56.5 0Q 60.5 0 60.5 4L 60.5 73Q 60.5 77 56.5 77L 4 77Q 0 77 0 73Z" stroke="rgba(50,50,50,1)" stroke-width="2" fill-opacity="1" fill="#99ccff"></path><g id="SvgjsG1610"><text id="SvgjsText1611" font-family="微软雅黑" text-anchor="middle" font-size="13px" width="41px" fill="#323232" font-weight="400" align="middle" anchor="middle" family="微软雅黑" size="13px" weight="400" font-style="" opacity="1" y="28.55" transform="rotate(0)"></text></g></g><g id="SvgjsG1612" transform="translate(311,468)"><path id="SvgjsPath1613" d="M 0 4Q 0 0 4 0L 66 0Q 70 0 70 4L 70 169Q 70 173 66 173L 4 173Q 0 173 0 169Z" stroke="rgba(50,50,50,1)" stroke-width="2" fill-opacity="1" fill="#e5ccff"></path><g id="SvgjsG1614"><text id="SvgjsText1615" font-family="微软雅黑" text-anchor="middle" font-size="13px" width="50px" fill="#323232" font-weight="400" align="middle" anchor="middle" family="微软雅黑" size="13px" weight="400" font-style="" opacity="1" y="76.55" transform="rotate(0)"></text></g></g><g id="SvgjsG1616" transform="translate(316.875,553)"><path id="SvgjsPath1617" d="M 0 4Q 0 0 4 0L 56.5 0Q 60.5 0 60.5 4L 60.5 73Q 60.5 77 56.5 77L 4 77Q 0 77 0 73Z" stroke="rgba(50,50,50,1)" stroke-width="2" fill-opacity="1" fill="#99ccff"></path><g id="SvgjsG1618"><text id="SvgjsText1619" font-family="微软雅黑" text-anchor="middle" font-size="13px" width="41px" fill="#323232" font-weight="400" align="middle" anchor="middle" family="微软雅黑" size="13px" weight="400" font-style="" opacity="1" y="28.55" transform="rotate(0)"></text></g></g><g id="SvgjsG1620" transform="translate(393,468)"><path id="SvgjsPath1621" d="M 0 4Q 0 0 4 0L 66 0Q 70 0 70 4L 70 169Q 70 173 66 173L 4 173Q 0 173 0 169Z" stroke="rgba(50,50,50,1)" stroke-width="2" fill-opacity="1" fill="#e5ccff"></path><g id="SvgjsG1622"><text id="SvgjsText1623" font-family="微软雅黑" text-anchor="middle" font-size="13px" width="50px" fill="#323232" font-weight="400" align="middle" anchor="middle" family="微软雅黑" size="13px" weight="400" font-style="" opacity="1" y="76.55" transform="rotate(0)"></text></g></g><g id="SvgjsG1624" transform="translate(397.75,553)"><path id="SvgjsPath1625" d="M 0 4Q 0 0 4 0L 56.5 0Q 60.5 0 60.5 4L 60.5 73Q 60.5 77 56.5 77L 4 77Q 0 77 0 73Z" stroke="rgba(50,50,50,1)" stroke-width="2" fill-opacity="1" fill="#99ccff"></path><g id="SvgjsG1626"><text id="SvgjsText1627" font-family="微软雅黑" text-anchor="middle" font-size="13px" width="41px" fill="#323232" font-weight="400" align="middle" anchor="middle" family="微软雅黑" size="13px" weight="400" font-style="" opacity="1" y="28.55" transform="rotate(0)"></text></g></g><g id="SvgjsG1628" transform="translate(204,468)"><path id="SvgjsPath1629" d="M 0 0L 120 0L 120 40L 0 40Z" stroke="none" fill="none"></path><g id="SvgjsG1630"><text id="SvgjsText1631" font-family="微软雅黑" text-anchor="middle" font-size="17px" width="120px" fill="#323232" font-weight="700" align="middle" anchor="middle" family="微软雅黑" size="17px" weight="700" font-style="" opacity="1" y="6.95" transform="rotate(0)"><tspan id="SvgjsTspan1632" dy="21" x="60"><tspan id="SvgjsTspan1633" style="text-decoration:;">Slot</tspan></tspan></text></g></g><g id="SvgjsG1634" transform="translate(280,468)"><path id="SvgjsPath1635" d="M 0 0L 120 0L 120 40L 0 40Z" stroke="none" fill="none"></path><g id="SvgjsG1636"><text id="SvgjsText1637" font-family="微软雅黑" text-anchor="middle" font-size="17px" width="120px" fill="#323232" font-weight="700" align="middle" anchor="middle" family="微软雅黑" size="17px" weight="700" font-style="" opacity="1" y="6.95" transform="rotate(0)"><tspan id="SvgjsTspan1638" dy="21" x="60"><tspan id="SvgjsTspan1639" style="text-decoration:;">Slot</tspan></tspan></text></g></g><g id="SvgjsG1640" transform="translate(368,468)"><path id="SvgjsPath1641" d="M 0 0L 120 0L 120 40L 0 40Z" stroke="none" fill="none"></path><g id="SvgjsG1642"><text id="SvgjsText1643" font-family="微软雅黑" text-anchor="middle" font-size="17px" width="120px" fill="#323232" font-weight="700" align="middle" anchor="middle" family="微软雅黑" size="17px" weight="700" font-style="" opacity="1" y="6.95" transform="rotate(0)"><tspan id="SvgjsTspan1644" dy="21" x="60"><tspan id="SvgjsTspan1645" style="text-decoration:;">Slot</tspan></tspan></text></g></g><g id="SvgjsG1646" transform="translate(240.875,556)"><path id="SvgjsPath1647" d="M 0 21.5C 0 -7.166666666666667 46.25 -7.166666666666667 46.25 21.5C 46.25 50.166666666666664 0 50.166666666666664 0 21.5Z" stroke="rgba(50,50,50,1)" stroke-width="2" fill-opacity="1" fill="#99ff99"></path><g id="SvgjsG1648"><text id="SvgjsText1649" font-family="微软雅黑" text-anchor="middle" font-size="13px" width="27px" fill="#323232" font-weight="400" align="middle" anchor="middle" family="微软雅黑" size="13px" weight="400" font-style="" opacity="1" y="3.55" transform="rotate(0)"><tspan id="SvgjsTspan1650" dy="16" x="23.5"><tspan id="SvgjsTspan1651" style="text-decoration:;">共享</tspan></tspan><tspan id="SvgjsTspan1652" dy="16" x="23.5"><tspan id="SvgjsTspan1653" style="text-decoration:;">变量</tspan></tspan></text></g></g><g id="SvgjsG1654" transform="translate(223,401)"><path id="SvgjsPath1655" d="M 0 0L 120 0L 120 40L 0 40Z" stroke="none" fill="none"></path><g id="SvgjsG1656"><text id="SvgjsText1657" font-family="微软雅黑" text-anchor="middle" font-size="16px" width="120px" fill="#323232" font-weight="700" align="middle" anchor="middle" family="微软雅黑" size="16px" weight="700" font-style="" opacity="1" y="7.6" transform="rotate(0)"><tspan id="SvgjsTspan1658" dy="20" x="60"><tspan id="SvgjsTspan1659" style="text-decoration:;">Task Manager</tspan></tspan></text></g></g><g id="SvgjsG1660" transform="translate(321.75,556)"><path id="SvgjsPath1661" d="M 0 21.5C 0 -7.166666666666667 46.25 -7.166666666666667 46.25 21.5C 46.25 50.166666666666664 0 50.166666666666664 0 21.5Z" stroke="rgba(50,50,50,1)" stroke-width="2" fill-opacity="1" fill="#99ff99"></path><g id="SvgjsG1662"><text id="SvgjsText1663" font-family="微软雅黑" text-anchor="middle" font-size="13px" width="27px" fill="#323232" font-weight="400" align="middle" anchor="middle" family="微软雅黑" size="13px" weight="400" font-style="" opacity="1" y="3.55" transform="rotate(0)"><tspan id="SvgjsTspan1664" dy="16" x="23.5"><tspan id="SvgjsTspan1665" style="text-decoration:;">共享</tspan></tspan><tspan id="SvgjsTspan1666" dy="16" x="23.5"><tspan id="SvgjsTspan1667" style="text-decoration:;">变量</tspan></tspan></text></g></g><g id="SvgjsG1668" transform="translate(404.875,553)"><path id="SvgjsPath1669" d="M 0 21.5C 0 -7.166666666666667 46.25 -7.166666666666667 46.25 21.5C 46.25 50.166666666666664 0 50.166666666666664 0 21.5Z" stroke="rgba(50,50,50,1)" stroke-width="2" fill-opacity="1" fill="#99ff99"></path><g id="SvgjsG1670"><text id="SvgjsText1671" font-family="微软雅黑" text-anchor="middle" font-size="13px" width="27px" fill="#323232" font-weight="400" align="middle" anchor="middle" family="微软雅黑" size="13px" weight="400" font-style="" opacity="1" y="3.55" transform="rotate(0)"><tspan id="SvgjsTspan1672" dy="16" x="23.5"><tspan id="SvgjsTspan1673" style="text-decoration:;">共享</tspan></tspan><tspan id="SvgjsTspan1674" dy="16" x="23.5"><tspan id="SvgjsTspan1675" style="text-decoration:;">变量</tspan></tspan></text></g></g><g id="SvgjsG1676" transform="translate(201.75,596)"><path id="SvgjsPath1677" d="M 0 0L 120 0L 120 40L 0 40Z" stroke="none" fill="none"></path><g id="SvgjsG1678"><text id="SvgjsText1679" font-family="微软雅黑" text-anchor="middle" font-size="15px" width="120px" fill="#323232" font-weight="700" align="middle" anchor="middle" family="微软雅黑" size="15px" weight="700" font-style="" opacity="1" y="8.25" transform="rotate(0)"><tspan id="SvgjsTspan1680" dy="18" x="60"><tspan id="SvgjsTspan1681" style="text-decoration:;">Task</tspan></tspan></text></g></g><g id="SvgjsG1682" transform="translate(284.875,596)"><path id="SvgjsPath1683" d="M 0 0L 120 0L 120 40L 0 40Z" stroke="none" fill="none"></path><g id="SvgjsG1684"><text id="SvgjsText1685" font-family="微软雅黑" text-anchor="middle" font-size="15px" width="120px" fill="#323232" font-weight="700" align="middle" anchor="middle" family="微软雅黑" size="15px" weight="700" font-style="" opacity="1" y="8.25" transform="rotate(0)"><tspan id="SvgjsTspan1686" dy="18" x="60"><tspan id="SvgjsTspan1687" style="text-decoration:;">Task</tspan></tspan></text></g></g><g id="SvgjsG1688" transform="translate(368,596)"><path id="SvgjsPath1689" d="M 0 0L 120 0L 120 40L 0 40Z" stroke="none" fill="none"></path><g id="SvgjsG1690"><text id="SvgjsText1691" font-family="微软雅黑" text-anchor="middle" font-size="15px" width="120px" fill="#323232" font-weight="700" align="middle" anchor="middle" family="微软雅黑" size="15px" weight="700" font-style="" opacity="1" y="8.25" transform="rotate(0)"><tspan id="SvgjsTspan1692" dy="18" x="60"><tspan id="SvgjsTspan1693" style="text-decoration:;">Task</tspan></tspan></text></g></g><g id="SvgjsG1694" transform="translate(667,404)"><path id="SvgjsPath1695" d="M 0 4Q 0 0 4 0L 251 0Q 255 0 255 4L 255 275Q 255 279 251 279L 4 279Q 0 279 0 275Z" stroke="rgba(50,50,50,1)" stroke-width="2" fill-opacity="1" fill="#e6ffcc"></path><g id="SvgjsG1696"><text id="SvgjsText1697" font-family="微软雅黑" text-anchor="middle" font-size="13px" width="235px" fill="#323232" font-weight="400" align="middle" anchor="middle" family="微软雅黑" size="13px" weight="400" font-style="" opacity="1" y="129.55" transform="rotate(0)"></text></g></g><g id="SvgjsG1698" transform="translate(681,468)"><path id="SvgjsPath1699" d="M 0 4Q 0 0 4 0L 66 0Q 70 0 70 4L 70 123Q 70 127 66 127L 4 127Q 0 127 0 123Z" stroke="rgba(50,50,50,1)" stroke-width="2" fill-opacity="1" fill="#e5ccff"></path><g id="SvgjsG1700"><text id="SvgjsText1701" font-family="微软雅黑" text-anchor="middle" font-size="13px" width="50px" fill="#323232" font-weight="400" align="middle" anchor="middle" family="微软雅黑" size="13px" weight="400" font-style="" opacity="1" y="53.55" transform="rotate(0)"></text></g></g><g id="SvgjsG1702" transform="translate(685.75,505)"><path id="SvgjsPath1703" d="M 0 4Q 0 0 4 0L 56.5 0Q 60.5 0 60.5 4L 60.5 73Q 60.5 77 56.5 77L 4 77Q 0 77 0 73Z" stroke="rgba(50,50,50,1)" stroke-width="2" fill-opacity="1" fill="#99ccff"></path><g id="SvgjsG1704"><text id="SvgjsText1705" font-family="微软雅黑" text-anchor="middle" font-size="13px" width="41px" fill="#323232" font-weight="400" align="middle" anchor="middle" family="微软雅黑" size="13px" weight="400" font-style="" opacity="1" y="28.55" transform="rotate(0)"></text></g></g><g id="SvgjsG1706" transform="translate(763,468)"><path id="SvgjsPath1707" d="M 0 4Q 0 0 4 0L 66 0Q 70 0 70 4L 70 123Q 70 127 66 127L 4 127Q 0 127 0 123Z" stroke="rgba(50,50,50,1)" stroke-width="2" fill-opacity="1" fill="#e5ccff"></path><g id="SvgjsG1708"><text id="SvgjsText1709" font-family="微软雅黑" text-anchor="middle" font-size="13px" width="50px" fill="#323232" font-weight="400" align="middle" anchor="middle" family="微软雅黑" size="13px" weight="400" font-style="" opacity="1" y="53.55" transform="rotate(0)"></text></g></g><g id="SvgjsG1710" transform="translate(767.75,508)"><path id="SvgjsPath1711" d="M 0 4Q 0 0 4 0L 56.5 0Q 60.5 0 60.5 4L 60.5 73Q 60.5 77 56.5 77L 4 77Q 0 77 0 73Z" stroke="rgba(50,50,50,1)" stroke-width="2" fill-opacity="1" fill="#99ccff"></path><g id="SvgjsG1712"><text id="SvgjsText1713" font-family="微软雅黑" text-anchor="middle" font-size="13px" width="41px" fill="#323232" font-weight="400" align="middle" anchor="middle" family="微软雅黑" size="13px" weight="400" font-style="" opacity="1" y="28.55" transform="rotate(0)"></text></g></g><g id="SvgjsG1714" transform="translate(845,468)"><path id="SvgjsPath1715" d="M 0 4Q 0 0 4 0L 66 0Q 70 0 70 4L 70 123Q 70 127 66 127L 4 127Q 0 127 0 123Z" stroke="rgba(50,50,50,1)" stroke-width="2" fill-opacity="1" fill="#e5ccff"></path><g id="SvgjsG1716"><text id="SvgjsText1717" font-family="微软雅黑" text-anchor="middle" font-size="13px" width="50px" fill="#323232" font-weight="400" align="middle" anchor="middle" family="微软雅黑" size="13px" weight="400" font-style="" opacity="1" y="53.55" transform="rotate(0)"></text></g></g><g id="SvgjsG1718" transform="translate(849.75,508)"><path id="SvgjsPath1719" d="M 0 4Q 0 0 4 0L 56.5 0Q 60.5 0 60.5 4L 60.5 73Q 60.5 77 56.5 77L 4 77Q 0 77 0 73Z" stroke="rgba(50,50,50,1)" stroke-width="2" fill-opacity="1" fill="#99ccff"></path><g id="SvgjsG1720"><text id="SvgjsText1721" font-family="微软雅黑" text-anchor="middle" font-size="13px" width="41px" fill="#323232" font-weight="400" align="middle" anchor="middle" family="微软雅黑" size="13px" weight="400" font-style="" opacity="1" y="28.55" transform="rotate(0)"></text></g></g><g id="SvgjsG1722" transform="translate(656,468)"><path id="SvgjsPath1723" d="M 0 0L 120 0L 120 40L 0 40Z" stroke="none" fill="none"></path><g id="SvgjsG1724"><text id="SvgjsText1725" font-family="微软雅黑" text-anchor="middle" font-size="17px" width="120px" fill="#323232" font-weight="700" align="middle" anchor="middle" family="微软雅黑" size="17px" weight="700" font-style="" opacity="1" y="6.95" transform="rotate(0)"><tspan id="SvgjsTspan1726" dy="21" x="60"><tspan id="SvgjsTspan1727" style="text-decoration:;">Slot</tspan></tspan></text></g></g><g id="SvgjsG1728" transform="translate(732,468)"><path id="SvgjsPath1729" d="M 0 0L 120 0L 120 40L 0 40Z" stroke="none" fill="none"></path><g id="SvgjsG1730"><text id="SvgjsText1731" font-family="微软雅黑" text-anchor="middle" font-size="17px" width="120px" fill="#323232" font-weight="700" align="middle" anchor="middle" family="微软雅黑" size="17px" weight="700" font-style="" opacity="1" y="6.95" transform="rotate(0)"><tspan id="SvgjsTspan1732" dy="21" x="60"><tspan id="SvgjsTspan1733" style="text-decoration:;">Slot</tspan></tspan></text></g></g><g id="SvgjsG1734" transform="translate(820,468)"><path id="SvgjsPath1735" d="M 0 0L 120 0L 120 40L 0 40Z" stroke="none" fill="none"></path><g id="SvgjsG1736"><text id="SvgjsText1737" font-family="微软雅黑" text-anchor="middle" font-size="17px" width="120px" fill="#323232" font-weight="700" align="middle" anchor="middle" family="微软雅黑" size="17px" weight="700" font-style="" opacity="1" y="6.95" transform="rotate(0)"><tspan id="SvgjsTspan1738" dy="21" x="60"><tspan id="SvgjsTspan1739" style="text-decoration:;">Slot</tspan></tspan></text></g></g><g id="SvgjsG1740" transform="translate(675,401)"><path id="SvgjsPath1741" d="M 0 0L 120 0L 120 40L 0 40Z" stroke="none" fill="none"></path><g id="SvgjsG1742"><text id="SvgjsText1743" font-family="微软雅黑" text-anchor="middle" font-size="16px" width="120px" fill="#323232" font-weight="700" align="middle" anchor="middle" family="微软雅黑" size="16px" weight="700" font-style="" opacity="1" y="7.6" transform="rotate(0)"><tspan id="SvgjsTspan1744" dy="20" x="60"><tspan id="SvgjsTspan1745" style="text-decoration:;">Task Manager</tspan></tspan></text></g></g><g id="SvgjsG1746" transform="translate(656,523.5)"><path id="SvgjsPath1747" d="M 0 0L 120 0L 120 40L 0 40Z" stroke="none" fill="none"></path><g id="SvgjsG1748"><text id="SvgjsText1749" font-family="微软雅黑" text-anchor="middle" font-size="15px" width="120px" fill="#323232" font-weight="700" align="middle" anchor="middle" family="微软雅黑" size="15px" weight="700" font-style="" opacity="1" y="8.25" transform="rotate(0)"><tspan id="SvgjsTspan1750" dy="18" x="60"><tspan id="SvgjsTspan1751" style="text-decoration:;">Task</tspan></tspan></text></g></g><g id="SvgjsG1752" transform="translate(738,523.5)"><path id="SvgjsPath1753" d="M 0 0L 120 0L 120 40L 0 40Z" stroke="none" fill="none"></path><g id="SvgjsG1754"><text id="SvgjsText1755" font-family="微软雅黑" text-anchor="middle" font-size="15px" width="120px" fill="#323232" font-weight="700" align="middle" anchor="middle" family="微软雅黑" size="15px" weight="700" font-style="" opacity="1" y="8.25" transform="rotate(0)"><tspan id="SvgjsTspan1756" dy="18" x="60"><tspan id="SvgjsTspan1757" style="text-decoration:;">Task</tspan></tspan></text></g></g><g id="SvgjsG1758" transform="translate(820,523.5)"><path id="SvgjsPath1759" d="M 0 0L 120 0L 120 40L 0 40Z" stroke="none" fill="none"></path><g id="SvgjsG1760"><text id="SvgjsText1761" font-family="微软雅黑" text-anchor="middle" font-size="15px" width="120px" fill="#323232" font-weight="700" align="middle" anchor="middle" family="微软雅黑" size="15px" weight="700" font-style="" opacity="1" y="8.25" transform="rotate(0)"><tspan id="SvgjsTspan1762" dy="18" x="60"><tspan id="SvgjsTspan1763" style="text-decoration:;">Task</tspan></tspan></text></g></g><g id="SvgjsG1764" transform="translate(681,626)"><path id="SvgjsPath1765" d="M 0 4Q 0 0 4 0L 230 0Q 234 0 234 4L 234 41Q 234 45 230 45L 4 45Q 0 45 0 41Z" stroke="rgba(50,50,50,1)" stroke-width="2" fill-opacity="1" fill="#99ff99"></path><g id="SvgjsG1766"><text id="SvgjsText1767" font-family="微软雅黑" text-anchor="middle" font-size="13px" width="214px" fill="#323232" font-weight="400" align="middle" anchor="middle" family="微软雅黑" size="13px" weight="400" font-style="" opacity="1" y="12.55" transform="rotate(0)"></text></g></g><g id="SvgjsG1768" transform="translate(738,626)"><path id="SvgjsPath1769" d="M 0 0L 120 0L 120 40L 0 40Z" stroke="none" fill="none"></path><g id="SvgjsG1770"><text id="SvgjsText1771" font-family="微软雅黑" text-anchor="middle" font-size="15px" width="120px" fill="#323232" font-weight="700" align="middle" anchor="middle" family="微软雅黑" size="15px" weight="700" font-style="" opacity="1" y="8.25" transform="rotate(0)"><tspan id="SvgjsTspan1772" dy="18" x="60"><tspan id="SvgjsTspan1773" style="text-decoration:;">Broadcast(广播)</tspan></tspan></text></g></g><g id="SvgjsG1774"><path id="SvgjsPath1775" d="M716 582C 716 619.223648397222 798 588.776351602778 798 626" stroke="#323232" stroke-width="2" fill="none" marker-end="url(#SvgjsMarker1776)"></path></g><g id="SvgjsG1778"><path id="SvgjsPath1779" d="M798 585C 798 601.4 798 609.6 798 626" stroke="#323232" stroke-width="2" fill="none" marker-end="url(#SvgjsMarker1780)"></path></g><g id="SvgjsG1782"><path id="SvgjsPath1783" d="M880 585C 880 621.6715148309966 798 589.3284851690034 798 626" stroke="#323232" stroke-width="2" fill="none" marker-end="url(#SvgjsMarker1784)"></path></g><g id="SvgjsG1786" transform="translate(239.375,330)"><path id="SvgjsPath1787" d="M 0 0L 195 0L 211 16L 211 53L 0 53L 0 0Z" stroke="none" fill-opacity="1" fill="#ffffaa"></path><path id="SvgjsPath1788" d="M 195 0L 195 16L 211 16Z" stroke="none" fill-opacity="1" fill="#cdcdcd"></path><path id="SvgjsPath1789" d="M 0 0L 195 0L 211 16L 211 53L 0 53L 0 0Z" stroke="none" fill="none"></path><g id="SvgjsG1790"><text id="SvgjsText1791" font-family="微软雅黑" text-anchor="middle" font-size="15px" width="191px" fill="#323232" font-weight="700" align="middle" anchor="middle" family="微软雅黑" size="15px" weight="700" font-style="" opacity="1" y="14.75" transform="rotate(0)"><tspan id="SvgjsTspan1792" dy="18" x="105.5"><tspan id="SvgjsTspan1793" style="text-decoration:;">不使用广播变量</tspan></tspan></text></g></g><g id="SvgjsG1794" transform="translate(686.5,330)"><path id="SvgjsPath1795" d="M 0 0L 195 0L 211 16L 211 53L 0 53L 0 0Z" stroke="none" fill-opacity="1" fill="#ffffaa"></path><path id="SvgjsPath1796" d="M 195 0L 195 16L 211 16Z" stroke="none" fill-opacity="1" fill="#cdcdcd"></path><path id="SvgjsPath1797" d="M 0 0L 195 0L 211 16L 211 53L 0 53L 0 0Z" stroke="none" fill="none"></path><g id="SvgjsG1798"><text id="SvgjsText1799" font-family="微软雅黑" text-anchor="middle" font-size="15px" width="191px" fill="#323232" font-weight="700" align="middle" anchor="middle" family="微软雅黑" size="15px" weight="700" font-style="" opacity="1" y="14.75" transform="rotate(0)"><tspan id="SvgjsTspan1800" dy="18" x="105.5"><tspan id="SvgjsTspan1801" style="text-decoration:;">使用广播变量</tspan></tspan></text></g></g><g id="SvgjsG1802" transform="translate(25,325)"><path id="SvgjsPath1803" d="M 0 0L 149 0L 149 58L 0 58Z" stroke="none" fill="none"></path><g id="SvgjsG1804"><text id="SvgjsText1805" font-family="微软雅黑" text-anchor="middle" font-size="13px" width="149px" fill="#323232" font-weight="700" align="middle" anchor="middle" family="微软雅黑" size="13px" weight="700" font-style="italic" opacity="1" y="11.05" transform="rotate(0)"><tspan id="SvgjsTspan1806" dy="16" x="74.5"><tspan id="SvgjsTspan1807" style="text-decoration:;">每个Task都会拷贝一份数</tspan></tspan><tspan id="SvgjsTspan1808" dy="16" x="74.5"><tspan id="SvgjsTspan1809" style="text-decoration:;">据，这样浪费资源</tspan></tspan></text></g></g><g id="SvgjsG1810" transform="translate(990,333)"><path id="SvgjsPath1811" d="M 0 0L 171 0L 171 42L 0 42Z" stroke="none" fill="none"></path><g id="SvgjsG1812"><text id="SvgjsText1813" font-family="微软雅黑" text-anchor="middle" font-size="13px" width="171px" fill="#323232" font-weight="700" align="middle" anchor="middle" family="微软雅黑" size="13px" weight="700" font-style="italic" opacity="1" y="3.05" transform="rotate(0)"><tspan id="SvgjsTspan1814" dy="16" x="85.5"><tspan id="SvgjsTspan1815" style="text-decoration:;">节点内存上存储一份，不同的</tspan></tspan><tspan id="SvgjsTspan1816" dy="16" x="85.5"><tspan id="SvgjsTspan1817" style="text-decoration:;">Task都可以在节点上获取</tspan></tspan></text></g></g></svg>