<svg id="SvgjsSvg2138" width="1904.0750007629395" height="963.25" xmlns="http://www.w3.org/2000/svg" version="1.1" xmlns:xlink="http://www.w3.org/1999/xlink" xmlns:svgjs="http://svgjs.com/svgjs"><defs id="SvgjsDefs2139"><marker id="SvgjsMarker2220" markerWidth="16" markerHeight="12" refX="16" refY="6" viewBox="0 0 16 12" orient="auto" markerUnits="userSpaceOnUse" stroke-dasharray="0,0"><path id="SvgjsPath2221" d="M0,2 L14,6 L0,11 L0,2" fill="#323232" stroke="#323232" stroke-width="2"></path></marker><marker id="SvgjsMarker2224" markerWidth="16" markerHeight="12" refX="16" refY="6" viewBox="0 0 16 12" orient="auto" markerUnits="userSpaceOnUse" stroke-dasharray="0,0"><path id="SvgjsPath2225" d="M0,2 L14,6 L0,11 L0,2" fill="#323232" stroke="#323232" stroke-width="2"></path></marker><marker id="SvgjsMarker2292" markerWidth="16" markerHeight="12" refX="16" refY="6" viewBox="0 0 16 12" orient="auto" markerUnits="userSpaceOnUse" stroke-dasharray="0,0"><path id="SvgjsPath2293" d="M0,2 L14,6 L0,11 L0,2" fill="#323232" stroke="#323232" stroke-width="2"></path></marker><marker id="SvgjsMarker2296" markerWidth="16" markerHeight="12" refX="16" refY="6" viewBox="0 0 16 12" orient="auto" markerUnits="userSpaceOnUse" stroke-dasharray="0,0"><path id="SvgjsPath2297" d="M0,2 L14,6 L0,11 L0,2" fill="#323232" stroke="#323232" stroke-width="2"></path></marker><marker id="SvgjsMarker2384" markerWidth="16" markerHeight="12" refX="16" refY="6" viewBox="0 0 16 12" orient="auto" markerUnits="userSpaceOnUse" stroke-dasharray="0,0"><path id="SvgjsPath2385" d="M0,2 L14,6 L0,11 L0,2" fill="#323232" stroke="#323232" stroke-width="2"></path></marker><marker id="SvgjsMarker2388" markerWidth="16" markerHeight="12" refX="16" refY="6" viewBox="0 0 16 12" orient="auto" markerUnits="userSpaceOnUse" stroke-dasharray="0,0"><path id="SvgjsPath2389" d="M0,2 L14,6 L0,11 L0,2" fill="#323232" stroke="#323232" stroke-width="2"></path></marker><marker id="SvgjsMarker2456" markerWidth="16" markerHeight="12" refX="16" refY="6" viewBox="0 0 16 12" orient="auto" markerUnits="userSpaceOnUse" stroke-dasharray="0,0"><path id="SvgjsPath2457" d="M0,2 L14,6 L0,11 L0,2" fill="#323232" stroke="#323232" stroke-width="2"></path></marker><marker id="SvgjsMarker2460" markerWidth="16" markerHeight="12" refX="16" refY="6" viewBox="0 0 16 12" orient="auto" markerUnits="userSpaceOnUse" stroke-dasharray="0,0"><path id="SvgjsPath2461" d="M0,2 L14,6 L0,11 L0,2" fill="#323232" stroke="#323232" stroke-width="2"></path></marker><marker id="SvgjsMarker2476" markerWidth="16" markerHeight="12" refX="16" refY="6" viewBox="0 0 16 12" orient="auto" markerUnits="userSpaceOnUse" stroke-dasharray="0,0"><path id="SvgjsPath2477" d="M0,2 L14,6 L0,11 L0,2" fill="#323232" stroke="#323232" stroke-width="2"></path></marker><marker id="SvgjsMarker2480" markerWidth="16" markerHeight="12" refX="16" refY="6" viewBox="0 0 16 12" orient="auto" markerUnits="userSpaceOnUse" stroke-dasharray="0,0"><path id="SvgjsPath2481" d="M0,2 L14,6 L0,11 L0,2" fill="#323232" stroke="#323232" stroke-width="2"></path></marker><marker id="SvgjsMarker2484" markerWidth="16" markerHeight="12" refX="16" refY="6" viewBox="0 0 16 12" orient="auto" markerUnits="userSpaceOnUse" stroke-dasharray="0,0"><path id="SvgjsPath2485" d="M0,2 L14,6 L0,11 L0,2" fill="#323232" stroke="#323232" stroke-width="2"></path></marker><marker id="SvgjsMarker2488" markerWidth="16" markerHeight="12" refX="16" refY="6" viewBox="0 0 16 12" orient="auto" markerUnits="userSpaceOnUse" stroke-dasharray="0,0"><path id="SvgjsPath2489" d="M0,2 L14,6 L0,11 L0,2" fill="#323232" stroke="#323232" stroke-width="2"></path></marker><marker id="SvgjsMarker2510" markerWidth="16" markerHeight="12" refX="16" refY="6" viewBox="0 0 16 12" orient="auto" markerUnits="userSpaceOnUse" stroke-dasharray="0,0"><path id="SvgjsPath2511" d="M0,2 L14,6 L0,11 L0,2" fill="#323232" stroke="#323232" stroke-width="2"></path></marker><marker id="SvgjsMarker2514" markerWidth="16" markerHeight="12" refX="16" refY="6" viewBox="0 0 16 12" orient="auto" markerUnits="userSpaceOnUse" stroke-dasharray="0,0"><path id="SvgjsPath2515" d="M0,2 L14,6 L0,11 L0,2" fill="#323232" stroke="#323232" stroke-width="2"></path></marker><marker id="SvgjsMarker2518" markerWidth="16" markerHeight="12" refX="16" refY="6" viewBox="0 0 16 12" orient="auto" markerUnits="userSpaceOnUse" stroke-dasharray="0,0"><path id="SvgjsPath2519" d="M0,2 L14,6 L0,11 L0,2" fill="#323232" stroke="#323232" stroke-width="2"></path></marker><marker id="SvgjsMarker2522" markerWidth="16" markerHeight="12" refX="16" refY="6" viewBox="0 0 16 12" orient="auto" markerUnits="userSpaceOnUse" stroke-dasharray="0,0"><path id="SvgjsPath2523" d="M0,2 L14,6 L0,11 L0,2" fill="#323232" stroke="#323232" stroke-width="2"></path></marker><marker id="SvgjsMarker2526" markerWidth="16" markerHeight="12" refX="16" refY="6" viewBox="0 0 16 12" orient="auto" markerUnits="userSpaceOnUse" stroke-dasharray="0,0"><path id="SvgjsPath2527" d="M0,2 L14,6 L0,11 L0,2" fill="#323232" stroke="#323232" stroke-width="2"></path></marker><marker id="SvgjsMarker2530" markerWidth="16" markerHeight="12" refX="16" refY="6" viewBox="0 0 16 12" orient="auto" markerUnits="userSpaceOnUse" stroke-dasharray="0,0"><path id="SvgjsPath2531" d="M0,2 L14,6 L0,11 L0,2" fill="#323232" stroke="#323232" stroke-width="2"></path></marker><marker id="SvgjsMarker2534" markerWidth="16" markerHeight="12" refX="16" refY="6" viewBox="0 0 16 12" orient="auto" markerUnits="userSpaceOnUse" stroke-dasharray="0,0"><path id="SvgjsPath2535" d="M0,2 L14,6 L0,11 L0,2" fill="#323232" stroke="#323232" stroke-width="2"></path></marker></defs><g id="SvgjsG2140" transform="translate(24.999984741210938,207.10000610351562)"><path id="SvgjsPath2141" d="M 0 4Q 0 0 4 0L 841 0Q 845 0 845 4L 845 435.3999938964844Q 845 439.3999938964844 841 439.3999938964844L 4 439.3999938964844Q 0 439.3999938964844 0 435.3999938964844Z" stroke="rgba(50,50,50,1)" stroke-width="2" fill-opacity="1" fill="#cfcfcf"></path><g id="SvgjsG2142"><text id="SvgjsText2143" font-family="微软雅黑" text-anchor="middle" font-size="13px" width="825px" fill="#323232" font-weight="400" align="middle" anchor="middle" family="微软雅黑" size="13px" weight="400" font-style="" opacity="1" y="209.7499969482422" transform="rotate(0)"></text></g></g><g id="SvgjsG2144" transform="translate(185.99998474121094,266.1000061035156)"><path id="SvgjsPath2145" d="M 0 4Q 0 0 4 0L 659 0Q 663 0 663 4L 663 364Q 663 368 659 368L 4 368Q 0 368 0 364Z" stroke="rgba(50,50,50,1)" stroke-width="2" fill-opacity="1" fill="#ccffe6"></path><g id="SvgjsG2146"><text id="SvgjsText2147" font-family="微软雅黑" text-anchor="middle" font-size="13px" width="643px" fill="#323232" font-weight="400" align="middle" anchor="middle" family="微软雅黑" size="13px" weight="400" font-style="" opacity="1" y="174.05" transform="rotate(0)"></text></g></g><g id="SvgjsG2148" transform="translate(215.99998474121094,321.1000061035156)"><path id="SvgjsPath2149" d="M 0 4Q 0 0 4 0L 295 0Q 299 0 299 4L 299 297Q 299 301 295 301L 4 301Q 0 301 0 297Z" stroke="rgba(50,50,50,1)" stroke-width="2" fill-opacity="1" fill="#e6ffcc"></path><g id="SvgjsG2150"><text id="SvgjsText2151" font-family="微软雅黑" text-anchor="middle" font-size="13px" width="279px" fill="#323232" font-weight="400" align="middle" anchor="middle" family="微软雅黑" size="13px" weight="400" font-style="" opacity="1" y="140.55" transform="rotate(0)"></text></g></g><g id="SvgjsG2152" transform="translate(31.999984741210938,214.10000610351562)"><path id="SvgjsPath2153" d="M 0 0L 146 0L 146 35L 0 35Z" stroke="none" fill="none"></path><g id="SvgjsG2154"><text id="SvgjsText2155" font-family="微软雅黑" text-anchor="middle" font-size="16px" width="146px" fill="#323232" font-weight="700" align="middle" anchor="middle" family="微软雅黑" size="16px" weight="700" font-style="" opacity="1" y="5.1" transform="rotate(0)"><tspan id="SvgjsTspan2156" dy="20" x="73"><tspan id="SvgjsTspan2157" style="text-decoration:;">HRegionServer</tspan></tspan></text></g></g><g id="SvgjsG2158" transform="translate(185.99998474121094,262.1000061035156)"><path id="SvgjsPath2159" d="M 0 0L 120 0L 120 40L 0 40Z" stroke="none" fill="none"></path><g id="SvgjsG2160"><text id="SvgjsText2161" font-family="微软雅黑" text-anchor="middle" font-size="17px" width="120px" fill="#323232" font-weight="700" align="middle" anchor="middle" family="微软雅黑" size="17px" weight="700" font-style="" opacity="1" y="6.95" transform="rotate(0)"><tspan id="SvgjsTspan2162" dy="21" x="60"><tspan id="SvgjsTspan2163" style="text-decoration:;">HRegion</tspan></tspan></text></g></g><g id="SvgjsG2164" transform="translate(399.99998474121094,331.1000061035156)"><path id="SvgjsPath2165" d="M 0 18.5C 0 -6.166666666666667 110 -6.166666666666667 110 18.5C 110 43.166666666666664 0 43.166666666666664 0 18.5Z" stroke="rgba(50,50,50,1)" stroke-width="2" fill-opacity="1" fill="#9999ff"></path><g id="SvgjsG2166"><text id="SvgjsText2167" font-family="微软雅黑" text-anchor="middle" font-size="16px" width="90px" fill="#323232" font-weight="700" align="middle" anchor="middle" family="微软雅黑" size="16px" weight="700" font-style="" opacity="1" y="6.1" transform="rotate(0)"><tspan id="SvgjsTspan2168" dy="20" x="55"><tspan id="SvgjsTspan2169" style="text-decoration:;">MemStore</tspan></tspan></text></g></g><g id="SvgjsG2170" transform="translate(196.99998474121094,321.1000061035156)"><path id="SvgjsPath2171" d="M 0 0L 120 0L 120 40L 0 40Z" stroke="none" fill="none"></path><g id="SvgjsG2172"><text id="SvgjsText2173" font-family="微软雅黑" text-anchor="middle" font-size="18px" width="120px" fill="#323232" font-weight="700" align="middle" anchor="middle" family="微软雅黑" size="18px" weight="700" font-style="" opacity="1" y="6.300000000000001" transform="rotate(0)"><tspan id="SvgjsTspan2174" dy="22" x="60"><tspan id="SvgjsTspan2175" style="text-decoration:;">Store</tspan></tspan></text></g></g><g id="SvgjsG2176" transform="translate(37.99998474121094,266.1000061035156)"><path id="SvgjsPath2177" d="M 0 4Q 0 0 4 0L 139 0Q 143 0 143 4L 143 364Q 143 368 139 368L 4 368Q 0 368 0 364Z" stroke="rgba(50,50,50,1)" stroke-width="2" fill-opacity="1" fill="#e5ccff"></path><g id="SvgjsG2178"><text id="SvgjsText2179" font-family="微软雅黑" text-anchor="middle" font-size="19px" width="123px" fill="#323232" font-weight="700" align="middle" anchor="middle" family="微软雅黑" size="19px" weight="700" font-style="" opacity="1" y="169.15" transform="rotate(0)"></text></g></g><g id="SvgjsG2180" transform="matrix(-1.8369701987210297e-16,-1,1,-1.8369701987210297e-16,43.29998779296874,562.8000030517578)"><path id="SvgjsPath2181" d="M 0 0L 225.39999389648438 0L 225.39999389648438 116.00000000000006L 0 116.00000000000006Z" stroke="none" fill="none"></path><g id="SvgjsG2182"><text id="SvgjsText2183" font-family="微软雅黑" text-anchor="middle" font-size="20px" width="226px" fill="#323232" font-weight="700" align="middle" anchor="middle" family="微软雅黑" size="20px" weight="700" font-style="" opacity="1" y="42.50000000000003" transform="rotate(0)"><tspan id="SvgjsTspan2184" dy="25" x="113"><tspan id="SvgjsTspan2185" style="text-decoration:;">HLog</tspan></tspan></text></g></g><g id="SvgjsG2186" transform="translate(230.99998474121094,420.1000061035156)"><path id="SvgjsPath2187" d="M 0 4Q 0 0 4 0L 103 0Q 107 0 107 4L 107 182Q 107 186 103 186L 4 186Q 0 186 0 182Z" stroke="rgba(50,50,50,1)" stroke-width="2" fill-opacity="1" fill="#cce5ff"></path><g id="SvgjsG2188"><text id="SvgjsText2189" font-family="微软雅黑" text-anchor="middle" font-size="13px" width="87px" fill="#323232" font-weight="400" align="middle" anchor="middle" family="微软雅黑" size="13px" weight="400" font-style="" opacity="1" y="83.05" transform="rotate(0)"></text></g></g><g id="SvgjsG2190" transform="translate(219.99998474121094,427.1000061035156)"><path id="SvgjsPath2191" d="M 0 0L 120 0L 120 40L 0 40Z" stroke="none" fill="none"></path><g id="SvgjsG2192"><text id="SvgjsText2193" font-family="微软雅黑" text-anchor="middle" font-size="15px" width="120px" fill="#323232" font-weight="700" align="middle" anchor="middle" family="微软雅黑" size="15px" weight="700" font-style="" opacity="1" y="8.75" transform="rotate(0)"><tspan id="SvgjsTspan2194" dy="18" x="60"><tspan id="SvgjsTspan2195" style="text-decoration:;">StoreFile</tspan></tspan></text></g></g><g id="SvgjsG2196" transform="translate(241.49998474121094,492.1000061035156)"><path id="SvgjsPath2197" d="M 0 4Q 0 0 4 0L 82 0Q 86 0 86 4L 86 98Q 86 102 82 102L 4 102Q 0 102 0 98Z" stroke="rgba(50,50,50,1)" stroke-width="2" fill-opacity="1" fill="#ff9999"></path><g id="SvgjsG2198"><text id="SvgjsText2199" font-family="微软雅黑" text-anchor="middle" font-size="15px" width="66px" fill="#323232" font-weight="700" align="middle" anchor="middle" family="微软雅黑" size="15px" weight="700" font-style="" opacity="1" y="39.75" transform="rotate(0)"><tspan id="SvgjsTspan2200" dy="18" x="43"><tspan id="SvgjsTspan2201" style="text-decoration:;">HFile</tspan></tspan></text></g></g><g id="SvgjsG2202" transform="translate(390.99998474121094,422.1000061035156)"><path id="SvgjsPath2203" d="M 0 4Q 0 0 4 0L 103 0Q 107 0 107 4L 107 182Q 107 186 103 186L 4 186Q 0 186 0 182Z" stroke="rgba(50,50,50,1)" stroke-width="2" fill-opacity="1" fill="#cce5ff"></path><g id="SvgjsG2204"><text id="SvgjsText2205" font-family="微软雅黑" text-anchor="middle" font-size="13px" width="87px" fill="#323232" font-weight="400" align="middle" anchor="middle" family="微软雅黑" size="13px" weight="400" font-style="" opacity="1" y="83.05" transform="rotate(0)"></text></g></g><g id="SvgjsG2206" transform="translate(381.99998474121094,429.1000061035156)"><path id="SvgjsPath2207" d="M 0 0L 120 0L 120 40L 0 40Z" stroke="none" fill="none"></path><g id="SvgjsG2208"><text id="SvgjsText2209" font-family="微软雅黑" text-anchor="middle" font-size="15px" width="120px" fill="#323232" font-weight="700" align="middle" anchor="middle" family="微软雅黑" size="15px" weight="700" font-style="" opacity="1" y="8.75" transform="rotate(0)"><tspan id="SvgjsTspan2210" dy="18" x="60"><tspan id="SvgjsTspan2211" style="text-decoration:;">StoreFile</tspan></tspan></text></g></g><g id="SvgjsG2212" transform="translate(403.99998474121094,496.1000061035156)"><path id="SvgjsPath2213" d="M 0 4Q 0 0 4 0L 82 0Q 86 0 86 4L 86 98Q 86 102 82 102L 4 102Q 0 102 0 98Z" stroke="rgba(50,50,50,1)" stroke-width="2" fill-opacity="1" fill="#ff9999"></path><g id="SvgjsG2214"><text id="SvgjsText2215" font-family="微软雅黑" text-anchor="middle" font-size="15px" width="66px" fill="#323232" font-weight="700" align="middle" anchor="middle" family="微软雅黑" size="15px" weight="700" font-style="" opacity="1" y="39.75" transform="rotate(0)"><tspan id="SvgjsTspan2216" dy="18" x="43"><tspan id="SvgjsTspan2217" style="text-decoration:;">HFile</tspan></tspan></text></g></g><g id="SvgjsG2218"><path id="SvgjsPath2219" d="M454.99998474121094 368.1000061035156C 454.99998474121094 439.4013384893834 284.49998474121094 348.79867371764783 284.49998474121094 420.1000061035156" stroke="#323232" stroke-width="2" fill="none" marker-end="url(#SvgjsMarker2220)"></path></g><g id="SvgjsG2222"><path id="SvgjsPath2223" d="M454.99998474121094 368.1000061035156C 454.99998474121094 390.1045510885863 444.49998474121094 400.095461118445 444.49998474121094 422.1000061035156" stroke="#323232" stroke-width="2" fill="none" marker-end="url(#SvgjsMarker2224)"></path></g><g id="SvgjsG2226" transform="translate(283.99998474121094,356.1000061035156)"><path id="SvgjsPath2227" d="M 0 0L 120 0L 120 40L 0 40Z" stroke="none" fill="none"></path><g id="SvgjsG2228"><text id="SvgjsText2229" font-family="微软雅黑" text-anchor="middle" font-size="13px" width="120px" fill="#323232" font-weight="700" align="middle" anchor="middle" family="微软雅黑" size="13px" weight="700" font-style="" opacity="1" y="2.05" transform="rotate(0)"><tspan id="SvgjsTspan2230" dy="16" x="60"><tspan id="SvgjsTspan2231" style="text-decoration:;">数据排序后Flush入</tspan></tspan><tspan id="SvgjsTspan2232" dy="16" x="60"><tspan id="SvgjsTspan2233" style="text-decoration:;">StoreFile</tspan></tspan></text></g></g><g id="SvgjsG2234" transform="translate(529.9999847412109,323.1000061035156)"><path id="SvgjsPath2235" d="M 0 4Q 0 0 4 0L 295 0Q 299 0 299 4L 299 297Q 299 301 295 301L 4 301Q 0 301 0 297Z" stroke="rgba(50,50,50,1)" stroke-width="2" fill-opacity="1" fill="#e6ffcc"></path><g id="SvgjsG2236"><text id="SvgjsText2237" font-family="微软雅黑" text-anchor="middle" font-size="13px" width="279px" fill="#323232" font-weight="400" align="middle" anchor="middle" family="微软雅黑" size="13px" weight="400" font-style="" opacity="1" y="140.55" transform="rotate(0)"></text></g></g><g id="SvgjsG2238" transform="translate(713.9999847412109,333.1000061035156)"><path id="SvgjsPath2239" d="M 0 18.5C 0 -6.166666666666667 110 -6.166666666666667 110 18.5C 110 43.166666666666664 0 43.166666666666664 0 18.5Z" stroke="rgba(50,50,50,1)" stroke-width="2" fill-opacity="1" fill="#9999ff"></path><g id="SvgjsG2240"><text id="SvgjsText2241" font-family="微软雅黑" text-anchor="middle" font-size="16px" width="90px" fill="#323232" font-weight="700" align="middle" anchor="middle" family="微软雅黑" size="16px" weight="700" font-style="" opacity="1" y="6.1" transform="rotate(0)"><tspan id="SvgjsTspan2242" dy="20" x="55"><tspan id="SvgjsTspan2243" style="text-decoration:;">MemStore</tspan></tspan></text></g></g><g id="SvgjsG2244" transform="translate(510.99998474121094,323.1000061035156)"><path id="SvgjsPath2245" d="M 0 0L 120 0L 120 40L 0 40Z" stroke="none" fill="none"></path><g id="SvgjsG2246"><text id="SvgjsText2247" font-family="微软雅黑" text-anchor="middle" font-size="18px" width="120px" fill="#323232" font-weight="700" align="middle" anchor="middle" family="微软雅黑" size="18px" weight="700" font-style="" opacity="1" y="6.300000000000001" transform="rotate(0)"><tspan id="SvgjsTspan2248" dy="22" x="60"><tspan id="SvgjsTspan2249" style="text-decoration:;">Store</tspan></tspan></text></g></g><g id="SvgjsG2250" transform="translate(544.9999847412109,422.1000061035156)"><path id="SvgjsPath2251" d="M 0 4Q 0 0 4 0L 103 0Q 107 0 107 4L 107 182Q 107 186 103 186L 4 186Q 0 186 0 182Z" stroke="rgba(50,50,50,1)" stroke-width="2" fill-opacity="1" fill="#cce5ff"></path><g id="SvgjsG2252"><text id="SvgjsText2253" font-family="微软雅黑" text-anchor="middle" font-size="13px" width="87px" fill="#323232" font-weight="400" align="middle" anchor="middle" family="微软雅黑" size="13px" weight="400" font-style="" opacity="1" y="83.05" transform="rotate(0)"></text></g></g><g id="SvgjsG2254" transform="translate(533.9999847412109,429.1000061035156)"><path id="SvgjsPath2255" d="M 0 0L 120 0L 120 40L 0 40Z" stroke="none" fill="none"></path><g id="SvgjsG2256"><text id="SvgjsText2257" font-family="微软雅黑" text-anchor="middle" font-size="15px" width="120px" fill="#323232" font-weight="700" align="middle" anchor="middle" family="微软雅黑" size="15px" weight="700" font-style="" opacity="1" y="8.75" transform="rotate(0)"><tspan id="SvgjsTspan2258" dy="18" x="60"><tspan id="SvgjsTspan2259" style="text-decoration:;">StoreFile</tspan></tspan></text></g></g><g id="SvgjsG2260" transform="translate(555.4999847412109,496.1000061035156)"><path id="SvgjsPath2261" d="M 0 4Q 0 0 4 0L 82 0Q 86 0 86 4L 86 98Q 86 102 82 102L 4 102Q 0 102 0 98Z" stroke="rgba(50,50,50,1)" stroke-width="2" fill-opacity="1" fill="#ff9999"></path><g id="SvgjsG2262"><text id="SvgjsText2263" font-family="微软雅黑" text-anchor="middle" font-size="15px" width="66px" fill="#323232" font-weight="700" align="middle" anchor="middle" family="微软雅黑" size="15px" weight="700" font-style="" opacity="1" y="39.75" transform="rotate(0)"><tspan id="SvgjsTspan2264" dy="18" x="43"><tspan id="SvgjsTspan2265" style="text-decoration:;">HFile</tspan></tspan></text></g></g><g id="SvgjsG2266" transform="translate(707.4999847412109,422.1000061035156)"><path id="SvgjsPath2267" d="M 0 4Q 0 0 4 0L 103 0Q 107 0 107 4L 107 182Q 107 186 103 186L 4 186Q 0 186 0 182Z" stroke="rgba(50,50,50,1)" stroke-width="2" fill-opacity="1" fill="#cce5ff"></path><g id="SvgjsG2268"><text id="SvgjsText2269" font-family="微软雅黑" text-anchor="middle" font-size="13px" width="87px" fill="#323232" font-weight="400" align="middle" anchor="middle" family="微软雅黑" size="13px" weight="400" font-style="" opacity="1" y="83.05" transform="rotate(0)"></text></g></g><g id="SvgjsG2270" transform="translate(695.9999847412109,429.1000061035156)"><path id="SvgjsPath2271" d="M 0 0L 120 0L 120 40L 0 40Z" stroke="none" fill="none"></path><g id="SvgjsG2272"><text id="SvgjsText2273" font-family="微软雅黑" text-anchor="middle" font-size="15px" width="120px" fill="#323232" font-weight="700" align="middle" anchor="middle" family="微软雅黑" size="15px" weight="700" font-style="" opacity="1" y="8.75" transform="rotate(0)"><tspan id="SvgjsTspan2274" dy="18" x="60"><tspan id="SvgjsTspan2275" style="text-decoration:;">StoreFile</tspan></tspan></text></g></g><g id="SvgjsG2276" transform="translate(720.9999847412109,496.1000061035156)"><path id="SvgjsPath2277" d="M 0 4Q 0 0 4 0L 82 0Q 86 0 86 4L 86 98Q 86 102 82 102L 4 102Q 0 102 0 98Z" stroke="rgba(50,50,50,1)" stroke-width="2" fill-opacity="1" fill="#ff9999"></path><g id="SvgjsG2278"><text id="SvgjsText2279" font-family="微软雅黑" text-anchor="middle" font-size="15px" width="66px" fill="#323232" font-weight="700" align="middle" anchor="middle" family="微软雅黑" size="15px" weight="700" font-style="" opacity="1" y="39.75" transform="rotate(0)"><tspan id="SvgjsTspan2280" dy="18" x="43"><tspan id="SvgjsTspan2281" style="text-decoration:;">HFile</tspan></tspan></text></g></g><g id="SvgjsG2282" transform="translate(597.9999847412109,358.1000061035156)"><path id="SvgjsPath2283" d="M 0 0L 120 0L 120 40L 0 40Z" stroke="none" fill="none"></path><g id="SvgjsG2284"><text id="SvgjsText2285" font-family="微软雅黑" text-anchor="middle" font-size="13px" width="120px" fill="#323232" font-weight="700" align="middle" anchor="middle" family="微软雅黑" size="13px" weight="700" font-style="" opacity="1" y="2.05" transform="rotate(0)"><tspan id="SvgjsTspan2286" dy="16" x="60"><tspan id="SvgjsTspan2287" style="text-decoration:;">数据排序后Flush入</tspan></tspan><tspan id="SvgjsTspan2288" dy="16" x="60"><tspan id="SvgjsTspan2289" style="text-decoration:;">StoreFile</tspan></tspan></text></g></g><g id="SvgjsG2290"><path id="SvgjsPath2291" d="M768.9999847412109 370.1000061035156C 768.9999847412109 441.4013384893834 598.4999847412109 350.79867371764783 598.4999847412109 422.1000061035156" stroke="#323232" stroke-width="2" fill="none" marker-end="url(#SvgjsMarker2292)"></path></g><g id="SvgjsG2294"><path id="SvgjsPath2295" d="M768.9999847412109 370.1000061035156C 768.9999847412109 391.1447204042611 760.9999847412109 401.05529180277017 760.9999847412109 422.1000061035156" stroke="#323232" stroke-width="2" fill="none" marker-end="url(#SvgjsMarker2296)"></path></g><g id="SvgjsG2298" transform="translate(25.078109741210938,840.2500305175781)"><path id="SvgjsPath2299" d="M 0 4Q 0 0 4 0L 1850.1999969482422 0Q 1854.1999969482422 0 1854.1999969482422 4L 1854.1999969482422 93.199951171875Q 1854.1999969482422 97.199951171875 1850.1999969482422 97.199951171875L 4 97.199951171875Q 0 97.199951171875 0 93.199951171875Z" stroke="rgba(50,50,50,1)" stroke-width="2" fill-opacity="1" fill="#99ff99"></path><g id="SvgjsG2300"><text id="SvgjsText2301" font-family="微软雅黑" text-anchor="middle" font-size="33px" width="1835px" fill="#323232" font-weight="700" align="middle" anchor="middle" family="微软雅黑" size="33px" weight="700" font-style="" opacity="1" y="21.1499755859375" transform="rotate(0)"><tspan id="SvgjsTspan2302" dy="41" x="927.5"><tspan id="SvgjsTspan2303" style="text-decoration:;">HDFS</tspan></tspan></text></g></g><g id="SvgjsG2304" transform="translate(1030.3999786376953,207.10000610351562)"><path id="SvgjsPath2305" d="M 0 4Q 0 0 4 0L 841 0Q 845 0 845 4L 845 435.3999938964844Q 845 439.3999938964844 841 439.3999938964844L 4 439.3999938964844Q 0 439.3999938964844 0 435.3999938964844Z" stroke="rgba(50,50,50,1)" stroke-width="2" fill-opacity="1" fill="#cfcfcf"></path><g id="SvgjsG2306"><text id="SvgjsText2307" font-family="微软雅黑" text-anchor="middle" font-size="13px" width="825px" fill="#323232" font-weight="400" align="middle" anchor="middle" family="微软雅黑" size="13px" weight="400" font-style="" opacity="1" y="209.7499969482422" transform="rotate(0)"></text></g></g><g id="SvgjsG2308" transform="translate(1191.3999786376953,266.1000061035156)"><path id="SvgjsPath2309" d="M 0 4Q 0 0 4 0L 659 0Q 663 0 663 4L 663 364Q 663 368 659 368L 4 368Q 0 368 0 364Z" stroke="rgba(50,50,50,1)" stroke-width="2" fill-opacity="1" fill="#ccffe6"></path><g id="SvgjsG2310"><text id="SvgjsText2311" font-family="微软雅黑" text-anchor="middle" font-size="13px" width="643px" fill="#323232" font-weight="400" align="middle" anchor="middle" family="微软雅黑" size="13px" weight="400" font-style="" opacity="1" y="174.05" transform="rotate(0)"></text></g></g><g id="SvgjsG2312" transform="translate(1221.3999786376953,321.1000061035156)"><path id="SvgjsPath2313" d="M 0 4Q 0 0 4 0L 295 0Q 299 0 299 4L 299 297Q 299 301 295 301L 4 301Q 0 301 0 297Z" stroke="rgba(50,50,50,1)" stroke-width="2" fill-opacity="1" fill="#e6ffcc"></path><g id="SvgjsG2314"><text id="SvgjsText2315" font-family="微软雅黑" text-anchor="middle" font-size="13px" width="279px" fill="#323232" font-weight="400" align="middle" anchor="middle" family="微软雅黑" size="13px" weight="400" font-style="" opacity="1" y="140.55" transform="rotate(0)"></text></g></g><g id="SvgjsG2316" transform="translate(1037.3999786376953,214.10000610351562)"><path id="SvgjsPath2317" d="M 0 0L 146 0L 146 35L 0 35Z" stroke="none" fill="none"></path><g id="SvgjsG2318"><text id="SvgjsText2319" font-family="微软雅黑" text-anchor="middle" font-size="16px" width="146px" fill="#323232" font-weight="700" align="middle" anchor="middle" family="微软雅黑" size="16px" weight="700" font-style="" opacity="1" y="5.1" transform="rotate(0)"><tspan id="SvgjsTspan2320" dy="20" x="73"><tspan id="SvgjsTspan2321" style="text-decoration:;">HRegionServer</tspan></tspan></text></g></g><g id="SvgjsG2322" transform="translate(1191.3999786376953,262.1000061035156)"><path id="SvgjsPath2323" d="M 0 0L 120 0L 120 40L 0 40Z" stroke="none" fill="none"></path><g id="SvgjsG2324"><text id="SvgjsText2325" font-family="微软雅黑" text-anchor="middle" font-size="17px" width="120px" fill="#323232" font-weight="700" align="middle" anchor="middle" family="微软雅黑" size="17px" weight="700" font-style="" opacity="1" y="6.95" transform="rotate(0)"><tspan id="SvgjsTspan2326" dy="21" x="60"><tspan id="SvgjsTspan2327" style="text-decoration:;">HRegion</tspan></tspan></text></g></g><g id="SvgjsG2328" transform="translate(1405.3999786376953,331.1000061035156)"><path id="SvgjsPath2329" d="M 0 18.5C 0 -6.166666666666667 110 -6.166666666666667 110 18.5C 110 43.166666666666664 0 43.166666666666664 0 18.5Z" stroke="rgba(50,50,50,1)" stroke-width="2" fill-opacity="1" fill="#9999ff"></path><g id="SvgjsG2330"><text id="SvgjsText2331" font-family="微软雅黑" text-anchor="middle" font-size="16px" width="90px" fill="#323232" font-weight="700" align="middle" anchor="middle" family="微软雅黑" size="16px" weight="700" font-style="" opacity="1" y="6.1" transform="rotate(0)"><tspan id="SvgjsTspan2332" dy="20" x="55"><tspan id="SvgjsTspan2333" style="text-decoration:;">MemStore</tspan></tspan></text></g></g><g id="SvgjsG2334" transform="translate(1202.3999786376953,321.1000061035156)"><path id="SvgjsPath2335" d="M 0 0L 120 0L 120 40L 0 40Z" stroke="none" fill="none"></path><g id="SvgjsG2336"><text id="SvgjsText2337" font-family="微软雅黑" text-anchor="middle" font-size="18px" width="120px" fill="#323232" font-weight="700" align="middle" anchor="middle" family="微软雅黑" size="18px" weight="700" font-style="" opacity="1" y="6.300000000000001" transform="rotate(0)"><tspan id="SvgjsTspan2338" dy="22" x="60"><tspan id="SvgjsTspan2339" style="text-decoration:;">Store</tspan></tspan></text></g></g><g id="SvgjsG2340" transform="translate(1043.3999786376953,266.1000061035156)"><path id="SvgjsPath2341" d="M 0 4Q 0 0 4 0L 139 0Q 143 0 143 4L 143 364Q 143 368 139 368L 4 368Q 0 368 0 364Z" stroke="rgba(50,50,50,1)" stroke-width="2" fill-opacity="1" fill="#e5ccff"></path><g id="SvgjsG2342"><text id="SvgjsText2343" font-family="微软雅黑" text-anchor="middle" font-size="19px" width="123px" fill="#323232" font-weight="700" align="middle" anchor="middle" family="微软雅黑" size="19px" weight="700" font-style="" opacity="1" y="169.15" transform="rotate(0)"></text></g></g><g id="SvgjsG2344" transform="matrix(-1.8369701987210297e-16,-1,1,-1.8369701987210297e-16,1048.6999969482422,562.8000030517578)"><path id="SvgjsPath2345" d="M 0 0L 225.39999389648438 0L 225.39999389648438 116.00000000000006L 0 116.00000000000006Z" stroke="none" fill="none"></path><g id="SvgjsG2346"><text id="SvgjsText2347" font-family="微软雅黑" text-anchor="middle" font-size="20px" width="226px" fill="#323232" font-weight="700" align="middle" anchor="middle" family="微软雅黑" size="20px" weight="700" font-style="" opacity="1" y="42.50000000000003" transform="rotate(0)"><tspan id="SvgjsTspan2348" dy="25" x="113"><tspan id="SvgjsTspan2349" style="text-decoration:;">HLog</tspan></tspan></text></g></g><g id="SvgjsG2350" transform="translate(1236.3999786376953,420.1000061035156)"><path id="SvgjsPath2351" d="M 0 4Q 0 0 4 0L 103 0Q 107 0 107 4L 107 182Q 107 186 103 186L 4 186Q 0 186 0 182Z" stroke="rgba(50,50,50,1)" stroke-width="2" fill-opacity="1" fill="#cce5ff"></path><g id="SvgjsG2352"><text id="SvgjsText2353" font-family="微软雅黑" text-anchor="middle" font-size="13px" width="87px" fill="#323232" font-weight="400" align="middle" anchor="middle" family="微软雅黑" size="13px" weight="400" font-style="" opacity="1" y="83.05" transform="rotate(0)"></text></g></g><g id="SvgjsG2354" transform="translate(1225.3999786376953,427.1000061035156)"><path id="SvgjsPath2355" d="M 0 0L 120 0L 120 40L 0 40Z" stroke="none" fill="none"></path><g id="SvgjsG2356"><text id="SvgjsText2357" font-family="微软雅黑" text-anchor="middle" font-size="15px" width="120px" fill="#323232" font-weight="700" align="middle" anchor="middle" family="微软雅黑" size="15px" weight="700" font-style="" opacity="1" y="8.75" transform="rotate(0)"><tspan id="SvgjsTspan2358" dy="18" x="60"><tspan id="SvgjsTspan2359" style="text-decoration:;">StoreFile</tspan></tspan></text></g></g><g id="SvgjsG2360" transform="translate(1246.8999786376953,492.1000061035156)"><path id="SvgjsPath2361" d="M 0 4Q 0 0 4 0L 82 0Q 86 0 86 4L 86 98Q 86 102 82 102L 4 102Q 0 102 0 98Z" stroke="rgba(50,50,50,1)" stroke-width="2" fill-opacity="1" fill="#ff9999"></path><g id="SvgjsG2362"><text id="SvgjsText2363" font-family="微软雅黑" text-anchor="middle" font-size="15px" width="66px" fill="#323232" font-weight="700" align="middle" anchor="middle" family="微软雅黑" size="15px" weight="700" font-style="" opacity="1" y="39.75" transform="rotate(0)"><tspan id="SvgjsTspan2364" dy="18" x="43"><tspan id="SvgjsTspan2365" style="text-decoration:;">HFile</tspan></tspan></text></g></g><g id="SvgjsG2366" transform="translate(1396.3999786376953,422.1000061035156)"><path id="SvgjsPath2367" d="M 0 4Q 0 0 4 0L 103 0Q 107 0 107 4L 107 182Q 107 186 103 186L 4 186Q 0 186 0 182Z" stroke="rgba(50,50,50,1)" stroke-width="2" fill-opacity="1" fill="#cce5ff"></path><g id="SvgjsG2368"><text id="SvgjsText2369" font-family="微软雅黑" text-anchor="middle" font-size="13px" width="87px" fill="#323232" font-weight="400" align="middle" anchor="middle" family="微软雅黑" size="13px" weight="400" font-style="" opacity="1" y="83.05" transform="rotate(0)"></text></g></g><g id="SvgjsG2370" transform="translate(1387.3999786376953,429.1000061035156)"><path id="SvgjsPath2371" d="M 0 0L 120 0L 120 40L 0 40Z" stroke="none" fill="none"></path><g id="SvgjsG2372"><text id="SvgjsText2373" font-family="微软雅黑" text-anchor="middle" font-size="15px" width="120px" fill="#323232" font-weight="700" align="middle" anchor="middle" family="微软雅黑" size="15px" weight="700" font-style="" opacity="1" y="8.75" transform="rotate(0)"><tspan id="SvgjsTspan2374" dy="18" x="60"><tspan id="SvgjsTspan2375" style="text-decoration:;">StoreFile</tspan></tspan></text></g></g><g id="SvgjsG2376" transform="translate(1409.3999786376953,496.1000061035156)"><path id="SvgjsPath2377" d="M 0 4Q 0 0 4 0L 82 0Q 86 0 86 4L 86 98Q 86 102 82 102L 4 102Q 0 102 0 98Z" stroke="rgba(50,50,50,1)" stroke-width="2" fill-opacity="1" fill="#ff9999"></path><g id="SvgjsG2378"><text id="SvgjsText2379" font-family="微软雅黑" text-anchor="middle" font-size="15px" width="66px" fill="#323232" font-weight="700" align="middle" anchor="middle" family="微软雅黑" size="15px" weight="700" font-style="" opacity="1" y="39.75" transform="rotate(0)"><tspan id="SvgjsTspan2380" dy="18" x="43"><tspan id="SvgjsTspan2381" style="text-decoration:;">HFile</tspan></tspan></text></g></g><g id="SvgjsG2382"><path id="SvgjsPath2383" d="M1460.3999786376953 368.1000061035156C 1460.3999786376953 439.4013384893834 1289.8999786376953 348.79867371764783 1289.8999786376953 420.1000061035156" stroke="#323232" stroke-width="2" fill="none" marker-end="url(#SvgjsMarker2384)"></path></g><g id="SvgjsG2386"><path id="SvgjsPath2387" d="M1460.3999786376953 368.1000061035156C 1460.3999786376953 390.1045510885863 1449.8999786376953 400.095461118445 1449.8999786376953 422.1000061035156" stroke="#323232" stroke-width="2" fill="none" marker-end="url(#SvgjsMarker2388)"></path></g><g id="SvgjsG2390" transform="translate(1289.3999786376953,356.1000061035156)"><path id="SvgjsPath2391" d="M 0 0L 120 0L 120 40L 0 40Z" stroke="none" fill="none"></path><g id="SvgjsG2392"><text id="SvgjsText2393" font-family="微软雅黑" text-anchor="middle" font-size="13px" width="120px" fill="#323232" font-weight="700" align="middle" anchor="middle" family="微软雅黑" size="13px" weight="700" font-style="" opacity="1" y="2.05" transform="rotate(0)"><tspan id="SvgjsTspan2394" dy="16" x="60"><tspan id="SvgjsTspan2395" style="text-decoration:;">数据排序后Flush入</tspan></tspan><tspan id="SvgjsTspan2396" dy="16" x="60"><tspan id="SvgjsTspan2397" style="text-decoration:;">StoreFile</tspan></tspan></text></g></g><g id="SvgjsG2398" transform="translate(1535.3999786376953,323.1000061035156)"><path id="SvgjsPath2399" d="M 0 4Q 0 0 4 0L 295 0Q 299 0 299 4L 299 297Q 299 301 295 301L 4 301Q 0 301 0 297Z" stroke="rgba(50,50,50,1)" stroke-width="2" fill-opacity="1" fill="#e6ffcc"></path><g id="SvgjsG2400"><text id="SvgjsText2401" font-family="微软雅黑" text-anchor="middle" font-size="13px" width="279px" fill="#323232" font-weight="400" align="middle" anchor="middle" family="微软雅黑" size="13px" weight="400" font-style="" opacity="1" y="140.55" transform="rotate(0)"></text></g></g><g id="SvgjsG2402" transform="translate(1719.3999786376953,333.1000061035156)"><path id="SvgjsPath2403" d="M 0 18.5C 0 -6.166666666666667 110 -6.166666666666667 110 18.5C 110 43.166666666666664 0 43.166666666666664 0 18.5Z" stroke="rgba(50,50,50,1)" stroke-width="2" fill-opacity="1" fill="#9999ff"></path><g id="SvgjsG2404"><text id="SvgjsText2405" font-family="微软雅黑" text-anchor="middle" font-size="16px" width="90px" fill="#323232" font-weight="700" align="middle" anchor="middle" family="微软雅黑" size="16px" weight="700" font-style="" opacity="1" y="6.1" transform="rotate(0)"><tspan id="SvgjsTspan2406" dy="20" x="55"><tspan id="SvgjsTspan2407" style="text-decoration:;">MemStore</tspan></tspan></text></g></g><g id="SvgjsG2408" transform="translate(1516.3999786376953,323.1000061035156)"><path id="SvgjsPath2409" d="M 0 0L 120 0L 120 40L 0 40Z" stroke="none" fill="none"></path><g id="SvgjsG2410"><text id="SvgjsText2411" font-family="微软雅黑" text-anchor="middle" font-size="18px" width="120px" fill="#323232" font-weight="700" align="middle" anchor="middle" family="微软雅黑" size="18px" weight="700" font-style="" opacity="1" y="6.300000000000001" transform="rotate(0)"><tspan id="SvgjsTspan2412" dy="22" x="60"><tspan id="SvgjsTspan2413" style="text-decoration:;">Store</tspan></tspan></text></g></g><g id="SvgjsG2414" transform="translate(1550.3999786376953,422.1000061035156)"><path id="SvgjsPath2415" d="M 0 4Q 0 0 4 0L 103 0Q 107 0 107 4L 107 182Q 107 186 103 186L 4 186Q 0 186 0 182Z" stroke="rgba(50,50,50,1)" stroke-width="2" fill-opacity="1" fill="#cce5ff"></path><g id="SvgjsG2416"><text id="SvgjsText2417" font-family="微软雅黑" text-anchor="middle" font-size="13px" width="87px" fill="#323232" font-weight="400" align="middle" anchor="middle" family="微软雅黑" size="13px" weight="400" font-style="" opacity="1" y="83.05" transform="rotate(0)"></text></g></g><g id="SvgjsG2418" transform="translate(1539.3999786376953,429.1000061035156)"><path id="SvgjsPath2419" d="M 0 0L 120 0L 120 40L 0 40Z" stroke="none" fill="none"></path><g id="SvgjsG2420"><text id="SvgjsText2421" font-family="微软雅黑" text-anchor="middle" font-size="15px" width="120px" fill="#323232" font-weight="700" align="middle" anchor="middle" family="微软雅黑" size="15px" weight="700" font-style="" opacity="1" y="8.75" transform="rotate(0)"><tspan id="SvgjsTspan2422" dy="18" x="60"><tspan id="SvgjsTspan2423" style="text-decoration:;">StoreFile</tspan></tspan></text></g></g><g id="SvgjsG2424" transform="translate(1560.8999786376953,496.1000061035156)"><path id="SvgjsPath2425" d="M 0 4Q 0 0 4 0L 82 0Q 86 0 86 4L 86 98Q 86 102 82 102L 4 102Q 0 102 0 98Z" stroke="rgba(50,50,50,1)" stroke-width="2" fill-opacity="1" fill="#ff9999"></path><g id="SvgjsG2426"><text id="SvgjsText2427" font-family="微软雅黑" text-anchor="middle" font-size="15px" width="66px" fill="#323232" font-weight="700" align="middle" anchor="middle" family="微软雅黑" size="15px" weight="700" font-style="" opacity="1" y="39.75" transform="rotate(0)"><tspan id="SvgjsTspan2428" dy="18" x="43"><tspan id="SvgjsTspan2429" style="text-decoration:;">HFile</tspan></tspan></text></g></g><g id="SvgjsG2430" transform="translate(1712.8999786376953,422.1000061035156)"><path id="SvgjsPath2431" d="M 0 4Q 0 0 4 0L 103 0Q 107 0 107 4L 107 182Q 107 186 103 186L 4 186Q 0 186 0 182Z" stroke="rgba(50,50,50,1)" stroke-width="2" fill-opacity="1" fill="#cce5ff"></path><g id="SvgjsG2432"><text id="SvgjsText2433" font-family="微软雅黑" text-anchor="middle" font-size="13px" width="87px" fill="#323232" font-weight="400" align="middle" anchor="middle" family="微软雅黑" size="13px" weight="400" font-style="" opacity="1" y="83.05" transform="rotate(0)"></text></g></g><g id="SvgjsG2434" transform="translate(1701.3999786376953,429.1000061035156)"><path id="SvgjsPath2435" d="M 0 0L 120 0L 120 40L 0 40Z" stroke="none" fill="none"></path><g id="SvgjsG2436"><text id="SvgjsText2437" font-family="微软雅黑" text-anchor="middle" font-size="15px" width="120px" fill="#323232" font-weight="700" align="middle" anchor="middle" family="微软雅黑" size="15px" weight="700" font-style="" opacity="1" y="8.75" transform="rotate(0)"><tspan id="SvgjsTspan2438" dy="18" x="60"><tspan id="SvgjsTspan2439" style="text-decoration:;">StoreFile</tspan></tspan></text></g></g><g id="SvgjsG2440" transform="translate(1726.3999786376953,496.1000061035156)"><path id="SvgjsPath2441" d="M 0 4Q 0 0 4 0L 82 0Q 86 0 86 4L 86 98Q 86 102 82 102L 4 102Q 0 102 0 98Z" stroke="rgba(50,50,50,1)" stroke-width="2" fill-opacity="1" fill="#ff9999"></path><g id="SvgjsG2442"><text id="SvgjsText2443" font-family="微软雅黑" text-anchor="middle" font-size="15px" width="66px" fill="#323232" font-weight="700" align="middle" anchor="middle" family="微软雅黑" size="15px" weight="700" font-style="" opacity="1" y="39.75" transform="rotate(0)"><tspan id="SvgjsTspan2444" dy="18" x="43"><tspan id="SvgjsTspan2445" style="text-decoration:;">HFile</tspan></tspan></text></g></g><g id="SvgjsG2446" transform="translate(1603.3999786376953,358.1000061035156)"><path id="SvgjsPath2447" d="M 0 0L 120 0L 120 40L 0 40Z" stroke="none" fill="none"></path><g id="SvgjsG2448"><text id="SvgjsText2449" font-family="微软雅黑" text-anchor="middle" font-size="13px" width="120px" fill="#323232" font-weight="700" align="middle" anchor="middle" family="微软雅黑" size="13px" weight="700" font-style="" opacity="1" y="2.05" transform="rotate(0)"><tspan id="SvgjsTspan2450" dy="16" x="60"><tspan id="SvgjsTspan2451" style="text-decoration:;">数据排序后Flush入</tspan></tspan><tspan id="SvgjsTspan2452" dy="16" x="60"><tspan id="SvgjsTspan2453" style="text-decoration:;">StoreFile</tspan></tspan></text></g></g><g id="SvgjsG2454"><path id="SvgjsPath2455" d="M1774.3999786376953 370.1000061035156C 1774.3999786376953 441.4013384893834 1603.8999786376953 350.79867371764783 1603.8999786376953 422.1000061035156" stroke="#323232" stroke-width="2" fill="none" marker-end="url(#SvgjsMarker2456)"></path></g><g id="SvgjsG2458"><path id="SvgjsPath2459" d="M1774.3999786376953 370.1000061035156C 1774.3999786376953 391.1447204042611 1766.3999786376953 401.05529180277017 1766.3999786376953 422.1000061035156" stroke="#323232" stroke-width="2" fill="none" marker-end="url(#SvgjsMarker2460)"></path></g><g id="SvgjsG2462" transform="translate(25.097640991210938,695.7500305175781)"><path id="SvgjsPath2463" d="M 0 4Q 0 0 4 0L 840 0Q 844 0 844 4L 844 82Q 844 86 840 86L 4 86Q 0 86 0 82Z" stroke="rgba(50,50,50,1)" stroke-width="2" fill-opacity="1" fill="#ccffcc"></path><g id="SvgjsG2464"><text id="SvgjsText2465" font-family="微软雅黑" text-anchor="middle" font-size="23px" width="824px" fill="#323232" font-weight="700" align="middle" anchor="middle" family="微软雅黑" size="23px" weight="700" font-style="" opacity="1" y="23.05" transform="rotate(0)"><tspan id="SvgjsTspan2466" dy="28" x="422"><tspan id="SvgjsTspan2467" style="text-decoration:;">HDFS Client</tspan></tspan></text></g></g><g id="SvgjsG2468" transform="translate(1030.749984741211,701.0000305175781)"><path id="SvgjsPath2469" d="M 0 4Q 0 0 4 0L 840 0Q 844 0 844 4L 844 82Q 844 86 840 86L 4 86Q 0 86 0 82Z" stroke="rgba(50,50,50,1)" stroke-width="2" fill-opacity="1" fill="#ccffcc"></path><g id="SvgjsG2470"><text id="SvgjsText2471" font-family="微软雅黑" text-anchor="middle" font-size="23px" width="824px" fill="#323232" font-weight="700" align="middle" anchor="middle" family="微软雅黑" size="23px" weight="700" font-style="" opacity="1" y="23.05" transform="rotate(0)"><tspan id="SvgjsTspan2472" dy="28" x="422"><tspan id="SvgjsTspan2473" style="text-decoration:;">HDFS Client</tspan></tspan></text></g></g><g id="SvgjsG2474"><path id="SvgjsPath2475" d="M284.49998474121094 594.1000061035156C 284.49998474121094 670.8027834001665 447.09764099121105 619.0472532209272 447.09764099121094 695.7500305175781" stroke="#323232" stroke-width="2" fill="none" marker-end="url(#SvgjsMarker2476)"></path></g><g id="SvgjsG2478"><path id="SvgjsPath2479" d="M446.99998474121094 598.1000061035156C 446.99998474121094 637.1600354016309 447.09764099121094 656.6900012194628 447.09764099121094 695.7500305175781" stroke="#323232" stroke-width="2" fill="none" marker-end="url(#SvgjsMarker2480)"></path></g><g id="SvgjsG2482"><path id="SvgjsPath2483" d="M1289.8999786376953 594.1000061035156C 1289.8999786376953 672.0207244858738 1452.749984741211 623.07931213522 1452.749984741211 701.0000305175781" stroke="#323232" stroke-width="2" fill="none" marker-end="url(#SvgjsMarker2484)"></path></g><g id="SvgjsG2486"><path id="SvgjsPath2487" d="M1452.3999786376953 598.1000061035156C 1452.3999786376953 639.2602539719377 1452.749984741211 659.8397826491561 1452.749984741211 701.0000305175781" stroke="#323232" stroke-width="2" fill="none" marker-end="url(#SvgjsMarker2488)"></path></g><g id="SvgjsG2490" transform="translate(854.178108215332,24.99999237060547)"><path id="SvgjsPath2491" d="M 0 4Q 0 0 4 0L 192 0Q 196 0 196 4L 196 91Q 196 95 192 95L 4 95Q 0 95 0 91Z" stroke="rgba(50,50,50,1)" stroke-width="2" fill-opacity="1" fill="#ff6666"></path><g id="SvgjsG2492"><text id="SvgjsText2493" font-family="微软雅黑" text-anchor="middle" font-size="17px" width="176px" fill="#323232" font-weight="700" align="middle" anchor="middle" family="微软雅黑" size="17px" weight="700" font-style="" opacity="1" y="34.45" transform="rotate(0)"><tspan id="SvgjsTspan2494" dy="21" x="98"><tspan id="SvgjsTspan2495" style="text-decoration:;">HMaster</tspan></tspan></text></g></g><g id="SvgjsG2496" transform="translate(592,29.99999237060547)"><path id="SvgjsPath2497" d="M 17.759999999999998 62.99999999999999C -14.8 45 5.92 31.499999999999996 13.32 27C 10.360000000000001 4.5 47.36 0 62.16 9C 74 -4.5 111 0 111 13.5C 140.6 9 152.44 27 140.6 49.50000000000001C 150.96 67.5 140.6 90 106.56 81C 99.16000000000001 92.7 69.56 92.7 62.16 81C 47.36 90 17.759999999999998 85.5 17.759999999999998 62.99999999999999Z" stroke="rgba(50,50,50,1)" stroke-width="2" fill-opacity="1" fill="#66b2ff"></path><g id="SvgjsG2498"><text id="SvgjsText2499" font-family="微软雅黑" text-anchor="middle" font-size="17px" width="128px" fill="#323232" font-weight="700" align="middle" anchor="middle" family="微软雅黑" size="17px" weight="700" font-style="" opacity="1" y="31.95" transform="rotate(0)"><tspan id="SvgjsTspan2500" dy="21" x="74"><tspan id="SvgjsTspan2501" style="text-decoration:;">Zookeeper</tspan></tspan></text></g></g><g id="SvgjsG2502" transform="translate(287,39.99999237060547)"><path id="SvgjsPath2503" d="M 0 44.25C 0 -14.75 88 -14.75 88 44.25C 88 103.25 0 103.25 0 44.25Z" stroke="rgba(50,50,50,1)" stroke-width="2" fill-opacity="1" fill="#ff99cc"></path><g id="SvgjsG2504"><text id="SvgjsText2505" font-family="微软雅黑" text-anchor="middle" font-size="17px" width="68px" fill="#323232" font-weight="700" align="middle" anchor="middle" family="微软雅黑" size="17px" weight="700" font-style="" opacity="1" y="31.2" transform="rotate(0)"><tspan id="SvgjsTspan2506" dy="21" x="44"><tspan id="SvgjsTspan2507" style="text-decoration:;">Client</tspan></tspan></text></g></g><g id="SvgjsG2508"><path id="SvgjsPath2509" d="M952.178108215332 119.99999237060547C 952.178108215332 168.72464330456194 914.3029179300049 194.70085805864284 867.2385192159766 207.3117256863231" stroke="#323232" stroke-width="2" fill="none" marker-end="url(#SvgjsMarker2510)"></path></g><g id="SvgjsG2512"><path id="SvgjsPath2513" d="M952.178108215332 119.99999237060547C 952.178108215332 166.92112138186621 999.3212341308595 172.26000061035154 1030.749984741211 207.10000610351562" stroke="#323232" stroke-width="2" fill="none" marker-end="url(#SvgjsMarker2514)"></path></g><g id="SvgjsG2516"><path id="SvgjsPath2517" d="M854.178108215332 72.49999237060547C 805.0218076449391 72.49999237060547 775.8070050500237 26.121842085409014 733.2364 50.69999237060546" stroke="#323232" stroke-width="2" fill="none" marker-end="url(#SvgjsMarker2518)"></path></g><g id="SvgjsG2520"><path id="SvgjsPath2521" d="M375 84.24999237060547C 461.54822350341294 91.82198077546201 510.36061050708724 104.71430008969065 592 74.99999237060547" stroke="#323232" stroke-width="2" fill="none" marker-end="url(#SvgjsMarker2522)"></path></g><g id="SvgjsG2524"><path id="SvgjsPath2525" d="M331 128.49999237060547C 335.89938810191666 184.50025462703928 447.49998474121094 150.88583194287742 447.49998474121094 207.10000610351562" stroke="#323232" stroke-width="2" fill="none" marker-end="url(#SvgjsMarker2526)"></path></g><g id="SvgjsG2528"><path id="SvgjsPath2529" d="M447.09764099121094 781.7500305175781L952.178108215332 840.2500305175781" stroke="#323232" stroke-width="2" fill="none" marker-end="url(#SvgjsMarker2530)"></path></g><g id="SvgjsG2532"><path id="SvgjsPath2533" d="M1452.749984741211 787.0000305175781L938 840.5000305175781" stroke="#323232" stroke-width="2" fill="none" marker-end="url(#SvgjsMarker2534)"></path></g></svg>