<svg id="SvgjsSvg1006" width="795" height="604" xmlns="http://www.w3.org/2000/svg" version="1.1" xmlns:xlink="http://www.w3.org/1999/xlink" xmlns:svgjs="http://svgjs.com/svgjs"><defs id="SvgjsDefs1007"></defs><g id="SvgjsG1008" transform="translate(25,25)"><path id="SvgjsPath1009" d="M 0 4Q 0 0 4 0L 741 0Q 745 0 745 4L 745 550Q 745 554 741 554L 4 554Q 0 554 0 550Z" stroke="rgba(50,50,50,1)" stroke-width="2" fill-opacity="1" fill="#ffffff"></path><g id="SvgjsG1010"><text id="SvgjsText1011" font-family="微软雅黑" text-anchor="middle" font-size="13px" width="725px" fill="#323232" font-weight="400" align="middle" anchor="middle" family="微软雅黑" size="13px" weight="400" font-style="" opacity="1" y="267.05" transform="rotate(0)"></text></g></g><g id="SvgjsG1012" transform="translate(339,97)"><path id="SvgjsPath1013" d="M 0 57C 0 -19 117 -19 117 57C 117 133 0 133 0 57Z" stroke="rgba(50,50,50,1)" stroke-width="2" fill-opacity="1" fill="#e6ffcc"></path><g id="SvgjsG1014"><text id="SvgjsText1015" font-family="微软雅黑" text-anchor="middle" font-size="15px" width="97px" fill="#323232" font-weight="700" align="middle" anchor="middle" family="微软雅黑" size="15px" weight="700" font-style="" opacity="1" y="45.25" transform="rotate(0)"><tspan id="SvgjsTspan1016" dy="18" x="58.5"><tspan id="SvgjsTspan1017" style="text-decoration:;">RDD</tspan></tspan></text></g></g><g id="SvgjsG1018" transform="translate(543,386)"><path id="SvgjsPath1019" d="M 0 57C 0 -19 117 -19 117 57C 117 133 0 133 0 57Z" stroke="rgba(50,50,50,1)" stroke-width="2" fill-opacity="1" fill="#ff3333"></path><g id="SvgjsG1020"><text id="SvgjsText1021" font-family="微软雅黑" text-anchor="middle" font-size="15px" width="97px" fill="#323232" font-weight="700" align="middle" anchor="middle" family="微软雅黑" size="15px" weight="700" font-style="" opacity="1" y="45.25" transform="rotate(0)"><tspan id="SvgjsTspan1022" dy="18" x="58.5"><tspan id="SvgjsTspan1023" style="text-decoration:;">Dataset</tspan></tspan></text></g></g><g id="SvgjsG1024" transform="translate(127,381)"><path id="SvgjsPath1025" d="M 0 57C 0 -19 117 -19 117 57C 117 133 0 133 0 57Z" stroke="rgba(50,50,50,1)" stroke-width="2" fill-opacity="1" fill="#ffff99"></path><g id="SvgjsG1026"><text id="SvgjsText1027" font-family="微软雅黑" text-anchor="middle" font-size="15px" width="97px" fill="#323232" font-weight="700" align="middle" anchor="middle" family="微软雅黑" size="15px" weight="700" font-style="" opacity="1" y="45.25" transform="rotate(0)"><tspan id="SvgjsTspan1028" dy="18" x="58.5"><tspan id="SvgjsTspan1029" style="text-decoration:;">DataFrame</tspan></tspan></text></g></g><g id="SvgjsG1030" transform="matrix(0.6427876096865393,-0.7660444431189781,0.7660444431189781,0.6427876096865393,183.81152469844764,361.2200348677817)"><path id="SvgjsPath1031" d="M 0 6.6000000000000005L 211 6.6000000000000005L 211 0L 221 10L 211 20L 211 13.4L 0 13.4L 0 6.6000000000000005Z" stroke="rgba(50,50,50,1)" stroke-width="2" fill-opacity="1" fill="#ff99ff"></path><g id="SvgjsG1032"><text id="SvgjsText1033" font-family="微软雅黑" text-anchor="middle" font-size="13px" width="221px" fill="#323232" font-weight="400" align="middle" anchor="middle" family="微软雅黑" size="13px" weight="400" font-style="" opacity="1" y="0.05000000000000093" transform="rotate(0)"></text></g></g><g id="SvgjsG1034" transform="matrix(-0.6427876096865395,-0.7660444431189779,0.7660444431189779,-0.6427876096865395,594.8675864391728,378.0757870615124)"><path id="SvgjsPath1035" d="M 0 6.6000000000000005L 211 6.6000000000000005L 211 0L 221 10L 211 20L 211 13.4L 0 13.4L 0 6.6000000000000005Z" stroke="rgba(50,50,50,1)" stroke-width="2" fill-opacity="1" fill="#ff6666"></path><g id="SvgjsG1036"><text id="SvgjsText1037" font-family="微软雅黑" text-anchor="middle" font-size="13px" width="221px" fill="#323232" font-weight="400" align="middle" anchor="middle" family="微软雅黑" size="13px" weight="400" font-style="" opacity="1" y="0.05000000000000093" transform="rotate(0)"></text></g></g><g id="SvgjsG1038" transform="translate(259,401)"><path id="SvgjsPath1039" d="M 0 10L 10 0L 10 6.6000000000000005L 241.5 6.6000000000000005L 241.5 13.4L 10 13.4L 10 20L 0 10Z" stroke="rgba(50,50,50,1)" stroke-width="2" fill-opacity="1" fill="#b3ff66"></path><g id="SvgjsG1040"><text id="SvgjsText1041" font-family="微软雅黑" text-anchor="middle" font-size="13px" width="242px" fill="#323232" font-weight="400" align="middle" anchor="middle" family="微软雅黑" size="13px" weight="400" font-style="" opacity="1" y="0.05000000000000093" transform="rotate(0)"></text></g></g><g id="SvgjsG1042" transform="translate(265,444)"><path id="SvgjsPath1043" d="M 0 7.590000000000001L 227.5 7.590000000000001L 227.5 0L 239 11.5L 227.5 23L 227.5 15.41L 0 15.41L 0 7.590000000000001Z" stroke="rgba(50,50,50,1)" stroke-width="2" fill-opacity="1" fill="#ffcc99"></path><g id="SvgjsG1044"><text id="SvgjsText1045" font-family="微软雅黑" text-anchor="middle" font-size="13px" width="239px" fill="#323232" font-weight="400" align="middle" anchor="middle" family="微软雅黑" size="13px" weight="400" font-style="" opacity="1" y="1.550000000000001" transform="rotate(0)"></text></g></g><g id="SvgjsG1046" transform="translate(504,242)"><path id="SvgjsPath1047" d="M 0 0L 120 0L 120 40L 0 40Z" stroke="none" fill="none"></path><g id="SvgjsG1048"><text id="SvgjsText1049" font-family="微软雅黑" text-anchor="middle" font-size="15px" width="120px" fill="#323232" font-weight="700" align="middle" anchor="middle" family="微软雅黑" size="15px" weight="700" font-style="" opacity="1" y="8.25" transform="rotate(0)"><tspan id="SvgjsTspan1050" dy="18" x="60"><tspan id="SvgjsTspan1051" style="text-decoration:;">DS.rdd</tspan></tspan></text></g></g><g id="SvgjsG1052" transform="translate(179,237)"><path id="SvgjsPath1053" d="M 0 0L 120 0L 120 40L 0 40Z" stroke="none" fill="none"></path><g id="SvgjsG1054"><text id="SvgjsText1055" font-family="微软雅黑" text-anchor="middle" font-size="15px" width="120px" fill="#323232" font-weight="700" align="middle" anchor="middle" family="微软雅黑" size="15px" weight="700" font-style="" opacity="1" y="8.25" transform="rotate(0)"><tspan id="SvgjsTspan1056" dy="18" x="60"><tspan id="SvgjsTspan1057" style="text-decoration:;">DF.rdd</tspan></tspan></text></g></g><g id="SvgjsG1058" transform="matrix(0.6427876096865393,-0.7660444431189781,0.7660444431189781,0.6427876096865393,222.0607946001563,367.17656821503243)"><path id="SvgjsPath1059" d="M 0 10L 10 0L 10 6.6000000000000005L 200 6.6000000000000005L 200 13.4L 10 13.4L 10 20L 0 10Z" stroke-dasharray="10,6" stroke="rgba(50,50,50,1)" stroke-width="2" fill-opacity="1" fill="#ccccff"></path><g id="SvgjsG1060"><text id="SvgjsText1061" font-family="微软雅黑" text-anchor="middle" font-size="13px" width="200px" fill="#323232" font-weight="400" align="middle" anchor="middle" family="微软雅黑" size="13px" weight="400" font-style="" opacity="1" y="0.05000000000000093" transform="rotate(0)"></text></g></g><g id="SvgjsG1062" transform="matrix(0.6427876096865394,0.766044443118978,-0.766044443118978,0.6427876096865394,444.82888939831696,215.57515052240774)"><path id="SvgjsPath1063" d="M 0 6.823743278698296L 193.47853783327548 6.823743278698296L 193.47853783327548 0L 203.81754280100017 10.33900496772469L 193.47853783327548 20.67800993544938L 193.47853783327548 13.854266656751086L 0 13.854266656751086L 0 6.823743278698296Z" stroke-dasharray="10,6" stroke="rgba(50,50,50,1)" stroke-width="2" fill-opacity="1" fill="#ccffe6"></path><g id="SvgjsG1064"><text id="SvgjsText1065" font-family="微软雅黑" text-anchor="middle" font-size="13px" width="204px" fill="#323232" font-weight="400" align="middle" anchor="middle" family="微软雅黑" size="13px" weight="400" font-style="" opacity="1" y="0.3890049677246916" transform="rotate(0)"></text></g></g><g id="SvgjsG1066" transform="matrix(0.6427876096865393,-0.7660444431189781,0.7660444431189781,0.6427876096865393,271.11185455642806,335.1069143934079)"><path id="SvgjsPath1067" d="M 0 0L 120 0L 120 40L 0 40Z" stroke="none" fill="none"></path><g id="SvgjsG1068"><text id="SvgjsText1069" font-family="微软雅黑" text-anchor="middle" font-size="15px" width="120px" fill="#323232" font-weight="700" align="middle" anchor="middle" family="微软雅黑" size="15px" weight="700" font-style="" opacity="1" y="8.25" transform="rotate(0)"><tspan id="SvgjsTspan1070" dy="18" x="60"><tspan id="SvgjsTspan1071" style="text-decoration:;">Schema</tspan></tspan></text></g></g><g id="SvgjsG1072" transform="matrix(0.6427876096865394,0.766044443118978,-0.766044443118978,0.6427876096865394,439.7536322811872,248.18158121913052)"><path id="SvgjsPath1073" d="M 0 0L 120 0L 120 40L 0 40Z" stroke="none" fill="none"></path><g id="SvgjsG1074"><text id="SvgjsText1075" font-family="微软雅黑" text-anchor="middle" font-size="15px" width="120px" fill="#323232" font-weight="700" align="middle" anchor="middle" family="微软雅黑" size="15px" weight="700" font-style="" opacity="1" y="8.25" transform="rotate(0)"><tspan id="SvgjsTspan1076" dy="18" x="60"><tspan id="SvgjsTspan1077" style="text-decoration:;">Case Class</tspan></tspan></text></g></g><g id="SvgjsG1078" transform="translate(324.5,364)"><path id="SvgjsPath1079" d="M 0 0L 120 0L 120 40L 0 40Z" stroke="none" fill="none"></path><g id="SvgjsG1080"><text id="SvgjsText1081" font-family="微软雅黑" text-anchor="middle" font-size="15px" width="120px" fill="#323232" font-weight="700" align="middle" anchor="middle" family="微软雅黑" size="15px" weight="700" font-style="" opacity="1" y="8.25" transform="rotate(0)"><tspan id="SvgjsTspan1082" dy="18" x="60"><tspan id="SvgjsTspan1083" style="text-decoration:;">DF.as[Type]</tspan></tspan></text></g></g><g id="SvgjsG1084" transform="translate(324.5,455)"><path id="SvgjsPath1085" d="M 0 0L 120 0L 120 40L 0 40Z" stroke="none" fill="none"></path><g id="SvgjsG1086"><text id="SvgjsText1087" font-family="微软雅黑" text-anchor="middle" font-size="15px" width="120px" fill="#323232" font-weight="700" align="middle" anchor="middle" family="微软雅黑" size="15px" weight="700" font-style="" opacity="1" y="8.25" transform="rotate(0)"><tspan id="SvgjsTspan1088" dy="18" x="60"><tspan id="SvgjsTspan1089" style="text-decoration:;">DS.toDF()</tspan></tspan></text></g></g></svg>