<svg id="SvgjsSvg1148" width="539" height="484.5" xmlns="http://www.w3.org/2000/svg" version="1.1" xmlns:xlink="http://www.w3.org/1999/xlink" xmlns:svgjs="http://svgjs.com/svgjs"><defs id="SvgjsDefs1149"></defs><g id="SvgjsG1150" transform="translate(25,184.5)"><path id="SvgjsPath1151" d="M 0 4Q 0 0 4 0L 96 0Q 100 0 100 4L 100 66Q 100 70 96 70L 4 70Q 0 70 0 66Z" stroke="rgba(50,50,50,1)" stroke-width="2" fill-opacity="1" fill="#99ff33"></path><g id="SvgjsG1152"><text id="SvgjsText1153" font-family="微软雅黑" text-anchor="middle" font-size="13px" width="80px" fill="#323232" font-weight="400" align="middle" anchor="middle" family="微软雅黑" size="13px" weight="400" font-style="" opacity="1" y="25.05" transform="rotate(0)"><tspan id="SvgjsTspan1154" dy="16" x="50"><tspan id="SvgjsTspan1155" style="text-decoration:;">RDD特性</tspan></tspan></text></g></g><g id="SvgjsG1156" transform="translate(32,31.5)"><path id="SvgjsPath1157" d="M 122 0Q 113 0 113 9L 113 183Q 113 192 100 192Q 113 192 113 201L 113 375Q 113 384 122 384" stroke="rgba(50,50,50,1)" stroke-width="2" fill="none"></path><path id="SvgjsPath1158" d="M 0 0L 122 0L 122 384L 0 384Z" stroke="none" fill="none"></path><g id="SvgjsG1159"><text id="SvgjsText1160" font-family="微软雅黑" text-anchor="end" font-size="13px" width="95px" fill="#323232" font-weight="400" align="middle" anchor="end" family="微软雅黑" size="13px" weight="400" font-style="" opacity="1" y="182.05" transform="rotate(0)"></text></g></g><g id="SvgjsG1161" transform="translate(177,25)"><path id="SvgjsPath1162" d="M 0 4Q 0 0 4 0L 158 0Q 162 0 162 4L 162 56Q 162 60 158 60L 4 60Q 0 60 0 56Z" stroke="rgba(50,50,50,1)" stroke-width="2" fill-opacity="1" fill="#99ccff"></path><g id="SvgjsG1163"><text id="SvgjsText1164" font-family="微软雅黑" text-anchor="middle" font-size="13px" width="142px" fill="#323232" font-weight="400" align="middle" anchor="middle" family="微软雅黑" size="13px" weight="400" font-style="" opacity="1" y="12.05" transform="rotate(0)"><tspan id="SvgjsTspan1165" dy="16" x="81"><tspan id="SvgjsTspan1166" style="text-decoration:;">计算函数</tspan></tspan><tspan id="SvgjsTspan1167" dy="16" x="81"><tspan id="SvgjsTspan1168" style="text-decoration:;">Computing Function</tspan></tspan></text></g></g><g id="SvgjsG1169" transform="translate(177,110)"><path id="SvgjsPath1170" d="M 0 4Q 0 0 4 0L 158 0Q 162 0 162 4L 162 51Q 162 55 158 55L 4 55Q 0 55 0 51Z" stroke="rgba(50,50,50,1)" stroke-width="2" fill-opacity="1" fill="#99ffff"></path><g id="SvgjsG1171"><text id="SvgjsText1172" font-family="微软雅黑" text-anchor="middle" font-size="13px" width="142px" fill="#323232" font-weight="400" align="middle" anchor="middle" family="微软雅黑" size="13px" weight="400" font-style="" opacity="1" y="9.55" transform="rotate(0)"><tspan id="SvgjsTspan1173" dy="16" x="81"><tspan id="SvgjsTspan1174" style="text-decoration:;">依赖关系</tspan></tspan><tspan id="SvgjsTspan1175" dy="16" x="81"><tspan id="SvgjsTspan1176" style="text-decoration:;">Dependencies</tspan></tspan></text></g></g><g id="SvgjsG1177" transform="translate(177,186)"><path id="SvgjsPath1178" d="M 0 4Q 0 0 4 0L 158 0Q 162 0 162 4L 162 56Q 162 60 158 60L 4 60Q 0 60 0 56Z" stroke="rgba(50,50,50,1)" stroke-width="2" fill-opacity="1" fill="#e6ffcc"></path><g id="SvgjsG1179"><text id="SvgjsText1180" font-family="微软雅黑" text-anchor="middle" font-size="13px" width="142px" fill="#323232" font-weight="400" align="middle" anchor="middle" family="微软雅黑" size="13px" weight="400" font-style="" opacity="1" y="12.05" transform="rotate(0)"><tspan id="SvgjsTspan1181" dy="16" x="81"><tspan id="SvgjsTspan1182" style="text-decoration:;">分区列表</tspan></tspan><tspan id="SvgjsTspan1183" dy="16" x="81"><tspan id="SvgjsTspan1184" style="text-decoration:;">A list of partitions</tspan></tspan></text></g></g><g id="SvgjsG1185" transform="translate(177,270)"><path id="SvgjsPath1186" d="M 0 4Q 0 0 4 0L 158 0Q 162 0 162 4L 162 58Q 162 62 158 62L 4 62Q 0 62 0 58Z" stroke="rgba(50,50,50,1)" stroke-width="2" fill-opacity="1" fill="#33ff99"></path><g id="SvgjsG1187"><text id="SvgjsText1188" font-family="微软雅黑" text-anchor="middle" font-size="13px" width="142px" fill="#323232" font-weight="400" align="middle" anchor="middle" family="微软雅黑" size="13px" weight="400" font-style="" opacity="1" y="13.05" transform="rotate(0)"><tspan id="SvgjsTspan1189" dy="16" x="81"><tspan id="SvgjsTspan1190" style="text-decoration:;">分区函数</tspan></tspan><tspan id="SvgjsTspan1191" dy="16" x="81"><tspan id="SvgjsTspan1192" style="text-decoration:;">Partitioner</tspan></tspan></text></g></g><g id="SvgjsG1193" transform="translate(177,364)"><path id="SvgjsPath1194" d="M 0 4Q 0 0 4 0L 158 0Q 162 0 162 4L 162 58Q 162 62 158 62L 4 62Q 0 62 0 58Z" stroke="rgba(50,50,50,1)" stroke-width="2" fill-opacity="1" fill="#ffcc99"></path><g id="SvgjsG1195"><text id="SvgjsText1196" font-family="微软雅黑" text-anchor="middle" font-size="13px" width="142px" fill="#323232" font-weight="400" align="middle" anchor="middle" family="微软雅黑" size="13px" weight="400" font-style="" opacity="1" y="13.05" transform="rotate(0)"><tspan id="SvgjsTspan1197" dy="16" x="81"><tspan id="SvgjsTspan1198" style="text-decoration:;">最佳位置</tspan></tspan><tspan id="SvgjsTspan1199" dy="16" x="81"><tspan id="SvgjsTspan1200" style="text-decoration:;">Prefer Location</tspan></tspan></text></g></g><g id="SvgjsG1201" transform="translate(382,27.5)"><path id="SvgjsPath1202" d="M 0 135Q 9 135 9 126L 9 76.5Q 9 67.5 22 67.5Q 9 67.5 9 58.5L 9 9Q 9 0 0 0" stroke="rgba(50,50,50,1)" stroke-width="2" fill="none"></path><path id="SvgjsPath1203" d="M 0 0L 132 0L 132 135L 0 135Z" stroke="none" fill="none"></path><g id="SvgjsG1204"><text id="SvgjsText1205" font-family="微软雅黑" text-anchor="start" font-size="13px" width="105px" fill="#323232" font-weight="400" align="middle" anchor="start" family="微软雅黑" size="13px" weight="400" font-style="" opacity="1" y="57.55" transform="rotate(0)"><tspan id="SvgjsTspan1206" dy="16" x="27"><tspan id="SvgjsTspan1207" style="text-decoration:;">数据怎么来的</tspan></tspan></text></g></g><g id="SvgjsG1208" transform="translate(382,205.5)"><path id="SvgjsPath1209" d="M 0 204Q 9 204 9 195L 9 111Q 9 102 22 102Q 9 102 9 93L 9 9Q 9 0 0 0" stroke="rgba(50,50,50,1)" stroke-width="2" fill="none"></path><path id="SvgjsPath1210" d="M 0 0L 106 0L 106 204L 0 204Z" stroke="none" fill="none"></path><g id="SvgjsG1211"><text id="SvgjsText1212" font-family="微软雅黑" text-anchor="start" font-size="13px" width="79px" fill="#323232" font-weight="400" align="middle" anchor="start" family="微软雅黑" size="13px" weight="400" font-style="" opacity="1" y="76.05" transform="rotate(0)"><tspan id="SvgjsTspan1213" dy="16" x="27"><tspan id="SvgjsTspan1214" style="text-decoration:;">数据集位置，</tspan></tspan><tspan id="SvgjsTspan1215" dy="16" x="27"><tspan id="SvgjsTspan1216" style="text-decoration:;">本地优先计算</tspan></tspan><tspan id="SvgjsTspan1217" dy="16" x="27"><tspan id="SvgjsTspan1218" style="text-decoration:;">如何分区</tspan></tspan></text></g></g><g id="SvgjsG1219" transform="translate(259,324)"><path id="SvgjsPath1220" d="M 0 0L 120 0L 120 40L 0 40Z" stroke="none" fill="none"></path><g id="SvgjsG1221"><text id="SvgjsText1222" font-family="微软雅黑" text-anchor="middle" font-size="13px" width="120px" fill="#323232" font-weight="700" align="middle" anchor="middle" family="微软雅黑" size="13px" weight="700" font-style="" opacity="1" y="10.05" transform="rotate(0)"><tspan id="SvgjsTspan1223" dy="16" x="60"><tspan id="SvgjsTspan1224" style="text-decoration:;">可选的</tspan></tspan></text></g></g><g id="SvgjsG1225" transform="translate(259,419.5)"><path id="SvgjsPath1226" d="M 0 0L 120 0L 120 40L 0 40Z" stroke="none" fill="none"></path><g id="SvgjsG1227"><text id="SvgjsText1228" font-family="微软雅黑" text-anchor="middle" font-size="13px" width="120px" fill="#323232" font-weight="700" align="middle" anchor="middle" family="微软雅黑" size="13px" weight="700" font-style="" opacity="1" y="10.05" transform="rotate(0)"><tspan id="SvgjsTspan1229" dy="16" x="60"><tspan id="SvgjsTspan1230" style="text-decoration:;">可选的</tspan></tspan></text></g></g></svg>