<svg id="SvgjsSvg1106" width="755.3999938964844" height="983" xmlns="http://www.w3.org/2000/svg" version="1.1" xmlns:xlink="http://www.w3.org/1999/xlink" xmlns:svgjs="http://svgjs.com/svgjs"><defs id="SvgjsDefs1107"><marker id="SvgjsMarker1124" markerWidth="16" markerHeight="12" refX="16" refY="6" viewBox="0 0 16 12" orient="auto" markerUnits="userSpaceOnUse" stroke-dasharray="0,0"><path id="SvgjsPath1125" d="M0,2 L14,6 L0,11 L0,2" fill="#66ff66" stroke="#66ff66" stroke-width="2"></path></marker><marker id="SvgjsMarker1142" markerWidth="16" markerHeight="12" refX="16" refY="6" viewBox="0 0 16 12" orient="auto" markerUnits="userSpaceOnUse" stroke-dasharray="0,0"><path id="SvgjsPath1143" d="M0,2 L14,6 L0,11 L0,2" fill="#66ff66" stroke="#66ff66" stroke-width="3"></path></marker><marker id="SvgjsMarker1188" markerWidth="16" markerHeight="12" refX="16" refY="6" viewBox="0 0 16 12" orient="auto" markerUnits="userSpaceOnUse" stroke-dasharray="0,0"><path id="SvgjsPath1189" d="M0,2 L14,6 L0,11 L0,2" fill="#323232" stroke="#323232" stroke-width="5"></path></marker></defs><g id="SvgjsG1108" transform="translate(44.99998474121094,186.01250457763672)"><path id="SvgjsPath1109" d="M 0 6.25Q 35 -6.25 70 6.25L 70 50L 0 50L 0 6.25Z" stroke="rgba(50,50,50,1)" stroke-width="2" fill-opacity="1" fill="#ccffcc"></path><g id="SvgjsG1110"><text id="SvgjsText1111" font-family="微软雅黑" text-anchor="middle" font-size="13px" width="50px" fill="#323232" font-weight="400" align="middle" anchor="middle" family="微软雅黑" size="13px" weight="400" font-style="" opacity="1" y="15.05" transform="rotate(0)"></text></g></g><g id="SvgjsG1112" transform="translate(426.99998474121094,25.01250457763672)"><path id="SvgjsPath1113" d="M 6.6000000000000005 0L 13.4 0L 13.4 923.0000076293945L 20 923.0000076293945L 10 933.0000076293945L 0 923.0000076293945L 6.6000000000000005 923.0000076293945L 6.6000000000000005 0Z" stroke="rgba(50,50,50,1)" stroke-width="2" fill-opacity="1" fill="#ffffff"></path><g id="SvgjsG1114"><text id="SvgjsText1115" font-family="微软雅黑" text-anchor="middle" font-size="13px" width="28px" fill="#323232" font-weight="400" align="middle" anchor="middle" family="微软雅黑" size="13px" weight="400" font-style="" opacity="1" y="409.9000034332276" transform="rotate(0)"></text></g></g><g id="SvgjsG1116" transform="translate(184.39999389648438,306.0125045776367)"><path id="SvgjsPath1117" d="M 0 4Q 0 0 4 0L 128 0Q 132 0 132 4L 132 37Q 132 41 128 41L 4 41Q 0 41 0 37Z" stroke="rgba(50,50,50,1)" stroke-width="2" fill-opacity="1" fill="#ffffff"></path><g id="SvgjsG1118"><text id="SvgjsText1119" font-family="微软雅黑" text-anchor="middle" font-size="15px" width="112px" fill="#323232" font-weight="700" align="middle" anchor="middle" family="微软雅黑" size="15px" weight="700" font-style="" opacity="1" y="9.25" transform="rotate(0)"><tspan id="SvgjsTspan1120" dy="18" x="66"><tspan id="SvgjsTspan1121" style="text-decoration:;">Read Buffer</tspan></tspan></text></g></g><g id="SvgjsG1122"><path id="SvgjsPath1123" d="M79.99998474121094 236.01250457763672L79.99998474121094 326.5125045776367L184.39999389648438 326.5125045776367" stroke="#66ff66" stroke-width="2" fill="none" marker-end="url(#SvgjsMarker1124)"></path></g><g id="SvgjsG1126" transform="translate(184.39999389648438,531.9125061035156)"><path id="SvgjsPath1127" d="M 0 4Q 0 0 4 0L 128 0Q 132 0 132 4L 132 37Q 132 41 128 41L 4 41Q 0 41 0 37Z" stroke="rgba(50,50,50,1)" stroke-width="2" fill-opacity="1" fill="#ffffff"></path><g id="SvgjsG1128"><text id="SvgjsText1129" font-family="微软雅黑" text-anchor="middle" font-size="15px" width="112px" fill="#323232" font-weight="700" align="middle" anchor="middle" family="微软雅黑" size="15px" weight="700" font-style="" opacity="1" y="9.25" transform="rotate(0)"><tspan id="SvgjsTspan1130" dy="18" x="66"><tspan id="SvgjsTspan1131" style="text-decoration:;">Socket Buffer</tspan></tspan></text></g></g><g id="SvgjsG1132" transform="translate(24.999984741210938,644.0125064849854)"><path id="SvgjsPath1133" d="M 10.799999999999999 49.699999999999996C -9 35.5 3.6 24.849999999999998 8.1 21.3C 6.300000000000001 3.5500000000000003 28.8 0 37.8 7.1000000000000005C 45 -3.5500000000000003 67.5 0 67.5 10.65C 85.5 7.1000000000000005 92.7 21.3 85.5 39.050000000000004C 91.8 53.25 85.5 71 64.8 63.9C 60.300000000000004 73.13 42.3 73.13 37.8 63.9C 28.8 71 10.799999999999999 67.45 10.799999999999999 49.699999999999996Z" stroke="rgba(50,50,50,1)" stroke-width="2" fill-opacity="1" fill="#ffffff"></path><g id="SvgjsG1134"><text id="SvgjsText1135" font-family="微软雅黑" text-anchor="middle" font-size="15px" width="70px" fill="#323232" font-weight="700" align="middle" anchor="middle" family="微软雅黑" size="15px" weight="700" font-style="" opacity="1" y="14.75" transform="rotate(0)"><tspan id="SvgjsTspan1136" dy="18" x="45"><tspan id="SvgjsTspan1137" style="text-decoration:;">NIC </tspan></tspan><tspan id="SvgjsTspan1138" dy="18" x="45"><tspan id="SvgjsTspan1139" style="text-decoration:;">Buffer</tspan></tspan></text></g></g><g id="SvgjsG1140"><path id="SvgjsPath1141" d="M184.39999389648438 552.4125061035156L146.9434847412109 552.4125061035156L146.9434847412109 660.1125064849854L110.88698474121094 660.1125064849854" stroke="#66ff66" stroke-width="3" fill="none" marker-end="url(#SvgjsMarker1142)"></path></g><g id="SvgjsG1144" transform="translate(35.399993896484375,329.0125045776367)"><path id="SvgjsPath1145" d="M 0 0L 120 0L 120 41L 0 41Z" stroke="none" fill="none"></path><g id="SvgjsG1146"><text id="SvgjsText1147" font-family="微软雅黑" text-anchor="middle" font-size="15px" width="120px" fill="#009999" font-weight="700" align="middle" anchor="middle" family="微软雅黑" size="15px" weight="700" font-style="" opacity="1" y="-0.25" transform="rotate(0)"><tspan id="SvgjsTspan1148" dy="18" x="60"><tspan id="SvgjsTspan1149" style="text-decoration:;">1</tspan></tspan><tspan id="SvgjsTspan1150" dy="18" x="60"><tspan id="SvgjsTspan1151" style="text-decoration:;">DMA Copy</tspan></tspan></text></g></g><g id="SvgjsG1152" transform="translate(35.399993896484375,580.0125045776367)"><path id="SvgjsPath1153" d="M 0 0L 120 0L 120 41L 0 41Z" stroke="none" fill="none"></path><g id="SvgjsG1154"><text id="SvgjsText1155" font-family="微软雅黑" text-anchor="middle" font-size="15px" width="120px" fill="#ff6666" font-weight="700" align="middle" anchor="middle" family="微软雅黑" size="15px" weight="700" font-style="" opacity="1" y="-0.25" transform="rotate(0)"><tspan id="SvgjsTspan1156" dy="18" x="60"><tspan id="SvgjsTspan1157" style="text-decoration:;">4</tspan></tspan><tspan id="SvgjsTspan1158" dy="18" x="60"><tspan id="SvgjsTspan1159" style="text-decoration:;">DMA Copy</tspan></tspan></text></g></g><g id="SvgjsG1160" transform="translate(149.89999389648438,51.412506103515625)"><path id="SvgjsPath1161" d="M 0 0L 185 0L 201 16L 201 50L 0 50L 0 0Z" stroke="none" fill-opacity="1" fill="#ffffaa"></path><path id="SvgjsPath1162" d="M 185 0L 185 16L 201 16Z" stroke="none" fill-opacity="1" fill="#cdcdcd"></path><path id="SvgjsPath1163" d="M 0 0L 185 0L 201 16L 201 50L 0 50L 0 0Z" stroke="none" fill="none"></path><g id="SvgjsG1164"><text id="SvgjsText1165" font-family="微软雅黑" text-anchor="middle" font-size="13px" width="181px" fill="#323232" font-weight="400" align="middle" anchor="middle" family="微软雅黑" size="13px" weight="400" font-style="" opacity="1" y="15.05" transform="rotate(0)"><tspan id="SvgjsTspan1166" dy="16" x="100.5"><tspan id="SvgjsTspan1167" style="text-decoration:;">Kernel Context</tspan></tspan></text></g></g><g id="SvgjsG1168" transform="translate(528.3999938964844,51.412506103515625)"><path id="SvgjsPath1169" d="M 0 0L 185 0L 201 16L 201 50L 0 50L 0 0Z" stroke="none" fill-opacity="1" fill="#ffffaa"></path><path id="SvgjsPath1170" d="M 185 0L 185 16L 201 16Z" stroke="none" fill-opacity="1" fill="#cdcdcd"></path><path id="SvgjsPath1171" d="M 0 0L 185 0L 201 16L 201 50L 0 50L 0 0Z" stroke="none" fill="none"></path><g id="SvgjsG1172"><text id="SvgjsText1173" font-family="微软雅黑" text-anchor="middle" font-size="13px" width="181px" fill="#323232" font-weight="400" align="middle" anchor="middle" family="微软雅黑" size="13px" weight="400" font-style="" opacity="1" y="15.05" transform="rotate(0)"><tspan id="SvgjsTspan1174" dy="16" x="100.5"><tspan id="SvgjsTspan1175" style="text-decoration:;">Application Context</tspan></tspan></text></g></g><g id="SvgjsG1176" transform="translate(220.39999389648438,370.0125045776367)"><path id="SvgjsPath1177" d="M 19.8 0L 40.2 0L 40.2 97L 60 97L 30 127L 0 97L 19.8 97L 19.8 0Z" stroke="rgba(50,50,50,1)" stroke-width="2" fill-opacity="1" fill="#ccff99"></path><g id="SvgjsG1178"><text id="SvgjsText1179" font-family="微软雅黑" text-anchor="middle" font-size="13px" width="84px" fill="#323232" font-weight="400" align="middle" anchor="middle" family="微软雅黑" size="13px" weight="400" font-style="" opacity="1" y="47.2" transform="rotate(0)"></text></g></g><g id="SvgjsG1180" transform="translate(155.39999389648438,400.0125045776367)"><path id="SvgjsPath1181" d="M 0 0L 120 0L 120 40L 0 40Z" stroke="none" fill="none"></path><g id="SvgjsG1182"><text id="SvgjsText1183" font-family="微软雅黑" text-anchor="middle" font-size="15px" width="120px" fill="#ff0000" font-weight="700" align="middle" anchor="middle" family="微软雅黑" size="15px" weight="700" font-style="" opacity="1" y="8.75" transform="rotate(0)"><tspan id="SvgjsTspan1184" dy="18" x="60"><tspan id="SvgjsTspan1185" style="text-decoration:;">2</tspan></tspan></text></g></g><g id="SvgjsG1186"><path id="SvgjsPath1187" d="M585.3999938964844 426.0125045776367L475.8999938964844 426.0125045776367L475.8999938964844 426.0125045776367L366.3999938964844 426.0125045776367" stroke="#323232" stroke-width="5" fill="none" marker-end="url(#SvgjsMarker1188)"></path></g><g id="SvgjsG1190" transform="translate(441.3999938964844,383.0125045776367)"><path id="SvgjsPath1191" d="M 0 0L 120 0L 120 40L 0 40Z" stroke="none" fill="none"></path><g id="SvgjsG1192"><text id="SvgjsText1193" font-family="微软雅黑" text-anchor="middle" font-size="15px" width="120px" fill="#323232" font-weight="700" align="middle" anchor="middle" family="微软雅黑" size="15px" weight="700" font-style="italic" opacity="1" y="8.75" transform="rotate(0)"><tspan id="SvgjsTspan1194" dy="18" x="60"><tspan id="SvgjsTspan1195" style="text-decoration:;">transferTo()</tspan></tspan></text></g></g></svg>