<svg id="SvgjsSvg1222" width="1124.546875" height="699.5625" xmlns="http://www.w3.org/2000/svg" version="1.1" xmlns:xlink="http://www.w3.org/1999/xlink" xmlns:svgjs="http://svgjs.com/svgjs"><defs id="SvgjsDefs1223"><marker id="SvgjsMarker1356" markerWidth="16" markerHeight="12" refX="16" refY="6" viewBox="0 0 16 12" orient="auto" markerUnits="userSpaceOnUse" stroke-dasharray="0,0"><path id="SvgjsPath1357" d="M0,2 L14,6 L0,11 L0,2" fill="#323232" stroke="#323232" stroke-width="2"></path></marker><marker id="SvgjsMarker1360" markerWidth="16" markerHeight="12" refX="16" refY="6" viewBox="0 0 16 12" orient="auto" markerUnits="userSpaceOnUse" stroke-dasharray="0,0"><path id="SvgjsPath1361" d="M0,2 L14,6 L0,11 L0,2" fill="#323232" stroke="#323232" stroke-width="2"></path></marker><marker id="SvgjsMarker1364" markerWidth="16" markerHeight="12" refX="16" refY="6" viewBox="0 0 16 12" orient="auto" markerUnits="userSpaceOnUse" stroke-dasharray="0,0"><path id="SvgjsPath1365" d="M0,2 L14,6 L0,11 L0,2" fill="#323232" stroke="#323232" stroke-width="2"></path></marker><marker id="SvgjsMarker1368" markerWidth="16" markerHeight="12" refX="16" refY="6" viewBox="0 0 16 12" orient="auto" markerUnits="userSpaceOnUse" stroke-dasharray="0,0"><path id="SvgjsPath1369" d="M0,2 L14,6 L0,11 L0,2" fill="#323232" stroke="#323232" stroke-width="2"></path></marker></defs><g id="SvgjsG1224" transform="translate(56.44444444444444,114.76041666666666)"><path id="SvgjsPath1225" d="M 0 4Q 0 0 4 0L 158.22222222222223 0Q 162.22222222222223 0 162.22222222222223 4L 162.22222222222223 96.55555555555554Q 162.22222222222223 100.55555555555554 158.22222222222223 100.55555555555554L 4 100.55555555555554Q 0 100.55555555555554 0 96.55555555555554Z" stroke="rgba(50,50,50,1)" stroke-width="2" fill-opacity="1" fill="#9999ff"></path><g id="SvgjsG1226"><text id="SvgjsText1227" font-family="微软雅黑" text-anchor="middle" font-size="13px" width="143px" fill="#323232" font-weight="400" align="middle" anchor="middle" family="微软雅黑" size="13px" weight="400" font-style="" opacity="1" y="40.32777777777777" transform="rotate(0)"></text></g></g><g id="SvgjsG1228" transform="translate(53.60493827160494,489.88044410150906)"><path id="SvgjsPath1229" d="M 0 4Q 0 0 4 0L 155.01234567901233 0Q 159.01234567901233 0 159.01234567901233 4L 159.01234567901233 95.44444444444434Q 159.01234567901233 99.44444444444434 155.01234567901233 99.44444444444434L 4 99.44444444444434Q 0 99.44444444444434 0 95.44444444444434Z" stroke="rgba(50,50,50,1)" stroke-width="2" fill-opacity="1" fill="#9999ff"></path><g id="SvgjsG1230"><text id="SvgjsText1231" font-family="微软雅黑" text-anchor="middle" font-size="13px" width="140px" fill="#323232" font-weight="400" align="middle" anchor="middle" family="微软雅黑" size="13px" weight="400" font-style="" opacity="1" y="39.77222222222217" transform="rotate(0)"></text></g></g><g id="SvgjsG1232" transform="translate(132.55555555555554,130.03819444444443)"><path id="SvgjsPath1233" d="M 0 35C 0 -11.666666666666666 70 -11.666666666666666 70 35C 70 81.66666666666667 0 81.66666666666667 0 35Z" stroke="rgba(50,50,50,1)" stroke-width="2" fill-opacity="1" fill="#ff66ff"></path><g id="SvgjsG1234"><text id="SvgjsText1235" font-family="微软雅黑" text-anchor="middle" font-size="13px" width="50px" fill="#323232" font-weight="400" align="middle" anchor="middle" family="微软雅黑" size="13px" weight="400" font-style="" opacity="1" y="17.05" transform="rotate(0)"><tspan id="SvgjsTspan1236" dy="16" x="35"><tspan id="SvgjsTspan1237" style="text-decoration:;">序列化</tspan></tspan><tspan id="SvgjsTspan1238" dy="16" x="35"><tspan id="SvgjsTspan1239" style="text-decoration:;">数据</tspan></tspan></text></g></g><g id="SvgjsG1240" transform="translate(128.1111111111111,505.15822187928677)"><path id="SvgjsPath1241" d="M 0 35C 0 -11.666666666666666 70 -11.666666666666666 70 35C 70 81.66666666666667 0 81.66666666666667 0 35Z" stroke="rgba(50,50,50,1)" stroke-width="2" fill-opacity="1" fill="#b3ff66"></path><g id="SvgjsG1242"><text id="SvgjsText1243" font-family="微软雅黑" text-anchor="middle" font-size="13px" width="50px" fill="#323232" font-weight="400" align="middle" anchor="middle" family="微软雅黑" size="13px" weight="400" font-style="" opacity="1" y="17.05" transform="rotate(0)"><tspan id="SvgjsTspan1244" dy="16" x="35"><tspan id="SvgjsTspan1245" style="text-decoration:;">广播变</tspan></tspan><tspan id="SvgjsTspan1246" dy="16" x="35"><tspan id="SvgjsTspan1247" style="text-decoration:;">量</tspan></tspan></text></g></g><g id="SvgjsG1248" transform="translate(475.3333333333334,25.007330246913526)"><path id="SvgjsPath1249" d="M 0 4Q 0 0 4 0L 381.55555555555554 0Q 385.55555555555554 0 385.55555555555554 4L 385.55555555555554 269.05555555555554Q 385.55555555555554 273.05555555555554 381.55555555555554 273.05555555555554L 4 273.05555555555554Q 0 273.05555555555554 0 269.05555555555554Z" stroke="rgba(50,50,50,1)" stroke-width="2" fill-opacity="1" fill="#ffe6cc"></path><g id="SvgjsG1250"><text id="SvgjsText1251" font-family="微软雅黑" text-anchor="middle" font-size="13px" width="366px" fill="#323232" font-weight="400" align="middle" anchor="middle" family="微软雅黑" size="13px" weight="400" font-style="" opacity="1" y="126.57777777777777" transform="rotate(0)"></text></g></g><g id="SvgjsG1252" transform="translate(561.7530864197528,51.427083333333286)"><path id="SvgjsPath1253" d="M 0 4Q 0 0 4 0L 262.91358024691385 0Q 266.91358024691385 0 266.91358024691385 4L 266.91358024691385 223.22222222222229Q 266.91358024691385 227.22222222222229 262.91358024691385 227.22222222222229L 4 227.22222222222229Q 0 227.22222222222229 0 223.22222222222229Z" stroke="rgba(50,50,50,1)" stroke-width="2" fill-opacity="1" fill="#ccff99"></path><g id="SvgjsG1254"><text id="SvgjsText1255" font-family="微软雅黑" text-anchor="middle" font-size="13px" width="247px" fill="#323232" font-weight="400" align="middle" anchor="middle" family="微软雅黑" size="13px" weight="400" font-style="" opacity="1" y="103.66111111111114" transform="rotate(0)"></text></g></g><g id="SvgjsG1256" transform="translate(665.333333333333,61.31734396433464)"><path id="SvgjsPath1257" d="M 0 4Q 0 0 4 0L 143.77777777777771 0Q 147.77777777777771 0 147.77777777777771 4L 147.77777777777771 38.7777777777778Q 147.77777777777771 42.7777777777778 143.77777777777771 42.7777777777778L 4 42.7777777777778Q 0 42.7777777777778 0 38.7777777777778Z" stroke="rgba(50,50,50,1)" stroke-width="2" fill-opacity="1" fill="#ffccff"></path><g id="SvgjsG1258"><text id="SvgjsText1259" font-family="微软雅黑" text-anchor="middle" font-size="15px" width="128px" fill="#323232" font-weight="700" align="middle" anchor="middle" family="微软雅黑" size="15px" weight="700" font-style="" opacity="1" y="9.6388888888889" transform="rotate(0)"><tspan id="SvgjsTspan1260" dy="18" x="74"><tspan id="SvgjsTspan1261" style="text-decoration:;">Task</tspan></tspan></text></g></g><g id="SvgjsG1262" transform="translate(664.2222222222218,140.92241771664217)"><path id="SvgjsPath1263" d="M 0 4Q 0 0 4 0L 143.77777777777771 0Q 147.77777777777771 0 147.77777777777771 4L 147.77777777777771 38.7777777777778Q 147.77777777777771 42.7777777777778 143.77777777777771 42.7777777777778L 4 42.7777777777778Q 0 42.7777777777778 0 38.7777777777778Z" stroke="rgba(50,50,50,1)" stroke-width="2" fill-opacity="1" fill="#ffccff"></path><g id="SvgjsG1264"><text id="SvgjsText1265" font-family="微软雅黑" text-anchor="middle" font-size="15px" width="128px" fill="#323232" font-weight="700" align="middle" anchor="middle" family="微软雅黑" size="15px" weight="700" font-style="" opacity="1" y="9.6388888888889" transform="rotate(0)"><tspan id="SvgjsTspan1266" dy="18" x="74"><tspan id="SvgjsTspan1267" style="text-decoration:;">Task</tspan></tspan></text></g></g><g id="SvgjsG1268" transform="translate(664.4691358024689,217.02379115226347)"><path id="SvgjsPath1269" d="M 0 4Q 0 0 4 0L 143.77777777777771 0Q 147.77777777777771 0 147.77777777777771 4L 147.77777777777771 38.7777777777778Q 147.77777777777771 42.7777777777778 143.77777777777771 42.7777777777778L 4 42.7777777777778Q 0 42.7777777777778 0 38.7777777777778Z" stroke="rgba(50,50,50,1)" stroke-width="2" fill-opacity="1" fill="#ffccff"></path><g id="SvgjsG1270"><text id="SvgjsText1271" font-family="微软雅黑" text-anchor="middle" font-size="15px" width="128px" fill="#323232" font-weight="700" align="middle" anchor="middle" family="微软雅黑" size="15px" weight="700" font-style="" opacity="1" y="9.6388888888889" transform="rotate(0)"><tspan id="SvgjsTspan1272" dy="18" x="74"><tspan id="SvgjsTspan1273" style="text-decoration:;">Task</tspan></tspan></text></g></g><g id="SvgjsG1274" transform="translate(667.1508916323727,63.15700255296446)"><path id="SvgjsPath1275" d="M 0 19.2901234567901C 0 -6.4300411522633665 44.84910836762674 -6.4300411522633665 44.84910836762674 19.2901234567901C 44.84910836762674 45.01028806584356 0 45.01028806584356 0 19.2901234567901Z" stroke="rgba(50,50,50,1)" stroke-width="2" fill-opacity="1" fill="#ff6666"></path><g id="SvgjsG1276"><text id="SvgjsText1277" font-family="微软雅黑" text-anchor="middle" font-size="13px" width="25px" fill="#323232" font-weight="400" align="middle" anchor="middle" family="微软雅黑" size="13px" weight="400" font-style="" opacity="1" y="1.3401234567900986" transform="rotate(0)"><tspan id="SvgjsTspan1278" dy="16" x="22.5"><tspan id="SvgjsTspan1279" style="text-decoration:;">缓</tspan></tspan><tspan id="SvgjsTspan1280" dy="16" x="22.5"><tspan id="SvgjsTspan1281" style="text-decoration:;">存</tspan></tspan></text></g></g><g id="SvgjsG1282" transform="translate(668.6918152720624,143.0211139216331)"><path id="SvgjsPath1283" d="M 0 19.2901234567901C 0 -6.4300411522633665 44.84910836762674 -6.4300411522633665 44.84910836762674 19.2901234567901C 44.84910836762674 45.01028806584356 0 45.01028806584356 0 19.2901234567901Z" stroke="rgba(50,50,50,1)" stroke-width="2" fill-opacity="1" fill="#ff6666"></path><g id="SvgjsG1284"><text id="SvgjsText1285" font-family="微软雅黑" text-anchor="middle" font-size="13px" width="25px" fill="#323232" font-weight="400" align="middle" anchor="middle" family="微软雅黑" size="13px" weight="400" font-style="" opacity="1" y="1.3401234567900986" transform="rotate(0)"><tspan id="SvgjsTspan1286" dy="16" x="22.5"><tspan id="SvgjsTspan1287" style="text-decoration:;">缓</tspan></tspan><tspan id="SvgjsTspan1288" dy="16" x="22.5"><tspan id="SvgjsTspan1289" style="text-decoration:;">存</tspan></tspan></text></g></g><g id="SvgjsG1290" transform="translate(667.0274348422491,217.02175894172643)"><path id="SvgjsPath1291" d="M 0 19.2901234567901C 0 -6.4300411522633665 44.84910836762674 -6.4300411522633665 44.84910836762674 19.2901234567901C 44.84910836762674 45.01028806584356 0 45.01028806584356 0 19.2901234567901Z" stroke="rgba(50,50,50,1)" stroke-width="2" fill-opacity="1" fill="#ff6666"></path><g id="SvgjsG1292"><text id="SvgjsText1293" font-family="微软雅黑" text-anchor="middle" font-size="13px" width="25px" fill="#323232" font-weight="400" align="middle" anchor="middle" family="微软雅黑" size="13px" weight="400" font-style="" opacity="1" y="1.3401234567900986" transform="rotate(0)"><tspan id="SvgjsTspan1294" dy="16" x="22.5"><tspan id="SvgjsTspan1295" style="text-decoration:;">缓</tspan></tspan><tspan id="SvgjsTspan1296" dy="16" x="22.5"><tspan id="SvgjsTspan1297" style="text-decoration:;">存</tspan></tspan></text></g></g><g id="SvgjsG1298" transform="translate(538.6666666666665,49.76041666666667)"><path id="SvgjsPath1299" d="M 0 0L 120 0L 120 40L 0 40Z" stroke="none" fill="none"></path><g id="SvgjsG1300"><text id="SvgjsText1301" font-family="微软雅黑" text-anchor="middle" font-size="14px" width="120px" fill="#323232" font-weight="700" align="middle" anchor="middle" family="微软雅黑" size="14px" weight="700" font-style="" opacity="1" y="8.9" transform="rotate(0)"><tspan id="SvgjsTspan1302" dy="17" x="60"><tspan id="SvgjsTspan1303" style="text-decoration:;">Executor</tspan></tspan></text></g></g><g id="SvgjsG1304" transform="translate(449.8082609358334,27.03352882775323)"><path id="SvgjsPath1305" d="M 0 0L 120 0L 120 40L 0 40Z" stroke="none" fill="none"></path><g id="SvgjsG1306"><text id="SvgjsText1307" font-family="微软雅黑" text-anchor="middle" font-size="15px" width="120px" fill="#323232" font-weight="700" align="middle" anchor="middle" family="微软雅黑" size="15px" weight="700" font-style="" opacity="1" y="8.25" transform="rotate(0)"><tspan id="SvgjsTspan1308" dy="18" x="60"><tspan id="SvgjsTspan1309" style="text-decoration:;">Worker</tspan></tspan></text></g></g><g id="SvgjsG1310" transform="translate(473.11111111111126,400.5628858024691)"><path id="SvgjsPath1311" d="M 0 4Q 0 0 4 0L 381.55555555555554 0Q 385.55555555555554 0 385.55555555555554 4L 385.55555555555554 269.05555555555554Q 385.55555555555554 273.05555555555554 381.55555555555554 273.05555555555554L 4 273.05555555555554Q 0 273.05555555555554 0 269.05555555555554Z" stroke="rgba(50,50,50,1)" stroke-width="2" fill-opacity="1" fill="#ffe6cc"></path><g id="SvgjsG1312"><text id="SvgjsText1313" font-family="微软雅黑" text-anchor="middle" font-size="13px" width="366px" fill="#323232" font-weight="400" align="middle" anchor="middle" family="微软雅黑" size="13px" weight="400" font-style="" opacity="1" y="126.57777777777777" transform="rotate(0)"></text></g></g><g id="SvgjsG1314" transform="translate(559.5308641975308,426.9826388888889)"><path id="SvgjsPath1315" d="M 0 4Q 0 0 4 0L 262.91358024691385 0Q 266.91358024691385 0 266.91358024691385 4L 266.91358024691385 223.22222222222229Q 266.91358024691385 227.22222222222229 262.91358024691385 227.22222222222229L 4 227.22222222222229Q 0 227.22222222222229 0 223.22222222222229Z" stroke="rgba(50,50,50,1)" stroke-width="2" fill-opacity="1" fill="#ccff99"></path><g id="SvgjsG1316"><text id="SvgjsText1317" font-family="微软雅黑" text-anchor="middle" font-size="13px" width="247px" fill="#323232" font-weight="400" align="middle" anchor="middle" family="微软雅黑" size="13px" weight="400" font-style="" opacity="1" y="103.66111111111114" transform="rotate(0)"></text></g></g><g id="SvgjsG1318" transform="translate(662.150891632373,437.30347412741963)"><path id="SvgjsPath1319" d="M 0 4Q 0 0 4 0L 143.77777777777771 0Q 147.77777777777771 0 147.77777777777771 4L 147.77777777777771 38.7777777777778Q 147.77777777777771 42.7777777777778 143.77777777777771 42.7777777777778L 4 42.7777777777778Q 0 42.7777777777778 0 38.7777777777778Z" stroke="rgba(50,50,50,1)" stroke-width="2" fill-opacity="1" fill="#ffccff"></path><g id="SvgjsG1320"><text id="SvgjsText1321" font-family="微软雅黑" text-anchor="middle" font-size="15px" width="128px" fill="#323232" font-weight="700" align="middle" anchor="middle" family="微软雅黑" size="15px" weight="700" font-style="" opacity="1" y="9.6388888888889" transform="rotate(0)"><tspan id="SvgjsTspan1322" dy="18" x="74"><tspan id="SvgjsTspan1323" style="text-decoration:;">Task</tspan></tspan></text></g></g><g id="SvgjsG1324" transform="translate(661.9999999999999,516.4779732721978)"><path id="SvgjsPath1325" d="M 0 4Q 0 0 4 0L 143.77777777777771 0Q 147.77777777777771 0 147.77777777777771 4L 147.77777777777771 38.7777777777778Q 147.77777777777771 42.7777777777778 143.77777777777771 42.7777777777778L 4 42.7777777777778Q 0 42.7777777777778 0 38.7777777777778Z" stroke="rgba(50,50,50,1)" stroke-width="2" fill-opacity="1" fill="#ffccff"></path><g id="SvgjsG1326"><text id="SvgjsText1327" font-family="微软雅黑" text-anchor="middle" font-size="15px" width="128px" fill="#323232" font-weight="700" align="middle" anchor="middle" family="微软雅黑" size="15px" weight="700" font-style="" opacity="1" y="9.6388888888889" transform="rotate(0)"><tspan id="SvgjsTspan1328" dy="18" x="74"><tspan id="SvgjsTspan1329" style="text-decoration:;">Task</tspan></tspan></text></g></g><g id="SvgjsG1330" transform="translate(662.246913580247,592.5793467078191)"><path id="SvgjsPath1331" d="M 0 4Q 0 0 4 0L 143.77777777777771 0Q 147.77777777777771 0 147.77777777777771 4L 147.77777777777771 38.7777777777778Q 147.77777777777771 42.7777777777778 143.77777777777771 42.7777777777778L 4 42.7777777777778Q 0 42.7777777777778 0 38.7777777777778Z" stroke="rgba(50,50,50,1)" stroke-width="2" fill-opacity="1" fill="#ffccff"></path><g id="SvgjsG1332"><text id="SvgjsText1333" font-family="微软雅黑" text-anchor="middle" font-size="15px" width="128px" fill="#323232" font-weight="700" align="middle" anchor="middle" family="微软雅黑" size="15px" weight="700" font-style="" opacity="1" y="9.6388888888889" transform="rotate(0)"><tspan id="SvgjsTspan1334" dy="18" x="74"><tspan id="SvgjsTspan1335" style="text-decoration:;">Task</tspan></tspan></text></g></g><g id="SvgjsG1336" transform="translate(548.2033226642274,432.21566569713286)"><path id="SvgjsPath1337" d="M 0 0L 120 0L 120 40L 0 40Z" stroke="none" fill="none"></path><g id="SvgjsG1338"><text id="SvgjsText1339" font-family="微软雅黑" text-anchor="middle" font-size="14px" width="120px" fill="#323232" font-weight="700" align="middle" anchor="middle" family="微软雅黑" size="14px" weight="700" font-style="" opacity="1" y="8.9" transform="rotate(0)"><tspan id="SvgjsTspan1340" dy="17" x="60"><tspan id="SvgjsTspan1341" style="text-decoration:;">Executor</tspan></tspan></text></g></g><g id="SvgjsG1342" transform="translate(449.78082609358376,401.592727308864)"><path id="SvgjsPath1343" d="M 0 0L 120 0L 120 40L 0 40Z" stroke="none" fill="none"></path><g id="SvgjsG1344"><text id="SvgjsText1345" font-family="微软雅黑" text-anchor="middle" font-size="15px" width="120px" fill="#323232" font-weight="700" align="middle" anchor="middle" family="微软雅黑" size="15px" weight="700" font-style="" opacity="1" y="8.25" transform="rotate(0)"><tspan id="SvgjsTspan1346" dy="18" x="60"><tspan id="SvgjsTspan1347" style="text-decoration:;">Worker</tspan></tspan></text></g></g><g id="SvgjsG1348" transform="translate(570.3607681755834,580.3550922750594)"><path id="SvgjsPath1349" d="M 0 23.591551084692526C 0 -7.863850361564175 52.167352537722536 -7.863850361564175 52.167352537722536 23.591551084692526C 52.167352537722536 55.04695253094923 0 55.04695253094923 0 23.591551084692526Z" stroke="rgba(50,50,50,1)" stroke-width="2" fill-opacity="1" fill="#ff6666"></path><g id="SvgjsG1350"><text id="SvgjsText1351" font-family="微软雅黑" text-anchor="middle" font-size="13px" width="33px" fill="#323232" font-weight="400" align="middle" anchor="middle" family="微软雅黑" size="13px" weight="400" font-style="" opacity="1" y="13.641551084692527" transform="rotate(0)"><tspan id="SvgjsTspan1352" dy="16" x="26.5"><tspan id="SvgjsTspan1353" style="text-decoration:;">缓存</tspan></tspan></text></g></g><g id="SvgjsG1354"><path id="SvgjsPath1355" d="M218.66666666666669 165.03819444444443L667.1508916323727 82.44712600975456" stroke="#323232" stroke-width="2" fill="none" marker-end="url(#SvgjsMarker1356)"></path></g><g id="SvgjsG1358"><path id="SvgjsPath1359" d="M218.66666666666669 165.03819444444443L668.6918152720624 162.3112373784232" stroke="#323232" stroke-width="2" fill="none" marker-end="url(#SvgjsMarker1360)"></path></g><g id="SvgjsG1362"><path id="SvgjsPath1363" d="M218.66666666666669 165.03819444444443L664.4691358024689 238.41268004115238" stroke="#323232" stroke-width="2" fill="none" marker-end="url(#SvgjsMarker1364)"></path></g><g id="SvgjsG1366"><path id="SvgjsPath1367" d="M212.61728395061726 539.6026663237312L559.5308641975308 540.59375" stroke="#323232" stroke-width="2" fill="none" marker-end="url(#SvgjsMarker1368)"></path></g><g id="SvgjsG1370" transform="translate(877.5555555555557,60.49515231716039)"><path id="SvgjsPath1371" d="M 0 0L 206.22222222222217 0L 222.22222222222217 16L 222.22222222222217 212.58089193367354L 0 212.58089193367354L 0 0Z" stroke="none" fill-opacity="1" fill="#ffffaa"></path><path id="SvgjsPath1372" d="M 206.22222222222217 0L 206.22222222222217 16L 222.22222222222217 16Z" stroke="none" fill-opacity="1" fill="#cdcdcd"></path><path id="SvgjsPath1373" d="M 0 0L 206.22222222222217 0L 222.22222222222217 16L 222.22222222222217 212.58089193367354L 0 212.58089193367354L 0 0Z" stroke="none" fill="none"></path><g id="SvgjsG1374"><text id="SvgjsText1375" font-family="微软雅黑" text-anchor="middle" font-size="17px" width="203px" fill="#323232" font-weight="700" align="middle" anchor="middle" family="微软雅黑" size="17px" weight="700" font-style="" opacity="1" y="72.24044596683677" transform="rotate(0)"><tspan id="SvgjsTspan1376" dy="21" x="111.5"><tspan id="SvgjsTspan1377" style="text-decoration:;">每个Task缓存了一份数</tspan></tspan><tspan id="SvgjsTspan1378" dy="21" x="111.5"><tspan id="SvgjsTspan1379" style="text-decoration:;">据，各Task从各自的缓存</tspan></tspan><tspan id="SvgjsTspan1380" dy="21" x="111.5"><tspan id="SvgjsTspan1381" style="text-decoration:;">中读取数据</tspan></tspan></text></g></g><g id="SvgjsG1382" transform="translate(879.7777777777778,426.74993173333127)"><path id="SvgjsPath1383" d="M 0 0L 201.77777777777783 0L 217.77777777777783 16L 217.77777777777783 221.1111111111111L 0 221.1111111111111L 0 0Z" stroke="none" fill-opacity="1" fill="#ffffaa"></path><path id="SvgjsPath1384" d="M 201.77777777777783 0L 201.77777777777783 16L 217.77777777777783 16Z" stroke="none" fill-opacity="1" fill="#cdcdcd"></path><path id="SvgjsPath1385" d="M 0 0L 201.77777777777783 0L 217.77777777777783 16L 217.77777777777783 221.1111111111111L 0 221.1111111111111L 0 0Z" stroke="none" fill="none"></path><g id="SvgjsG1386"><text id="SvgjsText1387" font-family="微软雅黑" text-anchor="middle" font-size="17px" width="198px" fill="#323232" font-weight="700" align="middle" anchor="middle" family="微软雅黑" size="17px" weight="700" font-style="" opacity="1" y="76.50555555555555" transform="rotate(0)"><tspan id="SvgjsTspan1388" dy="21" x="109"><tspan id="SvgjsTspan1389" style="text-decoration:;">数据被缓存到Worker节</tspan></tspan><tspan id="SvgjsTspan1390" dy="21" x="109"><tspan id="SvgjsTspan1391" style="text-decoration:;">点，所有的Task共享该数</tspan></tspan><tspan id="SvgjsTspan1392" dy="21" x="109"><tspan id="SvgjsTspan1393" style="text-decoration:;">据</tspan></tspan></text></g></g><g id="SvgjsG1394" transform="translate(282.00000000000017,187.53819444444449)"><path id="SvgjsPath1395" d="M 0 0L 120 0L 120 40L 0 40Z" stroke="none" fill="none"></path><g id="SvgjsG1396"><text id="SvgjsText1397" font-family="微软雅黑" text-anchor="middle" font-size="15px" width="120px" fill="#323232" font-weight="700" align="middle" anchor="middle" family="微软雅黑" size="15px" weight="700" font-style="" opacity="1" y="8.25" transform="rotate(0)"><tspan id="SvgjsTspan1398" dy="18" x="60"><tspan id="SvgjsTspan1399" style="text-decoration:;">传输</tspan></tspan></text></g></g><g id="SvgjsG1400" transform="translate(283.1111111111115,543.0937500000001)"><path id="SvgjsPath1401" d="M 0 0L 120 0L 120 40L 0 40Z" stroke="none" fill="none"></path><g id="SvgjsG1402"><text id="SvgjsText1403" font-family="微软雅黑" text-anchor="middle" font-size="15px" width="120px" fill="#323232" font-weight="700" align="middle" anchor="middle" family="微软雅黑" size="15px" weight="700" font-style="" opacity="1" y="8.25" transform="rotate(0)"><tspan id="SvgjsTspan1404" dy="18" x="60"><tspan id="SvgjsTspan1405" style="text-decoration:;">传输</tspan></tspan></text></g></g><g id="SvgjsG1406" transform="translate(25,142.3112373784232)"><path id="SvgjsPath1407" d="M 0 0L 120 0L 120 40L 0 40Z" stroke="none" fill="none"></path><g id="SvgjsG1408"><text id="SvgjsText1409" font-family="微软雅黑" text-anchor="middle" font-size="15px" width="120px" fill="#323232" font-weight="700" align="middle" anchor="middle" family="微软雅黑" size="15px" weight="700" font-style="" opacity="1" y="8.25" transform="rotate(0)"><tspan id="SvgjsTspan1410" dy="18" x="60"><tspan id="SvgjsTspan1411" style="text-decoration:;">Driver</tspan></tspan></text></g></g><g id="SvgjsG1412" transform="translate(25,517.3054872888868)"><path id="SvgjsPath1413" d="M 0 0L 120 0L 120 40L 0 40Z" stroke="none" fill="none"></path><g id="SvgjsG1414"><text id="SvgjsText1415" font-family="微软雅黑" text-anchor="middle" font-size="15px" width="120px" fill="#323232" font-weight="700" align="middle" anchor="middle" family="微软雅黑" size="15px" weight="700" font-style="" opacity="1" y="8.25" transform="rotate(0)"><tspan id="SvgjsTspan1416" dy="18" x="60"><tspan id="SvgjsTspan1417" style="text-decoration:;">Driver</tspan></tspan></text></g></g></svg>