<svg id="SvgjsSvg1038" width="1095.953125" height="699.5625" xmlns="http://www.w3.org/2000/svg" version="1.1" xmlns:xlink="http://www.w3.org/1999/xlink" xmlns:svgjs="http://svgjs.com/svgjs"><defs id="SvgjsDefs1039"><marker id="SvgjsMarker1172" markerWidth="16" markerHeight="12" refX="16" refY="6" viewBox="0 0 16 12" orient="auto" markerUnits="userSpaceOnUse" stroke-dasharray="0,0"><path id="SvgjsPath1173" d="M0,2 L14,6 L0,11 L0,2" fill="#323232" stroke="#323232" stroke-width="2"></path></marker><marker id="SvgjsMarker1176" markerWidth="16" markerHeight="12" refX="16" refY="6" viewBox="0 0 16 12" orient="auto" markerUnits="userSpaceOnUse" stroke-dasharray="0,0"><path id="SvgjsPath1177" d="M0,2 L14,6 L0,11 L0,2" fill="#323232" stroke="#323232" stroke-width="2"></path></marker><marker id="SvgjsMarker1180" markerWidth="16" markerHeight="12" refX="16" refY="6" viewBox="0 0 16 12" orient="auto" markerUnits="userSpaceOnUse" stroke-dasharray="0,0"><path id="SvgjsPath1181" d="M0,2 L14,6 L0,11 L0,2" fill="#323232" stroke="#323232" stroke-width="2"></path></marker><marker id="SvgjsMarker1184" markerWidth="16" markerHeight="12" refX="16" refY="6" viewBox="0 0 16 12" orient="auto" markerUnits="userSpaceOnUse" stroke-dasharray="0,0"><path id="SvgjsPath1185" d="M0,2 L14,6 L0,11 L0,2" fill="#323232" stroke="#323232" stroke-width="2"></path></marker></defs><g id="SvgjsG1040" transform="translate(27.850694444444443,114.76041666666666)"><path id="SvgjsPath1041" d="M 0 4Q 0 0 4 0L 158.22222222222223 0Q 162.22222222222223 0 162.22222222222223 4L 162.22222222222223 96.55555555555554Q 162.22222222222223 100.55555555555554 158.22222222222223 100.55555555555554L 4 100.55555555555554Q 0 100.55555555555554 0 96.55555555555554Z" stroke="rgba(50,50,50,1)" stroke-width="2" fill-opacity="1" fill="#9999ff"></path><g id="SvgjsG1042"><text id="SvgjsText1043" font-family="微软雅黑" text-anchor="middle" font-size="13px" width="143px" fill="#323232" font-weight="400" align="middle" anchor="middle" family="微软雅黑" size="13px" weight="400" font-style="" opacity="1" y="40.32777777777777" transform="rotate(0)"></text></g></g><g id="SvgjsG1044" transform="translate(25.011188271604937,489.88044410150906)"><path id="SvgjsPath1045" d="M 0 4Q 0 0 4 0L 155.01234567901233 0Q 159.01234567901233 0 159.01234567901233 4L 159.01234567901233 95.44444444444434Q 159.01234567901233 99.44444444444434 155.01234567901233 99.44444444444434L 4 99.44444444444434Q 0 99.44444444444434 0 95.44444444444434Z" stroke="rgba(50,50,50,1)" stroke-width="2" fill-opacity="1" fill="#9999ff"></path><g id="SvgjsG1046"><text id="SvgjsText1047" font-family="微软雅黑" text-anchor="middle" font-size="13px" width="140px" fill="#323232" font-weight="400" align="middle" anchor="middle" family="微软雅黑" size="13px" weight="400" font-style="" opacity="1" y="39.77222222222217" transform="rotate(0)"></text></g></g><g id="SvgjsG1048" transform="translate(103.96180555555554,130.03819444444443)"><path id="SvgjsPath1049" d="M 0 35C 0 -11.666666666666666 70 -11.666666666666666 70 35C 70 81.66666666666667 0 81.66666666666667 0 35Z" stroke="rgba(50,50,50,1)" stroke-width="2" fill-opacity="1" fill="#ff66ff"></path><g id="SvgjsG1050"><text id="SvgjsText1051" font-family="微软雅黑" text-anchor="middle" font-size="13px" width="50px" fill="#323232" font-weight="400" align="middle" anchor="middle" family="微软雅黑" size="13px" weight="400" font-style="" opacity="1" y="17.05" transform="rotate(0)"><tspan id="SvgjsTspan1052" dy="16" x="35"><tspan id="SvgjsTspan1053" style="text-decoration:;">序列化</tspan></tspan><tspan id="SvgjsTspan1054" dy="16" x="35"><tspan id="SvgjsTspan1055" style="text-decoration:;">数据</tspan></tspan></text></g></g><g id="SvgjsG1056" transform="translate(99.51736111111109,505.15822187928677)"><path id="SvgjsPath1057" d="M 0 35C 0 -11.666666666666666 70 -11.666666666666666 70 35C 70 81.66666666666667 0 81.66666666666667 0 35Z" stroke="rgba(50,50,50,1)" stroke-width="2" fill-opacity="1" fill="#b3ff66"></path><g id="SvgjsG1058"><text id="SvgjsText1059" font-family="微软雅黑" text-anchor="middle" font-size="13px" width="50px" fill="#323232" font-weight="400" align="middle" anchor="middle" family="微软雅黑" size="13px" weight="400" font-style="" opacity="1" y="17.05" transform="rotate(0)"><tspan id="SvgjsTspan1060" dy="16" x="35"><tspan id="SvgjsTspan1061" style="text-decoration:;">广播变</tspan></tspan><tspan id="SvgjsTspan1062" dy="16" x="35"><tspan id="SvgjsTspan1063" style="text-decoration:;">量</tspan></tspan></text></g></g><g id="SvgjsG1064" transform="translate(446.7395833333334,25.007330246913526)"><path id="SvgjsPath1065" d="M 0 4Q 0 0 4 0L 381.55555555555554 0Q 385.55555555555554 0 385.55555555555554 4L 385.55555555555554 269.05555555555554Q 385.55555555555554 273.05555555555554 381.55555555555554 273.05555555555554L 4 273.05555555555554Q 0 273.05555555555554 0 269.05555555555554Z" stroke="rgba(50,50,50,1)" stroke-width="2" fill-opacity="1" fill="#ffe6cc"></path><g id="SvgjsG1066"><text id="SvgjsText1067" font-family="微软雅黑" text-anchor="middle" font-size="13px" width="366px" fill="#323232" font-weight="400" align="middle" anchor="middle" family="微软雅黑" size="13px" weight="400" font-style="" opacity="1" y="126.57777777777777" transform="rotate(0)"></text></g></g><g id="SvgjsG1068" transform="translate(533.1593364197528,51.427083333333286)"><path id="SvgjsPath1069" d="M 0 4Q 0 0 4 0L 262.91358024691385 0Q 266.91358024691385 0 266.91358024691385 4L 266.91358024691385 223.22222222222229Q 266.91358024691385 227.22222222222229 262.91358024691385 227.22222222222229L 4 227.22222222222229Q 0 227.22222222222229 0 223.22222222222229Z" stroke="rgba(50,50,50,1)" stroke-width="2" fill-opacity="1" fill="#ccff99"></path><g id="SvgjsG1070"><text id="SvgjsText1071" font-family="微软雅黑" text-anchor="middle" font-size="13px" width="247px" fill="#323232" font-weight="400" align="middle" anchor="middle" family="微软雅黑" size="13px" weight="400" font-style="" opacity="1" y="103.66111111111114" transform="rotate(0)"></text></g></g><g id="SvgjsG1072" transform="translate(636.739583333333,61.31734396433464)"><path id="SvgjsPath1073" d="M 0 4Q 0 0 4 0L 143.77777777777771 0Q 147.77777777777771 0 147.77777777777771 4L 147.77777777777771 38.7777777777778Q 147.77777777777771 42.7777777777778 143.77777777777771 42.7777777777778L 4 42.7777777777778Q 0 42.7777777777778 0 38.7777777777778Z" stroke="rgba(50,50,50,1)" stroke-width="2" fill-opacity="1" fill="#ffccff"></path><g id="SvgjsG1074"><text id="SvgjsText1075" font-family="微软雅黑" text-anchor="middle" font-size="15px" width="128px" fill="#323232" font-weight="700" align="middle" anchor="middle" family="微软雅黑" size="15px" weight="700" font-style="" opacity="1" y="9.6388888888889" transform="rotate(0)"><tspan id="SvgjsTspan1076" dy="18" x="74"><tspan id="SvgjsTspan1077" style="text-decoration:;">Task</tspan></tspan></text></g></g><g id="SvgjsG1078" transform="translate(635.6284722222218,140.92241771664217)"><path id="SvgjsPath1079" d="M 0 4Q 0 0 4 0L 143.77777777777771 0Q 147.77777777777771 0 147.77777777777771 4L 147.77777777777771 38.7777777777778Q 147.77777777777771 42.7777777777778 143.77777777777771 42.7777777777778L 4 42.7777777777778Q 0 42.7777777777778 0 38.7777777777778Z" stroke="rgba(50,50,50,1)" stroke-width="2" fill-opacity="1" fill="#ffccff"></path><g id="SvgjsG1080"><text id="SvgjsText1081" font-family="微软雅黑" text-anchor="middle" font-size="15px" width="128px" fill="#323232" font-weight="700" align="middle" anchor="middle" family="微软雅黑" size="15px" weight="700" font-style="" opacity="1" y="9.6388888888889" transform="rotate(0)"><tspan id="SvgjsTspan1082" dy="18" x="74"><tspan id="SvgjsTspan1083" style="text-decoration:;">Task</tspan></tspan></text></g></g><g id="SvgjsG1084" transform="translate(635.8753858024689,217.02379115226347)"><path id="SvgjsPath1085" d="M 0 4Q 0 0 4 0L 143.77777777777771 0Q 147.77777777777771 0 147.77777777777771 4L 147.77777777777771 38.7777777777778Q 147.77777777777771 42.7777777777778 143.77777777777771 42.7777777777778L 4 42.7777777777778Q 0 42.7777777777778 0 38.7777777777778Z" stroke="rgba(50,50,50,1)" stroke-width="2" fill-opacity="1" fill="#ffccff"></path><g id="SvgjsG1086"><text id="SvgjsText1087" font-family="微软雅黑" text-anchor="middle" font-size="15px" width="128px" fill="#323232" font-weight="700" align="middle" anchor="middle" family="微软雅黑" size="15px" weight="700" font-style="" opacity="1" y="9.6388888888889" transform="rotate(0)"><tspan id="SvgjsTspan1088" dy="18" x="74"><tspan id="SvgjsTspan1089" style="text-decoration:;">Task</tspan></tspan></text></g></g><g id="SvgjsG1090" transform="translate(638.5571416323727,63.15700255296446)"><path id="SvgjsPath1091" d="M 0 19.2901234567901C 0 -6.4300411522633665 44.84910836762674 -6.4300411522633665 44.84910836762674 19.2901234567901C 44.84910836762674 45.01028806584356 0 45.01028806584356 0 19.2901234567901Z" stroke="rgba(50,50,50,1)" stroke-width="2" fill-opacity="1" fill="#ff6666"></path><g id="SvgjsG1092"><text id="SvgjsText1093" font-family="微软雅黑" text-anchor="middle" font-size="13px" width="25px" fill="#323232" font-weight="400" align="middle" anchor="middle" family="微软雅黑" size="13px" weight="400" font-style="" opacity="1" y="1.3401234567900986" transform="rotate(0)"><tspan id="SvgjsTspan1094" dy="16" x="22.5"><tspan id="SvgjsTspan1095" style="text-decoration:;">缓</tspan></tspan><tspan id="SvgjsTspan1096" dy="16" x="22.5"><tspan id="SvgjsTspan1097" style="text-decoration:;">存</tspan></tspan></text></g></g><g id="SvgjsG1098" transform="translate(640.0980652720624,143.0211139216331)"><path id="SvgjsPath1099" d="M 0 19.2901234567901C 0 -6.4300411522633665 44.84910836762674 -6.4300411522633665 44.84910836762674 19.2901234567901C 44.84910836762674 45.01028806584356 0 45.01028806584356 0 19.2901234567901Z" stroke="rgba(50,50,50,1)" stroke-width="2" fill-opacity="1" fill="#ff6666"></path><g id="SvgjsG1100"><text id="SvgjsText1101" font-family="微软雅黑" text-anchor="middle" font-size="13px" width="25px" fill="#323232" font-weight="400" align="middle" anchor="middle" family="微软雅黑" size="13px" weight="400" font-style="" opacity="1" y="1.3401234567900986" transform="rotate(0)"><tspan id="SvgjsTspan1102" dy="16" x="22.5"><tspan id="SvgjsTspan1103" style="text-decoration:;">缓</tspan></tspan><tspan id="SvgjsTspan1104" dy="16" x="22.5"><tspan id="SvgjsTspan1105" style="text-decoration:;">存</tspan></tspan></text></g></g><g id="SvgjsG1106" transform="translate(638.4336848422491,217.02175894172643)"><path id="SvgjsPath1107" d="M 0 19.2901234567901C 0 -6.4300411522633665 44.84910836762674 -6.4300411522633665 44.84910836762674 19.2901234567901C 44.84910836762674 45.01028806584356 0 45.01028806584356 0 19.2901234567901Z" stroke="rgba(50,50,50,1)" stroke-width="2" fill-opacity="1" fill="#ff6666"></path><g id="SvgjsG1108"><text id="SvgjsText1109" font-family="微软雅黑" text-anchor="middle" font-size="13px" width="25px" fill="#323232" font-weight="400" align="middle" anchor="middle" family="微软雅黑" size="13px" weight="400" font-style="" opacity="1" y="1.3401234567900986" transform="rotate(0)"><tspan id="SvgjsTspan1110" dy="16" x="22.5"><tspan id="SvgjsTspan1111" style="text-decoration:;">缓</tspan></tspan><tspan id="SvgjsTspan1112" dy="16" x="22.5"><tspan id="SvgjsTspan1113" style="text-decoration:;">存</tspan></tspan></text></g></g><g id="SvgjsG1114" transform="translate(510.0729166666665,49.76041666666667)"><path id="SvgjsPath1115" d="M 0 0L 120 0L 120 40L 0 40Z" stroke="none" fill="none"></path><g id="SvgjsG1116"><text id="SvgjsText1117" font-family="微软雅黑" text-anchor="middle" font-size="14px" width="120px" fill="#323232" font-weight="700" align="middle" anchor="middle" family="微软雅黑" size="14px" weight="700" font-style="" opacity="1" y="8.9" transform="rotate(0)"><tspan id="SvgjsTspan1118" dy="17" x="60"><tspan id="SvgjsTspan1119" style="text-decoration:;">Executor</tspan></tspan></text></g></g><g id="SvgjsG1120" transform="translate(421.2145109358334,27.03352882775323)"><path id="SvgjsPath1121" d="M 0 0L 120 0L 120 40L 0 40Z" stroke="none" fill="none"></path><g id="SvgjsG1122"><text id="SvgjsText1123" font-family="微软雅黑" text-anchor="middle" font-size="15px" width="120px" fill="#323232" font-weight="700" align="middle" anchor="middle" family="微软雅黑" size="15px" weight="700" font-style="" opacity="1" y="8.25" transform="rotate(0)"><tspan id="SvgjsTspan1124" dy="18" x="60"><tspan id="SvgjsTspan1125" style="text-decoration:;">Worker</tspan></tspan></text></g></g><g id="SvgjsG1126" transform="translate(444.51736111111126,400.5628858024691)"><path id="SvgjsPath1127" d="M 0 4Q 0 0 4 0L 381.55555555555554 0Q 385.55555555555554 0 385.55555555555554 4L 385.55555555555554 269.05555555555554Q 385.55555555555554 273.05555555555554 381.55555555555554 273.05555555555554L 4 273.05555555555554Q 0 273.05555555555554 0 269.05555555555554Z" stroke="rgba(50,50,50,1)" stroke-width="2" fill-opacity="1" fill="#ffe6cc"></path><g id="SvgjsG1128"><text id="SvgjsText1129" font-family="微软雅黑" text-anchor="middle" font-size="13px" width="366px" fill="#323232" font-weight="400" align="middle" anchor="middle" family="微软雅黑" size="13px" weight="400" font-style="" opacity="1" y="126.57777777777777" transform="rotate(0)"></text></g></g><g id="SvgjsG1130" transform="translate(530.9371141975308,426.9826388888889)"><path id="SvgjsPath1131" d="M 0 4Q 0 0 4 0L 262.91358024691385 0Q 266.91358024691385 0 266.91358024691385 4L 266.91358024691385 223.22222222222229Q 266.91358024691385 227.22222222222229 262.91358024691385 227.22222222222229L 4 227.22222222222229Q 0 227.22222222222229 0 223.22222222222229Z" stroke="rgba(50,50,50,1)" stroke-width="2" fill-opacity="1" fill="#ccff99"></path><g id="SvgjsG1132"><text id="SvgjsText1133" font-family="微软雅黑" text-anchor="middle" font-size="13px" width="247px" fill="#323232" font-weight="400" align="middle" anchor="middle" family="微软雅黑" size="13px" weight="400" font-style="" opacity="1" y="103.66111111111114" transform="rotate(0)"></text></g></g><g id="SvgjsG1134" transform="translate(633.557141632373,437.30347412741963)"><path id="SvgjsPath1135" d="M 0 4Q 0 0 4 0L 143.77777777777771 0Q 147.77777777777771 0 147.77777777777771 4L 147.77777777777771 38.7777777777778Q 147.77777777777771 42.7777777777778 143.77777777777771 42.7777777777778L 4 42.7777777777778Q 0 42.7777777777778 0 38.7777777777778Z" stroke="rgba(50,50,50,1)" stroke-width="2" fill-opacity="1" fill="#ffccff"></path><g id="SvgjsG1136"><text id="SvgjsText1137" font-family="微软雅黑" text-anchor="middle" font-size="15px" width="128px" fill="#323232" font-weight="700" align="middle" anchor="middle" family="微软雅黑" size="15px" weight="700" font-style="" opacity="1" y="9.6388888888889" transform="rotate(0)"><tspan id="SvgjsTspan1138" dy="18" x="74"><tspan id="SvgjsTspan1139" style="text-decoration:;">Task</tspan></tspan></text></g></g><g id="SvgjsG1140" transform="translate(633.4062499999999,516.4779732721978)"><path id="SvgjsPath1141" d="M 0 4Q 0 0 4 0L 143.77777777777771 0Q 147.77777777777771 0 147.77777777777771 4L 147.77777777777771 38.7777777777778Q 147.77777777777771 42.7777777777778 143.77777777777771 42.7777777777778L 4 42.7777777777778Q 0 42.7777777777778 0 38.7777777777778Z" stroke="rgba(50,50,50,1)" stroke-width="2" fill-opacity="1" fill="#ffccff"></path><g id="SvgjsG1142"><text id="SvgjsText1143" font-family="微软雅黑" text-anchor="middle" font-size="15px" width="128px" fill="#323232" font-weight="700" align="middle" anchor="middle" family="微软雅黑" size="15px" weight="700" font-style="" opacity="1" y="9.6388888888889" transform="rotate(0)"><tspan id="SvgjsTspan1144" dy="18" x="74"><tspan id="SvgjsTspan1145" style="text-decoration:;">Task</tspan></tspan></text></g></g><g id="SvgjsG1146" transform="translate(633.653163580247,592.5793467078191)"><path id="SvgjsPath1147" d="M 0 4Q 0 0 4 0L 143.77777777777771 0Q 147.77777777777771 0 147.77777777777771 4L 147.77777777777771 38.7777777777778Q 147.77777777777771 42.7777777777778 143.77777777777771 42.7777777777778L 4 42.7777777777778Q 0 42.7777777777778 0 38.7777777777778Z" stroke="rgba(50,50,50,1)" stroke-width="2" fill-opacity="1" fill="#ffccff"></path><g id="SvgjsG1148"><text id="SvgjsText1149" font-family="微软雅黑" text-anchor="middle" font-size="15px" width="128px" fill="#323232" font-weight="700" align="middle" anchor="middle" family="微软雅黑" size="15px" weight="700" font-style="" opacity="1" y="9.6388888888889" transform="rotate(0)"><tspan id="SvgjsTspan1150" dy="18" x="74"><tspan id="SvgjsTspan1151" style="text-decoration:;">Task</tspan></tspan></text></g></g><g id="SvgjsG1152" transform="translate(519.6095726642274,432.21566569713286)"><path id="SvgjsPath1153" d="M 0 0L 120 0L 120 40L 0 40Z" stroke="none" fill="none"></path><g id="SvgjsG1154"><text id="SvgjsText1155" font-family="微软雅黑" text-anchor="middle" font-size="14px" width="120px" fill="#323232" font-weight="700" align="middle" anchor="middle" family="微软雅黑" size="14px" weight="700" font-style="" opacity="1" y="8.9" transform="rotate(0)"><tspan id="SvgjsTspan1156" dy="17" x="60"><tspan id="SvgjsTspan1157" style="text-decoration:;">Executor</tspan></tspan></text></g></g><g id="SvgjsG1158" transform="translate(421.18707609358376,401.592727308864)"><path id="SvgjsPath1159" d="M 0 0L 120 0L 120 40L 0 40Z" stroke="none" fill="none"></path><g id="SvgjsG1160"><text id="SvgjsText1161" font-family="微软雅黑" text-anchor="middle" font-size="15px" width="120px" fill="#323232" font-weight="700" align="middle" anchor="middle" family="微软雅黑" size="15px" weight="700" font-style="" opacity="1" y="8.25" transform="rotate(0)"><tspan id="SvgjsTspan1162" dy="18" x="60"><tspan id="SvgjsTspan1163" style="text-decoration:;">Worker</tspan></tspan></text></g></g><g id="SvgjsG1164" transform="translate(541.7670181755834,580.3550922750594)"><path id="SvgjsPath1165" d="M 0 23.591551084692526C 0 -7.863850361564175 52.167352537722536 -7.863850361564175 52.167352537722536 23.591551084692526C 52.167352537722536 55.04695253094923 0 55.04695253094923 0 23.591551084692526Z" stroke="rgba(50,50,50,1)" stroke-width="2" fill-opacity="1" fill="#ff6666"></path><g id="SvgjsG1166"><text id="SvgjsText1167" font-family="微软雅黑" text-anchor="middle" font-size="13px" width="33px" fill="#323232" font-weight="400" align="middle" anchor="middle" family="微软雅黑" size="13px" weight="400" font-style="" opacity="1" y="13.641551084692527" transform="rotate(0)"><tspan id="SvgjsTspan1168" dy="16" x="26.5"><tspan id="SvgjsTspan1169" style="text-decoration:;">缓存</tspan></tspan></text></g></g><g id="SvgjsG1170"><path id="SvgjsPath1171" d="M190.07291666666669 165.03819444444443L638.5571416323727 82.44712600975456" stroke="#323232" stroke-width="2" fill="none" marker-end="url(#SvgjsMarker1172)"></path></g><g id="SvgjsG1174"><path id="SvgjsPath1175" d="M190.07291666666669 165.03819444444443L640.0980652720624 162.3112373784232" stroke="#323232" stroke-width="2" fill="none" marker-end="url(#SvgjsMarker1176)"></path></g><g id="SvgjsG1178"><path id="SvgjsPath1179" d="M190.07291666666669 165.03819444444443L635.8753858024689 238.41268004115238" stroke="#323232" stroke-width="2" fill="none" marker-end="url(#SvgjsMarker1180)"></path></g><g id="SvgjsG1182"><path id="SvgjsPath1183" d="M184.02353395061726 539.6026663237312L530.9371141975308 540.59375" stroke="#323232" stroke-width="2" fill="none" marker-end="url(#SvgjsMarker1184)"></path></g><g id="SvgjsG1186" transform="translate(848.9618055555557,60.49515231716039)"><path id="SvgjsPath1187" d="M 0 0L 206.22222222222217 0L 222.22222222222217 16L 222.22222222222217 212.58089193367354L 0 212.58089193367354L 0 0Z" stroke="none" fill-opacity="1" fill="#ffffaa"></path><path id="SvgjsPath1188" d="M 206.22222222222217 0L 206.22222222222217 16L 222.22222222222217 16Z" stroke="none" fill-opacity="1" fill="#cdcdcd"></path><path id="SvgjsPath1189" d="M 0 0L 206.22222222222217 0L 222.22222222222217 16L 222.22222222222217 212.58089193367354L 0 212.58089193367354L 0 0Z" stroke="none" fill="none"></path><g id="SvgjsG1190"><text id="SvgjsText1191" font-family="微软雅黑" text-anchor="middle" font-size="17px" width="203px" fill="#323232" font-weight="700" align="middle" anchor="middle" family="微软雅黑" size="17px" weight="700" font-style="" opacity="1" y="72.24044596683677" transform="rotate(0)"><tspan id="SvgjsTspan1192" dy="21" x="111.5"><tspan id="SvgjsTspan1193" style="text-decoration:;">每个Task缓存了一份数</tspan></tspan><tspan id="SvgjsTspan1194" dy="21" x="111.5"><tspan id="SvgjsTspan1195" style="text-decoration:;">据，各Task从各自的缓存</tspan></tspan><tspan id="SvgjsTspan1196" dy="21" x="111.5"><tspan id="SvgjsTspan1197" style="text-decoration:;">中读取数据</tspan></tspan></text></g></g><g id="SvgjsG1198" transform="translate(851.1840277777778,426.74993173333127)"><path id="SvgjsPath1199" d="M 0 0L 201.77777777777783 0L 217.77777777777783 16L 217.77777777777783 221.1111111111111L 0 221.1111111111111L 0 0Z" stroke="none" fill-opacity="1" fill="#ffffaa"></path><path id="SvgjsPath1200" d="M 201.77777777777783 0L 201.77777777777783 16L 217.77777777777783 16Z" stroke="none" fill-opacity="1" fill="#cdcdcd"></path><path id="SvgjsPath1201" d="M 0 0L 201.77777777777783 0L 217.77777777777783 16L 217.77777777777783 221.1111111111111L 0 221.1111111111111L 0 0Z" stroke="none" fill="none"></path><g id="SvgjsG1202"><text id="SvgjsText1203" font-family="微软雅黑" text-anchor="middle" font-size="17px" width="198px" fill="#323232" font-weight="700" align="middle" anchor="middle" family="微软雅黑" size="17px" weight="700" font-style="" opacity="1" y="76.50555555555555" transform="rotate(0)"><tspan id="SvgjsTspan1204" dy="21" x="109"><tspan id="SvgjsTspan1205" style="text-decoration:;">数据被缓存到Worker节</tspan></tspan><tspan id="SvgjsTspan1206" dy="21" x="109"><tspan id="SvgjsTspan1207" style="text-decoration:;">点，所有的Task共享该数</tspan></tspan><tspan id="SvgjsTspan1208" dy="21" x="109"><tspan id="SvgjsTspan1209" style="text-decoration:;">据</tspan></tspan></text></g></g><g id="SvgjsG1210" transform="translate(253.40625000000017,187.53819444444449)"><path id="SvgjsPath1211" d="M 0 0L 120 0L 120 40L 0 40Z" stroke="none" fill="none"></path><g id="SvgjsG1212"><text id="SvgjsText1213" font-family="微软雅黑" text-anchor="middle" font-size="15px" width="120px" fill="#323232" font-weight="700" align="middle" anchor="middle" family="微软雅黑" size="15px" weight="700" font-style="" opacity="1" y="8.25" transform="rotate(0)"><tspan id="SvgjsTspan1214" dy="18" x="60"><tspan id="SvgjsTspan1215" style="text-decoration:;">传输</tspan></tspan></text></g></g><g id="SvgjsG1216" transform="translate(254.51736111111148,543.0937500000001)"><path id="SvgjsPath1217" d="M 0 0L 120 0L 120 40L 0 40Z" stroke="none" fill="none"></path><g id="SvgjsG1218"><text id="SvgjsText1219" font-family="微软雅黑" text-anchor="middle" font-size="15px" width="120px" fill="#323232" font-weight="700" align="middle" anchor="middle" family="微软雅黑" size="15px" weight="700" font-style="" opacity="1" y="8.25" transform="rotate(0)"><tspan id="SvgjsTspan1220" dy="18" x="60"><tspan id="SvgjsTspan1221" style="text-decoration:;">传输</tspan></tspan></text></g></g></svg>