<svg id="SvgjsSvg1006" width="1238.5" height="701" xmlns="http://www.w3.org/2000/svg" version="1.1" xmlns:xlink="http://www.w3.org/1999/xlink" xmlns:svgjs="http://svgjs.com/svgjs"><defs id="SvgjsDefs1007"><marker id="SvgjsMarker1028" markerWidth="16" markerHeight="12" refX="16" refY="6" viewBox="0 0 16 12" orient="auto" markerUnits="userSpaceOnUse" stroke-dasharray="0,0"><path id="SvgjsPath1029" d="M0,2 L14,6 L0,11 L0,2" fill="#323232" stroke="#323232" stroke-width="2"></path></marker><marker id="SvgjsMarker1038" markerWidth="16" markerHeight="12" refX="16" refY="6" viewBox="0 0 16 12" orient="auto" markerUnits="userSpaceOnUse" stroke-dasharray="0,0"><path id="SvgjsPath1039" d="M0,2 L14,6 L0,11 L0,2" fill="#323232" stroke="#323232" stroke-width="2"></path></marker><marker id="SvgjsMarker1054" markerWidth="16" markerHeight="12" refX="16" refY="6" viewBox="0 0 16 12" orient="auto" markerUnits="userSpaceOnUse" stroke-dasharray="0,0"><path id="SvgjsPath1055" d="M0,2 L14,6 L0,11 L0,2" fill="#323232" stroke="#323232" stroke-width="2"></path></marker><marker id="SvgjsMarker1070" markerWidth="16" markerHeight="12" refX="16" refY="6" viewBox="0 0 16 12" orient="auto" markerUnits="userSpaceOnUse" stroke-dasharray="0,0"><path id="SvgjsPath1071" d="M0,2 L14,6 L0,11 L0,2" fill="#323232" stroke="#323232" stroke-width="2"></path></marker><marker id="SvgjsMarker1084" markerWidth="16" markerHeight="12" refX="16" refY="6" viewBox="0 0 16 12" orient="auto" markerUnits="userSpaceOnUse" stroke-dasharray="0,0"><path id="SvgjsPath1085" d="M0,2 L14,6 L0,11 L0,2" fill="#323232" stroke="#323232" stroke-width="2"></path></marker></defs><g id="SvgjsG1008" transform="translate(264,25)"><path id="SvgjsPath1009" d="M 0 51C 0 -17 107 -17 107 51C 107 119 0 119 0 51Z" stroke="rgba(50,50,50,1)" stroke-width="2" fill-opacity="1" fill="#ccff99"></path><g id="SvgjsG1010"><text id="SvgjsText1011" font-family="微软雅黑" text-anchor="middle" font-size="15px" width="87px" fill="#323232" font-weight="700" align="middle" anchor="middle" family="微软雅黑" size="15px" weight="700" font-style="" opacity="1" y="39.25" transform="rotate(0)"><tspan id="SvgjsTspan1012" dy="18" x="53.5"><tspan id="SvgjsTspan1013" style="text-decoration:;">Driver</tspan></tspan></text></g></g><g id="SvgjsG1014" transform="translate(482,30.5)"><path id="SvgjsPath1015" d="M 0 4Q 0 0 4 0L 131 0Q 135 0 135 4L 135 87Q 135 91 131 91L 4 91Q 0 91 0 87Z" stroke="rgba(50,50,50,1)" stroke-width="2" fill-opacity="1" fill="#e6ffcc"></path><g id="SvgjsG1016"><text id="SvgjsText1017" font-family="微软雅黑" text-anchor="middle" font-size="15px" width="115px" fill="#323232" font-weight="700" align="middle" anchor="middle" family="微软雅黑" size="15px" weight="700" font-style="" opacity="1" y="33.75" transform="rotate(0)"><tspan id="SvgjsTspan1018" dy="18" x="67.5"><tspan id="SvgjsTspan1019" style="text-decoration:;">SparkContext</tspan></tspan></text></g></g><g id="SvgjsG1020" transform="translate(713,30.5)"><path id="SvgjsPath1021" d="M 0 4Q 0 0 4 0L 142 0Q 146 0 146 4L 146 87Q 146 91 142 91L 4 91Q 0 91 0 87Z" stroke="rgba(50,50,50,1)" stroke-width="2" fill-opacity="1" fill="#ccffe6"></path><g id="SvgjsG1022"><text id="SvgjsText1023" font-family="微软雅黑" text-anchor="middle" font-size="15px" width="126px" fill="#323232" font-weight="700" align="middle" anchor="middle" family="微软雅黑" size="15px" weight="700" font-style="" opacity="1" y="33.75" transform="rotate(0)"><tspan id="SvgjsTspan1024" dy="18" x="73"><tspan id="SvgjsTspan1025" style="text-decoration:;">DAGScheduler</tspan></tspan></text></g></g><g id="SvgjsG1026"><path id="SvgjsPath1027" d="M371 76L426.5 76L426.5 76L482 76" stroke="#323232" stroke-width="2" fill="none" marker-end="url(#SvgjsMarker1028)"></path><rect id="SvgjsRect1030" width="69" height="32" x="392" y="60" fill="#ffffff"></rect><text id="SvgjsText1031" font-family="微软雅黑" text-anchor="middle" font-size="13px" width="69px" fill="#323232" font-weight="700" align="top" anchor="middle" family="微软雅黑" size="13px" weight="700" font-style="" opacity="1" y="58.05" transform="rotate(0)"><tspan id="SvgjsTspan1032" dy="16" x="426.5"><tspan id="SvgjsTspan1033" style="text-decoration:;">触发Action</tspan></tspan><tspan id="SvgjsTspan1034" dy="16" x="426.5"><tspan id="SvgjsTspan1035" style="text-decoration:;">Run Job</tspan></tspan></text></g><g id="SvgjsG1036"><path id="SvgjsPath1037" d="M617 76L665 76L665 76L713 76" stroke="#323232" stroke-width="2" fill="none" marker-end="url(#SvgjsMarker1038)"></path><rect id="SvgjsRect1040" width="53" height="32" x="638.5" y="60" fill="#ffffff"></rect><text id="SvgjsText1041" font-family="微软雅黑" text-anchor="middle" font-size="13px" width="53px" fill="#323232" font-weight="700" align="top" anchor="middle" family="微软雅黑" size="13px" weight="700" font-style="" opacity="1" y="58.05" transform="rotate(0)"><tspan id="SvgjsTspan1042" dy="16" x="665"><tspan id="SvgjsTspan1043" style="text-decoration:;">提交Job</tspan></tspan><tspan id="SvgjsTspan1044" dy="16" x="665"><tspan id="SvgjsTspan1045" style="text-decoration:;">Run Job</tspan></tspan></text></g><g id="SvgjsG1046" transform="translate(1041,30.5)"><path id="SvgjsPath1047" d="M 0 4Q 0 0 4 0L 146 0Q 150 0 150 4L 150 87Q 150 91 146 91L 4 91Q 0 91 0 87Z" stroke="rgba(50,50,50,1)" stroke-width="2" fill-opacity="1" fill="#cce5ff"></path><g id="SvgjsG1048"><text id="SvgjsText1049" font-family="微软雅黑" text-anchor="middle" font-size="15px" width="130px" fill="#323232" font-weight="700" align="middle" anchor="middle" family="微软雅黑" size="15px" weight="700" font-style="" opacity="1" y="33.75" transform="rotate(0)"><tspan id="SvgjsTspan1050" dy="18" x="75"><tspan id="SvgjsTspan1051" style="text-decoration:;">TaskScheduler</tspan></tspan></text></g></g><g id="SvgjsG1052"><path id="SvgjsPath1053" d="M859 76L950 76L950 76L1041 76" stroke="#323232" stroke-width="2" fill="none" marker-end="url(#SvgjsMarker1054)"></path><rect id="SvgjsRect1056" width="119" height="32" x="890.5" y="60" fill="#ffffff"></rect><text id="SvgjsText1057" font-family="微软雅黑" text-anchor="middle" font-size="13px" width="119px" fill="#323232" font-weight="700" align="top" anchor="middle" family="微软雅黑" size="13px" weight="700" font-style="" opacity="1" y="58.05" transform="rotate(0)"><tspan id="SvgjsTspan1058" dy="16" x="950"><tspan id="SvgjsTspan1059" style="text-decoration:;">把Stage划分成Task</tspan></tspan><tspan id="SvgjsTspan1060" dy="16" x="950"><tspan id="SvgjsTspan1061" style="text-decoration:;">Submit tasks</tspan></tspan></text></g><g id="SvgjsG1062" transform="translate(585,219)"><path id="SvgjsPath1063" d="M 0 4Q 0 0 4 0L 158 0Q 162 0 162 4L 162 75Q 162 79 158 79L 4 79Q 0 79 0 75Z" stroke="rgba(50,50,50,1)" stroke-width="2" fill-opacity="1" fill="#e5ccff"></path><g id="SvgjsG1064"><text id="SvgjsText1065" font-family="微软雅黑" text-anchor="middle" font-size="15px" width="142px" fill="#323232" font-weight="700" align="middle" anchor="middle" family="微软雅黑" size="15px" weight="700" font-style="" opacity="1" y="27.75" transform="rotate(0)"><tspan id="SvgjsTspan1066" dy="18" x="81"><tspan id="SvgjsTspan1067" style="text-decoration:;">SchedulerBackend</tspan></tspan></text></g></g><g id="SvgjsG1068"><path id="SvgjsPath1069" d="M1116 121.5L666 219" stroke="#323232" stroke-width="2" fill="none" marker-end="url(#SvgjsMarker1070)"></path><rect id="SvgjsRect1072" width="188" height="16" x="797" y="162.25" fill="#ffffff"></rect><text id="SvgjsText1073" font-family="微软雅黑" text-anchor="middle" font-size="13px" width="188px" fill="#323232" font-weight="700" align="top" anchor="middle" family="微软雅黑" size="13px" weight="700" font-style="" opacity="1" y="160.3" transform="rotate(0)"><tspan id="SvgjsTspan1074" dy="16" x="891"><tspan id="SvgjsTspan1075" style="text-decoration:;">把Task添加到队列reviveOffers</tspan></tspan></text></g><g id="SvgjsG1076" transform="translate(562.75,520)"><path id="SvgjsPath1077" d="M 0 61.5L 103.25 0L 206.5 61.5L 103.25 123Z" stroke="rgba(50,50,50,1)" stroke-width="2" fill-opacity="1" fill="#ff9999"></path><g id="SvgjsG1078"><text id="SvgjsText1079" font-family="微软雅黑" text-anchor="middle" font-size="15px" width="187px" fill="#323232" font-weight="700" align="middle" anchor="middle" family="微软雅黑" size="15px" weight="700" font-style="" opacity="1" y="50.365" transform="rotate(0)"><tspan id="SvgjsTspan1080" dy="18" x="103.5"><tspan id="SvgjsTspan1081" style="text-decoration:;">ExecutorBackend</tspan></tspan></text></g></g><g id="SvgjsG1082"><path id="SvgjsPath1083" d="M666 298L666 520" stroke="#323232" stroke-width="2" fill="none" marker-end="url(#SvgjsMarker1084)"></path><rect id="SvgjsRect1086" width="165" height="32" x="583.5" y="393" fill="#ffffff"></rect><text id="SvgjsText1087" font-family="微软雅黑" text-anchor="middle" font-size="13px" width="165px" fill="#323232" font-weight="700" align="top" anchor="middle" family="微软雅黑" size="13px" weight="700" font-style="" opacity="1" y="391.05" transform="rotate(0)"><tspan id="SvgjsTspan1088" dy="16" x="666"><tspan id="SvgjsTspan1089" style="text-decoration:;">调度Task给指定的Executor</tspan></tspan><tspan id="SvgjsTspan1090" dy="16" x="666"><tspan id="SvgjsTspan1091" style="text-decoration:;">LaunchTask</tspan></tspan></text></g><g id="SvgjsG1092" transform="translate(118.5,326)"><path id="SvgjsPath1093" d="M 0 6.6000000000000005L 1085 6.6000000000000005L 1085 0L 1095 10L 1085 20L 1085 13.4L 0 13.4L 0 6.6000000000000005Z" stroke="rgba(23,23,23,1)" stroke-width="2" fill-opacity="1" fill="#ffcccc"></path><g id="SvgjsG1094"><text id="SvgjsText1095" font-family="微软雅黑" text-anchor="middle" font-size="13px" width="1095px" fill="#323232" font-weight="400" align="middle" anchor="middle" family="微软雅黑" size="13px" weight="400" font-style="" opacity="1" y="0.05000000000000093" transform="rotate(0)"></text></g></g><g id="SvgjsG1096" transform="translate(25,38)"><path id="SvgjsPath1097" d="M 118 0Q 109 0 109 9L 109 135Q 109 144 96 144Q 109 144 109 153L 109 279Q 109 288 118 288" stroke="rgba(50,50,50,1)" stroke-width="2" fill="none"></path><path id="SvgjsPath1098" d="M 0 0L 118 0L 118 288L 0 288Z" stroke="none" fill="none"></path><g id="SvgjsG1099"><text id="SvgjsText1100" font-family="微软雅黑" text-anchor="end" font-size="19px" width="91px" fill="#323232" font-weight="700" align="middle" anchor="end" family="微软雅黑" size="19px" weight="700" font-style="" opacity="1" y="129.15" transform="rotate(0)"><tspan id="SvgjsTspan1101" dy="23" x="91"><tspan id="SvgjsTspan1102" style="text-decoration:;">Driver</tspan></tspan></text></g></g><g id="SvgjsG1103" transform="translate(39,350)"><path id="SvgjsPath1104" d="M 101 0Q 92 0 92 9L 92 154Q 92 163 79 163Q 92 163 92 172L 92 317Q 92 326 101 326" stroke="rgba(50,50,50,1)" stroke-width="2" fill="none"></path><path id="SvgjsPath1105" d="M 0 0L 101 0L 101 326L 0 326Z" stroke="none" fill="none"></path><g id="SvgjsG1106"><text id="SvgjsText1107" font-family="微软雅黑" text-anchor="end" font-size="17px" width="74px" fill="#323232" font-weight="700" align="middle" anchor="end" family="微软雅黑" size="17px" weight="700" font-style="" opacity="1" y="149.95" transform="rotate(0)"><tspan id="SvgjsTspan1108" dy="21" x="74"><tspan id="SvgjsTspan1109" style="text-decoration:;">Worker</tspan></tspan></text></g></g></svg>