<svg id="SvgjsSvg1271" width="873" height="599.3125" xmlns="http://www.w3.org/2000/svg" version="1.1" xmlns:xlink="http://www.w3.org/1999/xlink" xmlns:svgjs="http://svgjs.com/svgjs"><defs id="SvgjsDefs1272"><marker id="SvgjsMarker1367" markerWidth="16" markerHeight="12" refX="16" refY="6" viewBox="0 0 16 12" orient="auto" markerUnits="userSpaceOnUse" stroke-dasharray="0,0"><path id="SvgjsPath1368" d="M0,2 L14,6 L0,11 L0,2" fill="#323232" stroke="#323232" stroke-width="2"></path></marker><marker id="SvgjsMarker1371" markerWidth="16" markerHeight="12" refX="16" refY="6" viewBox="0 0 16 12" orient="auto" markerUnits="userSpaceOnUse" stroke-dasharray="0,0"><path id="SvgjsPath1372" d="M0,2 L14,6 L0,11 L0,2" fill="#323232" stroke="#323232" stroke-width="2"></path></marker><marker id="SvgjsMarker1375" markerWidth="16" markerHeight="12" refX="16" refY="6" viewBox="0 0 16 12" orient="auto" markerUnits="userSpaceOnUse" stroke-dasharray="0,0"><path id="SvgjsPath1376" d="M0,2 L14,6 L0,11 L0,2" fill="#323232" stroke="#323232" stroke-width="2"></path></marker><marker id="SvgjsMarker1379" markerWidth="16" markerHeight="12" refX="16" refY="6" viewBox="0 0 16 12" orient="auto" markerUnits="userSpaceOnUse" stroke-dasharray="0,0"><path id="SvgjsPath1380" d="M0,2 L14,6 L0,11 L0,2" fill="#323232" stroke="#323232" stroke-width="2"></path></marker><marker id="SvgjsMarker1383" markerWidth="16" markerHeight="12" refX="16" refY="6" viewBox="0 0 16 12" orient="auto" markerUnits="userSpaceOnUse" stroke-dasharray="0,0"><path id="SvgjsPath1384" d="M0,2 L14,6 L0,11 L0,2" fill="#323232" stroke="#323232" stroke-width="2"></path></marker><marker id="SvgjsMarker1387" markerWidth="16" markerHeight="12" refX="16" refY="6" viewBox="0 0 16 12" orient="auto" markerUnits="userSpaceOnUse" stroke-dasharray="0,0"><path id="SvgjsPath1388" d="M0,2 L14,6 L0,11 L0,2" fill="#323232" stroke="#323232" stroke-width="2"></path></marker><marker id="SvgjsMarker1391" markerWidth="16" markerHeight="12" refX="16" refY="6" viewBox="0 0 16 12" orient="auto" markerUnits="userSpaceOnUse" stroke-dasharray="0,0"><path id="SvgjsPath1392" d="M0,2 L14,6 L0,11 L0,2" fill="#323232" stroke="#323232" stroke-width="2"></path></marker><marker id="SvgjsMarker1395" markerWidth="16" markerHeight="12" refX="16" refY="6" viewBox="0 0 16 12" orient="auto" markerUnits="userSpaceOnUse" stroke-dasharray="0,0"><path id="SvgjsPath1396" d="M0,2 L14,6 L0,11 L0,2" fill="#323232" stroke="#323232" stroke-width="2"></path></marker><marker id="SvgjsMarker1399" markerWidth="16" markerHeight="12" refX="16" refY="6" viewBox="0 0 16 12" orient="auto" markerUnits="userSpaceOnUse" stroke-dasharray="0,0"><path id="SvgjsPath1400" d="M0,2 L14,6 L0,11 L0,2" fill="#323232" stroke="#323232" stroke-width="2"></path></marker><marker id="SvgjsMarker1403" markerWidth="16" markerHeight="12" refX="16" refY="6" viewBox="0 0 16 12" orient="auto" markerUnits="userSpaceOnUse" stroke-dasharray="0,0"><path id="SvgjsPath1404" d="M0,2 L14,6 L0,11 L0,2" fill="#323232" stroke="#323232" stroke-width="2"></path></marker><marker id="SvgjsMarker1407" markerWidth="16" markerHeight="12" refX="16" refY="6" viewBox="0 0 16 12" orient="auto" markerUnits="userSpaceOnUse" stroke-dasharray="0,0"><path id="SvgjsPath1408" d="M0,2 L14,6 L0,11 L0,2" fill="#323232" stroke="#323232" stroke-width="2"></path></marker><marker id="SvgjsMarker1411" markerWidth="16" markerHeight="12" refX="16" refY="6" viewBox="0 0 16 12" orient="auto" markerUnits="userSpaceOnUse" stroke-dasharray="0,0"><path id="SvgjsPath1412" d="M0,2 L14,6 L0,11 L0,2" fill="#323232" stroke="#323232" stroke-width="2"></path></marker><marker id="SvgjsMarker1415" markerWidth="16" markerHeight="12" refX="16" refY="6" viewBox="0 0 16 12" orient="auto" markerUnits="userSpaceOnUse" stroke-dasharray="0,0"><path id="SvgjsPath1416" d="M0,2 L14,6 L0,11 L0,2" fill="#323232" stroke="#323232" stroke-width="2"></path></marker><marker id="SvgjsMarker1419" markerWidth="16" markerHeight="12" refX="16" refY="6" viewBox="0 0 16 12" orient="auto" markerUnits="userSpaceOnUse" stroke-dasharray="0,0"><path id="SvgjsPath1420" d="M0,2 L14,6 L0,11 L0,2" fill="#323232" stroke="#323232" stroke-width="2"></path></marker></defs><g id="SvgjsG1273" transform="translate(25,278.5124969482422)"><path id="SvgjsPath1274" d="M 0 4Q 0 0 4 0L 90 0Q 94 0 94 4L 94 110Q 94 114 90 114L 4 114Q 0 114 0 110Z" stroke="rgba(50,50,50,1)" stroke-width="2" fill-opacity="1" fill="#00cc00"></path><g id="SvgjsG1275"><text id="SvgjsText1276" font-family="微软雅黑" text-anchor="middle" font-size="13px" width="74px" fill="#323232" font-weight="400" align="middle" anchor="middle" family="微软雅黑" size="13px" weight="400" font-style="" opacity="1" y="39.05" transform="rotate(0)"><tspan id="SvgjsTspan1277" dy="16" x="47"><tspan id="SvgjsTspan1278" style="text-decoration:;">RDD</tspan></tspan><tspan id="SvgjsTspan1279" dy="16" x="47"><tspan id="SvgjsTspan1280" style="text-decoration:;">Operations</tspan></tspan></text></g></g><g id="SvgjsG1281" transform="translate(194,49.51249694824219)"><path id="SvgjsPath1282" d="M 0 4Q 0 0 4 0L 111 0Q 115 0 115 4L 115 35Q 115 39 111 39L 4 39Q 0 39 0 35Z" stroke="rgba(50,50,50,1)" stroke-width="2" fill-opacity="1" fill="#ffffcc"></path><g id="SvgjsG1283"><text id="SvgjsText1284" font-family="微软雅黑" text-anchor="middle" font-size="13px" width="95px" fill="#323232" font-weight="400" align="middle" anchor="middle" family="微软雅黑" size="13px" weight="400" font-style="" opacity="1" y="9.55" transform="rotate(0)"><tspan id="SvgjsTspan1285" dy="16" x="57.5"><tspan id="SvgjsTspan1286" style="text-decoration:;">分区操作函数</tspan></tspan></text></g></g><g id="SvgjsG1287" transform="translate(194,182.3125)"><path id="SvgjsPath1288" d="M 0 4Q 0 0 4 0L 111 0Q 115 0 115 4L 115 35Q 115 39 111 39L 4 39Q 0 39 0 35Z" stroke="rgba(50,50,50,1)" stroke-width="2" fill-opacity="1" fill="#ccff99"></path><g id="SvgjsG1289"><text id="SvgjsText1290" font-family="微软雅黑" text-anchor="middle" font-size="13px" width="95px" fill="#323232" font-weight="400" align="middle" anchor="middle" family="微软雅黑" size="13px" weight="400" font-style="" opacity="1" y="9.55" transform="rotate(0)"><tspan id="SvgjsTspan1291" dy="16" x="57.5"><tspan id="SvgjsTspan1292" style="text-decoration:;">重分区函数</tspan></tspan></text></g></g><g id="SvgjsG1293" transform="translate(190,395.3125)"><path id="SvgjsPath1294" d="M 0 4Q 0 0 4 0L 111 0Q 115 0 115 4L 115 35Q 115 39 111 39L 4 39Q 0 39 0 35Z" stroke="rgba(50,50,50,1)" stroke-width="2" fill-opacity="1" fill="#66ffb3"></path><g id="SvgjsG1295"><text id="SvgjsText1296" font-family="微软雅黑" text-anchor="middle" font-size="13px" width="95px" fill="#323232" font-weight="400" align="middle" anchor="middle" family="微软雅黑" size="13px" weight="400" font-style="" opacity="1" y="9.55" transform="rotate(0)"><tspan id="SvgjsTspan1297" dy="16" x="57.5"><tspan id="SvgjsTspan1298" style="text-decoration:;">聚合函数</tspan></tspan></text></g></g><g id="SvgjsG1299" transform="translate(194,531.5124969482422)"><path id="SvgjsPath1300" d="M 0 4Q 0 0 4 0L 111 0Q 115 0 115 4L 115 35Q 115 39 111 39L 4 39Q 0 39 0 35Z" stroke="rgba(50,50,50,1)" stroke-width="2" fill-opacity="1" fill="#99ffff"></path><g id="SvgjsG1301"><text id="SvgjsText1302" font-family="微软雅黑" text-anchor="middle" font-size="13px" width="95px" fill="#323232" font-weight="400" align="middle" anchor="middle" family="微软雅黑" size="13px" weight="400" font-style="" opacity="1" y="9.55" transform="rotate(0)"><tspan id="SvgjsTspan1303" dy="16" x="57.5"><tspan id="SvgjsTspan1304" style="text-decoration:;">关联函数</tspan></tspan></text></g></g><g id="SvgjsG1305" transform="translate(416,25.012496948242188)"><path id="SvgjsPath1306" d="M 0 4Q 0 0 4 0L 203 0Q 207 0 207 4L 207 26Q 207 30 203 30L 4 30Q 0 30 0 26Z" stroke="rgba(50,50,50,1)" stroke-width="2" fill-opacity="1" fill="#ff99ff"></path><g id="SvgjsG1307"><text id="SvgjsText1308" font-family="微软雅黑" text-anchor="middle" font-size="13px" width="187px" fill="#323232" font-weight="400" align="middle" anchor="middle" family="微软雅黑" size="13px" weight="400" font-style="" opacity="1" y="5.05" transform="rotate(0)"><tspan id="SvgjsTspan1309" dy="16" x="103.5"><tspan id="SvgjsTspan1310" style="text-decoration:;">map与MapPartitions</tspan></tspan></text></g></g><g id="SvgjsG1311" transform="translate(416,84.01249694824219)"><path id="SvgjsPath1312" d="M 0 4Q 0 0 4 0L 203 0Q 207 0 207 4L 207 26Q 207 30 203 30L 4 30Q 0 30 0 26Z" stroke="rgba(50,50,50,1)" stroke-width="2" fill-opacity="1" fill="#ff99ff"></path><g id="SvgjsG1313"><text id="SvgjsText1314" font-family="微软雅黑" text-anchor="middle" font-size="13px" width="187px" fill="#323232" font-weight="400" align="middle" anchor="middle" family="微软雅黑" size="13px" weight="400" font-style="" opacity="1" y="5.05" transform="rotate(0)"><tspan id="SvgjsTspan1315" dy="16" x="103.5"><tspan id="SvgjsTspan1316" style="text-decoration:;">foreach和foreachPartition</tspan></tspan></text></g></g><g id="SvgjsG1317" transform="translate(416,140.5124969482422)"><path id="SvgjsPath1318" d="M 0 4Q 0 0 4 0L 103 0Q 107 0 107 4L 107 29Q 107 33 103 33L 4 33Q 0 33 0 29Z" stroke="rgba(50,50,50,1)" stroke-width="2" fill-opacity="1" fill="#ccccff"></path><g id="SvgjsG1319"><text id="SvgjsText1320" font-family="微软雅黑" text-anchor="middle" font-size="13px" width="87px" fill="#323232" font-weight="400" align="middle" anchor="middle" family="微软雅黑" size="13px" weight="400" font-style="" opacity="1" y="6.55" transform="rotate(0)"><tspan id="SvgjsTspan1321" dy="16" x="53.5"><tspan id="SvgjsTspan1322" style="text-decoration:;">repartition</tspan></tspan></text></g></g><g id="SvgjsG1323" transform="translate(416,185.3125)"><path id="SvgjsPath1324" d="M 0 4Q 0 0 4 0L 103 0Q 107 0 107 4L 107 29Q 107 33 103 33L 4 33Q 0 33 0 29Z" stroke="rgba(50,50,50,1)" stroke-width="2" fill-opacity="1" fill="#ccccff"></path><g id="SvgjsG1325"><text id="SvgjsText1326" font-family="微软雅黑" text-anchor="middle" font-size="13px" width="87px" fill="#323232" font-weight="400" align="middle" anchor="middle" family="微软雅黑" size="13px" weight="400" font-style="" opacity="1" y="6.55" transform="rotate(0)"><tspan id="SvgjsTspan1327" dy="16" x="53.5"><tspan id="SvgjsTspan1328" style="text-decoration:;">coalesce</tspan></tspan></text></g></g><g id="SvgjsG1329" transform="translate(416,226.3125)"><path id="SvgjsPath1330" d="M 0 4Q 0 0 4 0L 103 0Q 107 0 107 4L 107 29Q 107 33 103 33L 4 33Q 0 33 0 29Z" stroke="rgba(50,50,50,1)" stroke-width="2" fill-opacity="1" fill="#ccccff"></path><g id="SvgjsG1331"><text id="SvgjsText1332" font-family="微软雅黑" text-anchor="middle" font-size="13px" width="87px" fill="#323232" font-weight="400" align="middle" anchor="middle" family="微软雅黑" size="13px" weight="400" font-style="" opacity="1" y="6.55" transform="rotate(0)"><tspan id="SvgjsTspan1333" dy="16" x="53.5"><tspan id="SvgjsTspan1334" style="text-decoration:;">partitionBy</tspan></tspan></text></g></g><g id="SvgjsG1335" transform="translate(416,324.9124984741211)"><path id="SvgjsPath1336" d="M 0 4Q 0 0 4 0L 164 0Q 168 0 168 4L 168 34.80000305175781Q 168 38.80000305175781 164 38.80000305175781L 4 38.80000305175781Q 0 38.80000305175781 0 34.80000305175781Z" stroke="rgba(50,50,50,1)" stroke-width="2" fill-opacity="1" fill="#ffcc99"></path><g id="SvgjsG1337"><text id="SvgjsText1338" font-family="微软雅黑" text-anchor="middle" font-size="13px" width="148px" fill="#323232" font-weight="400" align="middle" anchor="middle" family="微软雅黑" size="13px" weight="400" font-style="" opacity="1" y="9.450001525878907" transform="rotate(0)"><tspan id="SvgjsTspan1339" dy="16" x="84"><tspan id="SvgjsTspan1340" style="text-decoration:;">reduce/fold/aggregate</tspan></tspan></text></g></g><g id="SvgjsG1341" transform="translate(416,371.9124984741211)"><path id="SvgjsPath1342" d="M 0 4Q 0 0 4 0L 187 0Q 191 0 191 4L 191 31.800003051757812Q 191 35.80000305175781 187 35.80000305175781L 4 35.80000305175781Q 0 35.80000305175781 0 31.800003051757812Z" stroke="rgba(50,50,50,1)" stroke-width="2" fill-opacity="1" fill="#ffcc99"></path><g id="SvgjsG1343"><text id="SvgjsText1344" font-family="微软雅黑" text-anchor="middle" font-size="13px" width="171px" fill="#323232" font-weight="400" align="middle" anchor="middle" family="微软雅黑" size="13px" weight="400" font-style="" opacity="1" y="7.950001525878906" transform="rotate(0)"><tspan id="SvgjsTspan1345" dy="16" x="95.5"><tspan id="SvgjsTspan1346" style="text-decoration:;">reduceTree/aggregateTree</tspan></tspan></text></g></g><g id="SvgjsG1347" transform="translate(416,421.9124984741211)"><path id="SvgjsPath1348" d="M 0 4Q 0 0 4 0L 251 0Q 255 0 255 4L 255 33.80000305175781Q 255 37.80000305175781 251 37.80000305175781L 4 37.80000305175781Q 0 37.80000305175781 0 33.80000305175781Z" stroke="rgba(50,50,50,1)" stroke-width="2" fill-opacity="1" fill="#ffcc99"></path><g id="SvgjsG1349"><text id="SvgjsText1350" font-family="微软雅黑" text-anchor="middle" font-size="13px" width="235px" fill="#323232" font-weight="400" align="middle" anchor="middle" family="微软雅黑" size="13px" weight="400" font-style="" opacity="1" y="8.950001525878907" transform="rotate(0)"><tspan id="SvgjsTspan1351" dy="16" x="127.5"><tspan id="SvgjsTspan1352" style="text-decoration:;">groupByKey/reduceByKey/foldBykey</tspan></tspan></text></g></g><g id="SvgjsG1353" transform="translate(416,468.9124984741211)"><path id="SvgjsPath1354" d="M 0 4Q 0 0 4 0L 223 0Q 227 0 227 4L 227 31.800003051757812Q 227 35.80000305175781 223 35.80000305175781L 4 35.80000305175781Q 0 35.80000305175781 0 31.800003051757812Z" stroke="rgba(50,50,50,1)" stroke-width="2" fill-opacity="1" fill="#ffcc99"></path><g id="SvgjsG1355"><text id="SvgjsText1356" font-family="微软雅黑" text-anchor="middle" font-size="13px" width="207px" fill="#323232" font-weight="400" align="middle" anchor="middle" family="微软雅黑" size="13px" weight="400" font-style="" opacity="1" y="7.950001525878906" transform="rotate(0)"><tspan id="SvgjsTspan1357" dy="16" x="113.5"><tspan id="SvgjsTspan1358" style="text-decoration:;">aggregateByKey/combineByKey</tspan></tspan></text></g></g><g id="SvgjsG1359" transform="translate(416,528.3125)"><path id="SvgjsPath1360" d="M 0 4Q 0 0 4 0L 230 0Q 234 0 234 4L 234 41.399993896484375Q 234 45.399993896484375 230 45.399993896484375L 4 45.399993896484375Q 0 45.399993896484375 0 41.399993896484375Z" stroke="rgba(50,50,50,1)" stroke-width="2" fill-opacity="1" fill="#ff9999"></path><g id="SvgjsG1361"><text id="SvgjsText1362" font-family="微软雅黑" text-anchor="middle" font-size="13px" width="214px" fill="#323232" font-weight="400" align="middle" anchor="middle" family="微软雅黑" size="13px" weight="400" font-style="" opacity="1" y="12.749996948242188" transform="rotate(0)"><tspan id="SvgjsTspan1363" dy="16" x="117"><tspan id="SvgjsTspan1364" style="text-decoration:;">join/leftJoin/rightJoin</tspan></tspan></text></g></g><g id="SvgjsG1365"><path id="SvgjsPath1366" d="M119 335.5124969482422L194 69.01249694824219" stroke="#323232" stroke-width="2" fill="none" marker-end="url(#SvgjsMarker1367)"></path></g><g id="SvgjsG1369"><path id="SvgjsPath1370" d="M119 335.5124969482422L194 201.8125" stroke="#323232" stroke-width="2" fill="none" marker-end="url(#SvgjsMarker1371)"></path></g><g id="SvgjsG1373"><path id="SvgjsPath1374" d="M119 335.5124969482422L190 414.8125" stroke="#323232" stroke-width="2" fill="none" marker-end="url(#SvgjsMarker1375)"></path></g><g id="SvgjsG1377"><path id="SvgjsPath1378" d="M119 335.5124969482422L194 551.0124969482422" stroke="#323232" stroke-width="2" fill="none" marker-end="url(#SvgjsMarker1379)"></path></g><g id="SvgjsG1381"><path id="SvgjsPath1382" d="M309 69.01249694824219L416 40.01249694824219" stroke="#323232" stroke-width="2" fill="none" marker-end="url(#SvgjsMarker1383)"></path></g><g id="SvgjsG1385"><path id="SvgjsPath1386" d="M309 69.01249694824219L416 99.01249694824219" stroke="#323232" stroke-width="2" fill="none" marker-end="url(#SvgjsMarker1387)"></path></g><g id="SvgjsG1389"><path id="SvgjsPath1390" d="M309 201.8125L416 157.0124969482422" stroke="#323232" stroke-width="2" fill="none" marker-end="url(#SvgjsMarker1391)"></path></g><g id="SvgjsG1393"><path id="SvgjsPath1394" d="M309 201.8125L416 201.8125" stroke="#323232" stroke-width="2" fill="none" marker-end="url(#SvgjsMarker1395)"></path></g><g id="SvgjsG1397"><path id="SvgjsPath1398" d="M309 201.8125L416 242.8125" stroke="#323232" stroke-width="2" fill="none" marker-end="url(#SvgjsMarker1399)"></path></g><g id="SvgjsG1401"><path id="SvgjsPath1402" d="M305 414.8125L416 344.3125" stroke="#323232" stroke-width="2" fill="none" marker-end="url(#SvgjsMarker1403)"></path></g><g id="SvgjsG1405"><path id="SvgjsPath1406" d="M305 414.8125L416 389.8125" stroke="#323232" stroke-width="2" fill="none" marker-end="url(#SvgjsMarker1407)"></path></g><g id="SvgjsG1409"><path id="SvgjsPath1410" d="M305 414.8125L416 440.8125" stroke="#323232" stroke-width="2" fill="none" marker-end="url(#SvgjsMarker1411)"></path></g><g id="SvgjsG1413"><path id="SvgjsPath1414" d="M305 414.8125L416 486.8125" stroke="#323232" stroke-width="2" fill="none" marker-end="url(#SvgjsMarker1415)"></path></g><g id="SvgjsG1417"><path id="SvgjsPath1418" d="M309 551.0124969482422L416 551.0124969482422" stroke="#323232" stroke-width="2" fill="none" marker-end="url(#SvgjsMarker1419)"></path></g><g id="SvgjsG1421" transform="translate(639,25.012496948242188)"><path id="SvgjsPath1422" d="M 0 0L 96 0L 112 16L 112 27.699996948242188L 0 27.699996948242188L 0 0Z" stroke="none" fill-opacity="1" fill="#ffffaa"></path><path id="SvgjsPath1423" d="M 96 0L 96 16L 112 16Z" stroke="none" fill-opacity="1" fill="#cdcdcd"></path><path id="SvgjsPath1424" d="M 0 0L 96 0L 112 16L 112 27.699996948242188L 0 27.699996948242188L 0 0Z" stroke="none" fill="none"></path><g id="SvgjsG1425"><text id="SvgjsText1426" font-family="微软雅黑" text-anchor="middle" font-size="13px" width="92px" fill="#323232" font-weight="400" align="middle" anchor="middle" family="微软雅黑" size="13px" weight="400" font-style="" opacity="1" y="3.8999984741210936" transform="rotate(0)"><tspan id="SvgjsTspan1427" dy="16" x="56"><tspan id="SvgjsTspan1428" style="text-decoration:;">映射函数</tspan></tspan></text></g></g><g id="SvgjsG1429" transform="translate(639,84.01249694824219)"><path id="SvgjsPath1430" d="M 0 0L 96 0L 112 16L 112 27.699996948242188L 0 27.699996948242188L 0 0Z" stroke="none" fill-opacity="1" fill="#ffffaa"></path><path id="SvgjsPath1431" d="M 96 0L 96 16L 112 16Z" stroke="none" fill-opacity="1" fill="#cdcdcd"></path><path id="SvgjsPath1432" d="M 0 0L 96 0L 112 16L 112 27.699996948242188L 0 27.699996948242188L 0 0Z" stroke="none" fill="none"></path><g id="SvgjsG1433"><text id="SvgjsText1434" font-family="微软雅黑" text-anchor="middle" font-size="13px" width="92px" fill="#323232" font-weight="400" align="middle" anchor="middle" family="微软雅黑" size="13px" weight="400" font-style="" opacity="1" y="3.8999984741210936" transform="rotate(0)"><tspan id="SvgjsTspan1435" dy="16" x="56"><tspan id="SvgjsTspan1436" style="text-decoration:;">输出函数</tspan></tspan></text></g></g><g id="SvgjsG1437" transform="translate(545,140.5124969482422)"><path id="SvgjsPath1438" d="M 0 0L 96 0L 112 16L 112 27.699996948242188L 0 27.699996948242188L 0 0Z" stroke="none" fill-opacity="1" fill="#ffffaa"></path><path id="SvgjsPath1439" d="M 96 0L 96 16L 112 16Z" stroke="none" fill-opacity="1" fill="#cdcdcd"></path><path id="SvgjsPath1440" d="M 0 0L 96 0L 112 16L 112 27.699996948242188L 0 27.699996948242188L 0 0Z" stroke="none" fill="none"></path><g id="SvgjsG1441"><text id="SvgjsText1442" font-family="微软雅黑" text-anchor="middle" font-size="13px" width="92px" fill="#323232" font-weight="400" align="middle" anchor="middle" family="微软雅黑" size="13px" weight="400" font-style="" opacity="1" y="3.8999984741210936" transform="rotate(0)"><tspan id="SvgjsTspan1443" dy="16" x="56"><tspan id="SvgjsTspan1444" style="text-decoration:;">增大分区函数</tspan></tspan></text></g></g><g id="SvgjsG1445" transform="translate(550,187.9625015258789)"><path id="SvgjsPath1446" d="M 0 0L 96 0L 112 16L 112 27.699996948242188L 0 27.699996948242188L 0 0Z" stroke="none" fill-opacity="1" fill="#ffffaa"></path><path id="SvgjsPath1447" d="M 96 0L 96 16L 112 16Z" stroke="none" fill-opacity="1" fill="#cdcdcd"></path><path id="SvgjsPath1448" d="M 0 0L 96 0L 112 16L 112 27.699996948242188L 0 27.699996948242188L 0 0Z" stroke="none" fill="none"></path><g id="SvgjsG1449"><text id="SvgjsText1450" font-family="微软雅黑" text-anchor="middle" font-size="13px" width="92px" fill="#323232" font-weight="400" align="middle" anchor="middle" family="微软雅黑" size="13px" weight="400" font-style="" opacity="1" y="3.8999984741210936" transform="rotate(0)"><tspan id="SvgjsTspan1451" dy="16" x="56"><tspan id="SvgjsTspan1452" style="text-decoration:;">减小分区函数</tspan></tspan></text></g></g><g id="SvgjsG1453" transform="translate(550,231.6125030517578)"><path id="SvgjsPath1454" d="M 0 0L 96 0L 112 16L 112 27.699996948242188L 0 27.699996948242188L 0 0Z" stroke="none" fill-opacity="1" fill="#ffffaa"></path><path id="SvgjsPath1455" d="M 96 0L 96 16L 112 16Z" stroke="none" fill-opacity="1" fill="#cdcdcd"></path><path id="SvgjsPath1456" d="M 0 0L 96 0L 112 16L 112 27.699996948242188L 0 27.699996948242188L 0 0Z" stroke="none" fill="none"></path><g id="SvgjsG1457"><text id="SvgjsText1458" font-family="微软雅黑" text-anchor="middle" font-size="13px" width="92px" fill="#323232" font-weight="400" align="middle" anchor="middle" family="微软雅黑" size="13px" weight="400" font-style="" opacity="1" y="3.8999984741210936" transform="rotate(0)"><tspan id="SvgjsTspan1459" dy="16" x="56"><tspan id="SvgjsTspan1460" style="text-decoration:;">调整分区函数</tspan></tspan></text></g></g><g id="SvgjsG1461" transform="translate(682,311.7125015258789)"><path id="SvgjsPath1462" d="M 0 96Q 9 96 9 87L 9 57Q 9 48 22 48Q 9 48 9 39L 9 9Q 9 0 0 0" stroke="rgba(50,50,50,1)" stroke-width="2" fill="none"></path><path id="SvgjsPath1463" d="M 0 0L 114 0L 114 96L 0 96Z" stroke="none" fill="none"></path><g id="SvgjsG1464"><text id="SvgjsText1465" font-family="微软雅黑" text-anchor="start" font-size="13px" width="87px" fill="#323232" font-weight="400" align="middle" anchor="start" family="微软雅黑" size="13px" weight="400" font-style="" opacity="1" y="38.05" transform="rotate(0)"><tspan id="SvgjsTspan1466" dy="16" x="27"><tspan id="SvgjsTspan1467" style="text-decoration:;">基础聚合函数</tspan></tspan></text></g></g><g id="SvgjsG1468" transform="translate(686,416.8125)"><path id="SvgjsPath1469" d="M 0 87.9000015258789Q 9 87.9000015258789 9 79.11000137329101L 9 52.74000091552735Q 9 43.95000076293945 22 43.95000076293945Q 9 43.95000076293945 9 35.16000061035156L 9 8.790000152587892Q 9 0 0 0" stroke="rgba(50,50,50,1)" stroke-width="2" fill="none"></path><path id="SvgjsPath1470" d="M 0 0L 163 0L 163 87.9000015258789L 0 87.9000015258789Z" stroke="none" fill="none"></path><g id="SvgjsG1471"><text id="SvgjsText1472" font-family="微软雅黑" text-anchor="start" font-size="13px" width="136px" fill="#323232" font-weight="400" align="middle" anchor="start" family="微软雅黑" size="13px" weight="400" font-style="" opacity="1" y="34.00000076293945" transform="rotate(0)"><tspan id="SvgjsTspan1473" dy="16" x="27"><tspan id="SvgjsTspan1474" style="text-decoration:;">KeyValue集合函数</tspan></tspan></text></g></g><g id="SvgjsG1475" transform="translate(666,534.2874946594238)"><path id="SvgjsPath1476" d="M 0 0L 152 0L 168 16L 168 33.45000457763672L 0 33.45000457763672L 0 0Z" stroke="none" fill-opacity="1" fill="#ffffaa"></path><path id="SvgjsPath1477" d="M 152 0L 152 16L 168 16Z" stroke="none" fill-opacity="1" fill="#cdcdcd"></path><path id="SvgjsPath1478" d="M 0 0L 152 0L 168 16L 168 33.45000457763672L 0 33.45000457763672L 0 0Z" stroke="none" fill="none"></path><g id="SvgjsG1479"><text id="SvgjsText1480" font-family="微软雅黑" text-anchor="middle" font-size="13px" width="148px" fill="#323232" font-weight="400" align="middle" anchor="middle" family="微软雅黑" size="13px" weight="400" font-style="" opacity="1" y="6.775002288818359" transform="rotate(0)"><tspan id="SvgjsTspan1481" dy="16" x="84"><tspan id="SvgjsTspan1482" style="text-decoration:;">KeyValue类型关联函数</tspan></tspan></text></g></g></svg>