<svg id="SvgjsSvg1300" width="1351.25" height="1009.1999893188477" xmlns="http://www.w3.org/2000/svg" version="1.1" xmlns:xlink="http://www.w3.org/1999/xlink" xmlns:svgjs="http://svgjs.com/svgjs"><defs id="SvgjsDefs1301"><marker id="SvgjsMarker1444" markerWidth="16" markerHeight="12" refX="16" refY="6" viewBox="0 0 16 12" orient="auto" markerUnits="userSpaceOnUse" stroke-dasharray="0,0"><path id="SvgjsPath1445" d="M0,2 L14,6 L0,11 L0,2" fill="#323232" stroke="#323232" stroke-width="2"></path></marker><marker id="SvgjsMarker1448" markerWidth="16" markerHeight="12" refX="16" refY="6" viewBox="0 0 16 12" orient="auto" markerUnits="userSpaceOnUse" stroke-dasharray="0,0"><path id="SvgjsPath1449" d="M0,2 L14,6 L0,11 L0,2" fill="#323232" stroke="#323232" stroke-width="2"></path></marker><marker id="SvgjsMarker1452" markerWidth="16" markerHeight="12" refX="16" refY="6" viewBox="0 0 16 12" orient="auto" markerUnits="userSpaceOnUse" stroke-dasharray="0,0"><path id="SvgjsPath1453" d="M0,2 L14,6 L0,11 L0,2" fill="#323232" stroke="#323232" stroke-width="2"></path></marker><marker id="SvgjsMarker1456" markerWidth="16" markerHeight="12" refX="16" refY="6" viewBox="0 0 16 12" orient="auto" markerUnits="userSpaceOnUse" stroke-dasharray="0,0"><path id="SvgjsPath1457" d="M0,2 L14,6 L0,11 L0,2" fill="#323232" stroke="#323232" stroke-width="2"></path></marker><marker id="SvgjsMarker1460" markerWidth="16" markerHeight="12" refX="16" refY="6" viewBox="0 0 16 12" orient="auto" markerUnits="userSpaceOnUse" stroke-dasharray="0,0"><path id="SvgjsPath1461" d="M0,2 L14,6 L0,11 L0,2" fill="#323232" stroke="#323232" stroke-width="2"></path></marker><marker id="SvgjsMarker1464" markerWidth="16" markerHeight="12" refX="16" refY="6" viewBox="0 0 16 12" orient="auto" markerUnits="userSpaceOnUse" stroke-dasharray="0,0"><path id="SvgjsPath1465" d="M0,2 L14,6 L0,11 L0,2" fill="#323232" stroke="#323232" stroke-width="2"></path></marker><marker id="SvgjsMarker1468" markerWidth="16" markerHeight="12" refX="16" refY="6" viewBox="0 0 16 12" orient="auto" markerUnits="userSpaceOnUse" stroke-dasharray="0,0"><path id="SvgjsPath1469" d="M0,2 L14,6 L0,11 L0,2" fill="#323232" stroke="#323232" stroke-width="2"></path></marker><marker id="SvgjsMarker1472" markerWidth="16" markerHeight="12" refX="16" refY="6" viewBox="0 0 16 12" orient="auto" markerUnits="userSpaceOnUse" stroke-dasharray="0,0"><path id="SvgjsPath1473" d="M0,2 L14,6 L0,11 L0,2" fill="#323232" stroke="#323232" stroke-width="2"></path></marker><marker id="SvgjsMarker1530" markerWidth="16" markerHeight="12" refX="16" refY="6" viewBox="0 0 16 12" orient="auto" markerUnits="userSpaceOnUse" stroke-dasharray="0,0"><path id="SvgjsPath1531" d="M0,2 L14,6 L0,11 L0,2" fill="#323232" stroke="#323232" stroke-width="2"></path></marker><marker id="SvgjsMarker1534" markerWidth="16" markerHeight="12" refX="16" refY="6" viewBox="0 0 16 12" orient="auto" markerUnits="userSpaceOnUse" stroke-dasharray="0,0"><path id="SvgjsPath1535" d="M0,2 L14,6 L0,11 L0,2" fill="#323232" stroke="#323232" stroke-width="2"></path></marker><marker id="SvgjsMarker1538" markerWidth="16" markerHeight="12" refX="16" refY="6" viewBox="0 0 16 12" orient="auto" markerUnits="userSpaceOnUse" stroke-dasharray="0,0"><path id="SvgjsPath1539" d="M0,2 L14,6 L0,11 L0,2" fill="#323232" stroke="#323232" stroke-width="2"></path></marker><marker id="SvgjsMarker1542" markerWidth="16" markerHeight="12" refX="16" refY="6" viewBox="0 0 16 12" orient="auto" markerUnits="userSpaceOnUse" stroke-dasharray="0,0"><path id="SvgjsPath1543" d="M0,2 L14,6 L0,11 L0,2" fill="#323232" stroke="#323232" stroke-width="2"></path></marker><marker id="SvgjsMarker1546" markerWidth="16" markerHeight="12" refX="16" refY="6" viewBox="0 0 16 12" orient="auto" markerUnits="userSpaceOnUse" stroke-dasharray="0,0"><path id="SvgjsPath1547" d="M0,2 L14,6 L0,11 L0,2" fill="#323232" stroke="#323232" stroke-width="2"></path></marker><marker id="SvgjsMarker1550" markerWidth="16" markerHeight="12" refX="16" refY="6" viewBox="0 0 16 12" orient="auto" markerUnits="userSpaceOnUse" stroke-dasharray="0,0"><path id="SvgjsPath1551" d="M0,2 L14,6 L0,11 L0,2" fill="#323232" stroke="#323232" stroke-width="2"></path></marker><marker id="SvgjsMarker1566" markerWidth="16" markerHeight="12" refX="0" refY="6" viewBox="0 0 16 12" orient="auto" markerUnits="userSpaceOnUse" stroke-dasharray="0,0"><path id="SvgjsPath1567" d="M15,1.5 L2,6 L15,10.5" fill="#00ff00" stroke="#00ff00" stroke-width="2"></path></marker><marker id="SvgjsMarker1568" markerWidth="16" markerHeight="12" refX="16" refY="6" viewBox="0 0 16 12" orient="auto" markerUnits="userSpaceOnUse" stroke-dasharray="0,0"><path id="SvgjsPath1569" d="M0,2 L14,6 L0,11 L0,2" fill="#00ff00" stroke="#00ff00" stroke-width="2"></path></marker><marker id="SvgjsMarker1572" markerWidth="16" markerHeight="12" refX="0" refY="6" viewBox="0 0 16 12" orient="auto" markerUnits="userSpaceOnUse" stroke-dasharray="0,0"><path id="SvgjsPath1573" d="M15,1.5 L2,6 L15,10.5" fill="#00ff00" stroke="#00ff00" stroke-width="2"></path></marker><marker id="SvgjsMarker1574" markerWidth="16" markerHeight="12" refX="16" refY="6" viewBox="0 0 16 12" orient="auto" markerUnits="userSpaceOnUse" stroke-dasharray="0,0"><path id="SvgjsPath1575" d="M0,2 L14,6 L0,11 L0,2" fill="#00ff00" stroke="#00ff00" stroke-width="2"></path></marker><marker id="SvgjsMarker1578" markerWidth="16" markerHeight="12" refX="0" refY="6" viewBox="0 0 16 12" orient="auto" markerUnits="userSpaceOnUse" stroke-dasharray="0,0"><path id="SvgjsPath1579" d="M15,1.5 L2,6 L15,10.5" fill="#00ff00" stroke="#00ff00" stroke-width="2"></path></marker><marker id="SvgjsMarker1580" markerWidth="16" markerHeight="12" refX="16" refY="6" viewBox="0 0 16 12" orient="auto" markerUnits="userSpaceOnUse" stroke-dasharray="0,0"><path id="SvgjsPath1581" d="M0,2 L14,6 L0,11 L0,2" fill="#00ff00" stroke="#00ff00" stroke-width="2"></path></marker></defs><g id="SvgjsG1302" transform="translate(383.3249912261963,357.00713675362726)"><path id="SvgjsPath1303" d="M 0 4Q 0 0 4 0L 174 0Q 178 0 178 4L 178 272Q 178 276 174 276L 4 276Q 0 276 0 272Z" stroke="rgba(50,50,50,1)" stroke-width="2" fill-opacity="1" fill="#cce5ff"></path><g id="SvgjsG1304"><text id="SvgjsText1305" font-family="微软雅黑" text-anchor="middle" font-size="13px" width="158px" fill="#323232" font-weight="400" align="middle" anchor="middle" family="微软雅黑" size="13px" weight="400" font-style="" opacity="1" y="128.05" transform="rotate(0)"></text></g></g><g id="SvgjsG1306" transform="translate(412.1101151931389,465.85741733683255)"><path id="SvgjsPath1307" d="M 0 0L 120 0L 120 40L 0 40Z" stroke="none" fill="none"></path><g id="SvgjsG1308"><text id="SvgjsText1309" font-family="微软雅黑" text-anchor="middle" font-size="15px" width="120px" fill="#ff3333" font-weight="700" align="middle" anchor="middle" family="微软雅黑" size="15px" weight="700" font-style="" opacity="1" y="8.75" transform="rotate(0)"><tspan id="SvgjsTspan1310" dy="18" x="60"><tspan id="SvgjsTspan1311" style="text-decoration:;">Broker1</tspan></tspan></text></g></g><g id="SvgjsG1312" transform="translate(417.3249912261963,404.0071443830218)"><path id="SvgjsPath1313" d="M 0 0L 112 0L 112 36L 0 36Z" stroke="rgba(50,50,50,1)" stroke-width="2" fill-opacity="1" fill="#ffcccc"></path><g id="SvgjsG1314"><text id="SvgjsText1315" font-family="微软雅黑" text-anchor="middle" font-size="13px" width="92px" fill="#323232" font-weight="400" align="middle" anchor="middle" family="微软雅黑" size="13px" weight="400" font-style="" opacity="1" y="8.05" transform="rotate(0)"><tspan id="SvgjsTspan1316" dy="16" x="56"><tspan id="SvgjsTspan1317" style="text-decoration:;">TopicA-part0</tspan></tspan></text></g></g><g id="SvgjsG1318" transform="translate(417.3249912261963,547.0071443830218)"><path id="SvgjsPath1319" d="M 0 0L 112 0L 112 36L 0 36Z" stroke="rgba(50,50,50,1)" stroke-width="2" fill-opacity="1" fill="#ffffcc"></path><g id="SvgjsG1320"><text id="SvgjsText1321" font-family="微软雅黑" text-anchor="middle" font-size="13px" width="92px" fill="#323232" font-weight="400" align="middle" anchor="middle" family="微软雅黑" size="13px" weight="400" font-style="" opacity="1" y="8.05" transform="rotate(0)"><tspan id="SvgjsTspan1322" dy="16" x="56"><tspan id="SvgjsTspan1323" style="text-decoration:;">TopicA-part2</tspan></tspan></text></g></g><g id="SvgjsG1324" transform="translate(680.3249912261967,354.00713675362726)"><path id="SvgjsPath1325" d="M 0 4Q 0 0 4 0L 174 0Q 178 0 178 4L 178 272Q 178 276 174 276L 4 276Q 0 276 0 272Z" stroke="rgba(50,50,50,1)" stroke-width="2" fill-opacity="1" fill="#cce5ff"></path><g id="SvgjsG1326"><text id="SvgjsText1327" font-family="微软雅黑" text-anchor="middle" font-size="13px" width="158px" fill="#323232" font-weight="400" align="middle" anchor="middle" family="微软雅黑" size="13px" weight="400" font-style="" opacity="1" y="128.05" transform="rotate(0)"></text></g></g><g id="SvgjsG1328" transform="translate(585.3249912261966,393.00713675362726)"><path id="SvgjsPath1329" d="M 0 0L 120 0L 120 40L 0 40Z" stroke="none" fill="none"></path><g id="SvgjsG1330"><text id="SvgjsText1331" font-family="微软雅黑" text-anchor="middle" font-size="15px" width="120px" fill="#323232" font-weight="700" align="middle" anchor="middle" family="微软雅黑" size="15px" weight="700" font-style="" opacity="1" y="8.75" transform="rotate(0)"><tspan id="SvgjsTspan1332" dy="18" x="60"><tspan id="SvgjsTspan1333" style="text-decoration:;">Broker</tspan></tspan></text></g></g><g id="SvgjsG1334" transform="translate(714.3249912261967,401.0071443830218)"><path id="SvgjsPath1335" d="M 0 0L 112 0L 112 36L 0 36Z" stroke="rgba(50,50,50,1)" stroke-width="2" fill-opacity="1" fill="#ffcccc"></path><g id="SvgjsG1336"><text id="SvgjsText1337" font-family="微软雅黑" text-anchor="middle" font-size="13px" width="92px" fill="#323232" font-weight="400" align="middle" anchor="middle" family="微软雅黑" size="13px" weight="400" font-style="" opacity="1" y="8.05" transform="rotate(0)"><tspan id="SvgjsTspan1338" dy="16" x="56"><tspan id="SvgjsTspan1339" style="text-decoration:;">TopicA-part0</tspan></tspan></text></g></g><g id="SvgjsG1340" transform="translate(714.3249912261967,544.0071443830218)"><path id="SvgjsPath1341" d="M 0 0L 112 0L 112 36L 0 36Z" stroke="rgba(50,50,50,1)" stroke-width="2" fill-opacity="1" fill="#ccffff"></path><g id="SvgjsG1342"><text id="SvgjsText1343" font-family="微软雅黑" text-anchor="middle" font-size="13px" width="92px" fill="#323232" font-weight="400" align="middle" anchor="middle" family="微软雅黑" size="13px" weight="400" font-style="" opacity="1" y="8.05" transform="rotate(0)"><tspan id="SvgjsTspan1344" dy="16" x="56"><tspan id="SvgjsTspan1345" style="text-decoration:;">TopicA-part1</tspan></tspan></text></g></g><g id="SvgjsG1346" transform="translate(967.422035019777,354.00713675362726)"><path id="SvgjsPath1347" d="M 0 4Q 0 0 4 0L 174 0Q 178 0 178 4L 178 272Q 178 276 174 276L 4 276Q 0 276 0 272Z" stroke="rgba(50,50,50,1)" stroke-width="2" fill-opacity="1" fill="#cce5ff"></path><g id="SvgjsG1348"><text id="SvgjsText1349" font-family="微软雅黑" text-anchor="middle" font-size="13px" width="158px" fill="#323232" font-weight="400" align="middle" anchor="middle" family="微软雅黑" size="13px" weight="400" font-style="" opacity="1" y="128.05" transform="rotate(0)"></text></g></g><g id="SvgjsG1350" transform="translate(875.3249912261967,393.00713675362726)"><path id="SvgjsPath1351" d="M 0 0L 120 0L 120 40L 0 40Z" stroke="none" fill="none"></path><g id="SvgjsG1352"><text id="SvgjsText1353" font-family="微软雅黑" text-anchor="middle" font-size="15px" width="120px" fill="#323232" font-weight="700" align="middle" anchor="middle" family="微软雅黑" size="15px" weight="700" font-style="" opacity="1" y="8.75" transform="rotate(0)"><tspan id="SvgjsTspan1354" dy="18" x="60"><tspan id="SvgjsTspan1355" style="text-decoration:;">Broker</tspan></tspan></text></g></g><g id="SvgjsG1356" transform="translate(1000.3249912261958,401.0071443830218)"><path id="SvgjsPath1357" d="M 0 0L 112 0L 112 36L 0 36Z" stroke="rgba(50,50,50,1)" stroke-width="2" fill-opacity="1" fill="#ffffcc"></path><g id="SvgjsG1358"><text id="SvgjsText1359" font-family="微软雅黑" text-anchor="middle" font-size="13px" width="92px" fill="#323232" font-weight="400" align="middle" anchor="middle" family="微软雅黑" size="13px" weight="400" font-style="" opacity="1" y="8.05" transform="rotate(0)"><tspan id="SvgjsTspan1360" dy="16" x="56"><tspan id="SvgjsTspan1361" style="text-decoration:;">TopicA-part2</tspan></tspan></text></g></g><g id="SvgjsG1362" transform="translate(1000.3249912261958,544.0071443830218)"><path id="SvgjsPath1363" d="M 0 0L 112 0L 112 36L 0 36Z" stroke="rgba(50,50,50,1)" stroke-width="2" fill-opacity="1" fill="#ccffff"></path><g id="SvgjsG1364"><text id="SvgjsText1365" font-family="微软雅黑" text-anchor="middle" font-size="13px" width="92px" fill="#323232" font-weight="400" align="middle" anchor="middle" family="微软雅黑" size="13px" weight="400" font-style="" opacity="1" y="8.05" transform="rotate(0)"><tspan id="SvgjsTspan1366" dy="16" x="56"><tspan id="SvgjsTspan1367" style="text-decoration:;">TopicA-part1</tspan></tspan></text></g></g><g id="SvgjsG1368" transform="translate(351.3249912261963,768.2071260724749)"><path id="SvgjsPath1369" d="M 0 4Q 0 0 4 0L 438.00000953674316 0Q 442.00000953674316 0 442.00000953674316 4L 442.00000953674316 212Q 442.00000953674316 216 438.00000953674316 216L 4 216Q 0 216 0 212Z" stroke-dasharray="10,6" stroke="rgba(50,50,50,1)" stroke-width="2" fill-opacity="1" fill="#ccffe6"></path><g id="SvgjsG1370"><text id="SvgjsText1371" font-family="微软雅黑" text-anchor="middle" font-size="13px" width="423px" fill="#323232" font-weight="400" align="middle" anchor="middle" family="微软雅黑" size="13px" weight="400" font-style="" opacity="1" y="98.05" transform="rotate(0)"></text></g></g><g id="SvgjsG1372" transform="translate(371.3249912261966,810.2071260724749)"><path id="SvgjsPath1373" d="M 0 55C 0 -18.333333333333332 116.00000953674316 -18.333333333333332 116.00000953674316 55C 116.00000953674316 128.33333333333334 0 128.33333333333334 0 55Z" stroke="rgba(50,50,50,1)" stroke-width="2" fill-opacity="1" fill="#e6ffcc"></path><g id="SvgjsG1374"><text id="SvgjsText1375" font-family="微软雅黑" text-anchor="middle" font-size="13px" width="97px" fill="#323232" font-weight="700" align="middle" anchor="middle" family="微软雅黑" size="13px" weight="700" font-style="" opacity="1" y="45.05" transform="rotate(0)"><tspan id="SvgjsTspan1376" dy="16" x="58.5"><tspan id="SvgjsTspan1377" style="text-decoration:;">Consumer1</tspan></tspan></text></g></g><g id="SvgjsG1378" transform="translate(506.32499122619663,810.2071260724749)"><path id="SvgjsPath1379" d="M 0 55C 0 -18.333333333333332 116.00000953674316 -18.333333333333332 116.00000953674316 55C 116.00000953674316 128.33333333333334 0 128.33333333333334 0 55Z" stroke="rgba(50,50,50,1)" stroke-width="2" fill-opacity="1" fill="#ffe6cc"></path><g id="SvgjsG1380"><text id="SvgjsText1381" font-family="微软雅黑" text-anchor="middle" font-size="13px" width="97px" fill="#323232" font-weight="700" align="middle" anchor="middle" family="微软雅黑" size="13px" weight="700" font-style="" opacity="1" y="45.05" transform="rotate(0)"><tspan id="SvgjsTspan1382" dy="16" x="58.5"><tspan id="SvgjsTspan1383" style="text-decoration:;">Consumer2</tspan></tspan></text></g></g><g id="SvgjsG1384" transform="translate(645.3249912261967,810.2071260724749)"><path id="SvgjsPath1385" d="M 0 55C 0 -18.333333333333332 116.00000953674316 -18.333333333333332 116.00000953674316 55C 116.00000953674316 128.33333333333334 0 128.33333333333334 0 55Z" stroke="rgba(50,50,50,1)" stroke-width="2" fill-opacity="1" fill="#ffffcc"></path><g id="SvgjsG1386"><text id="SvgjsText1387" font-family="微软雅黑" text-anchor="middle" font-size="13px" width="97px" fill="#323232" font-weight="700" align="middle" anchor="middle" family="微软雅黑" size="13px" weight="700" font-style="" opacity="1" y="45.05" transform="rotate(0)"><tspan id="SvgjsTspan1388" dy="16" x="58.5"><tspan id="SvgjsTspan1389" style="text-decoration:;">Consumer3</tspan></tspan></text></g></g><g id="SvgjsG1390" transform="translate(487.3250007629398,932.2071260724749)"><path id="SvgjsPath1391" d="M 0 0L 161.00000476837158 0L 161.00000476837158 40L 0 40Z" stroke="none" fill="none"></path><g id="SvgjsG1392"><text id="SvgjsText1393" font-family="微软雅黑" text-anchor="middle" font-size="15px" width="162px" fill="#323232" font-weight="700" align="middle" anchor="middle" family="微软雅黑" size="15px" weight="700" font-style="" opacity="1" y="8.75" transform="rotate(0)"><tspan id="SvgjsTspan1394" dy="18" x="81"><tspan id="SvgjsTspan1395" style="text-decoration:;">Consumer Group1</tspan></tspan></text></g></g><g id="SvgjsG1396" transform="translate(946.3249912261961,770.2071260724749)"><path id="SvgjsPath1397" d="M 0 4Q 0 0 4 0L 304.00000953674316 0Q 308.00000953674316 0 308.00000953674316 4L 308.00000953674316 208Q 308.00000953674316 212 304.00000953674316 212L 4 212Q 0 212 0 208Z" stroke-dasharray="10,6" stroke="rgba(50,50,50,1)" stroke-width="2" fill-opacity="1" fill="#ccffff"></path><g id="SvgjsG1398"><text id="SvgjsText1399" font-family="微软雅黑" text-anchor="middle" font-size="13px" width="289px" fill="#323232" font-weight="400" align="middle" anchor="middle" family="微软雅黑" size="13px" weight="400" font-style="" opacity="1" y="96.05" transform="rotate(0)"></text></g></g><g id="SvgjsG1400" transform="translate(966.3249912261958,814.2071260724749)"><path id="SvgjsPath1401" d="M 0 55C 0 -18.333333333333332 116.00000953674316 -18.333333333333332 116.00000953674316 55C 116.00000953674316 128.33333333333334 0 128.33333333333334 0 55Z" stroke="rgba(50,50,50,1)" stroke-width="2" fill-opacity="1" fill="#ffcce6"></path><g id="SvgjsG1402"><text id="SvgjsText1403" font-family="微软雅黑" text-anchor="middle" font-size="13px" width="97px" fill="#323232" font-weight="700" align="middle" anchor="middle" family="微软雅黑" size="13px" weight="700" font-style="" opacity="1" y="45.05" transform="rotate(0)"><tspan id="SvgjsTspan1404" dy="16" x="58.5"><tspan id="SvgjsTspan1405" style="text-decoration:;">Consumer1</tspan></tspan></text></g></g><g id="SvgjsG1406" transform="translate(1101.3249912261956,814.2071260724749)"><path id="SvgjsPath1407" d="M 0 55C 0 -18.333333333333332 116.00000953674316 -18.333333333333332 116.00000953674316 55C 116.00000953674316 128.33333333333334 0 128.33333333333334 0 55Z" stroke="rgba(50,50,50,1)" stroke-width="2" fill-opacity="1" fill="#ffccff"></path><g id="SvgjsG1408"><text id="SvgjsText1409" font-family="微软雅黑" text-anchor="middle" font-size="13px" width="97px" fill="#323232" font-weight="700" align="middle" anchor="middle" family="微软雅黑" size="13px" weight="700" font-style="" opacity="1" y="45.05" transform="rotate(0)"><tspan id="SvgjsTspan1410" dy="16" x="58.5"><tspan id="SvgjsTspan1411" style="text-decoration:;">Consumer2</tspan></tspan></text></g></g><g id="SvgjsG1412" transform="translate(1022.3250007629376,936.2071260724749)"><path id="SvgjsPath1413" d="M 0 0L 161.00000476837158 0L 161.00000476837158 40L 0 40Z" stroke="none" fill="none"></path><g id="SvgjsG1414"><text id="SvgjsText1415" font-family="微软雅黑" text-anchor="middle" font-size="15px" width="162px" fill="#323232" font-weight="700" align="middle" anchor="middle" family="微软雅黑" size="15px" weight="700" font-style="" opacity="1" y="8.75" transform="rotate(0)"><tspan id="SvgjsTspan1416" dy="18" x="81"><tspan id="SvgjsTspan1417" style="text-decoration:;">Consumer Group2</tspan></tspan></text></g></g><g id="SvgjsG1418" transform="translate(411.3249912261963,25.007136753627236)"><path id="SvgjsPath1419" d="M 29 0L 126.00000953674316 0C 164.66667620340982 0 164.66667620340982 87 126.00000953674316 87L 29 87C -9.666666666666666 87 -9.666666666666666 0 29 0Z" stroke-dasharray="3,4" stroke="rgba(50,50,50,1)" stroke-width="2" fill-opacity="1" fill="#ffcc99"></path><g id="SvgjsG1420"><text id="SvgjsText1421" font-family="微软雅黑" text-anchor="middle" font-size="13px" width="136px" fill="#323232" font-weight="400" align="middle" anchor="middle" family="微软雅黑" size="13px" weight="400" font-style="" opacity="1" y="33.55" transform="rotate(0)"><tspan id="SvgjsTspan1422" dy="16" x="78"><tspan id="SvgjsTspan1423" style="text-decoration:;">Producer1</tspan></tspan></text></g></g><g id="SvgjsG1424" transform="translate(619.3249816894536,25.007136753627236)"><path id="SvgjsPath1425" d="M 29 0L 126.00000953674316 0C 164.66667620340982 0 164.66667620340982 87 126.00000953674316 87L 29 87C -9.666666666666666 87 -9.666666666666666 0 29 0Z" stroke-dasharray="3,4" stroke="rgba(50,50,50,1)" stroke-width="2" fill-opacity="1" fill="#ffcc99"></path><g id="SvgjsG1426"><text id="SvgjsText1427" font-family="微软雅黑" text-anchor="middle" font-size="13px" width="136px" fill="#323232" font-weight="400" align="middle" anchor="middle" family="微软雅黑" size="13px" weight="400" font-style="" opacity="1" y="33.55" transform="rotate(0)"><tspan id="SvgjsTspan1428" dy="16" x="78"><tspan id="SvgjsTspan1429" style="text-decoration:;">Producer2</tspan></tspan></text></g></g><g id="SvgjsG1430" transform="translate(826.3249912261967,25.007136753627265)"><path id="SvgjsPath1431" d="M 29 0L 126.00000953674316 0C 164.66667620340982 0 164.66667620340982 87 126.00000953674316 87L 29 87C -9.666666666666666 87 -9.666666666666666 0 29 0Z" stroke-dasharray="3,4" stroke="rgba(50,50,50,1)" stroke-width="2" fill-opacity="1" fill="#ffcc99"></path><g id="SvgjsG1432"><text id="SvgjsText1433" font-family="微软雅黑" text-anchor="middle" font-size="13px" width="136px" fill="#323232" font-weight="400" align="middle" anchor="middle" family="微软雅黑" size="13px" weight="400" font-style="" opacity="1" y="33.55" transform="rotate(0)"><tspan id="SvgjsTspan1434" dy="16" x="78"><tspan id="SvgjsTspan1435" style="text-decoration:;">Producer3</tspan></tspan></text></g></g><g id="SvgjsG1436" transform="translate(1045.3249912261958,25.007136753627265)"><path id="SvgjsPath1437" d="M 29 0L 126.00000953674316 0C 164.66667620340982 0 164.66667620340982 87 126.00000953674316 87L 29 87C -9.666666666666666 87 -9.666666666666666 0 29 0Z" stroke-dasharray="3,4" stroke="rgba(50,50,50,1)" stroke-width="2" fill-opacity="1" fill="#ffcc99"></path><g id="SvgjsG1438"><text id="SvgjsText1439" font-family="微软雅黑" text-anchor="middle" font-size="13px" width="136px" fill="#323232" font-weight="400" align="middle" anchor="middle" family="微软雅黑" size="13px" weight="400" font-style="" opacity="1" y="33.55" transform="rotate(0)"><tspan id="SvgjsTspan1440" dy="16" x="78"><tspan id="SvgjsTspan1441" style="text-decoration:;">Producer4</tspan></tspan></text></g></g><g id="SvgjsG1442"><path id="SvgjsPath1443" d="M488.8249959945682 112.00713675362721L472.32499122619663 357.00713675362726" stroke="#323232" stroke-width="2" fill="none" marker-end="url(#SvgjsMarker1444)"></path></g><g id="SvgjsG1446"><path id="SvgjsPath1447" d="M696.8249864578252 112.00713675362721L472.32499122619663 357.00713675362726" stroke="#323232" stroke-width="2" fill="none" marker-end="url(#SvgjsMarker1448)"></path></g><g id="SvgjsG1450"><path id="SvgjsPath1451" d="M903.8249959945683 112.00713675362721L472.32499122619663 357.00713675362726" stroke="#323232" stroke-width="2" fill="none" marker-end="url(#SvgjsMarker1452)"></path></g><g id="SvgjsG1454"><path id="SvgjsPath1455" d="M488.8249959945682 112.00713675362721L769.3249912261967 354.00713675362726" stroke="#323232" stroke-width="2" fill="none" marker-end="url(#SvgjsMarker1456)"></path></g><g id="SvgjsG1458"><path id="SvgjsPath1459" d="M696.8249864578252 112.00713675362721L769.3249912261967 354.00713675362726" stroke="#323232" stroke-width="2" fill="none" marker-end="url(#SvgjsMarker1460)"></path></g><g id="SvgjsG1462"><path id="SvgjsPath1463" d="M903.8249959945683 112.00713675362721L769.3249912261967 354.00713675362726" stroke="#323232" stroke-width="2" fill="none" marker-end="url(#SvgjsMarker1464)"></path></g><g id="SvgjsG1466"><path id="SvgjsPath1467" d="M1122.824995994567 112.00713675362721L1056.422035019777 354.00713675362726" stroke="#323232" stroke-width="2" fill="none" marker-end="url(#SvgjsMarker1468)"></path></g><g id="SvgjsG1470"><path id="SvgjsPath1471" d="M696.8249864578252 112.00713675362721L1056.422035019777 354.00713675362726" stroke="#323232" stroke-width="2" fill="none" marker-end="url(#SvgjsMarker1472)"></path></g><g id="SvgjsG1474" transform="translate(25.01069722856792,404.76060625620664)"><path id="SvgjsPath1475" d="M 18.892987773944803 76.74363597523077C -15.744156478287337 54.81688283945056 6.297662591314935 38.37181798761539 14.169740830458602 32.89012970367033C 11.020909534801136 5.481688283945056 50.38130073051948 0 66.12545720880681 10.963376567890112C 78.72078239143669 -5.481688283945056 118.08117358715504 0 118.08117358715504 16.445064851835166C 149.5694865437297 10.963376567890112 162.16481172635957 32.89012970367033 149.5694865437297 60.29857112339562C 160.59039607853083 82.22532425917584 149.5694865437297 109.63376567890111 113.35792664366882 98.670389111011C 105.48584840452517 112.92277864926815 73.99753544795048 112.92277864926815 66.12545720880681 98.670389111011C 50.38130073051948 109.63376567890111 18.892987773944803 104.15207739495605 18.892987773944803 76.74363597523077Z" stroke="rgba(50,50,50,1)" stroke-width="2" fill-opacity="1" fill="#66ff66"></path><g id="SvgjsG1476"><text id="SvgjsText1477" font-family="微软雅黑" text-anchor="middle" font-size="15px" width="138px" fill="#323232" font-weight="700" align="middle" anchor="middle" family="微软雅黑" size="15px" weight="700" font-style="" opacity="1" y="43.56688283945056" transform="rotate(0)"><tspan id="SvgjsTspan1478" dy="18" x="79"><tspan id="SvgjsTspan1479" style="text-decoration:;">Zookeeper</tspan></tspan></text></g></g><g id="SvgjsG1480" transform="translate(416.78103931034354,371.82272824374104)"><path id="SvgjsPath1481" d="M 0 0L 120 0L 120 40L 0 40Z" stroke="none" fill="none"></path><g id="SvgjsG1482"><text id="SvgjsText1483" font-family="微软雅黑" text-anchor="middle" font-size="13px" width="120px" fill="#323232" font-weight="700" align="middle" anchor="middle" family="微软雅黑" size="13px" weight="700" font-style="" opacity="1" y="10.05" transform="rotate(0)"><tspan id="SvgjsTspan1484" dy="16" x="60"><tspan id="SvgjsTspan1485" style="text-decoration:;">leader</tspan></tspan></text></g></g><g id="SvgjsG1486" transform="translate(708.7561093192243,369.0954555164684)"><path id="SvgjsPath1487" d="M 0 0L 120 0L 120 40L 0 40Z" stroke="none" fill="none"></path><g id="SvgjsG1488"><text id="SvgjsText1489" font-family="微软雅黑" text-anchor="middle" font-size="13px" width="120px" fill="#323232" font-weight="700" align="middle" anchor="middle" family="微软雅黑" size="13px" weight="700" font-style="" opacity="1" y="10.05" transform="rotate(0)"><tspan id="SvgjsTspan1490" dy="16" x="60"><tspan id="SvgjsTspan1491" style="text-decoration:;">follower</tspan></tspan></text></g></g><g id="SvgjsG1492" transform="translate(996.5317393991352,369.0954555164684)"><path id="SvgjsPath1493" d="M 0 0L 120 0L 120 40L 0 40Z" stroke="none" fill="none"></path><g id="SvgjsG1494"><text id="SvgjsText1495" font-family="微软雅黑" text-anchor="middle" font-size="13px" width="120px" fill="#323232" font-weight="700" align="middle" anchor="middle" family="微软雅黑" size="13px" weight="700" font-style="" opacity="1" y="10.05" transform="rotate(0)"><tspan id="SvgjsTspan1496" dy="16" x="60"><tspan id="SvgjsTspan1497" style="text-decoration:;">leader</tspan></tspan></text></g></g><g id="SvgjsG1498" transform="translate(412.1431730443786,511.7424453951537)"><path id="SvgjsPath1499" d="M 0 0L 120 0L 120 40L 0 40Z" stroke="none" fill="none"></path><g id="SvgjsG1500"><text id="SvgjsText1501" font-family="微软雅黑" text-anchor="middle" font-size="13px" width="120px" fill="#323232" font-weight="700" align="middle" anchor="middle" family="微软雅黑" size="13px" weight="700" font-style="" opacity="1" y="10.05" transform="rotate(0)"><tspan id="SvgjsTspan1502" dy="16" x="60"><tspan id="SvgjsTspan1503" style="text-decoration:;">follower</tspan></tspan></text></g></g><g id="SvgjsG1504" transform="translate(708.599221128527,511.74244539515314)"><path id="SvgjsPath1505" d="M 0 0L 120 0L 120 40L 0 40Z" stroke="none" fill="none"></path><g id="SvgjsG1506"><text id="SvgjsText1507" font-family="微软雅黑" text-anchor="middle" font-size="13px" width="120px" fill="#323232" font-weight="700" align="middle" anchor="middle" family="微软雅黑" size="13px" weight="700" font-style="" opacity="1" y="10.05" transform="rotate(0)"><tspan id="SvgjsTspan1508" dy="16" x="60"><tspan id="SvgjsTspan1509" style="text-decoration:;">leader</tspan></tspan></text></g></g><g id="SvgjsG1510" transform="translate(999.415900317106,514.4697181224262)"><path id="SvgjsPath1511" d="M 0 0L 120 0L 120 40L 0 40Z" stroke="none" fill="none"></path><g id="SvgjsG1512"><text id="SvgjsText1513" font-family="微软雅黑" text-anchor="middle" font-size="13px" width="120px" fill="#323232" font-weight="700" align="middle" anchor="middle" family="微软雅黑" size="13px" weight="700" font-style="" opacity="1" y="10.05" transform="rotate(0)"><tspan id="SvgjsTspan1514" dy="16" x="60"><tspan id="SvgjsTspan1515" style="text-decoration:;">follower</tspan></tspan></text></g></g><g id="SvgjsG1516" transform="translate(714.3264938557985,465.87995678085963)"><path id="SvgjsPath1517" d="M 0 0L 120 0L 120 40L 0 40Z" stroke="none" fill="none"></path><g id="SvgjsG1518"><text id="SvgjsText1519" font-family="微软雅黑" text-anchor="middle" font-size="15px" width="120px" fill="#ff3333" font-weight="700" align="middle" anchor="middle" family="微软雅黑" size="15px" weight="700" font-style="" opacity="1" y="8.75" transform="rotate(0)"><tspan id="SvgjsTspan1520" dy="18" x="60"><tspan id="SvgjsTspan1521" style="text-decoration:;">Broker2</tspan></tspan></text></g></g><g id="SvgjsG1522" transform="translate(996.5375438845579,461.52954202625733)"><path id="SvgjsPath1523" d="M 0 0L 120 0L 120 40L 0 40Z" stroke="none" fill="none"></path><g id="SvgjsG1524"><text id="SvgjsText1525" font-family="微软雅黑" text-anchor="middle" font-size="15px" width="120px" fill="#ff3333" font-weight="700" align="middle" anchor="middle" family="微软雅黑" size="15px" weight="700" font-style="" opacity="1" y="8.75" transform="rotate(0)"><tspan id="SvgjsTspan1526" dy="18" x="60"><tspan id="SvgjsTspan1527" style="text-decoration:;">Broker3</tspan></tspan></text></g></g><g id="SvgjsG1528"><path id="SvgjsPath1529" d="M429.3249959945681 810.2071260724749L472.3249912261963 633.0071367536273" stroke="#323232" stroke-width="2" fill="none" marker-end="url(#SvgjsMarker1530)"></path></g><g id="SvgjsG1532"><path id="SvgjsPath1533" d="M564.3249959945682 810.2071260724749L769.3249912261967 630.0071367536273" stroke="#323232" stroke-width="2" fill="none" marker-end="url(#SvgjsMarker1534)"></path></g><g id="SvgjsG1536"><path id="SvgjsPath1537" d="M703.3249959945683 810.2071260724749L1056.422035019777 630.0071367536273" stroke="#323232" stroke-width="2" fill="none" marker-end="url(#SvgjsMarker1538)"></path></g><g id="SvgjsG1540"><path id="SvgjsPath1541" d="M1159.3249959945672 814.2071260724749L1056.422035019777 630.0071367536273" stroke="#323232" stroke-width="2" fill="none" marker-end="url(#SvgjsMarker1542)"></path></g><g id="SvgjsG1544"><path id="SvgjsPath1545" d="M1024.3249959945674 814.2071260724749L472.3249912261963 633.0071367536273" stroke="#323232" stroke-width="2" fill="none" marker-end="url(#SvgjsMarker1546)"></path></g><g id="SvgjsG1548"><path id="SvgjsPath1549" d="M1159.3249959945672 814.2071260724749L769.3249912261967 630.0071367536273" stroke="#323232" stroke-width="2" fill="none" marker-end="url(#SvgjsMarker1550)"></path></g><g id="SvgjsG1552" transform="translate(1115.4935957695836,682.7318468960849)"><path id="SvgjsPath1553" d="M 0 0L 169.09090909090907 0L 169.09090909090907 40L 0 40Z" stroke="none" fill="none"></path><g id="SvgjsG1554"><text id="SvgjsText1555" font-family="微软雅黑" text-anchor="middle" font-size="15px" width="170px" fill="#323232" font-weight="700" align="middle" anchor="middle" family="微软雅黑" size="15px" weight="700" font-style="" opacity="1" y="8.75" transform="rotate(0)"><tspan id="SvgjsTspan1556" dy="18" x="85"><tspan id="SvgjsTspan1557" style="text-decoration:;">Ordered Subscription</tspan></tspan></text></g></g><g id="SvgjsG1558" transform="translate(1081.255578443038,207.2772702303801)"><path id="SvgjsPath1559" d="M 0 0L 244.80000877380508 0L 244.80000877380508 33.636363636363626L 0 33.636363636363626Z" stroke="none" fill="none"></path><g id="SvgjsG1560"><text id="SvgjsText1561" font-family="微软雅黑" text-anchor="middle" font-size="15px" width="245px" fill="#323232" font-weight="700" align="middle" anchor="middle" family="微软雅黑" size="15px" weight="700" font-style="" opacity="1" y="5.568181818181813" transform="rotate(0)"><tspan id="SvgjsTspan1562" dy="18" x="122.5"><tspan id="SvgjsTspan1563" style="text-decoration:;">Patitioned Data Publication</tspan></tspan></text></g></g><g id="SvgjsG1564"><path id="SvgjsPath1565" d="M119.47563609829194 405.8569439129957C 262.6340912905606 263.6409065940163 582.6340912905606 250.0045429576527 769.3249912261967 354.00713675362726" stroke="#00ff00" stroke-width="2" fill="none" marker-start="url(#SvgjsMarker1566)" marker-end="url(#SvgjsMarker1568)"></path></g><g id="SvgjsG1570"><path id="SvgjsPath1571" d="M114.75238915480574 514.3943719351078C 204.45227310874242 682.7318468960848 514.4522731087424 754.5500287142667 1056.422035019777 630.0071367536273" stroke="#00ff00" stroke-width="2" fill="none" marker-start="url(#SvgjsMarker1572)" marker-end="url(#SvgjsMarker1574)"></path></g><g id="SvgjsG1576"><path id="SvgjsPath1577" d="M383.3249912261963 495.00713675362726C 298.598234375212 495.00713675362726 256.99656036770637 450.90430693299936 173.5569933332768 465.6169538598019" stroke="#00ff00" stroke-width="2" fill="none" marker-start="url(#SvgjsMarker1578)" marker-end="url(#SvgjsMarker1580)"></path></g><g id="SvgjsG1582" transform="translate(348.08863674510604,200.91363386674374)"><path id="SvgjsPath1583" d="M 0 0L 120 0L 120 40L 0 40Z" stroke="none" fill="none"></path><g id="SvgjsG1584"><text id="SvgjsText1585" font-family="微软雅黑" text-anchor="middle" font-size="16px" width="120px" fill="#0000ff" font-weight="700" align="middle" anchor="middle" family="微软雅黑" size="16px" weight="700" font-style="" opacity="1" y="7.6" transform="rotate(0)"><tspan id="SvgjsTspan1586" dy="20" x="60"><tspan id="SvgjsTspan1587" style="text-decoration:;">Push</tspan></tspan></text></g></g><g id="SvgjsG1588" transform="translate(337.17954583601517,690.004574168812)"><path id="SvgjsPath1589" d="M 0 0L 120 0L 120 40L 0 40Z" stroke="none" fill="none"></path><g id="SvgjsG1590"><text id="SvgjsText1591" font-family="微软雅黑" text-anchor="middle" font-size="17px" width="120px" fill="#3333ff" font-weight="700" align="middle" anchor="middle" family="微软雅黑" size="17px" weight="700" font-style="" opacity="1" y="6.95" transform="rotate(0)"><tspan id="SvgjsTspan1592" dy="21" x="60"><tspan id="SvgjsTspan1593" style="text-decoration:;">Pull</tspan></tspan></text></g></g></svg>