<svg id="SvgjsSvg1006" width="755.3999938964844" height="983" xmlns="http://www.w3.org/2000/svg" version="1.1" xmlns:xlink="http://www.w3.org/1999/xlink" xmlns:svgjs="http://svgjs.com/svgjs"><defs id="SvgjsDefs1007"><marker id="SvgjsMarker1024" markerWidth="16" markerHeight="12" refX="16" refY="6" viewBox="0 0 16 12" orient="auto" markerUnits="userSpaceOnUse" stroke-dasharray="0,0"><path id="SvgjsPath1025" d="M0,2 L14,6 L0,11 L0,2" fill="#66ff66" stroke="#66ff66" stroke-width="2"></path></marker><marker id="SvgjsMarker1034" markerWidth="16" markerHeight="12" refX="16" refY="6" viewBox="0 0 16 12" orient="auto" markerUnits="userSpaceOnUse" stroke-dasharray="0,0"><path id="SvgjsPath1035" d="M0,2 L14,6 L0,11 L0,2" fill="#ff3333" stroke="#ff3333" stroke-width="2"></path></marker><marker id="SvgjsMarker1044" markerWidth="16" markerHeight="12" refX="16" refY="6" viewBox="0 0 16 12" orient="auto" markerUnits="userSpaceOnUse" stroke-dasharray="0,0"><path id="SvgjsPath1045" d="M0,2 L14,6 L0,11 L0,2" fill="#ff3333" stroke="#ff3333" stroke-width="2"></path></marker><marker id="SvgjsMarker1056" markerWidth="16" markerHeight="12" refX="16" refY="6" viewBox="0 0 16 12" orient="auto" markerUnits="userSpaceOnUse" stroke-dasharray="0,0"><path id="SvgjsPath1057" d="M0,2 L14,6 L0,11 L0,2" fill="#66ff66" stroke="#66ff66" stroke-width="3"></path></marker></defs><g id="SvgjsG1008" transform="translate(44.99998474121094,186.0124969482422)"><path id="SvgjsPath1009" d="M 0 6.25Q 35 -6.25 70 6.25L 70 50L 0 50L 0 6.25Z" stroke="rgba(50,50,50,1)" stroke-width="2" fill-opacity="1" fill="#ccffcc"></path><g id="SvgjsG1010"><text id="SvgjsText1011" font-family="微软雅黑" text-anchor="middle" font-size="13px" width="50px" fill="#323232" font-weight="400" align="middle" anchor="middle" family="微软雅黑" size="13px" weight="400" font-style="" opacity="1" y="15.05" transform="rotate(0)"></text></g></g><g id="SvgjsG1012" transform="translate(426.99998474121094,25.012496948242188)"><path id="SvgjsPath1013" d="M 6.6000000000000005 0L 13.4 0L 13.4 923.0000076293945L 20 923.0000076293945L 10 933.0000076293945L 0 923.0000076293945L 6.6000000000000005 923.0000076293945L 6.6000000000000005 0Z" stroke="rgba(50,50,50,1)" stroke-width="2" fill-opacity="1" fill="#ffffff"></path><g id="SvgjsG1014"><text id="SvgjsText1015" font-family="微软雅黑" text-anchor="middle" font-size="13px" width="28px" fill="#323232" font-weight="400" align="middle" anchor="middle" family="微软雅黑" size="13px" weight="400" font-style="" opacity="1" y="409.9000034332276" transform="rotate(0)"></text></g></g><g id="SvgjsG1016" transform="translate(184.39999389648438,306.0124969482422)"><path id="SvgjsPath1017" d="M 0 4Q 0 0 4 0L 128 0Q 132 0 132 4L 132 37Q 132 41 128 41L 4 41Q 0 41 0 37Z" stroke="rgba(50,50,50,1)" stroke-width="2" fill-opacity="1" fill="#ffffff"></path><g id="SvgjsG1018"><text id="SvgjsText1019" font-family="微软雅黑" text-anchor="middle" font-size="15px" width="112px" fill="#323232" font-weight="700" align="middle" anchor="middle" family="微软雅黑" size="15px" weight="700" font-style="" opacity="1" y="9.25" transform="rotate(0)"><tspan id="SvgjsTspan1020" dy="18" x="66"><tspan id="SvgjsTspan1021" style="text-decoration:;">Read Buffer</tspan></tspan></text></g></g><g id="SvgjsG1022"><path id="SvgjsPath1023" d="M79.99998474121094 236.0124969482422L79.99998474121094 326.5124969482422L184.39999389648438 326.5124969482422" stroke="#66ff66" stroke-width="2" fill="none" marker-end="url(#SvgjsMarker1024)"></path></g><g id="SvgjsG1026" transform="translate(546.3999938964844,425.0124988555908)"><path id="SvgjsPath1027" d="M 0 4Q 0 0 4 0L 173 0Q 177 0 177 4L 177 67Q 177 71 173 71L 4 71Q 0 71 0 67Z" stroke="rgba(50,50,50,1)" stroke-width="2" fill-opacity="1" fill="#ffffff"></path><g id="SvgjsG1028"><text id="SvgjsText1029" font-family="微软雅黑" text-anchor="middle" font-size="15px" width="157px" fill="#323232" font-weight="700" align="middle" anchor="middle" family="微软雅黑" size="15px" weight="700" font-style="" opacity="1" y="24.25" transform="rotate(0)"><tspan id="SvgjsTspan1030" dy="18" x="88.5"><tspan id="SvgjsTspan1031" style="text-decoration:;">Application Buffer</tspan></tspan></text></g></g><g id="SvgjsG1032"><path id="SvgjsPath1033" d="M316.3999938964844 326.5124969482422L546.3999938964844 460.5124988555908" stroke="#ff3333" stroke-width="2" fill="none" marker-end="url(#SvgjsMarker1034)"></path></g><g id="SvgjsG1036" transform="translate(184.39999389648438,531.9124984741211)"><path id="SvgjsPath1037" d="M 0 4Q 0 0 4 0L 128 0Q 132 0 132 4L 132 37Q 132 41 128 41L 4 41Q 0 41 0 37Z" stroke="rgba(50,50,50,1)" stroke-width="2" fill-opacity="1" fill="#ffffff"></path><g id="SvgjsG1038"><text id="SvgjsText1039" font-family="微软雅黑" text-anchor="middle" font-size="15px" width="112px" fill="#323232" font-weight="700" align="middle" anchor="middle" family="微软雅黑" size="15px" weight="700" font-style="" opacity="1" y="9.25" transform="rotate(0)"><tspan id="SvgjsTspan1040" dy="18" x="66"><tspan id="SvgjsTspan1041" style="text-decoration:;">Socket Buffer</tspan></tspan></text></g></g><g id="SvgjsG1042"><path id="SvgjsPath1043" d="M546.3999938964844 460.5124988555908L316.3999938964844 552.4124984741211" stroke="#ff3333" stroke-width="2" fill="none" marker-end="url(#SvgjsMarker1044)"></path></g><g id="SvgjsG1046" transform="translate(24.999984741210938,644.0124988555908)"><path id="SvgjsPath1047" d="M 10.799999999999999 49.699999999999996C -9 35.5 3.6 24.849999999999998 8.1 21.3C 6.300000000000001 3.5500000000000003 28.8 0 37.8 7.1000000000000005C 45 -3.5500000000000003 67.5 0 67.5 10.65C 85.5 7.1000000000000005 92.7 21.3 85.5 39.050000000000004C 91.8 53.25 85.5 71 64.8 63.9C 60.300000000000004 73.13 42.3 73.13 37.8 63.9C 28.8 71 10.799999999999999 67.45 10.799999999999999 49.699999999999996Z" stroke="rgba(50,50,50,1)" stroke-width="2" fill-opacity="1" fill="#ffffff"></path><g id="SvgjsG1048"><text id="SvgjsText1049" font-family="微软雅黑" text-anchor="middle" font-size="15px" width="70px" fill="#323232" font-weight="700" align="middle" anchor="middle" family="微软雅黑" size="15px" weight="700" font-style="" opacity="1" y="14.75" transform="rotate(0)"><tspan id="SvgjsTspan1050" dy="18" x="45"><tspan id="SvgjsTspan1051" style="text-decoration:;">NIC </tspan></tspan><tspan id="SvgjsTspan1052" dy="18" x="45"><tspan id="SvgjsTspan1053" style="text-decoration:;">Buffer</tspan></tspan></text></g></g><g id="SvgjsG1054"><path id="SvgjsPath1055" d="M184.39999389648438 552.4124984741211L146.9434847412109 552.4124984741211L146.9434847412109 660.1124988555908L110.88698474121094 660.1124988555908" stroke="#66ff66" stroke-width="3" fill="none" marker-end="url(#SvgjsMarker1056)"></path></g><g id="SvgjsG1058" transform="translate(35.399993896484375,329.0124969482422)"><path id="SvgjsPath1059" d="M 0 0L 120 0L 120 41L 0 41Z" stroke="none" fill="none"></path><g id="SvgjsG1060"><text id="SvgjsText1061" font-family="微软雅黑" text-anchor="middle" font-size="15px" width="120px" fill="#009999" font-weight="700" align="middle" anchor="middle" family="微软雅黑" size="15px" weight="700" font-style="" opacity="1" y="-0.25" transform="rotate(0)"><tspan id="SvgjsTspan1062" dy="18" x="60"><tspan id="SvgjsTspan1063" style="text-decoration:;">1</tspan></tspan><tspan id="SvgjsTspan1064" dy="18" x="60"><tspan id="SvgjsTspan1065" style="text-decoration:;">DMA Copy</tspan></tspan></text></g></g><g id="SvgjsG1066" transform="translate(333.3999938964844,384.0124988555908)"><path id="SvgjsPath1067" d="M 0 0L 120 0L 120 41L 0 41Z" stroke="none" fill="none"></path><g id="SvgjsG1068"><text id="SvgjsText1069" font-family="微软雅黑" text-anchor="middle" font-size="15px" width="120px" fill="#ff6666" font-weight="700" align="middle" anchor="middle" family="微软雅黑" size="15px" weight="700" font-style="" opacity="1" y="-0.25" transform="rotate(0)"><tspan id="SvgjsTspan1070" dy="18" x="60"><tspan id="SvgjsTspan1071" style="text-decoration:;">2</tspan></tspan><tspan id="SvgjsTspan1072" dy="18" x="60"><tspan id="SvgjsTspan1073" style="text-decoration:;">CPU Copy</tspan></tspan></text></g></g><g id="SvgjsG1074" transform="translate(326.99998474121094,468.9124984741211)"><path id="SvgjsPath1075" d="M 0 0L 120 0L 120 41L 0 41Z" stroke="none" fill="none"></path><g id="SvgjsG1076"><text id="SvgjsText1077" font-family="微软雅黑" text-anchor="middle" font-size="15px" width="120px" fill="#ff6666" font-weight="700" align="middle" anchor="middle" family="微软雅黑" size="15px" weight="700" font-style="" opacity="1" y="-0.25" transform="rotate(0)"><tspan id="SvgjsTspan1078" dy="18" x="60"><tspan id="SvgjsTspan1079" style="text-decoration:;">3</tspan></tspan><tspan id="SvgjsTspan1080" dy="18" x="60"><tspan id="SvgjsTspan1081" style="text-decoration:;">CPU Copy</tspan></tspan></text></g></g><g id="SvgjsG1082" transform="translate(35.399993896484375,580.0124969482422)"><path id="SvgjsPath1083" d="M 0 0L 120 0L 120 41L 0 41Z" stroke="none" fill="none"></path><g id="SvgjsG1084"><text id="SvgjsText1085" font-family="微软雅黑" text-anchor="middle" font-size="15px" width="120px" fill="#ff6666" font-weight="700" align="middle" anchor="middle" family="微软雅黑" size="15px" weight="700" font-style="" opacity="1" y="-0.25" transform="rotate(0)"><tspan id="SvgjsTspan1086" dy="18" x="60"><tspan id="SvgjsTspan1087" style="text-decoration:;">4</tspan></tspan><tspan id="SvgjsTspan1088" dy="18" x="60"><tspan id="SvgjsTspan1089" style="text-decoration:;">DMA Copy</tspan></tspan></text></g></g><g id="SvgjsG1090" transform="translate(149.89999389648438,51.412498474121094)"><path id="SvgjsPath1091" d="M 0 0L 185 0L 201 16L 201 50L 0 50L 0 0Z" stroke="none" fill-opacity="1" fill="#ffffaa"></path><path id="SvgjsPath1092" d="M 185 0L 185 16L 201 16Z" stroke="none" fill-opacity="1" fill="#cdcdcd"></path><path id="SvgjsPath1093" d="M 0 0L 185 0L 201 16L 201 50L 0 50L 0 0Z" stroke="none" fill="none"></path><g id="SvgjsG1094"><text id="SvgjsText1095" font-family="微软雅黑" text-anchor="middle" font-size="13px" width="181px" fill="#323232" font-weight="400" align="middle" anchor="middle" family="微软雅黑" size="13px" weight="400" font-style="" opacity="1" y="15.05" transform="rotate(0)"><tspan id="SvgjsTspan1096" dy="16" x="100.5"><tspan id="SvgjsTspan1097" style="text-decoration:;">Kernel Context</tspan></tspan></text></g></g><g id="SvgjsG1098" transform="translate(528.3999938964844,51.412498474121094)"><path id="SvgjsPath1099" d="M 0 0L 185 0L 201 16L 201 50L 0 50L 0 0Z" stroke="none" fill-opacity="1" fill="#ffffaa"></path><path id="SvgjsPath1100" d="M 185 0L 185 16L 201 16Z" stroke="none" fill-opacity="1" fill="#cdcdcd"></path><path id="SvgjsPath1101" d="M 0 0L 185 0L 201 16L 201 50L 0 50L 0 0Z" stroke="none" fill="none"></path><g id="SvgjsG1102"><text id="SvgjsText1103" font-family="微软雅黑" text-anchor="middle" font-size="13px" width="181px" fill="#323232" font-weight="400" align="middle" anchor="middle" family="微软雅黑" size="13px" weight="400" font-style="" opacity="1" y="15.05" transform="rotate(0)"><tspan id="SvgjsTspan1104" dy="16" x="100.5"><tspan id="SvgjsTspan1105" style="text-decoration:;">Application Context</tspan></tspan></text></g></g></svg>