<svg id="SvgjsSvg1231" width="442" height="367.5" xmlns="http://www.w3.org/2000/svg" version="1.1" xmlns:xlink="http://www.w3.org/1999/xlink" xmlns:svgjs="http://svgjs.com/svgjs"><defs id="SvgjsDefs1232"><marker id="SvgjsMarker1247" markerWidth="16" markerHeight="12" refX="16" refY="6" viewBox="0 0 16 12" orient="auto" markerUnits="userSpaceOnUse" stroke-dasharray="0,0"><path id="SvgjsPath1248" d="M0,2 L14,6 L0,11 L0,2" fill="#323232" stroke="#323232" stroke-width="2"></path></marker><marker id="SvgjsMarker1263" markerWidth="16" markerHeight="12" refX="16" refY="6" viewBox="0 0 16 12" orient="auto" markerUnits="userSpaceOnUse" stroke-dasharray="0,0"><path id="SvgjsPath1264" d="M0,2 L14,6 L0,11 L0,2" fill="#323232" stroke="#323232" stroke-width="2"></path></marker></defs><g id="SvgjsG1233" transform="translate(25,157)"><path id="SvgjsPath1234" d="M 0 4Q 0 0 4 0L 96 0Q 100 0 100 4L 100 66Q 100 70 96 70L 4 70Q 0 70 0 66Z" stroke="rgba(50,50,50,1)" stroke-width="2" fill-opacity="1" fill="#ff6666"></path><g id="SvgjsG1235"><text id="SvgjsText1236" font-family="微软雅黑" text-anchor="middle" font-size="14px" width="80px" fill="#323232" font-weight="700" align="middle" anchor="middle" family="微软雅黑" size="14px" weight="700" font-style="" opacity="1" y="23.9" transform="rotate(0)"><tspan id="SvgjsTspan1237" dy="17" x="50"><tspan id="SvgjsTspan1238" style="text-decoration:;">RDD</tspan></tspan></text></g></g><g id="SvgjsG1239" transform="translate(310,25)"><path id="SvgjsPath1240" d="M 0 4Q 0 0 4 0L 96 0Q 100 0 100 4L 100 66Q 100 70 96 70L 4 70Q 0 70 0 66Z" stroke="rgba(50,50,50,1)" stroke-width="2" fill-opacity="1" fill="#ff9999"></path><g id="SvgjsG1241"><text id="SvgjsText1242" font-family="微软雅黑" text-anchor="middle" font-size="14px" width="80px" fill="#323232" font-weight="700" align="middle" anchor="middle" family="微软雅黑" size="14px" weight="700" font-style="" opacity="1" y="23.9" transform="rotate(0)"><tspan id="SvgjsTspan1243" dy="17" x="50"><tspan id="SvgjsTspan1244" style="text-decoration:;">新的RDD</tspan></tspan></text></g></g><g id="SvgjsG1245"><path id="SvgjsPath1246" d="M125 192L310 60" stroke="#323232" stroke-width="2" fill="none" marker-end="url(#SvgjsMarker1247)"></path><rect id="SvgjsRect1249" width="102" height="32" x="166.49999999999994" y="111" fill="#ffffff"></rect><text id="SvgjsText1250" font-family="微软雅黑" text-anchor="middle" font-size="13px" width="102px" fill="#5c5c5c" font-weight="700" align="top" anchor="middle" family="微软雅黑" size="13px" weight="700" font-style="" opacity="1" y="109.05" transform="rotate(0)"><tspan id="SvgjsTspan1251" dy="16" x="217.49999999999994"><tspan id="SvgjsTspan1252" style="text-decoration:;">Transformation</tspan></tspan><tspan id="SvgjsTspan1253" dy="16" x="217.49999999999994"><tspan id="SvgjsTspan1254" style="text-decoration:;">map、filter...</tspan></tspan></text></g><g id="SvgjsG1255" transform="translate(303,273.5)"><path id="SvgjsPath1256" d="M 28.5 68.5L 0 16.303Q 57 -16.303 114 16.303L 85.5 68.5Q 57 54.800000000000004 28.5 68.5Z" stroke="rgba(50,50,50,1)" stroke-width="2" fill-opacity="1" fill="#e6ffcc"></path><g id="SvgjsG1257"><text id="SvgjsText1258" font-family="微软雅黑" text-anchor="middle" font-size="13px" width="94px" fill="#323232" font-weight="700" align="middle" anchor="middle" family="微软雅黑" size="13px" weight="700" font-style="" opacity="1" y="24.3" transform="rotate(0)"><tspan id="SvgjsTspan1259" dy="16" x="57"><tspan id="SvgjsTspan1260" style="text-decoration:;">Save/Display</tspan></tspan></text></g></g><g id="SvgjsG1261"><path id="SvgjsPath1262" d="M125 192L303 289.803" stroke="#323232" stroke-width="2" fill="none" marker-end="url(#SvgjsMarker1263)"></path><rect id="SvgjsRect1265" width="165" height="32" x="131.5" y="224.9015" fill="#ffffff"></rect><text id="SvgjsText1266" font-family="微软雅黑" text-anchor="middle" font-size="13px" width="165px" fill="#323232" font-weight="700" align="top" anchor="middle" family="微软雅黑" size="13px" weight="700" font-style="" opacity="1" y="222.9515" transform="rotate(0)"><tspan id="SvgjsTspan1267" dy="16" x="214"><tspan id="SvgjsTspan1268" style="text-decoration:;">Actions</tspan></tspan><tspan id="SvgjsTspan1269" dy="16" x="214"><tspan id="SvgjsTspan1270" style="text-decoration:;">saveAsTextFile、reduce...</tspan></tspan></text></g></svg>