<svg id="SvgjsSvg1390" width="1432" height="569" xmlns="http://www.w3.org/2000/svg" version="1.1" xmlns:xlink="http://www.w3.org/1999/xlink" xmlns:svgjs="http://svgjs.com/svgjs"><defs id="SvgjsDefs1391"><marker id="SvgjsMarker1464" markerWidth="16" markerHeight="12" refX="16" refY="6" viewBox="0 0 16 12" orient="auto" markerUnits="userSpaceOnUse" stroke-dasharray="0,0"><path id="SvgjsPath1465" d="M0,2 L14,6 L0,11 L0,2" fill="#323232" stroke="#323232" stroke-width="2"></path></marker><marker id="SvgjsMarker1472" markerWidth="16" markerHeight="12" refX="16" refY="6" viewBox="0 0 16 12" orient="auto" markerUnits="userSpaceOnUse" stroke-dasharray="0,0"><path id="SvgjsPath1473" d="M0,2 L14,6 L0,11 L0,2" fill="#323232" stroke="#323232" stroke-width="2"></path></marker><marker id="SvgjsMarker1476" markerWidth="16" markerHeight="12" refX="16" refY="6" viewBox="0 0 16 12" orient="auto" markerUnits="userSpaceOnUse" stroke-dasharray="0,0"><path id="SvgjsPath1477" d="M0,2 L14,6 L0,11 L0,2" fill="#323232" stroke="#323232" stroke-width="2"></path></marker><marker id="SvgjsMarker1492" markerWidth="16" markerHeight="12" refX="16" refY="6" viewBox="0 0 16 12" orient="auto" markerUnits="userSpaceOnUse" stroke-dasharray="0,0"><path id="SvgjsPath1493" d="M0,2 L14,6 L0,11 L0,2" fill="#323232" stroke="#323232" stroke-width="2"></path></marker><marker id="SvgjsMarker1500" markerWidth="16" markerHeight="12" refX="16" refY="6" viewBox="0 0 16 12" orient="auto" markerUnits="userSpaceOnUse" stroke-dasharray="0,0"><path id="SvgjsPath1501" d="M0,2 L14,6 L0,11 L0,2" fill="#323232" stroke="#323232" stroke-width="2"></path></marker><marker id="SvgjsMarker1508" markerWidth="16" markerHeight="12" refX="16" refY="6" viewBox="0 0 16 12" orient="auto" markerUnits="userSpaceOnUse" stroke-dasharray="0,0"><path id="SvgjsPath1509" d="M0,2 L14,6 L0,11 L0,2" fill="#323232" stroke="#323232" stroke-width="2"></path></marker><marker id="SvgjsMarker1512" markerWidth="16" markerHeight="12" refX="16" refY="6" viewBox="0 0 16 12" orient="auto" markerUnits="userSpaceOnUse" stroke-dasharray="0,0"><path id="SvgjsPath1513" d="M0,2 L14,6 L0,11 L0,2" fill="#323232" stroke="#323232" stroke-width="2"></path></marker><marker id="SvgjsMarker1516" markerWidth="16" markerHeight="12" refX="16" refY="6" viewBox="0 0 16 12" orient="auto" markerUnits="userSpaceOnUse" stroke-dasharray="0,0"><path id="SvgjsPath1517" d="M0,2 L14,6 L0,11 L0,2" fill="#323232" stroke="#323232" stroke-width="2"></path></marker><marker id="SvgjsMarker1526" markerWidth="16" markerHeight="12" refX="16" refY="6" viewBox="0 0 16 12" orient="auto" markerUnits="userSpaceOnUse" stroke-dasharray="0,0"><path id="SvgjsPath1527" d="M0,2 L14,6 L0,11 L0,2" fill="#323232" stroke="#323232" stroke-width="2"></path></marker><marker id="SvgjsMarker1560" markerWidth="16" markerHeight="12" refX="16" refY="6" viewBox="0 0 16 12" orient="auto" markerUnits="userSpaceOnUse" stroke-dasharray="0,0"><path id="SvgjsPath1561" d="M0,2 L14,6 L0,11 L0,2" fill="#323232" stroke="#323232" stroke-width="2"></path></marker></defs><g id="SvgjsG1392" transform="translate(247,75)"><path id="SvgjsPath1393" d="M 0 0L 1028 0L 1028 469L 0 469Z" stroke="rgba(50,50,50,1)" stroke-width="2" fill-opacity="1" fill="#e5e5e5"></path><g id="SvgjsG1394"><text id="SvgjsText1395" font-family="微软雅黑" text-anchor="middle" font-size="13px" width="1008px" fill="#323232" font-weight="400" align="middle" anchor="middle" family="微软雅黑" size="13px" weight="400" font-style="" opacity="1" y="224.55" transform="rotate(0)"></text></g></g><g id="SvgjsG1396" transform="translate(25,325)"><path id="SvgjsPath1397" d="M 17.16 88.19999999999999C -14.3 63 5.72 44.099999999999994 12.87 37.8C 10.010000000000002 6.300000000000001 45.76 0 60.059999999999995 12.600000000000001C 71.5 -6.300000000000001 107.25 0 107.25 18.9C 135.85 12.600000000000001 147.29 37.8 135.85 69.30000000000001C 145.86 94.5 135.85 126 102.96 113.4C 95.81 129.78 67.21 129.78 60.059999999999995 113.4C 45.76 126 17.16 119.69999999999999 17.16 88.19999999999999Z" stroke="rgba(50,50,50,1)" stroke-width="2" fill-opacity="1" fill="#00cccc"></path><g id="SvgjsG1398"><text id="SvgjsText1399" font-family="微软雅黑" text-anchor="middle" font-size="15px" width="123px" fill="#323232" font-weight="700" align="middle" anchor="middle" family="微软雅黑" size="15px" weight="700" font-style="" opacity="1" y="51.25" transform="rotate(0)"><tspan id="SvgjsTspan1400" dy="18" x="71.5"><tspan id="SvgjsTspan1401" style="text-decoration:;">Web Server</tspan></tspan></text></g></g><g id="SvgjsG1402" transform="translate(310,108)"><path id="SvgjsPath1403" d="M 0 37C 0 -12.333333333333334 140 -12.333333333333334 140 37C 140 86.33333333333333 0 86.33333333333333 0 37Z" stroke="rgba(50,50,50,1)" stroke-width="2" fill-opacity="1" fill="#ff66ff"></path><g id="SvgjsG1404"><text id="SvgjsText1405" font-family="微软雅黑" text-anchor="middle" font-size="17px" width="120px" fill="#323232" font-weight="700" align="middle" anchor="middle" family="微软雅黑" size="17px" weight="700" font-style="" opacity="1" y="23.95" transform="rotate(0)"><tspan id="SvgjsTspan1406" dy="21" x="70"><tspan id="SvgjsTspan1407" style="text-decoration:;">Source</tspan></tspan></text></g></g><g id="SvgjsG1408" transform="translate(1119,97)"><path id="SvgjsPath1409" d="M 0 37C 0 -12.333333333333334 140 -12.333333333333334 140 37C 140 86.33333333333333 0 86.33333333333333 0 37Z" stroke="rgba(50,50,50,1)" stroke-width="2" fill-opacity="1" fill="#ccff99"></path><g id="SvgjsG1410"><text id="SvgjsText1411" font-family="微软雅黑" text-anchor="middle" font-size="17px" width="120px" fill="#323232" font-weight="700" align="middle" anchor="middle" family="微软雅黑" size="17px" weight="700" font-style="" opacity="1" y="23.95" transform="rotate(0)"><tspan id="SvgjsTspan1412" dy="21" x="70"><tspan id="SvgjsTspan1413" style="text-decoration:;">Sink</tspan></tspan></text></g></g><g id="SvgjsG1414" transform="translate(615,392)"><path id="SvgjsPath1415" d="M 44.699999999999996 0L 281.6666666666667 0C 302.45454545454544 0 302.45454545454544 98 281.6666666666667 98L 44.699999999999996 98C -14.9 98 -14.9 0 44.699999999999996 0ZM 281.6666666666667 0C 261.25 0 261.25 98 281.6666666666667 98C 261.25 98 261.25 0 281.6666666666667 0" stroke="rgba(50,50,50,1)" stroke-width="2" fill-opacity="1" fill="#cfcfcf"></path><g id="SvgjsG1416"><text id="SvgjsText1417" font-family="微软雅黑" text-anchor="middle" font-size="13px" width="239px" fill="#323232" font-weight="400" align="middle" anchor="middle" family="微软雅黑" size="13px" weight="400" font-style="" opacity="1" y="39.05" transform="rotate(0)"></text></g></g><g id="SvgjsG1418" transform="translate(295,274)"><path id="SvgjsPath1419" d="M 0 4Q 0 0 4 0L 289 0Q 293 0 293 4L 293 96Q 293 100 289 100L 4 100Q 0 100 0 96Z" stroke="rgba(50,50,50,1)" stroke-width="2" fill-opacity="1" fill="#cce5ff"></path><g id="SvgjsG1420"><text id="SvgjsText1421" font-family="微软雅黑" text-anchor="middle" font-size="13px" width="273px" fill="#323232" font-weight="400" align="middle" anchor="middle" family="微软雅黑" size="13px" weight="400" font-style="" opacity="1" y="40.05" transform="rotate(0)"></text></g></g><g id="SvgjsG1422" transform="translate(952,275)"><path id="SvgjsPath1423" d="M 0 4Q 0 0 4 0L 233 0Q 237 0 237 4L 237 96Q 237 100 233 100L 4 100Q 0 100 0 96Z" stroke="rgba(50,50,50,1)" stroke-width="2" fill-opacity="1" fill="#ccffff"></path><g id="SvgjsG1424"><text id="SvgjsText1425" font-family="微软雅黑" text-anchor="middle" font-size="13px" width="217px" fill="#323232" font-weight="400" align="middle" anchor="middle" family="微软雅黑" size="13px" weight="400" font-style="" opacity="1" y="40.05" transform="rotate(0)"></text></g></g><g id="SvgjsG1426" transform="translate(310,305)"><path id="SvgjsPath1427" d="M 0 4Q 0 0 4 0L 74 0Q 78 0 78 4L 78 38Q 78 42 74 42L 4 42Q 0 42 0 38Z" stroke="rgba(50,50,50,1)" stroke-width="2" fill-opacity="1" fill="#e5ccff"></path><g id="SvgjsG1428"><text id="SvgjsText1429" font-family="微软雅黑" text-anchor="middle" font-size="13px" width="58px" fill="#323232" font-weight="400" align="middle" anchor="middle" family="微软雅黑" size="13px" weight="400" font-style="" opacity="1" y="11.05" transform="rotate(0)"><tspan id="SvgjsTspan1430" dy="16" x="39"><tspan id="SvgjsTspan1431" style="text-decoration:;">doPut</tspan></tspan></text></g></g><g id="SvgjsG1432" transform="translate(429,297)"><path id="SvgjsPath1433" d="M 0 4Q 0 0 4 0L 74 0Q 78 0 78 4L 78 38Q 78 42 74 42L 4 42Q 0 42 0 38Z" stroke="rgba(50,50,50,1)" stroke-width="2" fill-opacity="1" fill="#cc99ff"></path><g id="SvgjsG1434"><text id="SvgjsText1435" font-family="微软雅黑" text-anchor="middle" font-size="14px" width="58px" fill="#323232" font-weight="700" align="middle" anchor="middle" family="微软雅黑" size="14px" weight="700" font-style="" opacity="1" y="9.9" transform="rotate(0)"><tspan id="SvgjsTspan1436" dy="17" x="39"><tspan id="SvgjsTspan1437" style="text-decoration:;">putList</tspan></tspan></text></g></g><g id="SvgjsG1438" transform="translate(641,419)"><path id="SvgjsPath1439" d="M 0 4Q 0 0 4 0L 60 0Q 64 0 64 4L 64 40Q 64 44 60 44L 4 44Q 0 44 0 40Z" stroke="rgba(50,50,50,1)" stroke-width="2" fill-opacity="1" fill="#ffff99"></path><g id="SvgjsG1440"><text id="SvgjsText1441" font-family="微软雅黑" text-anchor="middle" font-size="13px" width="44px" fill="#323232" font-weight="400" align="middle" anchor="middle" family="微软雅黑" size="13px" weight="400" font-style="" opacity="1" y="12.05" transform="rotate(0)"><tspan id="SvgjsTspan1442" dy="16" x="32"><tspan id="SvgjsTspan1443" style="text-decoration:;">Event</tspan></tspan></text></g></g><g id="SvgjsG1444" transform="translate(721,419)"><path id="SvgjsPath1445" d="M 0 4Q 0 0 4 0L 60 0Q 64 0 64 4L 64 40Q 64 44 60 44L 4 44Q 0 44 0 40Z" stroke="rgba(50,50,50,1)" stroke-width="2" fill-opacity="1" fill="#ffff99"></path><g id="SvgjsG1446"><text id="SvgjsText1447" font-family="微软雅黑" text-anchor="middle" font-size="13px" width="44px" fill="#323232" font-weight="400" align="middle" anchor="middle" family="微软雅黑" size="13px" weight="400" font-style="" opacity="1" y="12.05" transform="rotate(0)"><tspan id="SvgjsTspan1448" dy="16" x="32"><tspan id="SvgjsTspan1449" style="text-decoration:;">Event</tspan></tspan></text></g></g><g id="SvgjsG1450" transform="translate(800,419)"><path id="SvgjsPath1451" d="M 0 4Q 0 0 4 0L 60 0Q 64 0 64 4L 64 40Q 64 44 60 44L 4 44Q 0 44 0 40Z" stroke="rgba(50,50,50,1)" stroke-width="2" fill-opacity="1" fill="#ffff99"></path><g id="SvgjsG1452"><text id="SvgjsText1453" font-family="微软雅黑" text-anchor="middle" font-size="13px" width="44px" fill="#323232" font-weight="400" align="middle" anchor="middle" family="微软雅黑" size="13px" weight="400" font-style="" opacity="1" y="12.05" transform="rotate(0)"><tspan id="SvgjsTspan1454" dy="16" x="32"><tspan id="SvgjsTspan1455" style="text-decoration:;">Event</tspan></tspan></text></g></g><g id="SvgjsG1456" transform="translate(1051,300)"><path id="SvgjsPath1457" d="M 0 4Q 0 0 4 0L 81 0Q 85 0 85 4L 85 38Q 85 42 81 42L 4 42Q 0 42 0 38Z" stroke="rgba(50,50,50,1)" stroke-width="2" fill-opacity="1" fill="#ccffcc"></path><g id="SvgjsG1458"><text id="SvgjsText1459" font-family="微软雅黑" text-anchor="middle" font-size="14px" width="65px" fill="#323232" font-weight="700" align="middle" anchor="middle" family="微软雅黑" size="14px" weight="700" font-style="" opacity="1" y="9.9" transform="rotate(0)"><tspan id="SvgjsTspan1460" dy="17" x="42.5"><tspan id="SvgjsTspan1461" style="text-decoration:;">TakeList</tspan></tspan></text></g></g><g id="SvgjsG1462"><path id="SvgjsPath1463" d="M380 182C 309 231 228.8015105912529 324 295 324" stroke="#323232" stroke-width="2" fill="none" marker-end="url(#SvgjsMarker1464)"></path><rect id="SvgjsRect1466" width="66" height="16" x="253.05056647171983" y="263.375" fill="#ffffff"></rect><text id="SvgjsText1467" font-family="微软雅黑" text-anchor="middle" font-size="13px" width="66px" fill="#323232" font-weight="400" align="top" anchor="middle" family="微软雅黑" size="13px" weight="400" font-style="" opacity="1" y="261.425" transform="rotate(0)"><tspan id="SvgjsTspan1468" dy="16" x="286.05056647171983"><tspan id="SvgjsTspan1469" style="text-decoration:;">batch data</tspan></tspan></text></g><g id="SvgjsG1470"><path id="SvgjsPath1471" d="M161.4649 353.98C 254.41183677106358 310.63813158160445 209.00245230136437 162.8085926446596 310 145" stroke="#323232" stroke-width="2" fill="none" marker-end="url(#SvgjsMarker1472)"></path></g><g id="SvgjsG1474"><path id="SvgjsPath1475" d="M388 326L429 318" stroke="#323232" stroke-width="2" fill="none" marker-end="url(#SvgjsMarker1476)"></path></g><g id="SvgjsG1478" transform="translate(435.5,201)"><path id="SvgjsPath1479" d="M 0 0L 120 0L 120 40L 0 40Z" stroke="none" fill="none"></path><g id="SvgjsG1480"><text id="SvgjsText1481" font-family="微软雅黑" text-anchor="middle" font-size="15px" width="120px" fill="#323232" font-weight="700" align="middle" anchor="middle" family="微软雅黑" size="15px" weight="700" font-style="" opacity="1" y="8.25" transform="rotate(0)"><tspan id="SvgjsTspan1482" dy="18" x="60"><tspan id="SvgjsTspan1483" style="text-decoration:;">Transaction</tspan></tspan></text></g></g><g id="SvgjsG1484" transform="translate(980.5,209)"><path id="SvgjsPath1485" d="M 0 0L 120 0L 120 40L 0 40Z" stroke="none" fill="none"></path><g id="SvgjsG1486"><text id="SvgjsText1487" font-family="微软雅黑" text-anchor="middle" font-size="15px" width="120px" fill="#323232" font-weight="700" align="middle" anchor="middle" family="微软雅黑" size="15px" weight="700" font-style="" opacity="1" y="8.25" transform="rotate(0)"><tspan id="SvgjsTspan1488" dy="18" x="60"><tspan id="SvgjsTspan1489" style="text-decoration:;">Transaction</tspan></tspan></text></g></g><g id="SvgjsG1490"><path id="SvgjsPath1491" d="M588 324L615 441" stroke="#323232" stroke-width="2" fill="none" marker-end="url(#SvgjsMarker1492)"></path><rect id="SvgjsRect1494" width="32" height="16" x="585.5" y="374.5" fill="#ffffff"></rect><text id="SvgjsText1495" font-family="微软雅黑" text-anchor="middle" font-size="13px" width="32px" fill="#323232" font-weight="700" align="top" anchor="middle" family="微软雅黑" size="13px" weight="700" font-style="" opacity="1" y="372.55" transform="rotate(0)"><tspan id="SvgjsTspan1496" dy="16" x="601.5"><tspan id="SvgjsTspan1497" style="text-decoration:;">Push</tspan></tspan></text></g><g id="SvgjsG1498"><path id="SvgjsPath1499" d="M913 441L952 325" stroke="#323232" stroke-width="2" fill="none" marker-end="url(#SvgjsMarker1500)"></path><rect id="SvgjsRect1502" width="35" height="16" x="915" y="375" fill="#ffffff"></rect><text id="SvgjsText1503" font-family="微软雅黑" text-anchor="middle" font-size="13px" width="35px" fill="#323232" font-weight="700" align="top" anchor="middle" family="微软雅黑" size="13px" weight="700" font-style="" opacity="1" y="373.05" transform="rotate(0)"><tspan id="SvgjsTspan1504" dy="16" x="932.5"><tspan id="SvgjsTspan1505" style="text-decoration:;">Fetch</tspan></tspan></text></g><g id="SvgjsG1506"><path id="SvgjsPath1507" d="M1189 325C 1250.6 325 1189 232.60000000000002 1189 171" stroke="#323232" stroke-width="2" fill="none" marker-end="url(#SvgjsMarker1508)"></path></g><g id="SvgjsG1510"><path id="SvgjsPath1511" d="M507 318C 533.9458716689588 318 547.2 322.2 574 325" stroke="#323232" stroke-width="2" fill="none" marker-end="url(#SvgjsMarker1512)"></path></g><g id="SvgjsG1514"><path id="SvgjsPath1515" d="M1136 321C 1154.4 321 1163.6 321 1182 321" stroke="#323232" stroke-width="2" fill="none" marker-end="url(#SvgjsMarker1516)"></path></g><g id="SvgjsG1518" transform="translate(489,324)"><path id="SvgjsPath1519" d="M 0 0L 120 0L 120 40L 0 40Z" stroke="none" fill="none"></path><g id="SvgjsG1520"><text id="SvgjsText1521" font-family="微软雅黑" text-anchor="middle" font-size="13px" width="120px" fill="#323232" font-weight="700" align="middle" anchor="middle" family="微软雅黑" size="13px" weight="700" font-style="" opacity="1" y="10.05" transform="rotate(0)"><tspan id="SvgjsTspan1522" dy="16" x="60"><tspan id="SvgjsTspan1523" style="text-decoration:;">doCommit</tspan></tspan></text></g></g><g id="SvgjsG1524"><path id="SvgjsPath1525" d="M1259 134C 1356.7437446700492 151.23485938080893 1347 266.7484005166667 1347 366" stroke="#323232" stroke-width="2" fill="none" marker-end="url(#SvgjsMarker1526)"></path></g><g id="SvgjsG1528" transform="translate(693,114)"><path id="SvgjsPath1529" d="M 0 0L 120 0L 120 40L 0 40Z" stroke="none" fill="none"></path><g id="SvgjsG1530"><text id="SvgjsText1531" font-family="微软雅黑" text-anchor="middle" font-size="17px" width="120px" fill="#323232" font-weight="700" align="middle" anchor="middle" family="微软雅黑" size="17px" weight="700" font-style="" opacity="1" y="6.95" transform="rotate(0)"><tspan id="SvgjsTspan1532" dy="21" x="60"><tspan id="SvgjsTspan1533" style="text-decoration:;">Agent</tspan></tspan></text></g></g><g id="SvgjsG1534" transform="translate(674.5,25)"><path id="SvgjsPath1535" d="M 0 0L 157 0L 157 59L 0 59Z" stroke="none" fill="none"></path><g id="SvgjsG1536"><text id="SvgjsText1537" font-family="微软雅黑" text-anchor="middle" font-size="17px" width="157px" fill="#323232" font-weight="700" align="middle" anchor="middle" family="微软雅黑" size="17px" weight="700" font-style="" opacity="1" y="16.45" transform="rotate(0)"><tspan id="SvgjsTspan1538" dy="21" x="78.5"><tspan id="SvgjsTspan1539" style="text-decoration:;">Flume流式处理</tspan></tspan></text></g></g><g id="SvgjsG1540" transform="translate(693,347)"><path id="SvgjsPath1541" d="M 0 0L 120 0L 120 40L 0 40Z" stroke="none" fill="none"></path><g id="SvgjsG1542"><text id="SvgjsText1543" font-family="微软雅黑" text-anchor="middle" font-size="17px" width="120px" fill="#323232" font-weight="700" align="middle" anchor="middle" family="微软雅黑" size="17px" weight="700" font-style="" opacity="1" y="6.95" transform="rotate(0)"><tspan id="SvgjsTspan1544" dy="21" x="60"><tspan id="SvgjsTspan1545" style="text-decoration:;">Channel</tspan></tspan></text></g></g><g id="SvgjsG1546" transform="translate(333.5,404)"><path id="SvgjsPath1547" d="M 0 0L 120 0L 120 40L 0 40Z" stroke="none" fill="none"></path><g id="SvgjsG1548"><text id="SvgjsText1549" font-family="微软雅黑" text-anchor="middle" font-size="15px" width="120px" fill="#323232" font-weight="700" align="middle" anchor="middle" family="微软雅黑" size="15px" weight="700" font-style="" opacity="1" y="8.25" transform="rotate(0)"><tspan id="SvgjsTspan1550" dy="18" x="60"><tspan id="SvgjsTspan1551" style="text-decoration:;">doRollBack</tspan></tspan></text></g></g><g id="SvgjsG1552" transform="translate(1048.5,411)"><path id="SvgjsPath1553" d="M 0 0L 120 0L 120 40L 0 40Z" stroke="none" fill="none"></path><g id="SvgjsG1554"><text id="SvgjsText1555" font-family="微软雅黑" text-anchor="middle" font-size="15px" width="120px" fill="#323232" font-weight="700" align="middle" anchor="middle" family="微软雅黑" size="15px" weight="700" font-style="" opacity="1" y="8.25" transform="rotate(0)"><tspan id="SvgjsTspan1556" dy="18" x="60"><tspan id="SvgjsTspan1557" style="text-decoration:;">doRollBack</tspan></tspan></text></g></g><g id="SvgjsG1558"><path id="SvgjsPath1559" d="M968 323C 997.2 323 1011.8 323 1041 323" stroke="#323232" stroke-width="2" fill="none" marker-end="url(#SvgjsMarker1560)"></path></g><g id="SvgjsG1562" transform="translate(936,279)"><path id="SvgjsPath1563" d="M 0 0L 120 0L 120 40L 0 40Z" stroke="none" fill="none"></path><g id="SvgjsG1564"><text id="SvgjsText1565" font-family="微软雅黑" text-anchor="middle" font-size="13px" width="120px" fill="#323232" font-weight="700" align="middle" anchor="middle" family="微软雅黑" size="13px" weight="700" font-style="" opacity="1" y="10.05" transform="rotate(0)"><tspan id="SvgjsTspan1566" dy="16" x="60"><tspan id="SvgjsTspan1567" style="text-decoration:;">doTake</tspan></tspan></text></g></g><g id="SvgjsG1568" transform="translate(1114,319)"><path id="SvgjsPath1569" d="M 0 0L 120 0L 120 40L 0 40Z" stroke="none" fill="none"></path><g id="SvgjsG1570"><text id="SvgjsText1571" font-family="微软雅黑" text-anchor="middle" font-size="13px" width="120px" fill="#323232" font-weight="700" align="middle" anchor="middle" family="微软雅黑" size="13px" weight="700" font-style="" opacity="1" y="10.05" transform="rotate(0)"><tspan id="SvgjsTspan1572" dy="16" x="60"><tspan id="SvgjsTspan1573" style="text-decoration:;">doCommit</tspan></tspan></text></g></g><g id="SvgjsG1574" transform="matrix(-1.8369701987210297e-16,-1,1,-1.8369701987210297e-16,1312,466)"><path id="SvgjsPath1575" d="M 15 0L 88.33333333333333 0C 103.18181818181819 0 103.18181818181819 70 88.33333333333333 70L 15 70C -5 70 -5 0 15 0ZM 88.33333333333333 0C 73.75 0 73.75 70 88.33333333333333 70C 73.75 70 73.75 0 88.33333333333333 0" stroke="rgba(50,50,50,1)" stroke-width="2" fill-opacity="1" fill="#80ff00"></path><g id="SvgjsG1576"><text id="SvgjsText1577" font-family="微软雅黑" text-anchor="middle" font-size="13px" width="80px" fill="#323232" font-weight="400" align="middle" anchor="middle" family="微软雅黑" size="13px" weight="400" font-style="" opacity="1" y="25.05" transform="rotate(0)"></text></g></g><g id="SvgjsG1578" transform="translate(1287,471)"><path id="SvgjsPath1579" d="M 0 0L 120 0L 120 40L 0 40Z" stroke="none" fill="none"></path><g id="SvgjsG1580"><text id="SvgjsText1581" font-family="微软雅黑" text-anchor="middle" font-size="13px" width="120px" fill="#323232" font-weight="400" align="middle" anchor="middle" family="微软雅黑" size="13px" weight="400" font-style="" opacity="1" y="10.05" transform="rotate(0)"><tspan id="SvgjsTspan1582" dy="16" x="60"><tspan id="SvgjsTspan1583" style="text-decoration:;">HDFS等</tspan></tspan></text></g></g></svg>