<svg id="SvgjsSvg1006" width="600" height="471" xmlns="http://www.w3.org/2000/svg" version="1.1" xmlns:xlink="http://www.w3.org/1999/xlink" xmlns:svgjs="http://svgjs.com/svgjs"><defs id="SvgjsDefs1007"><marker id="SvgjsMarker1068" markerWidth="16" markerHeight="12" refX="16" refY="6" viewBox="0 0 16 12" orient="auto" markerUnits="userSpaceOnUse" stroke-dasharray="0,0"><path id="SvgjsPath1069" d="M0,2 L14,6 L0,11 L0,2" fill="#323232" stroke="#323232" stroke-width="2"></path></marker><marker id="SvgjsMarker1072" markerWidth="16" markerHeight="12" refX="16" refY="6" viewBox="0 0 16 12" orient="auto" markerUnits="userSpaceOnUse" stroke-dasharray="0,0"><path id="SvgjsPath1073" d="M0,2 L14,6 L0,11 L0,2" fill="#323232" stroke="#323232" stroke-width="2"></path></marker><marker id="SvgjsMarker1076" markerWidth="16" markerHeight="12" refX="16" refY="6" viewBox="0 0 16 12" orient="auto" markerUnits="userSpaceOnUse" stroke-dasharray="0,0"><path id="SvgjsPath1077" d="M0,2 L14,6 L0,11 L0,2" fill="#323232" stroke="#323232" stroke-width="2"></path></marker><marker id="SvgjsMarker1080" markerWidth="16" markerHeight="12" refX="16" refY="6" viewBox="0 0 16 12" orient="auto" markerUnits="userSpaceOnUse" stroke-dasharray="0,0"><path id="SvgjsPath1081" d="M0,2 L14,6 L0,11 L0,2" fill="#323232" stroke="#323232" stroke-width="2"></path></marker><marker id="SvgjsMarker1084" markerWidth="16" markerHeight="12" refX="16" refY="6" viewBox="0 0 16 12" orient="auto" markerUnits="userSpaceOnUse" stroke-dasharray="0,0"><path id="SvgjsPath1085" d="M0,2 L14,6 L0,11 L0,2" fill="#323232" stroke="#323232" stroke-width="2"></path></marker><marker id="SvgjsMarker1088" markerWidth="16" markerHeight="12" refX="16" refY="6" viewBox="0 0 16 12" orient="auto" markerUnits="userSpaceOnUse" stroke-dasharray="0,0"><path id="SvgjsPath1089" d="M0,2 L14,6 L0,11 L0,2" fill="#323232" stroke="#323232" stroke-width="2"></path></marker><marker id="SvgjsMarker1092" markerWidth="16" markerHeight="12" refX="16" refY="6" viewBox="0 0 16 12" orient="auto" markerUnits="userSpaceOnUse" stroke-dasharray="0,0"><path id="SvgjsPath1093" d="M0,2 L14,6 L0,11 L0,2" fill="#ff6666" stroke="#ff6666" stroke-width="2"></path></marker><marker id="SvgjsMarker1096" markerWidth="16" markerHeight="12" refX="16" refY="6" viewBox="0 0 16 12" orient="auto" markerUnits="userSpaceOnUse" stroke-dasharray="0,0"><path id="SvgjsPath1097" d="M0,2 L14,6 L0,11 L0,2" fill="#66ffff" stroke="#66ffff" stroke-width="2"></path></marker><marker id="SvgjsMarker1100" markerWidth="16" markerHeight="12" refX="16" refY="6" viewBox="0 0 16 12" orient="auto" markerUnits="userSpaceOnUse" stroke-dasharray="0,0"><path id="SvgjsPath1101" d="M0,2 L14,6 L0,11 L0,2" fill="#33ffff" stroke="#33ffff" stroke-width="2"></path></marker><marker id="SvgjsMarker1104" markerWidth="16" markerHeight="12" refX="16" refY="6" viewBox="0 0 16 12" orient="auto" markerUnits="userSpaceOnUse" stroke-dasharray="0,0"><path id="SvgjsPath1105" d="M0,2 L14,6 L0,11 L0,2" fill="#323232" stroke="#323232" stroke-width="2"></path></marker><marker id="SvgjsMarker1108" markerWidth="16" markerHeight="12" refX="16" refY="6" viewBox="0 0 16 12" orient="auto" markerUnits="userSpaceOnUse" stroke-dasharray="0,0"><path id="SvgjsPath1109" d="M0,2 L14,6 L0,11 L0,2" fill="#323232" stroke="#323232" stroke-width="2"></path></marker><marker id="SvgjsMarker1112" markerWidth="16" markerHeight="12" refX="16" refY="6" viewBox="0 0 16 12" orient="auto" markerUnits="userSpaceOnUse" stroke-dasharray="0,0"><path id="SvgjsPath1113" d="M0,2 L14,6 L0,11 L0,2" fill="#ff9999" stroke="#ff9999" stroke-width="2"></path></marker><marker id="SvgjsMarker1116" markerWidth="16" markerHeight="12" refX="16" refY="6" viewBox="0 0 16 12" orient="auto" markerUnits="userSpaceOnUse" stroke-dasharray="0,0"><path id="SvgjsPath1117" d="M0,2 L14,6 L0,11 L0,2" fill="#323232" stroke="#323232" stroke-width="2"></path></marker><marker id="SvgjsMarker1120" markerWidth="16" markerHeight="12" refX="16" refY="6" viewBox="0 0 16 12" orient="auto" markerUnits="userSpaceOnUse" stroke-dasharray="0,0"><path id="SvgjsPath1121" d="M0,2 L14,6 L0,11 L0,2" fill="#323232" stroke="#323232" stroke-width="2"></path></marker><marker id="SvgjsMarker1124" markerWidth="16" markerHeight="12" refX="16" refY="6" viewBox="0 0 16 12" orient="auto" markerUnits="userSpaceOnUse" stroke-dasharray="0,0"><path id="SvgjsPath1125" d="M0,2 L14,6 L0,11 L0,2" fill="#ff33ff" stroke="#ff33ff" stroke-width="2"></path></marker><marker id="SvgjsMarker1128" markerWidth="16" markerHeight="12" refX="16" refY="6" viewBox="0 0 16 12" orient="auto" markerUnits="userSpaceOnUse" stroke-dasharray="0,0"><path id="SvgjsPath1129" d="M0,2 L14,6 L0,11 L0,2" fill="#b266ff" stroke="#b266ff" stroke-width="2"></path></marker></defs><g id="SvgjsG1008" transform="translate(25,141)"><path id="SvgjsPath1009" d="M 0 0L 100 0L 100 70L 0 70Z" stroke="rgba(50,50,50,1)" stroke-width="2" fill-opacity="1" fill="#ff99ff"></path><g id="SvgjsG1010"><text id="SvgjsText1011" font-family="微软雅黑" text-anchor="middle" font-size="16px" width="80px" fill="#323232" font-weight="700" align="middle" lineHeight="125%" anchor="middle" family="微软雅黑" size="16px" weight="700" font-style="" opacity="1" y="23" transform="rotate(0)"><tspan id="SvgjsTspan1012" dy="20" x="50"><tspan id="SvgjsTspan1013" style="text-decoration:;">类A</tspan></tspan></text></g></g><g id="SvgjsG1014" transform="translate(25,251)"><path id="SvgjsPath1015" d="M 0 0L 100 0L 100 70L 0 70Z" stroke="rgba(50,50,50,1)" stroke-width="2" fill-opacity="1" fill="#ff66ff"></path><g id="SvgjsG1016"><text id="SvgjsText1017" font-family="微软雅黑" text-anchor="middle" font-size="16px" width="80px" fill="#323232" font-weight="700" align="middle" lineHeight="125%" anchor="middle" family="微软雅黑" size="16px" weight="700" font-style="" opacity="1" y="23" transform="rotate(0)"><tspan id="SvgjsTspan1018" dy="20" x="50"><tspan id="SvgjsTspan1019" style="text-decoration:;">类C</tspan></tspan></text></g></g><g id="SvgjsG1020" transform="translate(208,25)"><path id="SvgjsPath1021" d="M 0 4Q 0 0 4 0L 137 0Q 141 0 141 4L 141 417Q 141 421 137 421L 4 421Q 0 421 0 417Z" stroke="rgba(50,50,50,1)" stroke-width="2" fill-opacity="1" fill="#e5e5e5"></path><g id="SvgjsG1022"><text id="SvgjsText1023" font-family="微软雅黑" text-anchor="middle" font-size="13px" width="121px" fill="#323232" font-weight="400" align="middle" lineHeight="125%" anchor="middle" family="微软雅黑" size="13px" weight="400" font-style="" opacity="1" y="200.875" transform="rotate(0)"></text></g></g><g id="SvgjsG1024" transform="translate(240,33)"><path id="SvgjsPath1025" d="M 0 35C 0 -11.666666666666666 77 -11.666666666666666 77 35C 77 81.66666666666667 0 81.66666666666667 0 35Z" stroke="rgba(50,50,50,1)" stroke-width="2" fill-opacity="1" fill="#ff6666"></path><g id="SvgjsG1026"><text id="SvgjsText1027" font-family="微软雅黑" text-anchor="middle" font-size="13px" width="57px" fill="#323232" font-weight="700" align="middle" lineHeight="125%" anchor="middle" family="微软雅黑" size="13px" weight="700" font-style="" opacity="1" y="25.375" transform="rotate(0)"><tspan id="SvgjsTspan1028" dy="16" x="38.5"><tspan id="SvgjsTspan1029" style="text-decoration:;">Method1</tspan></tspan></text></g></g><g id="SvgjsG1030" transform="translate(240,116)"><path id="SvgjsPath1031" d="M 0 35C 0 -11.666666666666666 77 -11.666666666666666 77 35C 77 81.66666666666667 0 81.66666666666667 0 35Z" stroke="rgba(50,50,50,1)" stroke-width="2" fill-opacity="1" fill="#66ffb3"></path><g id="SvgjsG1032"><text id="SvgjsText1033" font-family="微软雅黑" text-anchor="middle" font-size="13px" width="57px" fill="#323232" font-weight="700" align="middle" lineHeight="125%" anchor="middle" family="微软雅黑" size="13px" weight="700" font-style="" opacity="1" y="25.375" transform="rotate(0)"><tspan id="SvgjsTspan1034" dy="16" x="38.5"><tspan id="SvgjsTspan1035" style="text-decoration:;">Method2</tspan></tspan></text></g></g><g id="SvgjsG1036" transform="translate(240,200.5)"><path id="SvgjsPath1037" d="M 0 35C 0 -11.666666666666666 77 -11.666666666666666 77 35C 77 81.66666666666667 0 81.66666666666667 0 35Z" stroke="rgba(50,50,50,1)" stroke-width="2" fill-opacity="1" fill="#66ffb3"></path><g id="SvgjsG1038"><text id="SvgjsText1039" font-family="微软雅黑" text-anchor="middle" font-size="13px" width="57px" fill="#323232" font-weight="700" align="middle" lineHeight="125%" anchor="middle" family="微软雅黑" size="13px" weight="700" font-style="" opacity="1" y="25.375" transform="rotate(0)"><tspan id="SvgjsTspan1040" dy="16" x="38.5"><tspan id="SvgjsTspan1041" style="text-decoration:;">Method3</tspan></tspan></text></g></g><g id="SvgjsG1042" transform="translate(240,283)"><path id="SvgjsPath1043" d="M 0 35C 0 -11.666666666666666 77 -11.666666666666666 77 35C 77 81.66666666666667 0 81.66666666666667 0 35Z" stroke="rgba(50,50,50,1)" stroke-width="2" fill-opacity="1" fill="#cc99ff"></path><g id="SvgjsG1044"><text id="SvgjsText1045" font-family="微软雅黑" text-anchor="middle" font-size="13px" width="57px" fill="#323232" font-weight="700" align="middle" lineHeight="125%" anchor="middle" family="微软雅黑" size="13px" weight="700" font-style="" opacity="1" y="25.375" transform="rotate(0)"><tspan id="SvgjsTspan1046" dy="16" x="38.5"><tspan id="SvgjsTspan1047" style="text-decoration:;">Method4</tspan></tspan></text></g></g><g id="SvgjsG1048" transform="translate(240,368)"><path id="SvgjsPath1049" d="M 0 35C 0 -11.666666666666666 77 -11.666666666666666 77 35C 77 81.66666666666667 0 81.66666666666667 0 35Z" stroke="rgba(50,50,50,1)" stroke-width="2" fill-opacity="1" fill="#cc99ff"></path><g id="SvgjsG1050"><text id="SvgjsText1051" font-family="微软雅黑" text-anchor="middle" font-size="13px" width="57px" fill="#323232" font-weight="700" align="middle" lineHeight="125%" anchor="middle" family="微软雅黑" size="13px" weight="700" font-style="" opacity="1" y="25.375" transform="rotate(0)"><tspan id="SvgjsTspan1052" dy="16" x="38.5"><tspan id="SvgjsTspan1053" style="text-decoration:;">Method5</tspan></tspan></text></g></g><g id="SvgjsG1054" transform="translate(475,51)"><path id="SvgjsPath1055" d="M 0 0L 100 0L 100 70L 0 70Z" stroke="rgba(50,50,50,1)" stroke-width="2" fill-opacity="1" fill="#ffcc99"></path><g id="SvgjsG1056"><text id="SvgjsText1057" font-family="微软雅黑" text-anchor="middle" font-size="16px" width="80px" fill="#323232" font-weight="700" align="middle" lineHeight="125%" anchor="middle" family="微软雅黑" size="16px" weight="700" font-style="" opacity="1" y="23" transform="rotate(0)"><tspan id="SvgjsTspan1058" dy="20" x="50"><tspan id="SvgjsTspan1059" style="text-decoration:;">类B</tspan></tspan></text></g></g><g id="SvgjsG1060" transform="translate(475,312)"><path id="SvgjsPath1061" d="M 0 0L 100 0L 100 70L 0 70Z" stroke="rgba(50,50,50,1)" stroke-width="2" fill-opacity="1" fill="#ffb366"></path><g id="SvgjsG1062"><text id="SvgjsText1063" font-family="微软雅黑" text-anchor="middle" font-size="16px" width="80px" fill="#323232" font-weight="700" align="middle" lineHeight="125%" anchor="middle" family="微软雅黑" size="16px" weight="700" font-style="" opacity="1" y="23" transform="rotate(0)"><tspan id="SvgjsTspan1064" dy="20" x="50"><tspan id="SvgjsTspan1065" style="text-decoration:;">类D</tspan></tspan></text></g></g><g id="SvgjsG1066"><path id="SvgjsPath1067" d="M125 176L240 68" stroke="#323232" stroke-width="2" fill="none" marker-end="url(#SvgjsMarker1068)"></path></g><g id="SvgjsG1070"><path id="SvgjsPath1071" d="M125 176L240 151" stroke="#323232" stroke-width="2" fill="none" marker-end="url(#SvgjsMarker1072)"></path></g><g id="SvgjsG1074"><path id="SvgjsPath1075" d="M125 176L240 235.5" stroke="#323232" stroke-width="2" fill="none" marker-end="url(#SvgjsMarker1076)"></path></g><g id="SvgjsG1078"><path id="SvgjsPath1079" d="M125 286L240 68" stroke="#323232" stroke-width="2" fill="none" marker-end="url(#SvgjsMarker1080)"></path></g><g id="SvgjsG1082"><path id="SvgjsPath1083" d="M125 286L240 318" stroke="#323232" stroke-width="2" fill="none" marker-end="url(#SvgjsMarker1084)"></path></g><g id="SvgjsG1086"><path id="SvgjsPath1087" d="M125 286L240 403" stroke="#323232" stroke-width="2" fill="none" marker-end="url(#SvgjsMarker1088)"></path></g><g id="SvgjsG1090"><path id="SvgjsPath1091" d="M317 68L475 86" stroke="#ff6666" stroke-width="2" fill="none" marker-end="url(#SvgjsMarker1092)"></path></g><g id="SvgjsG1094"><path id="SvgjsPath1095" d="M317 151L475 86" stroke="#66ffff" stroke-width="2" fill="none" marker-end="url(#SvgjsMarker1096)"></path></g><g id="SvgjsG1098"><path id="SvgjsPath1099" d="M317 235.5L475 86" stroke="#33ffff" stroke-width="2" fill="none" marker-end="url(#SvgjsMarker1100)"></path></g><g id="SvgjsG1102"><path id="SvgjsPath1103" d="M317 318L475 86" stroke-dasharray="3,3" stroke="#323232" stroke-width="2" fill="none" marker-end="url(#SvgjsMarker1104)"></path></g><g id="SvgjsG1106"><path id="SvgjsPath1107" d="M317 403L475 86" stroke-dasharray="3,3" stroke="#323232" stroke-width="2" fill="none" marker-end="url(#SvgjsMarker1108)"></path></g><g id="SvgjsG1110"><path id="SvgjsPath1111" d="M317 68L475 347" stroke="#ff9999" stroke-width="2" fill="none" marker-end="url(#SvgjsMarker1112)"></path></g><g id="SvgjsG1114"><path id="SvgjsPath1115" d="M317 151L475 347" stroke-dasharray="3,3" stroke="#323232" stroke-width="2" fill="none" marker-end="url(#SvgjsMarker1116)"></path></g><g id="SvgjsG1118"><path id="SvgjsPath1119" d="M317 235.5L475 347" stroke-dasharray="3,3" stroke="#323232" stroke-width="2" fill="none" marker-end="url(#SvgjsMarker1120)"></path></g><g id="SvgjsG1122"><path id="SvgjsPath1123" d="M317 318L475 347" stroke="#ff33ff" stroke-width="2" fill="none" marker-end="url(#SvgjsMarker1124)"></path></g><g id="SvgjsG1126"><path id="SvgjsPath1127" d="M317 403L475 347" stroke="#b266ff" stroke-width="2" fill="none" marker-end="url(#SvgjsMarker1128)"></path></g></svg>