<svg id="SvgjsSvg1402" width="600" height="580" xmlns="http://www.w3.org/2000/svg" version="1.1" xmlns:xlink="http://www.w3.org/1999/xlink" xmlns:svgjs="http://svgjs.com/svgjs"><defs id="SvgjsDefs1403"><marker id="SvgjsMarker1472" markerWidth="16" markerHeight="12" refX="16" refY="6" viewBox="0 0 16 12" orient="auto" markerUnits="userSpaceOnUse" stroke-dasharray="0,0"><path id="SvgjsPath1473" d="M0,2 L14,6 L0,11 L0,2" fill="#323232" stroke="#323232" stroke-width="2"></path></marker><marker id="SvgjsMarker1476" markerWidth="16" markerHeight="12" refX="16" refY="6" viewBox="0 0 16 12" orient="auto" markerUnits="userSpaceOnUse" stroke-dasharray="0,0"><path id="SvgjsPath1477" d="M0,2 L14,6 L0,11 L0,2" fill="#323232" stroke="#323232" stroke-width="2"></path></marker><marker id="SvgjsMarker1480" markerWidth="16" markerHeight="12" refX="16" refY="6" viewBox="0 0 16 12" orient="auto" markerUnits="userSpaceOnUse" stroke-dasharray="0,0"><path id="SvgjsPath1481" d="M0,2 L14,6 L0,11 L0,2" fill="#323232" stroke="#323232" stroke-width="2"></path></marker><marker id="SvgjsMarker1484" markerWidth="16" markerHeight="12" refX="16" refY="6" viewBox="0 0 16 12" orient="auto" markerUnits="userSpaceOnUse" stroke-dasharray="0,0"><path id="SvgjsPath1485" d="M0,2 L14,6 L0,11 L0,2" fill="#323232" stroke="#323232" stroke-width="2"></path></marker><marker id="SvgjsMarker1488" markerWidth="16" markerHeight="12" refX="16" refY="6" viewBox="0 0 16 12" orient="auto" markerUnits="userSpaceOnUse" stroke-dasharray="0,0"><path id="SvgjsPath1489" d="M0,2 L14,6 L0,11 L0,2" fill="#323232" stroke="#323232" stroke-width="2"></path></marker><marker id="SvgjsMarker1492" markerWidth="16" markerHeight="12" refX="16" refY="6" viewBox="0 0 16 12" orient="auto" markerUnits="userSpaceOnUse" stroke-dasharray="0,0"><path id="SvgjsPath1493" d="M0,2 L14,6 L0,11 L0,2" fill="#323232" stroke="#323232" stroke-width="2"></path></marker><marker id="SvgjsMarker1496" markerWidth="16" markerHeight="12" refX="16" refY="6" viewBox="0 0 16 12" orient="auto" markerUnits="userSpaceOnUse" stroke-dasharray="0,0"><path id="SvgjsPath1497" d="M0,2 L14,6 L0,11 L0,2" fill="#ff6666" stroke="#ff6666" stroke-width="2"></path></marker><marker id="SvgjsMarker1500" markerWidth="16" markerHeight="12" refX="16" refY="6" viewBox="0 0 16 12" orient="auto" markerUnits="userSpaceOnUse" stroke-dasharray="0,0"><path id="SvgjsPath1501" d="M0,2 L14,6 L0,11 L0,2" fill="#66ffff" stroke="#66ffff" stroke-width="2"></path></marker><marker id="SvgjsMarker1504" markerWidth="16" markerHeight="12" refX="16" refY="6" viewBox="0 0 16 12" orient="auto" markerUnits="userSpaceOnUse" stroke-dasharray="0,0"><path id="SvgjsPath1505" d="M0,2 L14,6 L0,11 L0,2" fill="#33ffff" stroke="#33ffff" stroke-width="2"></path></marker><marker id="SvgjsMarker1508" markerWidth="16" markerHeight="12" refX="16" refY="6" viewBox="0 0 16 12" orient="auto" markerUnits="userSpaceOnUse" stroke-dasharray="0,0"><path id="SvgjsPath1509" d="M0,2 L14,6 L0,11 L0,2" fill="#323232" stroke="#323232" stroke-width="2"></path></marker><marker id="SvgjsMarker1512" markerWidth="16" markerHeight="12" refX="16" refY="6" viewBox="0 0 16 12" orient="auto" markerUnits="userSpaceOnUse" stroke-dasharray="0,0"><path id="SvgjsPath1513" d="M0,2 L14,6 L0,11 L0,2" fill="#323232" stroke="#323232" stroke-width="2"></path></marker><marker id="SvgjsMarker1516" markerWidth="16" markerHeight="12" refX="16" refY="6" viewBox="0 0 16 12" orient="auto" markerUnits="userSpaceOnUse" stroke-dasharray="0,0"><path id="SvgjsPath1517" d="M0,2 L14,6 L0,11 L0,2" fill="#ff9999" stroke="#ff9999" stroke-width="2"></path></marker><marker id="SvgjsMarker1520" markerWidth="16" markerHeight="12" refX="16" refY="6" viewBox="0 0 16 12" orient="auto" markerUnits="userSpaceOnUse" stroke-dasharray="0,0"><path id="SvgjsPath1521" d="M0,2 L14,6 L0,11 L0,2" fill="#323232" stroke="#323232" stroke-width="2"></path></marker><marker id="SvgjsMarker1524" markerWidth="16" markerHeight="12" refX="16" refY="6" viewBox="0 0 16 12" orient="auto" markerUnits="userSpaceOnUse" stroke-dasharray="0,0"><path id="SvgjsPath1525" d="M0,2 L14,6 L0,11 L0,2" fill="#323232" stroke="#323232" stroke-width="2"></path></marker><marker id="SvgjsMarker1528" markerWidth="16" markerHeight="12" refX="16" refY="6" viewBox="0 0 16 12" orient="auto" markerUnits="userSpaceOnUse" stroke-dasharray="0,0"><path id="SvgjsPath1529" d="M0,2 L14,6 L0,11 L0,2" fill="#ff33ff" stroke="#ff33ff" stroke-width="2"></path></marker><marker id="SvgjsMarker1532" markerWidth="16" markerHeight="12" refX="16" refY="6" viewBox="0 0 16 12" orient="auto" markerUnits="userSpaceOnUse" stroke-dasharray="0,0"><path id="SvgjsPath1533" d="M0,2 L14,6 L0,11 L0,2" fill="#b266ff" stroke="#b266ff" stroke-width="2"></path></marker></defs><g id="SvgjsG1404" transform="translate(220,391)"><path id="SvgjsPath1405" d="M 0 0L 123 0L 123 164L 0 164Z" stroke="rgba(50,50,50,1)" stroke-width="2" fill-opacity="1" fill="#e5e5e5"></path><g id="SvgjsG1406"><text id="SvgjsText1407" font-family="微软雅黑" text-anchor="middle" font-size="13px" width="103px" fill="#323232" font-weight="400" align="middle" lineHeight="125%" anchor="middle" family="微软雅黑" size="13px" weight="400" font-style="" opacity="1" y="72.375" transform="rotate(0)"></text></g></g><g id="SvgjsG1408" transform="translate(220,201)"><path id="SvgjsPath1409" d="M 0 0L 123 0L 123 162L 0 162Z" stroke="rgba(50,50,50,1)" stroke-width="2" fill-opacity="1" fill="#e5e5e5"></path><g id="SvgjsG1410"><text id="SvgjsText1411" font-family="微软雅黑" text-anchor="middle" font-size="13px" width="103px" fill="#323232" font-weight="400" align="middle" lineHeight="125%" anchor="middle" family="微软雅黑" size="13px" weight="400" font-style="" opacity="1" y="71.375" transform="rotate(0)"></text></g></g><g id="SvgjsG1412" transform="translate(223,58)"><path id="SvgjsPath1413" d="M 0 0L 117 0L 117 114L 0 114Z" stroke="rgba(50,50,50,1)" stroke-width="2" fill-opacity="1" fill="#e5e5e5"></path><g id="SvgjsG1414"><text id="SvgjsText1415" font-family="微软雅黑" text-anchor="middle" font-size="13px" width="97px" fill="#323232" font-weight="400" align="middle" lineHeight="125%" anchor="middle" family="微软雅黑" size="13px" weight="400" font-style="" opacity="1" y="47.375" transform="rotate(0)"></text></g></g><g id="SvgjsG1416" transform="translate(25,192)"><path id="SvgjsPath1417" d="M 0 0L 100 0L 100 70L 0 70Z" stroke="rgba(50,50,50,1)" stroke-width="2" fill-opacity="1" fill="#ff99ff"></path><g id="SvgjsG1418"><text id="SvgjsText1419" font-family="微软雅黑" text-anchor="middle" font-size="16px" width="80px" fill="#323232" font-weight="700" align="middle" lineHeight="125%" anchor="middle" family="微软雅黑" size="16px" weight="700" font-style="" opacity="1" y="23" transform="rotate(0)"><tspan id="SvgjsTspan1420" dy="20" x="50"><tspan id="SvgjsTspan1421" style="text-decoration:;">类A</tspan></tspan></text></g></g><g id="SvgjsG1422" transform="translate(25,302)"><path id="SvgjsPath1423" d="M 0 0L 100 0L 100 70L 0 70Z" stroke="rgba(50,50,50,1)" stroke-width="2" fill-opacity="1" fill="#ff66ff"></path><g id="SvgjsG1424"><text id="SvgjsText1425" font-family="微软雅黑" text-anchor="middle" font-size="16px" width="80px" fill="#323232" font-weight="700" align="middle" lineHeight="125%" anchor="middle" family="微软雅黑" size="16px" weight="700" font-style="" opacity="1" y="23" transform="rotate(0)"><tspan id="SvgjsTspan1426" dy="20" x="50"><tspan id="SvgjsTspan1427" style="text-decoration:;">类C</tspan></tspan></text></g></g><g id="SvgjsG1428" transform="translate(243,80)"><path id="SvgjsPath1429" d="M 0 35C 0 -11.666666666666666 77 -11.666666666666666 77 35C 77 81.66666666666667 0 81.66666666666667 0 35Z" stroke="rgba(50,50,50,1)" stroke-width="2" fill-opacity="1" fill="#ff6666"></path><g id="SvgjsG1430"><text id="SvgjsText1431" font-family="微软雅黑" text-anchor="middle" font-size="13px" width="57px" fill="#323232" font-weight="700" align="middle" lineHeight="125%" anchor="middle" family="微软雅黑" size="13px" weight="700" font-style="" opacity="1" y="25.375" transform="rotate(0)"><tspan id="SvgjsTspan1432" dy="16" x="38.5"><tspan id="SvgjsTspan1433" style="text-decoration:;">Method1</tspan></tspan></text></g></g><g id="SvgjsG1434" transform="translate(243,208)"><path id="SvgjsPath1435" d="M 0 35C 0 -11.666666666666666 77 -11.666666666666666 77 35C 77 81.66666666666667 0 81.66666666666667 0 35Z" stroke="rgba(50,50,50,1)" stroke-width="2" fill-opacity="1" fill="#66ffb3"></path><g id="SvgjsG1436"><text id="SvgjsText1437" font-family="微软雅黑" text-anchor="middle" font-size="13px" width="57px" fill="#323232" font-weight="700" align="middle" lineHeight="125%" anchor="middle" family="微软雅黑" size="13px" weight="700" font-style="" opacity="1" y="25.375" transform="rotate(0)"><tspan id="SvgjsTspan1438" dy="16" x="38.5"><tspan id="SvgjsTspan1439" style="text-decoration:;">Method2</tspan></tspan></text></g></g><g id="SvgjsG1440" transform="translate(243,287.5)"><path id="SvgjsPath1441" d="M 0 35C 0 -11.666666666666666 77 -11.666666666666666 77 35C 77 81.66666666666667 0 81.66666666666667 0 35Z" stroke="rgba(50,50,50,1)" stroke-width="2" fill-opacity="1" fill="#66ffb3"></path><g id="SvgjsG1442"><text id="SvgjsText1443" font-family="微软雅黑" text-anchor="middle" font-size="13px" width="57px" fill="#323232" font-weight="700" align="middle" lineHeight="125%" anchor="middle" family="微软雅黑" size="13px" weight="700" font-style="" opacity="1" y="25.375" transform="rotate(0)"><tspan id="SvgjsTspan1444" dy="16" x="38.5"><tspan id="SvgjsTspan1445" style="text-decoration:;">Method3</tspan></tspan></text></g></g><g id="SvgjsG1446" transform="translate(246,396)"><path id="SvgjsPath1447" d="M 0 35C 0 -11.666666666666666 77 -11.666666666666666 77 35C 77 81.66666666666667 0 81.66666666666667 0 35Z" stroke="rgba(50,50,50,1)" stroke-width="2" fill-opacity="1" fill="#cc99ff"></path><g id="SvgjsG1448"><text id="SvgjsText1449" font-family="微软雅黑" text-anchor="middle" font-size="13px" width="57px" fill="#323232" font-weight="700" align="middle" lineHeight="125%" anchor="middle" family="微软雅黑" size="13px" weight="700" font-style="" opacity="1" y="25.375" transform="rotate(0)"><tspan id="SvgjsTspan1450" dy="16" x="38.5"><tspan id="SvgjsTspan1451" style="text-decoration:;">Method4</tspan></tspan></text></g></g><g id="SvgjsG1452" transform="translate(246,477)"><path id="SvgjsPath1453" d="M 0 35C 0 -11.666666666666666 77 -11.666666666666666 77 35C 77 81.66666666666667 0 81.66666666666667 0 35Z" stroke="rgba(50,50,50,1)" stroke-width="2" fill-opacity="1" fill="#cc99ff"></path><g id="SvgjsG1454"><text id="SvgjsText1455" font-family="微软雅黑" text-anchor="middle" font-size="13px" width="57px" fill="#323232" font-weight="700" align="middle" lineHeight="125%" anchor="middle" family="微软雅黑" size="13px" weight="700" font-style="" opacity="1" y="25.375" transform="rotate(0)"><tspan id="SvgjsTspan1456" dy="16" x="38.5"><tspan id="SvgjsTspan1457" style="text-decoration:;">Method5</tspan></tspan></text></g></g><g id="SvgjsG1458" transform="translate(475,102)"><path id="SvgjsPath1459" d="M 0 0L 100 0L 100 70L 0 70Z" stroke="rgba(50,50,50,1)" stroke-width="2" fill-opacity="1" fill="#ffcc99"></path><g id="SvgjsG1460"><text id="SvgjsText1461" font-family="微软雅黑" text-anchor="middle" font-size="16px" width="80px" fill="#323232" font-weight="700" align="middle" lineHeight="125%" anchor="middle" family="微软雅黑" size="16px" weight="700" font-style="" opacity="1" y="23" transform="rotate(0)"><tspan id="SvgjsTspan1462" dy="20" x="50"><tspan id="SvgjsTspan1463" style="text-decoration:;">类B</tspan></tspan></text></g></g><g id="SvgjsG1464" transform="translate(475,363)"><path id="SvgjsPath1465" d="M 0 0L 100 0L 100 70L 0 70Z" stroke="rgba(50,50,50,1)" stroke-width="2" fill-opacity="1" fill="#ffb366"></path><g id="SvgjsG1466"><text id="SvgjsText1467" font-family="微软雅黑" text-anchor="middle" font-size="16px" width="80px" fill="#323232" font-weight="700" align="middle" lineHeight="125%" anchor="middle" family="微软雅黑" size="16px" weight="700" font-style="" opacity="1" y="23" transform="rotate(0)"><tspan id="SvgjsTspan1468" dy="20" x="50"><tspan id="SvgjsTspan1469" style="text-decoration:;">类D</tspan></tspan></text></g></g><g id="SvgjsG1470"><path id="SvgjsPath1471" d="M125 227L243 115" stroke="#323232" stroke-width="2" fill="none" marker-end="url(#SvgjsMarker1472)"></path></g><g id="SvgjsG1474"><path id="SvgjsPath1475" d="M125 227L243 243" stroke="#323232" stroke-width="2" fill="none" marker-end="url(#SvgjsMarker1476)"></path></g><g id="SvgjsG1478"><path id="SvgjsPath1479" d="M125 227L243 322.5" stroke="#323232" stroke-width="2" fill="none" marker-end="url(#SvgjsMarker1480)"></path></g><g id="SvgjsG1482"><path id="SvgjsPath1483" d="M125 337L243 115" stroke="#323232" stroke-width="2" fill="none" marker-end="url(#SvgjsMarker1484)"></path></g><g id="SvgjsG1486"><path id="SvgjsPath1487" d="M125 337L246 431" stroke="#323232" stroke-width="2" fill="none" marker-end="url(#SvgjsMarker1488)"></path></g><g id="SvgjsG1490"><path id="SvgjsPath1491" d="M125 337L246 512" stroke="#323232" stroke-width="2" fill="none" marker-end="url(#SvgjsMarker1492)"></path></g><g id="SvgjsG1494"><path id="SvgjsPath1495" d="M320 115L475 137" stroke="#ff6666" stroke-width="2" fill="none" marker-end="url(#SvgjsMarker1496)"></path></g><g id="SvgjsG1498"><path id="SvgjsPath1499" d="M320 243L475 137" stroke="#66ffff" stroke-width="2" fill="none" marker-end="url(#SvgjsMarker1500)"></path></g><g id="SvgjsG1502"><path id="SvgjsPath1503" d="M320 322.5L475 137" stroke="#33ffff" stroke-width="2" fill="none" marker-end="url(#SvgjsMarker1504)"></path></g><g id="SvgjsG1506"><path id="SvgjsPath1507" d="M323 431L475 137" stroke-dasharray="3,3" stroke="#323232" stroke-width="2" fill="none" marker-end="url(#SvgjsMarker1508)"></path></g><g id="SvgjsG1510"><path id="SvgjsPath1511" d="M323 512L475 137" stroke-dasharray="3,3" stroke="#323232" stroke-width="2" fill="none" marker-end="url(#SvgjsMarker1512)"></path></g><g id="SvgjsG1514"><path id="SvgjsPath1515" d="M320 115L475 398" stroke="#ff9999" stroke-width="2" fill="none" marker-end="url(#SvgjsMarker1516)"></path></g><g id="SvgjsG1518"><path id="SvgjsPath1519" d="M320 243L475 398" stroke-dasharray="3,3" stroke="#323232" stroke-width="2" fill="none" marker-end="url(#SvgjsMarker1520)"></path></g><g id="SvgjsG1522"><path id="SvgjsPath1523" d="M320 322.5L475 398" stroke-dasharray="3,3" stroke="#323232" stroke-width="2" fill="none" marker-end="url(#SvgjsMarker1524)"></path></g><g id="SvgjsG1526"><path id="SvgjsPath1527" d="M323 431L475 398" stroke="#ff33ff" stroke-width="2" fill="none" marker-end="url(#SvgjsMarker1528)"></path></g><g id="SvgjsG1530"><path id="SvgjsPath1531" d="M323 512L475 398" stroke="#b266ff" stroke-width="2" fill="none" marker-end="url(#SvgjsMarker1532)"></path></g><g id="SvgjsG1534" transform="translate(221.5,25)"><path id="SvgjsPath1535" d="M 0 0L 120 0L 120 40L 0 40Z" stroke="none" fill="none"></path><g id="SvgjsG1536"><text id="SvgjsText1537" font-family="微软雅黑" text-anchor="middle" font-size="14px" width="120px" fill="#323232" font-weight="700" align="middle" lineHeight="125%" anchor="middle" family="微软雅黑" size="14px" weight="700" font-style="" opacity="1" y="9.75" transform="rotate(0)"><tspan id="SvgjsTspan1538" dy="17" x="60"><tspan id="SvgjsTspan1539" style="text-decoration:;">Interface1</tspan></tspan></text></g></g><g id="SvgjsG1540" transform="translate(221.5,172)"><path id="SvgjsPath1541" d="M 0 0L 120 0L 120 40L 0 40Z" stroke="none" fill="none"></path><g id="SvgjsG1542"><text id="SvgjsText1543" font-family="微软雅黑" text-anchor="middle" font-size="14px" width="120px" fill="#323232" font-weight="700" align="middle" lineHeight="125%" anchor="middle" family="微软雅黑" size="14px" weight="700" font-style="" opacity="1" y="9.75" transform="rotate(0)"><tspan id="SvgjsTspan1544" dy="17" x="60"><tspan id="SvgjsTspan1545" style="text-decoration:;">Interface2</tspan></tspan></text></g></g><g id="SvgjsG1546" transform="translate(221.5,363)"><path id="SvgjsPath1547" d="M 0 0L 120 0L 120 40L 0 40Z" stroke="none" fill="none"></path><g id="SvgjsG1548"><text id="SvgjsText1549" font-family="微软雅黑" text-anchor="middle" font-size="14px" width="120px" fill="#323232" font-weight="700" align="middle" lineHeight="125%" anchor="middle" family="微软雅黑" size="14px" weight="700" font-style="" opacity="1" y="9.75" transform="rotate(0)"><tspan id="SvgjsTspan1550" dy="17" x="60"><tspan id="SvgjsTspan1551" style="text-decoration:;">Interface3</tspan></tspan></text></g></g></svg>