<svg id="SvgjsSvg1006" width="1028.0124969482422" height="321" xmlns="http://www.w3.org/2000/svg" version="1.1" xmlns:xlink="http://www.w3.org/1999/xlink" xmlns:svgjs="http://svgjs.com/svgjs"><defs id="SvgjsDefs1007"></defs><g id="SvgjsG1008" transform="translate(760.0124969482422,203.5)"><path id="SvgjsPath1009" d="M 0 19.8L 213 19.8L 213 0L 243 30L 213 60L 213 40.2L 0 40.2L 0 19.8Z" stroke="rgba(50,50,50,1)" stroke-width="2" fill-opacity="1" fill="#e6ffcc"></path><g id="SvgjsG1010"><text id="SvgjsText1011" font-family="微软雅黑" text-anchor="middle" font-size="13px" width="243px" fill="#323232" font-weight="400" align="middle" anchor="middle" family="微软雅黑" size="13px" weight="400" font-style="" opacity="1" y="20.05" transform="rotate(0)"></text></g></g><g id="SvgjsG1012" transform="translate(589.0124969482422,133)"><path id="SvgjsPath1013" d="M 110.36 61.94L 89 0L 67.64 61.94L 0 61.94L 53.4 101.06L 32.04 163L 89 123.88L 145.95999999999998 163L 124.6 101.06L 178 61.94Z" stroke="rgba(50,50,50,1)" stroke-width="2" fill-opacity="1" fill="#ffcc99"></path><g id="SvgjsG1014"><text id="SvgjsText1015" font-family="微软雅黑" text-anchor="middle" font-size="17px" width="125px" fill="#323232" font-weight="700" align="middle" anchor="middle" family="微软雅黑" size="17px" weight="700" font-style="" opacity="1" y="62.025000000000006" transform="rotate(0)"><tspan id="SvgjsTspan1016" dy="21" x="89.2"><tspan id="SvgjsTspan1017" style="text-decoration:;">Spark</tspan></tspan><tspan id="SvgjsTspan1018" dy="21" x="89.2"><tspan id="SvgjsTspan1019" style="text-decoration:;">Engine</tspan></tspan></text></g></g><g id="SvgjsG1020" transform="translate(223.0124969482422,189)"><path id="SvgjsPath1021" d="M 0 4Q 0 0 4 0L 150 0Q 154 0 154 4L 154 91Q 154 95 150 95L 4 95Q 0 95 0 91Z" stroke="rgba(50,50,50,1)" stroke-width="2" fill-opacity="1" fill="#ccffcc"></path><g id="SvgjsG1022"><text id="SvgjsText1023" font-family="微软雅黑" text-anchor="middle" font-size="16px" width="134px" fill="#323232" font-weight="700" align="middle" anchor="middle" family="微软雅黑" size="16px" weight="700" font-style="" opacity="1" y="25.1" transform="rotate(0)"><tspan id="SvgjsTspan1024" dy="20" x="77"><tspan id="SvgjsTspan1025" style="text-decoration:;">Spark</tspan></tspan><tspan id="SvgjsTspan1026" dy="20" x="77"><tspan id="SvgjsTspan1027" style="text-decoration:;">Streaming</tspan></tspan></text></g></g><g id="SvgjsG1028" transform="translate(25.012496948242188,203)"><path id="SvgjsPath1029" d="M 0 22.11L 164.5 22.11L 164.5 0L 198 33.5L 164.5 67L 164.5 44.89L 0 44.89L 0 22.11Z" stroke="rgba(50,50,50,1)" stroke-width="2" fill-opacity="1" fill="#e5e5e5"></path><g id="SvgjsG1030"><text id="SvgjsText1031" font-family="微软雅黑" text-anchor="middle" font-size="13px" width="198px" fill="#323232" font-weight="400" align="middle" anchor="middle" family="微软雅黑" size="13px" weight="400" font-style="" opacity="1" y="23.55" transform="rotate(0)"></text></g></g><g id="SvgjsG1032" transform="translate(25.012496948242188,198)"><path id="SvgjsPath1033" d="M 0 0L 161 0L 161 25L 0 25Z" stroke="none" fill="none"></path><g id="SvgjsG1034"><text id="SvgjsText1035" font-family="微软雅黑" text-anchor="middle" font-size="16px" width="161px" fill="#323232" font-weight="700" align="middle" anchor="middle" family="微软雅黑" size="16px" weight="700" font-style="" opacity="1" y="0.10000000000000009" transform="rotate(0)"><tspan id="SvgjsTspan1036" dy="20" x="80.5"><tspan id="SvgjsTspan1037" style="text-decoration:;">Input Data Stream</tspan></tspan></text></g></g><g id="SvgjsG1038" transform="translate(377.0124969482422,207)"><path id="SvgjsPath1039" d="M 0 19.470000000000002L 206.5 19.470000000000002L 206.5 0L 236 29.5L 206.5 59L 206.5 39.53L 0 39.53L 0 19.470000000000002Z" stroke="rgba(50,50,50,1)" stroke-width="2" fill-opacity="1" fill="#b8b8b8"></path><g id="SvgjsG1040"><text id="SvgjsText1041" font-family="微软雅黑" text-anchor="middle" font-size="13px" width="236px" fill="#323232" font-weight="400" align="middle" anchor="middle" family="微软雅黑" size="13px" weight="400" font-style="" opacity="1" y="19.550000000000004" transform="rotate(0)"></text></g></g><g id="SvgjsG1042" transform="translate(491.0124969482422,225.5)"><path id="SvgjsPath1043" d="M 0 0L 22 0L 22 22L 0 22Z" stroke="rgba(50,50,50,1)" stroke-width="2" fill-opacity="1" fill="#ccccff"></path><g id="SvgjsG1044"><text id="SvgjsText1045" font-family="微软雅黑" text-anchor="middle" font-size="13px" width="2px" fill="#323232" font-weight="400" align="middle" anchor="middle" family="微软雅黑" size="13px" weight="400" font-style="" opacity="1" y="1.05" transform="rotate(0)"></text></g></g><g id="SvgjsG1046" transform="translate(458.0124969482422,225.5)"><path id="SvgjsPath1047" d="M 0 0L 22 0L 22 22L 0 22Z" stroke="rgba(50,50,50,1)" stroke-width="2" fill-opacity="1" fill="#99ccff"></path><g id="SvgjsG1048"><text id="SvgjsText1049" font-family="微软雅黑" text-anchor="middle" font-size="13px" width="2px" fill="#323232" font-weight="400" align="middle" anchor="middle" family="微软雅黑" size="13px" weight="400" font-style="" opacity="1" y="1.05" transform="rotate(0)"></text></g></g><g id="SvgjsG1050" transform="translate(423.0124969482422,225.5)"><path id="SvgjsPath1051" d="M 0 0L 22 0L 22 22L 0 22Z" stroke="rgba(50,50,50,1)" stroke-width="2" fill-opacity="1" fill="#ccffe6"></path><g id="SvgjsG1052"><text id="SvgjsText1053" font-family="微软雅黑" text-anchor="middle" font-size="13px" width="2px" fill="#323232" font-weight="400" align="middle" anchor="middle" family="微软雅黑" size="13px" weight="400" font-style="" opacity="1" y="1.05" transform="rotate(0)"></text></g></g><g id="SvgjsG1054" transform="translate(389.0124969482422,225.5)"><path id="SvgjsPath1055" d="M 0 0L 22 0L 22 22L 0 22Z" stroke="rgba(50,50,50,1)" stroke-width="2" fill-opacity="1" fill="#ffffcc"></path><g id="SvgjsG1056"><text id="SvgjsText1057" font-family="微软雅黑" text-anchor="middle" font-size="13px" width="2px" fill="#323232" font-weight="400" align="middle" anchor="middle" family="微软雅黑" size="13px" weight="400" font-style="" opacity="1" y="1.05" transform="rotate(0)"></text></g></g><g id="SvgjsG1058" transform="translate(529.0124969482422,225.5)"><path id="SvgjsPath1059" d="M 0 0L 22 0L 22 22L 0 22Z" stroke="rgba(50,50,50,1)" stroke-width="2" fill-opacity="1" fill="#ffccff"></path><g id="SvgjsG1060"><text id="SvgjsText1061" font-family="微软雅黑" text-anchor="middle" font-size="13px" width="2px" fill="#323232" font-weight="400" align="middle" anchor="middle" family="微软雅黑" size="13px" weight="400" font-style="" opacity="1" y="1.05" transform="rotate(0)"></text></g></g><g id="SvgjsG1062" transform="translate(389.0124969482422,198)"><path id="SvgjsPath1063" d="M 0 0L 172 0L 172 21L 0 21Z" stroke="none" fill="none"></path><g id="SvgjsG1064"><text id="SvgjsText1065" font-family="微软雅黑" text-anchor="middle" font-size="15px" width="172px" fill="#323232" font-weight="700" align="middle" anchor="middle" family="微软雅黑" size="15px" weight="700" font-style="" opacity="1" y="-0.75" transform="rotate(0)"><tspan id="SvgjsTspan1066" dy="18" x="86"><tspan id="SvgjsTspan1067" style="text-decoration:;">Batches of input data</tspan></tspan></text></g></g><g id="SvgjsG1068" transform="translate(873.0124969482422,222.5)"><path id="SvgjsPath1069" d="M 0 0L 22 0L 22 22L 0 22Z" stroke="rgba(50,50,50,1)" stroke-width="2" fill-opacity="1" fill="#ccccff"></path><g id="SvgjsG1070"><text id="SvgjsText1071" font-family="微软雅黑" text-anchor="middle" font-size="13px" width="2px" fill="#323232" font-weight="400" align="middle" anchor="middle" family="微软雅黑" size="13px" weight="400" font-style="" opacity="1" y="1.05" transform="rotate(0)"></text></g></g><g id="SvgjsG1072" transform="translate(840.0124969482422,222.5)"><path id="SvgjsPath1073" d="M 0 0L 22 0L 22 22L 0 22Z" stroke="rgba(50,50,50,1)" stroke-width="2" fill-opacity="1" fill="#99ccff"></path><g id="SvgjsG1074"><text id="SvgjsText1075" font-family="微软雅黑" text-anchor="middle" font-size="13px" width="2px" fill="#323232" font-weight="400" align="middle" anchor="middle" family="微软雅黑" size="13px" weight="400" font-style="" opacity="1" y="1.05" transform="rotate(0)"></text></g></g><g id="SvgjsG1076" transform="translate(805.0124969482422,222.5)"><path id="SvgjsPath1077" d="M 0 0L 22 0L 22 22L 0 22Z" stroke="rgba(50,50,50,1)" stroke-width="2" fill-opacity="1" fill="#ccffe6"></path><g id="SvgjsG1078"><text id="SvgjsText1079" font-family="微软雅黑" text-anchor="middle" font-size="13px" width="2px" fill="#323232" font-weight="400" align="middle" anchor="middle" family="微软雅黑" size="13px" weight="400" font-style="" opacity="1" y="1.05" transform="rotate(0)"></text></g></g><g id="SvgjsG1080" transform="translate(771.0124969482422,222.5)"><path id="SvgjsPath1081" d="M 0 0L 22 0L 22 22L 0 22Z" stroke="rgba(50,50,50,1)" stroke-width="2" fill-opacity="1" fill="#ffffcc"></path><g id="SvgjsG1082"><text id="SvgjsText1083" font-family="微软雅黑" text-anchor="middle" font-size="13px" width="2px" fill="#323232" font-weight="400" align="middle" anchor="middle" family="微软雅黑" size="13px" weight="400" font-style="" opacity="1" y="1.05" transform="rotate(0)"></text></g></g><g id="SvgjsG1084" transform="translate(911.0124969482422,222.5)"><path id="SvgjsPath1085" d="M 0 0L 22 0L 22 22L 0 22Z" stroke="rgba(50,50,50,1)" stroke-width="2" fill-opacity="1" fill="#ffccff"></path><g id="SvgjsG1086"><text id="SvgjsText1087" font-family="微软雅黑" text-anchor="middle" font-size="13px" width="2px" fill="#323232" font-weight="400" align="middle" anchor="middle" family="微软雅黑" size="13px" weight="400" font-style="" opacity="1" y="1.05" transform="rotate(0)"></text></g></g><g id="SvgjsG1088" transform="translate(771.0124969482422,195)"><path id="SvgjsPath1089" d="M 0 0L 202 0L 202 20L 0 20Z" stroke="none" fill="none"></path><g id="SvgjsG1090"><text id="SvgjsText1091" font-family="微软雅黑" text-anchor="middle" font-size="15px" width="202px" fill="#323232" font-weight="700" align="middle" anchor="middle" family="微软雅黑" size="15px" weight="700" font-style="" opacity="1" y="-1.25" transform="rotate(0)"><tspan id="SvgjsTspan1092" dy="18" x="101"><tspan id="SvgjsTspan1093" style="text-decoration:;">Batches of processed data</tspan></tspan></text></g></g><g id="SvgjsG1094" transform="translate(250.0124969482422,25)"><path id="SvgjsPath1095" d="M 0 0L 392 0L 408 16L 408 49L 0 49L 0 0Z" stroke="none" fill-opacity="1" fill="#ffffaa"></path><path id="SvgjsPath1096" d="M 392 0L 392 16L 408 16Z" stroke="none" fill-opacity="1" fill="#cdcdcd"></path><path id="SvgjsPath1097" d="M 0 0L 392 0L 408 16L 408 49L 0 49L 0 0Z" stroke="none" fill="none"></path><g id="SvgjsG1098"><text id="SvgjsText1099" font-family="微软雅黑" text-anchor="middle" font-size="15px" width="388px" fill="#323232" font-weight="700" align="middle" anchor="middle" family="微软雅黑" size="15px" weight="700" font-style="" opacity="1" y="13.25" transform="rotate(0)"><tspan id="SvgjsTspan1100" dy="18" x="204"><tspan id="SvgjsTspan1101" style="text-decoration:;">How Spark Streaming works</tspan></tspan></text></g></g></svg>